<svg xmlns="http://www.w3.org/2000/svg" xmlns:xlink="http://www.w3.org/1999/xlink" viewBox="0 0 1900 1900" width="1900" height="1900" preserveAspectRatio="xMidYMid meet" style="width: 100%; height: 100%; transform: translate3d(0px, 0px, 0px); content-visibility: visible;"><defs><clipPath id="__lottie_element_1019"><rect width="1900" height="1900" x="0" y="0"/></clipPath><linearGradient id="__lottie_element_1024" spreadMethod="pad" gradientUnits="userSpaceOnUse" x1="-688" y1="0" x2="688" y2="0"><stop offset="0%" stop-color="rgb(213,2,8)"/><stop offset="50%" stop-color="rgb(164,20,55)"/><stop offset="100%" stop-color="rgb(115,38,101)"/></linearGradient></defs><g clip-path="url(#__lottie_element_1019)"><g transform="matrix(1,0,0,1,946,1030)" opacity="1" style="display: block;"><g opacity="1" transform="matrix(1,0,0,1,8,-10)"><path fill="url(#__lottie_element_1024)" fill-opacity="1" d=" M690,-216 C690,-216 690,216 690,216 C690,264.56719970703125 650.5671997070312,304 602,304 C602,304 -602,304 -602,304 C-650.5671997070312,304 -690,264.56719970703125 -690,216 C-690,216 -690,-216 -690,-216 C-690,-264.56719970703125 -650.5671997070312,-304 -602,-304 C-602,-304 602,-304 602,-304 C650.5671997070312,-304 690,-264.56719970703125 690,-216z"/></g></g><g class="ch" transform="matrix(1,0,0,1,504,1050)" opacity="1" fill="rgb(255,255,255)" font-size="126" font-family="Classic Comic" font-style="normal" font-weight="400" aria-label="ifel@ffhs.ch" style="display: block;"><g stroke-linecap="butt" stroke-linejoin="round" stroke-miterlimit="4" transform="matrix(1,0,0,1,0,0)" opacity="1" style="display: inherit;"><g><g transform="matrix(1,0,0,1,0,0)" opacity="1" style="display: block;"><path d=" M17.13,0.13 C23.6,0.13 23.98,-6.34 24.36,-13.07 C25.12,-28.42 25.5,-35.02 25.5,-43.9 C25.5,-54.06 26.52,-72.33 26.52,-77.66 C26.52,-84.89 26.14,-90.98 18.91,-90.98 C9.26,-90.98 7.87,-81.72 7.87,-75.63 C7.87,-70.3 7.49,-57.1 7.49,-28.93 C7.49,-20.3 7.23,-12.05 7.23,-9.39 C7.23,-2.28 8.76,0.13 17.13,0.13z"/><g opacity="1" transform="matrix(1.2599999904632568,0,0,1.2599999904632568,0,0)"/></g></g></g><g stroke-linecap="butt" stroke-linejoin="round" stroke-miterlimit="4" transform="matrix(1,0,0,1,33.64200210571289,0)" opacity="1" style="display: inherit;"><g><g transform="matrix(1,0,0,1,0,0)" opacity="1" style="display: block;"><path d=" M25.89,-34.26 C28.42,-34.9 46.06,-37.31 60.65,-40.1 C69.41,-41.75 72.84,-44.29 72.84,-47.84 C72.84,-52.66 67,-54.18 61.67,-54.18 C52.79,-54.18 34.51,-48.98 26.39,-48.98 C26.39,-54.94 26.01,-64.97 25.89,-70.68 C28.68,-71.06 31.09,-71.69 40.86,-72.71 C50.38,-73.73 57.36,-73.72 60.53,-73.72 C66.37,-73.72 73.85,-75.12 73.85,-83.11 C73.85,-88.57 69.16,-89.71 64.84,-89.71 C57.61,-89.71 44.16,-86.16 20.94,-85.78 C12.94,-85.65 8.38,-83.49 8.38,-78.04 C8.38,-77.28 8.63,-71.69 8.63,-62.43 C8.63,-51.64 8.76,-45.94 8.76,-35.4 C8.76,-16.62 7.36,-12.82 7.23,-5.46 C7.23,-2.79 9.01,-0.13 12.18,-0.13 C21.7,-0.13 26.77,-3.68 26.77,-11.04 C26.77,-18.27 25.89,-30.07 25.89,-34.26z"/><g opacity="1" transform="matrix(1.2599999904632568,0,0,1.2599999904632568,0,0)"/></g></g></g><g stroke-linecap="butt" stroke-linejoin="round" stroke-miterlimit="4" transform="matrix(1,0,0,1,109.6199951171875,0)" opacity="1" style="display: inherit;"><g><g transform="matrix(1,0,0,1,0,0)" opacity="1" style="display: block;"><path d=" M16.5,-84 C10.15,-84 8.88,-76.9 8.63,-72.2 C8.12,-64.97 8.12,-63.45 8.12,-61.8 C7.99,-57.48 8.12,-52.53 8.12,-42.64 C8.12,-33.63 6.6,-19.42 6.6,-12.31 C6.6,-9.39 6.22,-7.74 6.22,-5.96 C6.6,-2.03 9.26,0.38 13.07,0.38 C14.47,0.51 15.23,0.51 16.24,0.51 C31.85,0.51 51.39,-3.43 61.8,-4.31 C69.79,-4.95 74.74,-9.01 74.74,-13.32 C74.74,-17.38 70.55,-19.79 65.22,-19.79 C50.88,-19.79 41.24,-16.37 31.72,-16.37 C29.06,-16.37 26.01,-16.37 24.24,-16.62 C23.98,-18.78 23.98,-22.71 23.98,-25.5 C23.98,-32.61 24.11,-32.99 24.11,-35.15 C38.32,-37.56 47.84,-37.18 60.91,-39.34 C65.35,-40.1 71.19,-43.14 71.19,-47.71 C71.19,-51.39 68.78,-54.18 64.46,-54.18 C55.83,-54.18 40.22,-50.88 24.62,-50.88 C24.62,-53.42 24.74,-52.53 24.74,-55.07 C24.74,-59.39 24.87,-65.6 25.25,-69.28 C29.69,-69.28 47.2,-70.3 66.74,-71.69 C71.19,-71.95 75.5,-76.14 75.5,-80.58 C75.5,-84.76 72.46,-87.81 69.28,-87.81 C63.83,-87.81 44.03,-84 23.48,-84 C23.48,-84 16.5,-84 16.5,-84z"/><g opacity="1" transform="matrix(1.2599999904632568,0,0,1.2599999904632568,0,0)"/></g></g></g><g stroke-linecap="butt" stroke-linejoin="round" stroke-miterlimit="4" transform="matrix(1,0,0,1,186.6060028076172,0)" opacity="1" style="display: inherit;"><g><g transform="matrix(1,0,0,1,0,0)" opacity="1" style="display: block;"><path d=" M59.13,-5.96 C63.07,-6.6 64.71,-13.07 64.71,-15.73 C64.71,-20.43 61.92,-21.83 59,-21.83 C53.29,-21.83 47.84,-20.3 39.59,-18.4 C34.39,-17.13 29.95,-16.62 27.03,-16.62 C25,-16.62 23.73,-17.38 23.73,-18.65 C23.73,-21.45 23.86,-24.36 23.86,-27.41 C23.86,-43.9 24.87,-57.48 24.87,-72.46 C24.87,-76.14 25.63,-79.18 25.63,-82.1 C25.5,-86.03 23.09,-89.21 19.29,-89.21 C12.31,-89.21 6.73,-84.76 6.6,-77.28 C6.6,-73.98 7.11,-70.43 7.23,-44.03 C7.23,-28.68 5.08,-13.32 5.08,-5.58 C5.08,-1.52 6.98,2.03 11.67,2.03 C17.51,2.03 18.4,1.27 28.42,-0.51 C39.21,-2.41 45.43,-3.81 59.13,-5.96z"/><g opacity="1" transform="matrix(1.2599999904632568,0,0,1.2599999904632568,0,0)"/></g></g></g><g stroke-linecap="butt" stroke-linejoin="round" stroke-miterlimit="4" transform="matrix(1,0,0,1,254.01600646972656,0)" opacity="1" style="display: inherit;"><g><g transform="matrix(1,0,0,1,0,0)" opacity="1" style="display: block;"><path d=" M50.88,-34.26 C48.35,-34.26 46.19,-35.78 46.19,-38.19 C46.19,-50.63 59.26,-56.97 65.35,-56.97 C67.76,-56.97 68.65,-56.09 68.65,-54.31 C68.65,-42 57.74,-34.26 50.88,-34.26z M61.67,-24.87 C65.1,-17.38 71.19,-14.21 78.17,-14.21 C102.28,-14.21 110.02,-33.63 110.02,-48.85 C110.02,-75.63 93.27,-96.06 65.6,-96.06 C24.24,-96.06 3.68,-64.84 3.68,-35.28 C3.68,-8.88 19.54,16.12 50.88,16.12 C58.88,16.12 86.16,12.56 86.16,1.4 C86.16,-2.16 83.75,-5.33 79.81,-5.33 C74.87,-5.33 62.94,1.65 52.91,1.65 C29.82,1.65 18.53,-16.12 18.53,-35.15 C18.53,-56.97 33.5,-80.83 63.32,-80.83 C86.03,-80.83 97.71,-69.54 97.71,-50.76 C97.71,-43.02 94.79,-27.16 80.45,-27.16 C77.53,-27.16 74.74,-29.69 74.74,-34.77 C74.74,-39.84 81.34,-51.39 81.34,-60.4 C81.34,-65.98 76.01,-69.92 66.62,-69.92 C49.23,-69.92 30.71,-51.52 30.71,-34.26 C30.71,-26.01 35.28,-19.03 48.35,-19.03 C53.17,-19.03 57.61,-21.7 61.67,-24.87z"/><g opacity="1" transform="matrix(1.2599999904632568,0,0,1.2599999904632568,0,0)"/></g></g></g><g stroke-linecap="butt" stroke-linejoin="round" stroke-miterlimit="4" transform="matrix(1,0,0,1,367.66802978515625,0)" opacity="1" style="display: inherit;"><g><g transform="matrix(1,0,0,1,0,0)" opacity="1" style="display: block;"><path d=" M25.89,-34.26 C28.42,-34.9 46.06,-37.31 60.65,-40.1 C69.41,-41.75 72.84,-44.29 72.84,-47.84 C72.84,-52.66 67,-54.18 61.67,-54.18 C52.79,-54.18 34.51,-48.98 26.39,-48.98 C26.39,-54.94 26.01,-64.97 25.89,-70.68 C28.68,-71.06 31.09,-71.69 40.86,-72.71 C50.38,-73.73 57.36,-73.72 60.53,-73.72 C66.37,-73.72 73.85,-75.12 73.85,-83.11 C73.85,-88.57 69.16,-89.71 64.84,-89.71 C57.61,-89.71 44.16,-86.16 20.94,-85.78 C12.94,-85.65 8.38,-83.49 8.38,-78.04 C8.38,-77.28 8.63,-71.69 8.63,-62.43 C8.63,-51.64 8.76,-45.94 8.76,-35.4 C8.76,-16.62 7.36,-12.82 7.23,-5.46 C7.23,-2.79 9.01,-0.13 12.18,-0.13 C21.7,-0.13 26.77,-3.68 26.77,-11.04 C26.77,-18.27 25.89,-30.07 25.89,-34.26z"/><g opacity="1" transform="matrix(1.2599999904632568,0,0,1.2599999904632568,0,0)"/></g></g></g><g stroke-linecap="butt" stroke-linejoin="round" stroke-miterlimit="4" transform="matrix(1,0,0,1,443.6460266113281,0)" opacity="1" style="display: inherit;"><g><g transform="matrix(1,0,0,1,0,0)" opacity="1" style="display: block;"><path d=" M25.89,-34.26 C28.42,-34.9 46.06,-37.31 60.65,-40.1 C69.41,-41.75 72.84,-44.29 72.84,-47.84 C72.84,-52.66 67,-54.18 61.67,-54.18 C52.79,-54.18 34.51,-48.98 26.39,-48.98 C26.39,-54.94 26.01,-64.97 25.89,-70.68 C28.68,-71.06 31.09,-71.69 40.86,-72.71 C50.38,-73.73 57.36,-73.72 60.53,-73.72 C66.37,-73.72 73.85,-75.12 73.85,-83.11 C73.85,-88.57 69.16,-89.71 64.84,-89.71 C57.61,-89.71 44.16,-86.16 20.94,-85.78 C12.94,-85.65 8.38,-83.49 8.38,-78.04 C8.38,-77.28 8.63,-71.69 8.63,-62.43 C8.63,-51.64 8.76,-45.94 8.76,-35.4 C8.76,-16.62 7.36,-12.82 7.23,-5.46 C7.23,-2.79 9.01,-0.13 12.18,-0.13 C21.7,-0.13 26.77,-3.68 26.77,-11.04 C26.77,-18.27 25.89,-30.07 25.89,-34.26z"/><g opacity="1" transform="matrix(1.2599999904632568,0,0,1.2599999904632568,0,0)"/></g></g></g><g stroke-linecap="butt" stroke-linejoin="round" stroke-miterlimit="4" transform="matrix(1,0,0,1,519.6239624023438,0)" opacity="1" style="display: inherit;"><g><g transform="matrix(1,0,0,1,0,0)" opacity="1" style="display: block;"><path d=" M67,-37.69 C67.13,-35.15 67.25,-31.22 67.25,-28.68 C67.25,-20.05 66.87,-11.8 66.87,-9.14 C66.87,-2.03 68.39,0.38 76.77,0.38 C83.24,0.38 84,-4.06 84,-10.79 C83.88,-26.14 83.75,-36.29 83.75,-45.17 C83.75,-55.33 84.76,-72.84 84.76,-78.17 C84.76,-85.4 81.59,-88.19 73.09,-88.19 C69.79,-88.19 67.63,-86.29 67.38,-83.62 C67.13,-80.2 67.13,-74.23 67.13,-72.84 C67.13,-67.51 67.13,-58.12 67,-52.79 C50.5,-51.77 41.24,-51.01 25.38,-50.88 C26.01,-66.87 27.54,-77.02 27.54,-80.32 C27.54,-83.88 26.27,-88.06 16.75,-88.06 C12.43,-88.06 9.14,-84.76 9.14,-73.98 C9.14,-62.18 7.87,-50.12 7.87,-32.74 C7.87,-25.25 7.99,-14.59 8.38,-6.47 C8.63,-0.89 12.69,1.02 15.48,1.02 C19.54,1.02 24.87,-1.01 24.87,-8.12 C24.87,-14.72 24.62,-20.81 24.62,-26.39 C24.62,-29.82 24.74,-33.12 25,-36.29 C42.51,-37.31 51.9,-37.69 67,-37.69z"/><g opacity="1" transform="matrix(1.2599999904632568,0,0,1.2599999904632568,0,0)"/></g></g></g><g stroke-linecap="butt" stroke-linejoin="round" stroke-miterlimit="4" transform="matrix(1,0,0,1,610.469970703125,0)" opacity="1" style="display: inherit;"><g><g transform="matrix(1,0,0,1,0,0)" opacity="1" style="display: block;"><path d=" M89.97,-35.78 C89.97,-52.15 72.71,-52.28 60.15,-52.28 C52.15,-52.28 42.76,-50.12 31.22,-50.12 C27.03,-50.38 23.98,-51.39 23.98,-53.67 C23.98,-62.18 39.72,-73.98 53.93,-73.98 C64.97,-73.98 66.62,-68.4 71.19,-68.4 C75.63,-68.4 78.67,-71.06 78.67,-75.12 C78.67,-84.13 69.92,-90.09 58.24,-90.09 C28.55,-90.09 3.3,-71.06 3.3,-52.79 C3.3,-39.97 16.5,-35.66 32.99,-35.66 C42.64,-35.66 53.42,-37.31 58.12,-37.31 C63.32,-37.31 69.16,-36.42 69.16,-32.36 C69.16,-21.45 53.8,-15.73 39.08,-15.73 C25.5,-15.73 19.42,-23.86 11.93,-23.86 C8.38,-23.86 6.6,-22.33 6.6,-19.67 C6.6,-17.76 7.61,-15.35 9.52,-12.56 C15.86,-3.55 27.54,0 43.9,0 C72.2,0 89.97,-18.53 89.97,-35.78z"/><g opacity="1" transform="matrix(1.2599999904632568,0,0,1.2599999904632568,0,0)"/></g></g></g><g stroke-linecap="butt" stroke-linejoin="round" stroke-miterlimit="4" transform="matrix(1,0,0,1,702.4500122070312,0)" opacity="1" style="display: inherit;"><g><g transform="matrix(1,0,0,1,0,0)" opacity="1" style="display: block;"><path d=" M15.99,1.14 C24.62,1.14 29.31,-3.93 29.31,-12.82 C29.31,-18.02 27.16,-22.97 20.18,-22.97 C13.07,-22.97 6.34,-17.76 6.34,-9.39 C6.34,-4.44 9.14,1.14 15.99,1.14z"/><g opacity="1" transform="matrix(1.2599999904632568,0,0,1.2599999904632568,0,0)"/></g></g></g><g stroke-linecap="butt" stroke-linejoin="round" stroke-miterlimit="4" transform="matrix(1,0,0,1,737.8560180664062,0)" opacity="1" style="display: inherit;"><g><g transform="matrix(1,0,0,1,0,0)" opacity="1" style="display: block;"><path d=" M81.08,-24.36 C81.08,-27.79 79.18,-30.45 74.99,-30.45 C66.74,-30.45 64.71,-14.97 39.34,-14.97 C30.96,-14.97 22.08,-18.53 22.08,-29.31 C22.08,-48.98 36.8,-72.2 54.56,-72.2 C65.35,-72.2 68.01,-65.22 73.47,-65.22 C77.28,-65.22 80.45,-66.87 80.45,-72.58 C80.45,-84.51 69.28,-89.97 59,-89.97 C33.63,-89.97 3.81,-60.91 3.81,-28.3 C3.81,-8.76 22.21,1.27 42,1.27 C58.12,1.27 81.08,-11.93 81.08,-24.36z"/><g opacity="1" transform="matrix(1.2599999904632568,0,0,1.2599999904632568,0,0)"/></g></g></g><g stroke-linecap="butt" stroke-linejoin="round" stroke-miterlimit="4" transform="matrix(1,0,0,1,821.64599609375,0)" opacity="1" style="display: inherit;"><g><g transform="matrix(1,0,0,1,0,0)" opacity="1" style="display: block;"><path d=" M67,-37.69 C67.13,-35.15 67.25,-31.22 67.25,-28.68 C67.25,-20.05 66.87,-11.8 66.87,-9.14 C66.87,-2.03 68.39,0.38 76.77,0.38 C83.24,0.38 84,-4.06 84,-10.79 C83.88,-26.14 83.75,-36.29 83.75,-45.17 C83.75,-55.33 84.76,-72.84 84.76,-78.17 C84.76,-85.4 81.59,-88.19 73.09,-88.19 C69.79,-88.19 67.63,-86.29 67.38,-83.62 C67.13,-80.2 67.13,-74.23 67.13,-72.84 C67.13,-67.51 67.13,-58.12 67,-52.79 C50.5,-51.77 41.24,-51.01 25.38,-50.88 C26.01,-66.87 27.54,-77.02 27.54,-80.32 C27.54,-83.88 26.27,-88.06 16.75,-88.06 C12.43,-88.06 9.14,-84.76 9.14,-73.98 C9.14,-62.18 7.87,-50.12 7.87,-32.74 C7.87,-25.25 7.99,-14.59 8.38,-6.47 C8.63,-0.89 12.69,1.02 15.48,1.02 C19.54,1.02 24.87,-1.01 24.87,-8.12 C24.87,-14.72 24.62,-20.81 24.62,-26.39 C24.62,-29.82 24.74,-33.12 25,-36.29 C42.51,-37.31 51.9,-37.69 67,-37.69z"/><g opacity="1" transform="matrix(1.2599999904632568,0,0,1.2599999904632568,0,0)"/></g></g></g></g></g></svg>