<svg xmlns="http://www.w3.org/2000/svg" xmlns:xlink="http://www.w3.org/1999/xlink" viewBox="0 0 1900 1900" width="1900" height="1900" preserveAspectRatio="xMidYMid meet" style="width: 100%; height: 100%; transform: translate3d(0px, 0px, 0px); content-visibility: visible;"><defs><clipPath id="__lottie_element_548"><rect width="1900" height="1900" x="0" y="0"/></clipPath><clipPath id="__lottie_element_550"><path d="M0,0 L730,0 L730,246 L0,246z"/></clipPath></defs><g clip-path="url(#__lottie_element_548)"><g clip-path="url(#__lottie_element_550)" transform="matrix(0.9827098846435547,0.1851520985364914,-0.1851520985364914,0.9827098846435547,510.0845947265625,657.546142578125)" opacity="1" style="display: block;"><g transform="matrix(-0.7898799777030945,0,0,0.7898799777030945,671.364501953125,7.990821838378906)" opacity="1" style="display: block;"><g opacity="1" transform="matrix(1,0,0,1,378.5010070800781,140.42999267578125)"><path fill="rgb(255,254,255)" fill-opacity="1" d=" M-104.14900207519531,-97.00499725341797 C-109.64900207519531,-97.00499725341797 -114.14900207519531,-92.50499725341797 -114.14900207519531,-87.00499725341797 C-114.14900207519531,-87.00499725341797 -114.14900207519531,-40.066001892089844 -114.14900207519531,-40.066001892089844 C-114.14900207519531,-34.566001892089844 -118.64900207519531,-30.065000534057617 -124.14900207519531,-30.065000534057617 C-124.14900207519531,-30.065000534057617 -178.90899658203125,-30.065000534057617 -178.90899658203125,-30.065000534057617 C-184.40899658203125,-30.065000534057617 -188.90899658203125,-34.566001892089844 -188.90899658203125,-40.066001892089844 C-188.90899658203125,-40.066001892089844 -188.90899658203125,-84.53500366210938 -188.90899658203125,-84.53500366210938 C-188.90899658203125,-90.03500366210938 -192.80599975585938,-92.28500366210938 -197.56900024414062,-89.53500366210938 C-197.56900024414062,-89.53500366210938 -343.9880065917969,-4.999000072479248 -343.9880065917969,-4.999000072479248 C-348.7510070800781,-2.249000072479248 -348.7510070800781,2.250999927520752 -343.9880065917969,5.000999927520752 C-343.9880065917969,5.000999927520752 -197.56900024414062,89.53500366210938 -197.56900024414062,89.53500366210938 C-192.80599975585938,92.28500366210938 -188.90899658203125,90.03500366210938 -188.90899658203125,84.53500366210938 C-188.90899658203125,84.53500366210938 -188.90899658203125,40.066001892089844 -188.90899658203125,40.066001892089844 C-188.90899658203125,34.566001892089844 -184.40899658203125,30.06599998474121 -178.90899658203125,30.06599998474121 C-178.90899658203125,30.06599998474121 -124.14900207519531,30.06599998474121 -124.14900207519531,30.06599998474121 C-118.64900207519531,30.06599998474121 -114.14900207519531,34.566001892089844 -114.14900207519531,40.066001892089844 C-114.14900207519531,40.066001892089844 -114.14900207519531,87.00499725341797 -114.14900207519531,87.00499725341797 C-114.14900207519531,92.50499725341797 -109.64900207519531,97.00499725341797 -104.14900207519531,97.00499725341797 C-104.14900207519531,97.00499725341797 338.7510070800781,97.00499725341797 338.7510070800781,97.00499725341797 C344.2510070800781,97.00499725341797 348.7510070800781,92.50499725341797 348.7510070800781,87.00499725341797 C348.7510070800781,87.00499725341797 348.7510070800781,-87.00499725341797 348.7510070800781,-87.00499725341797 C348.7510070800781,-92.50499725341797 344.2510070800781,-97.00499725341797 338.7510070800781,-97.00499725341797 C338.7510070800781,-97.00499725341797 -104.14900207519531,-97.00499725341797 -104.14900207519531,-97.00499725341797z"/></g><g opacity="1" transform="matrix(1,0,0,1,379.0639953613281,140.427001953125)"><path fill="rgb(0,0,0)" fill-opacity="1" d=" M-104.71199798583984,-97.00199890136719 C-107.2229995727539,-97.62300109863281 -109.96199798583984,-97.18299865722656 -112.2490005493164,-95.86499786376953 C-114.54199981689453,-94.5510025024414 -116.37899780273438,-92.34400177001953 -117.30799865722656,-89.60199737548828 C-117.51100158691406,-88.91200256347656 -117.70099639892578,-88.19999694824219 -117.78600311279297,-87.46099853515625 C-117.8280029296875,-87.14199829101562 -117.86900329589844,-86.82099914550781 -117.91100311279297,-86.4990005493164 C-117.94400024414062,-86.21299743652344 -117.97599792480469,-85.92500305175781 -118.00900268554688,-85.63500213623047 C-118.13500213623047,-84.4749984741211 -118.24099731445312,-83.28399658203125 -118.3280029296875,-82.04399871826172 C-118.50199890136719,-79.56400299072266 -118.59700012207031,-76.89199829101562 -118.61199951171875,-73.89600372314453 C-118.61699676513672,-72.27300262451172 -118.62300109863281,-69.83699798583984 -118.63099670410156,-66.81700134277344 C-118.63300323486328,-65.30699920654297 -118.63400268554688,-63.6510009765625 -118.63600158691406,-61.87699890136719 C-118.63700103759766,-56.433998107910156 -118.63700103759766,-50.9010009765625 -118.63700103759766,-45.284000396728516 C-118.63700103759766,-43.67900085449219 -118.63800048828125,-42.06800079345703 -118.63800048828125,-40.45199966430664 C-118.62899780273438,-39.97600173950195 -118.66300201416016,-39.83100128173828 -118.66600036621094,-39.5629997253418 C-118.6760025024414,-39.31700134277344 -118.74099731445312,-39.08000183105469 -118.76399993896484,-38.83599853515625 C-118.89099884033203,-38.36399841308594 -119.01300048828125,-37.88600158691406 -119.24800109863281,-37.44900131225586 C-120.08399963378906,-35.6510009765625 -121.91500091552734,-34.30699920654297 -123.88099670410156,-34.05699920654297 C-124.1240005493164,-33.99800109863281 -124.37899780273438,-34.02399826049805 -124.62799835205078,-33.994998931884766 C-124.93399810791016,-33.981998443603516 -125.4260025024414,-33.992000579833984 -125.81600189208984,-33.98899841308594 C-125.81600189208984,-33.98899841308594 -128.30499267578125,-33.98899841308594 -128.30499267578125,-33.98899841308594 C-129.96800231933594,-33.98899841308594 -131.63600158691406,-33.98899841308594 -133.3090057373047,-33.98899841308594 C-136.65699768066406,-33.98899841308594 -140.02499389648438,-33.98899841308594 -143.4149932861328,-33.9900016784668 C-150.19500732421875,-33.9900016784668 -157.0590057373047,-33.9900016784668 -164.0019989013672,-33.9900016784668 C-167.47300720214844,-33.9900016784668 -170.96299743652344,-33.9900016784668 -174.4720001220703,-33.9900016784668 C-174.4720001220703,-33.9900016784668 -177.10800170898438,-33.99100112915039 -177.10800170898438,-33.99100112915039 C-177.10800170898438,-33.99100112915039 -178.42799377441406,-33.99100112915039 -178.42799377441406,-33.99100112915039 C-178.42799377441406,-33.99100112915039 -179.08900451660156,-33.99100112915039 -179.08900451660156,-33.99100112915039 C-179.08900451660156,-33.99100112915039 -179.4199981689453,-33.99100112915039 -179.4199981689453,-33.99100112915039 C-179.5279998779297,-33.99100112915039 -179.56500244140625,-34 -179.64100646972656,-34.00299835205078 C-180.71099853515625,-34.03300094604492 -181.75900268554688,-34.3390007019043 -182.6719970703125,-34.92499923706055 C-183.5959930419922,-35.48400115966797 -184.35000610351562,-36.33599853515625 -184.8560028076172,-37.28499984741211 C-185.11099243164062,-37.763999938964844 -185.2779998779297,-38.27799987792969 -185.40699768066406,-38.79999923706055 C-185.4409942626953,-39.06700134277344 -185.50999450683594,-39.32899856567383 -185.51600646972656,-39.60100173950195 C-185.51600646972656,-39.60100173950195 -185.53900146484375,-40.00699996948242 -185.53900146484375,-40.00699996948242 C-185.54800415039062,-40.159000396728516 -185.54100036621094,-40.435001373291016 -185.54299926757812,-40.643001556396484 C-185.54299926757812,-44.2239990234375 -185.54299926757812,-47.821998596191406 -185.54299926757812,-51.43600082397461 C-185.54299926757812,-58.665000915527344 -185.54299926757812,-65.95899963378906 -185.54299926757812,-73.31300354003906 C-185.54299926757812,-76.98999786376953 -185.54299926757812,-80.68099975585938 -185.54299926757812,-84.38700103759766 C-185.56700134277344,-85.54199981689453 -185.63299560546875,-86.89399719238281 -186.06500244140625,-88.26799774169922 C-186.48399353027344,-89.63999938964844 -187.2239990234375,-91.125 -188.50900268554688,-92.35399627685547 C-189.7729949951172,-93.59300231933594 -191.57699584960938,-94.39199829101562 -193.2469940185547,-94.56199645996094 C-194.9290008544922,-94.75299835205078 -196.43899536132812,-94.45800018310547 -197.7429962158203,-94.01899719238281 C-199.01400756835938,-93.58000183105469 -200.23300170898438,-92.85600280761719 -200.9199981689453,-92.45899963378906 C-200.9199981689453,-92.45899963378906 -203.35000610351562,-91.05599975585938 -203.35000610351562,-91.05599975585938 C-204.97300720214844,-90.11900329589844 -206.5970001220703,-89.18099975585938 -208.22500610351562,-88.24099731445312 C-211.47999572753906,-86.36199951171875 -214.74600219726562,-84.47599792480469 -218.02099609375,-82.58499908447266 C-224.572998046875,-78.8030014038086 -231.1649932861328,-74.99700164794922 -237.79200744628906,-71.1709976196289 C-251.04600524902344,-63.51900100708008 -264.44000244140625,-55.7859992980957 -277.92999267578125,-47.99700164794922 C-291.4209899902344,-40.20800018310547 -305.00799560546875,-32.362998962402344 -318.64801025390625,-24.48699951171875 C-325.4679870605469,-20.549999237060547 -332.302001953125,-16.604000091552734 -339.14300537109375,-12.654000282287598 C-339.14300537109375,-12.654000282287598 -344.2749938964844,-9.690999984741211 -344.2749938964844,-9.690999984741211 C-344.2749938964844,-9.690999984741211 -345.5589904785156,-8.949999809265137 -345.5589904785156,-8.949999809265137 C-345.5589904785156,-8.949999809265137 -346.20001220703125,-8.579000473022461 -346.20001220703125,-8.579000473022461 C-346.20001220703125,-8.579000473022461 -346.52398681640625,-8.392999649047852 -346.52398681640625,-8.392999649047852 C-346.52398681640625,-8.392999649047852 -346.9530029296875,-8.123000144958496 -346.9530029296875,-8.123000144958496 C-348.0880126953125,-7.427000045776367 -349.23199462890625,-6.507999897003174 -350.2139892578125,-5.216000080108643 C-351.18798828125,-3.947000026702881 -351.9849853515625,-2.184000015258789 -352.03900146484375,-0.2370000034570694 C-352.11700439453125,1.7089999914169312 -351.4070129394531,3.5759999752044678 -350.4590148925781,4.9029998779296875 C-349.5060119628906,6.255000114440918 -348.3680114746094,7.193999767303467 -347.23699951171875,7.947000026702881 C-346.9679870605469,8.119000434875488 -346.6319885253906,8.336999893188477 -346.41400146484375,8.463000297546387 C-346.41400146484375,8.463000297546387 -345.77099609375,8.833999633789062 -345.77099609375,8.833999633789062 C-345.77099609375,8.833999633789062 -344.48699951171875,9.576000213623047 -344.48699951171875,9.576000213623047 C-317.0799865722656,25.398000717163086 -289.6340026855469,41.24300003051758 -262.4960021972656,56.90999984741211 C-248.927001953125,64.74400329589844 -235.4340057373047,72.53299713134766 -222.06300354003906,80.25199890136719 C-215.3769989013672,84.11199951171875 -208.7209930419922,87.9540023803711 -202.1009979248047,91.7760009765625 C-202.1009979248047,91.7760009765625 -200.86000061035156,92.49199676513672 -200.86000061035156,92.49199676513672 C-200.86000061035156,92.49199676513672 -200.24000549316406,92.8499984741211 -200.24000549316406,92.8499984741211 C-200.1510009765625,92.90399932861328 -200.02099609375,92.9749984741211 -199.86599731445312,93.05599975585938 C-199.86599731445312,93.05599975585938 -199.4320068359375,93.28299713134766 -199.4320068359375,93.28299713134766 C-198.27200317382812,93.8740005493164 -196.95899963378906,94.38700103759766 -195.38699340820312,94.56099700927734 C-193.84500122070312,94.74600219726562 -191.99899291992188,94.5510025024414 -190.3459930419922,93.677001953125 C-188.6840057373047,92.822998046875 -187.4320068359375,91.36599731445312 -186.73599243164062,89.94200134277344 C-186.02000427246094,88.50399780273438 -185.73300170898438,87.09100341796875 -185.60499572753906,85.76899719238281 C-185.51600646972656,84.31400299072266 -185.56199645996094,83.59600067138672 -185.5500030517578,82.59500122070312 C-185.5500030517578,80.69999694824219 -185.5500030517578,78.80799865722656 -185.5500030517578,76.91899871826172 C-185.55099487304688,69.36299896240234 -185.55099487304688,61.854000091552734 -185.55099487304688,54.39899826049805 C-185.552001953125,50.67100143432617 -185.552001953125,46.957000732421875 -185.552001953125,43.25699996948242 C-185.552001953125,43.25699996948242 -185.552001953125,40.48400115966797 -185.552001953125,40.48400115966797 C-185.56199645996094,39.9379997253418 -185.52099609375,39.79800033569336 -185.52099609375,39.48099899291992 C-185.46499633789062,39.20800018310547 -185.46400451660156,38.92399978637695 -185.37399291992188,38.65999984741211 C-185.12600708007812,37.57500076293945 -184.53799438476562,36.57600021362305 -183.7519989013672,35.76900100708008 C-182.94200134277344,34.986000061035156 -181.94500732421875,34.40800094604492 -180.86900329589844,34.16299819946289 C-180.60499572753906,34.077999114990234 -180.3249969482422,34.073001861572266 -180.0540008544922,34.01900100708008 C-179.74000549316406,34.01900100708008 -179.6020050048828,33.979000091552734 -179.06199645996094,33.98899841308594 C-179.06199645996094,33.98899841308594 -176.32899475097656,33.987998962402344 -176.32899475097656,33.987998962402344 C-172.68899536132812,33.987998962402344 -169.06399536132812,33.987998962402344 -165.45599365234375,33.987998962402344 C-158.24000549316406,33.987998962402344 -151.08999633789062,33.98699951171875 -144.01300048828125,33.98699951171875 C-140.4739990234375,33.98699951171875 -136.9530029296875,33.98699951171875 -133.4510040283203,33.986000061035156 C-131.6999969482422,33.986000061035156 -129.95399475097656,33.986000061035156 -128.21299743652344,33.986000061035156 C-126.55799865722656,34.00699996948242 -124.41400146484375,33.92599868774414 -123.68099975585938,34.084999084472656 C-122.64299774169922,34.23500061035156 -121.68299865722656,34.73699951171875 -120.85299682617188,35.38100051879883 C-120.06300354003906,36.073001861572266 -119.38800048828125,36.93000030517578 -119.04000091552734,37.909000396728516 C-118.8280029296875,38.3849983215332 -118.7509994506836,38.900001525878906 -118.66699981689453,39.40700149536133 C-118.6510009765625,39.5359992980957 -118.65699768066406,39.66699981689453 -118.64700317382812,39.79600143432617 C-118.64199829101562,39.94300079345703 -118.62300109863281,40.005001068115234 -118.62799835205078,40.25699996948242 C-118.62799835205078,40.25699996948242 -118.62799835205078,41.53499984741211 -118.62799835205078,41.53499984741211 C-118.62799835205078,43.236000061035156 -118.62699890136719,44.93199920654297 -118.62699890136719,46.62300109863281 C-118.62699890136719,60.150001525878906 -118.6259994506836,73.33699798583984 -118.625,86.13500213623047 C-118.625,86.13500213623047 -118.625,86.73400115966797 -118.625,86.73400115966797 C-118.625,86.73400115966797 -118.6240005493164,87.04399871826172 -118.6240005493164,87.04399871826172 C-118.6240005493164,87.04399871826172 -118.60700225830078,87.45999908447266 -118.60700225830078,87.45999908447266 C-118.58599853515625,88.01599884033203 -118.552001953125,88.56900024414062 -118.4520034790039,89.11799621582031 C-118.3030014038086,90.22100067138672 -117.96800231933594,91.28900146484375 -117.56400299072266,92.31700134277344 C-116.71499633789062,94.36199951171875 -115.37000274658203,96.16600036621094 -113.71800231933594,97.58999633789062 C-112.06400299072266,99.01599884033203 -110.05400085449219,100.01499938964844 -107.93599700927734,100.52999877929688 C-106.87799835205078,100.7959976196289 -105.78800201416016,100.89800262451172 -104.70999908447266,100.9209976196289 C-104.70999908447266,100.9209976196289 -102.38099670410156,100.9209976196289 -102.38099670410156,100.9209976196289 C-96.18299865722656,100.91999816894531 -90.08799743652344,100.91999816894531 -84.10399627685547,100.91999816894531 C-72.13500213623047,100.91899871826172 -60.60499954223633,100.91799926757812 -49.564998626708984,100.91799926757812 C38.75299835205078,100.91200256347656 95.73600006103516,100.90899658203125 95.73600006103516,100.90899658203125 C95.73600006103516,100.90899658203125 152.71800231933594,100.91200256347656 241.03599548339844,100.91799926757812 C263.114990234375,100.91899871826172 287.15301513671875,100.91999816894531 312.74798583984375,100.9219970703125 C319.1470031738281,100.9219970703125 325.6440124511719,100.9219970703125 332.2309875488281,100.9229965209961 C333.87799072265625,100.9229965209961 335.5299987792969,100.9229965209961 337.18798828125,100.9229965209961 C337.18798828125,100.9229965209961 337.8110046386719,100.9229965209961 337.8110046386719,100.9229965209961 C338.0140075683594,100.9229965209961 338.2070007324219,100.9260025024414 338.52899169921875,100.90899658203125 C339.1059875488281,100.88500213623047 339.6839904785156,100.86100006103516 340.2569885253906,100.75599670410156 C341.4100036621094,100.60600280761719 342.5270080566406,100.24600219726562 343.60699462890625,99.81999969482422 C347.8890075683594,98.00199890136719 351.177001953125,93.95899963378906 351.9079895019531,89.25599670410156 C352.0150146484375,88.67400360107422 352.0669860839844,88.08799743652344 352.0830078125,87.49800109863281 C352.0830078125,87.49800109863281 352.10198974609375,87.05699920654297 352.10198974609375,87.05699920654297 C352.10198974609375,87.05699920654297 352.1029968261719,86.7249984741211 352.1029968261719,86.7249984741211 C352.1029968261719,86.7249984741211 352.1029968261719,86.08899688720703 352.1029968261719,86.08899688720703 C352.1029968261719,86.08899688720703 352.1029968261719,83.54199981689453 352.1029968261719,83.54199981689453 C352.1029968261719,81.83999633789062 352.10400390625,80.13400268554688 352.10400390625,78.4219970703125 C352.10400390625,74.9990005493164 352.10400390625,71.55500030517578 352.10400390625,68.09200286865234 C352.1050109863281,61.165000915527344 352.1050109863281,54.15999984741211 352.1050109863281,47.082000732421875 C352.1059875488281,18.77199935913086 352.1080017089844,-10.694999694824219 352.1090087890625,-40.91899871826172 C352.1099853515625,-56.03099822998047 352.1099853515625,-71.33200073242188 352.1109924316406,-86.77200317382812 C352.11700439453125,-86.97000122070312 352.09600830078125,-87.36799621582031 352.08099365234375,-87.68900299072266 C352.0570068359375,-88.02400207519531 352.05999755859375,-88.36100006103516 352,-88.69400024414062 C351.9119873046875,-89.36299896240234 351.79400634765625,-90.0260009765625 351.6050109863281,-90.67500305175781 C351.2430114746094,-91.97200012207031 350.7130126953125,-93.23100280761719 349.9840087890625,-94.36100006103516 C348.5639953613281,-96.64299774169922 346.4739990234375,-98.49299621582031 344.02099609375,-99.6259994506836 C342.7969970703125,-100.18800354003906 341.4880065917969,-100.60399627685547 340.1440124511719,-100.7750015258789 C339.4840087890625,-100.89900207519531 338.7799987792969,-100.89199829101562 338.1419982910156,-100.92500305175781 C338.1419982910156,-100.92500305175781 336.68499755859375,-100.92500305175781 336.68499755859375,-100.92500305175781 C334.7430114746094,-100.92500305175781 332.79901123046875,-100.92500305175781 330.8529968261719,-100.92500305175781 C323.07000732421875,-100.92500305175781 315.2590026855469,-100.9260025024414 307.42498779296875,-100.9260025024414 C151.20700073242188,-100.91600036621094 -19.191999435424805,-100.90599822998047 -75.91200256347656,-100.9020004272461 C-87.89900207519531,-100.84200286865234 -94.697998046875,-99.49400329589844 -104.71199798583984,-97.00199890136719 C-94.697998046875,-94.51000213623047 -87.89900207519531,-93.16200256347656 -75.91200256347656,-93.10099792480469 C-19.191999435424805,-93.09700012207031 151.20700073242188,-93.08599853515625 307.42498779296875,-93.07599639892578 C315.2590026855469,-93.07599639892578 323.07000732421875,-93.0770034790039 330.8529968261719,-93.0770034790039 C332.79901123046875,-93.0770034790039 334.7430114746094,-93.0770034790039 336.68499755859375,-93.0770034790039 C336.68499755859375,-93.0770034790039 338.1419982910156,-93.0770034790039 338.1419982910156,-93.0770034790039 C338.4700012207031,-93.04199981689453 338.7439880371094,-93.07499694824219 339.03900146484375,-93.00499725341797 C339.62200927734375,-92.94200134277344 340.1809997558594,-92.7490005493164 340.7149963378906,-92.50900268554688 C341.781005859375,-92.02100372314453 342.7170104980469,-91.1969985961914 343.3340148925781,-90.19499969482422 C343.6629943847656,-89.7030029296875 343.8810119628906,-89.15299987792969 344.03900146484375,-88.59400177001953 C344.12701416015625,-88.31500244140625 344.1700134277344,-88.0270004272461 344.2120056152344,-87.73799896240234 C344.24798583984375,-87.59600067138672 344.2300109863281,-87.4469985961914 344.2439880371094,-87.3010025024414 C344.2489929199219,-87.13999938964844 344.2699890136719,-87.05599975585938 344.2640075683594,-86.77200317382812 C344.2650146484375,-71.33200073242188 344.2659912109375,-56.03099822998047 344.2659912109375,-40.91899871826172 C344.2669982910156,-10.694999694824219 344.2690124511719,18.77199935913086 344.2699890136719,47.082000732421875 C344.2699890136719,54.15999984741211 344.27099609375,61.165000915527344 344.27099609375,68.09200286865234 C344.27099609375,71.55500030517578 344.27099609375,74.9990005493164 344.2720031738281,78.4219970703125 C344.2720031738281,80.13400268554688 344.2720031738281,81.83999633789062 344.2720031738281,83.54199981689453 C344.2720031738281,83.54199981689453 344.2720031738281,86.08899688720703 344.2720031738281,86.08899688720703 C344.2720031738281,86.08899688720703 344.2720031738281,86.7249984741211 344.2720031738281,86.7249984741211 C344.2720031738281,86.7249984741211 344.2699890136719,87.02899932861328 344.2699890136719,87.02899932861328 C344.2699890136719,87.02899932861328 344.2569885253906,87.22200012207031 344.2569885253906,87.22200012207031 C344.25201416015625,87.48100280761719 344.2330017089844,87.73600006103516 344.1809997558594,87.98699951171875 C343.8869934082031,90.01100158691406 342.4049987792969,91.81500244140625 340.5419921875,92.61399841308594 C340.0669860839844,92.78299713134766 339.5920104980469,92.96199798583984 339.0889892578125,93.01300048828125 C338.8429870605469,93.06900024414062 338.5889892578125,93.06500244140625 338.3370056152344,93.08200073242188 C338.2439880371094,93.09500122070312 338.0220031738281,93.09400177001953 337.8110046386719,93.09300231933594 C337.8110046386719,93.09300231933594 337.18798828125,93.09300231933594 337.18798828125,93.09300231933594 C335.5299987792969,93.09300231933594 333.87799072265625,93.09300231933594 332.2309875488281,93.09400177001953 C325.6440124511719,93.09400177001953 319.1470031738281,93.09400177001953 312.74798583984375,93.09500122070312 C287.15301513671875,93.09600067138672 263.114990234375,93.09700012207031 241.03599548339844,93.0989990234375 C152.71800231933594,93.10399627685547 95.73600006103516,93.10800170898438 95.73600006103516,93.10800170898438 C95.73600006103516,93.10800170898438 38.75299835205078,93.10399627685547 -49.564998626708984,93.0989990234375 C-60.60499954223633,93.0979995727539 -72.13500213623047,93.09700012207031 -84.10399627685547,93.09700012207031 C-90.08799743652344,93.09600067138672 -96.18299865722656,93.09600067138672 -102.38099670410156,93.09600067138672 C-102.38099670410156,93.09600067138672 -104.70999908447266,93.09600067138672 -104.70999908447266,93.09600067138672 C-105.18499755859375,93.0719985961914 -105.65699768066406,93.04199981689453 -106.11399841308594,92.91999816894531 C-107.0250015258789,92.69200134277344 -107.91100311279297,92.27200317382812 -108.64099884033203,91.63400268554688 C-109.36699676513672,90.9990005493164 -109.96700286865234,90.2040023803711 -110.33599853515625,89.31500244140625 C-110.5,88.86399841308594 -110.66300201416016,88.40799713134766 -110.71600341796875,87.9280014038086 C-110.76799774169922,87.69200134277344 -110.77400207519531,87.4489974975586 -110.78399658203125,87.20600128173828 C-110.78399658203125,87.20600128173828 -110.7969970703125,87.02400207519531 -110.7969970703125,87.02400207519531 C-110.7969970703125,87.02400207519531 -110.7979965209961,86.73400115966797 -110.7979965209961,86.73400115966797 C-110.7979965209961,86.73400115966797 -110.7979965209961,86.13500213623047 -110.7979965209961,86.13500213623047 C-110.7979965209961,73.33699798583984 -110.7969970703125,60.150001525878906 -110.7959976196289,46.62300109863281 C-110.7959976196289,44.93199920654297 -110.7959976196289,43.236000061035156 -110.7959976196289,41.53499984741211 C-110.7959976196289,41.53499984741211 -110.7959976196289,40.25699996948242 -110.7959976196289,40.25699996948242 C-110.79100036621094,40.08399963378906 -110.80999755859375,39.72100067138672 -110.822998046875,39.44200134277344 C-110.84100341796875,39.145999908447266 -110.8479995727539,38.8489990234375 -110.88200378417969,38.55400085449219 C-111.03900146484375,37.37699890136719 -111.27799987792969,36.19599914550781 -111.73200225830078,35.0890007019043 C-112.56800079345703,32.84700012207031 -114.0459976196289,30.885000228881836 -115.86299896240234,29.3439998626709 C-117.71600341796875,27.850000381469727 -119.9489974975586,26.75 -122.34300231933594,26.367000579833984 C-123.50499725341797,26.131999969482422 -124.88600158691406,26.158000946044922 -125.60399627685547,26.152999877929688 C-125.60399627685547,26.152999877929688 -128.21299743652344,26.152000427246094 -128.21299743652344,26.152000427246094 C-129.95399475097656,26.152000427246094 -131.6999969482422,26.152000427246094 -133.4510040283203,26.152000427246094 C-136.9530029296875,26.152000427246094 -140.4739990234375,26.152000427246094 -144.01300048828125,26.152000427246094 C-151.08999633789062,26.150999069213867 -158.24000549316406,26.150999069213867 -165.45599365234375,26.150999069213867 C-169.06399536132812,26.150999069213867 -172.68899536132812,26.150999069213867 -176.32899475097656,26.149999618530273 C-176.32899475097656,26.149999618530273 -179.06199645996094,26.149999618530273 -179.06199645996094,26.149999618530273 C-179.43499755859375,26.13800048828125 -180.20700073242188,26.18000030517578 -180.80499267578125,26.216999053955078 C-181.4340057373047,26.30500030517578 -182.072998046875,26.368999481201172 -182.68800354003906,26.538000106811523 C-185.18099975585938,27.1200008392334 -187.47000122070312,28.43000030517578 -189.2830047607422,30.214000701904297 C-191.07400512695312,32.01900100708008 -192.4040069580078,34.310001373291016 -192.99600219726562,36.821998596191406 C-193.17100524902344,37.44200134277344 -193.23199462890625,38.08700180053711 -193.32400512695312,38.72200012207031 C-193.36199951171875,39.32699966430664 -193.4040069580078,40.106998443603516 -193.39199829101562,40.48400115966797 C-193.39199829101562,40.48400115966797 -193.39199829101562,43.25699996948242 -193.39199829101562,43.25699996948242 C-193.39199829101562,46.957000732421875 -193.39199829101562,50.67100143432617 -193.39199829101562,54.39899826049805 C-193.39300537109375,61.854000091552734 -193.39300537109375,69.36299896240234 -193.39300537109375,76.91899871826172 C-193.39300537109375,78.80799865722656 -193.39300537109375,80.69999694824219 -193.3939971923828,82.59500122070312 C-193.39500427246094,83.48699951171875 -193.38499450683594,84.66699981689453 -193.4199981689453,85.10700225830078 C-193.4770050048828,85.66899871826172 -193.60299682617188,86.13999938964844 -193.73699951171875,86.40499877929688 C-193.8780059814453,86.68099975585938 -193.95599365234375,86.71099853515625 -193.99099731445312,86.73100280761719 C-194.02699279785156,86.74700164794922 -194.1510009765625,86.802001953125 -194.49600219726562,86.76799774169922 C-194.8249969482422,86.74600219726562 -195.33200073242188,86.57599639892578 -195.86199951171875,86.2969970703125 C-195.86199951171875,86.2969970703125 -196.06399536132812,86.19400024414062 -196.06399536132812,86.19400024414062 C-196.1219940185547,86.16799926757812 -196.20199584960938,86.1259994506836 -196.3179931640625,86.05699920654297 C-196.3179931640625,86.05699920654297 -196.93800354003906,85.6989974975586 -196.93800354003906,85.6989974975586 C-196.93800354003906,85.6989974975586 -198.1790008544922,84.98200225830078 -198.1790008544922,84.98200225830078 C-204.79800415039062,81.16000366210938 -211.45399475097656,77.31700134277344 -218.13999938964844,73.45700073242188 C-231.51100158691406,65.73600006103516 -245.0019989013672,57.94599914550781 -258.5710144042969,50.11199951171875 C-285.7080078125,34.44300079345703 -313.15301513671875,18.597000122070312 -340.5589904785156,2.7730000019073486 C-340.5589904785156,2.7730000019073486 -341.843994140625,2.0309998989105225 -341.843994140625,2.0309998989105225 C-341.843994140625,2.0309998989105225 -342.4859924316406,1.6610000133514404 -342.4859924316406,1.6610000133514404 C-342.69500732421875,1.5379999876022339 -342.76800537109375,1.4769999980926514 -342.9179992675781,1.3860000371932983 C-343.4289855957031,1.0509999990463257 -343.8240051269531,0.6859999895095825 -344.0119934082031,0.414000004529953 C-344.2049865722656,0.13099999725818634 -344.19000244140625,0.03400000184774399 -344.18701171875,-0.004000000189989805 C-344.1809997558594,-0.04100000113248825 -344.16900634765625,-0.1809999942779541 -343.9490051269531,-0.47699999809265137 C-343.739990234375,-0.7630000114440918 -343.3389892578125,-1.1380000114440918 -342.7860107421875,-1.4630000591278076 C-342.7860107421875,-1.4630000591278076 -342.59100341796875,-1.5920000076293945 -342.59100341796875,-1.5920000076293945 C-342.59100341796875,-1.5920000076293945 -342.27301025390625,-1.7760000228881836 -342.27301025390625,-1.7760000228881836 C-342.27301025390625,-1.7760000228881836 -341.6310119628906,-2.1470000743865967 -341.6310119628906,-2.1470000743865967 C-341.6310119628906,-2.1470000743865967 -340.34698486328125,-2.888000011444092 -340.34698486328125,-2.888000011444092 C-340.34698486328125,-2.888000011444092 -335.2149963378906,-5.85099983215332 -335.2149963378906,-5.85099983215332 C-328.3739929199219,-9.800999641418457 -321.5400085449219,-13.746000289916992 -314.7200012207031,-17.683000564575195 C-301.0799865722656,-25.558000564575195 -287.49200439453125,-33.402000427246094 -274.0010070800781,-41.191001892089844 C-260.510986328125,-48.97999954223633 -247.11700439453125,-56.7130012512207 -233.86300659179688,-64.36499786376953 C-227.23599243164062,-68.19100189208984 -220.6439971923828,-71.99700164794922 -214.0919952392578,-75.77899932861328 C-210.8159942626953,-77.66999816894531 -207.5500030517578,-79.55699920654297 -204.2949981689453,-81.43599700927734 C-202.66799926757812,-82.375 -201.04299926757812,-83.31400299072266 -199.42100524902344,-84.25 C-199.42100524902344,-84.25 -196.99000549316406,-85.65299987792969 -196.99000549316406,-85.65299987792969 C-196.06199645996094,-86.19300079345703 -195.656005859375,-86.41200256347656 -195.16299438476562,-86.59600067138672 C-194.70199584960938,-86.74800109863281 -194.33299255371094,-86.77999877929688 -194.16099548339844,-86.75700378417969 C-193.98199462890625,-86.72699737548828 -194.00399780273438,-86.7229995727539 -193.9320068359375,-86.66699981689453 C-193.86700439453125,-86.60900115966797 -193.71499633789062,-86.4000015258789 -193.59100341796875,-86.00399780273438 C-193.5679931640625,-85.8949966430664 -193.5399932861328,-85.78900146484375 -193.50599670410156,-85.68299865722656 C-193.50599670410156,-85.68299865722656 -193.4530029296875,-85.2979965209961 -193.4530029296875,-85.2979965209961 C-193.42300415039062,-85.177001953125 -193.427001953125,-85.0250015258789 -193.42100524902344,-84.87899780273438 C-193.41799926757812,-84.70899963378906 -193.3990020751953,-84.63999938964844 -193.4010009765625,-84.38700103759766 C-193.4010009765625,-80.68099975585938 -193.4010009765625,-76.98999786376953 -193.4010009765625,-73.31300354003906 C-193.4010009765625,-65.95899963378906 -193.4010009765625,-58.665000915527344 -193.4010009765625,-51.43600082397461 C-193.4010009765625,-47.821998596191406 -193.4010009765625,-44.2239990234375 -193.4010009765625,-40.643001556396484 C-193.4010009765625,-40.643001556396484 -193.39599609375,-39.93600082397461 -193.39599609375,-39.93600082397461 C-193.39599609375,-39.93600082397461 -193.35000610351562,-39.00299835205078 -193.35000610351562,-39.00299835205078 C-193.3179931640625,-38.38199996948242 -193.197998046875,-37.763999938964844 -193.08900451660156,-37.152000427246094 C-192.81100463867188,-35.935001373291016 -192.4010009765625,-34.749000549316406 -191.8209991455078,-33.650001525878906 C-190.66600036621094,-31.45800018310547 -188.95199584960938,-29.570999145507812 -186.85400390625,-28.27400016784668 C-184.7740020751953,-26.947999954223633 -182.3159942626953,-26.21299934387207 -179.85899353027344,-26.149999618530273 C-179.85899353027344,-26.149999618530273 -179.4199981689453,-26.134000778198242 -179.4199981689453,-26.134000778198242 C-179.4199981689453,-26.134000778198242 -179.08900451660156,-26.134000778198242 -179.08900451660156,-26.134000778198242 C-179.08900451660156,-26.134000778198242 -178.42799377441406,-26.134000778198242 -178.42799377441406,-26.134000778198242 C-178.42799377441406,-26.134000778198242 -177.10800170898438,-26.134000778198242 -177.10800170898438,-26.134000778198242 C-177.10800170898438,-26.134000778198242 -174.4720001220703,-26.134000778198242 -174.4720001220703,-26.134000778198242 C-170.96299743652344,-26.134000778198242 -167.47300720214844,-26.134000778198242 -164.0019989013672,-26.134000778198242 C-157.0590057373047,-26.135000228881836 -150.19500732421875,-26.135000228881836 -143.4149932861328,-26.135000228881836 C-140.02499389648438,-26.135000228881836 -136.65699768066406,-26.135000228881836 -133.3090057373047,-26.135000228881836 C-131.63600158691406,-26.135000228881836 -129.96800231933594,-26.135000228881836 -128.30499267578125,-26.13599967956543 C-128.30499267578125,-26.13599967956543 -125.81600189208984,-26.13599967956543 -125.81600189208984,-26.13599967956543 C-125.37699890136719,-26.138999938964844 -125.04100036621094,-26.128000259399414 -124.5199966430664,-26.14299964904785 C-123.94499969482422,-26.176000595092773 -123.36799621582031,-26.173999786376953 -122.79900360107422,-26.27899932861328 C-118.19999694824219,-26.891000747680664 -114.12000274658203,-29.924999237060547 -112.18000030517578,-34.02799987792969 C-111.66699981689453,-35.04100036621094 -111.33399963378906,-36.1349983215332 -111.0770034790039,-37.237998962402344 C-110.98799896240234,-37.79600143432617 -110.87699890136719,-38.35499954223633 -110.84100341796875,-38.91699981689453 C-110.80899810791016,-39.457000732421875 -110.7760009765625,-40.11899948120117 -110.78600311279297,-40.45199966430664 C-110.78600311279297,-42.06800079345703 -110.78600311279297,-43.67900085449219 -110.78600311279297,-45.284000396728516 C-110.78700256347656,-50.9010009765625 -110.78700256347656,-56.433998107910156 -110.78700256347656,-61.87699890136719 C-110.78900146484375,-63.6510009765625 -110.79100036621094,-65.30699920654297 -110.79299926757812,-66.81700134277344 C-110.8010025024414,-69.83699798583984 -110.80699920654297,-72.27300262451172 -110.81199645996094,-73.89600372314453 C-110.8270034790039,-76.89199829101562 -110.9229965209961,-79.56400299072266 -111.09600067138672,-82.04399871826172 C-111.18299865722656,-83.28399658203125 -111.29000091552734,-84.4749984741211 -111.41600036621094,-85.63500213623047 C-111.47899627685547,-86.1780014038086 -111.54100036621094,-86.71299743652344 -111.60299682617188,-87.24299621582031 C-111.67500305175781,-87.63800048828125 -111.68000030517578,-88.03299713134766 -111.7030029296875,-88.44100189208984 C-111.67900085449219,-90.04100036621094 -111.2249984741211,-91.77200317382812 -110.10600280761719,-93.3499984741211 C-108.99400329589844,-94.90599822998047 -107.2300033569336,-96.35700225830078 -104.71199798583984,-97.00199890136719z"/></g></g><g transform="matrix(1.0000039339065552,0,0,1.0000039339065552,139.58885192871094,148.6645050048828)" opacity="1" fill="rgb(0,0,0)" font-size="86" font-family="Classic Comic" font-style="normal" font-weight="400" aria-label="tansu" style="display: block;"><g stroke-linecap="butt" stroke-linejoin="round" stroke-miterlimit="4" transform="matrix(1,0,0,1,0,0)" opacity="1" style="display: inherit;"><g><g transform="matrix(1,0,0,1,0,0)" opacity="1" style="display: block;"><path d=" M33.86,-49.71 C36.55,-50.41 42.61,-51.1 47.81,-51.1 C51.97,-51.1 54.04,-53.44 54.04,-56.99 C54.04,-61.15 51.19,-61.84 48.41,-61.84 C44,-61.84 39.93,-60.8 26.42,-59.76 C12.73,-58.72 8.49,-58.2 4.5,-56.3 C2.68,-55.43 1.39,-52.66 1.39,-49.71 C1.39,-47.55 2.68,-45.73 5.37,-45.73 C7.36,-45.73 17.15,-48.15 22,-48.24 C22,-43.82 22.35,-37.24 22.35,-32.13 C22.35,-22.95 21.31,-15.33 21.31,-6.76 C21.31,-1.9 22.43,-0.09 26.85,-0.09 C33.43,-0.09 33.69,-9.53 33.69,-14.29 C33.69,-22.17 34.04,-29.62 34.04,-39.67 C34.04,-42.44 33.86,-46.77 33.86,-49.71z"/><g opacity="1" transform="matrix(0.8600000143051147,0,0,0.8600000143051147,0,0)"/></g></g></g><g stroke-linecap="butt" stroke-linejoin="round" stroke-miterlimit="4" transform="matrix(1,0,0,1,55.125999450683594,0)" opacity="1" style="display: inherit;"><g><g transform="matrix(1,0,0,1,0,0)" opacity="1" style="display: block;"><path d=" M41.92,-25.72 C36.38,-25.29 29.36,-25.03 23.73,-24.77 C27.72,-33.34 32.05,-41.83 33,-41.83 C34.12,-41.83 38.02,-34.3 41.92,-25.72z M46.16,-16.28 C48.24,-11.69 49.97,-7.54 51.1,-4.85 C52.57,-1.21 55.17,-0.17 58.11,-0.17 C62.27,-0.17 64,-2.08 64,-5.8 C64,-9.01 54.48,-27.37 45.3,-44.34 C42.52,-49.37 39.75,-56.47 37.67,-60.11 C36.55,-62.01 34.38,-62.62 32.31,-62.62 C28.75,-62.62 26.68,-59.5 25.38,-55.6 C21.39,-43.3 10.74,-23.9 3.03,-8.57 C2.25,-7.02 1.65,-5.46 1.65,-3.9 C1.65,-1.47 3.55,0.09 6.06,0.09 C12.65,0.09 14.55,-3.12 16.8,-8.92 C17.32,-10.31 18.19,-12.38 19.23,-14.81 C26.33,-15.5 38.11,-15.5 46.16,-16.28z"/><g opacity="1" transform="matrix(0.8600000143051147,0,0,0.8600000143051147,0,0)"/></g></g></g><g stroke-linecap="butt" stroke-linejoin="round" stroke-miterlimit="4" transform="matrix(1,0,0,1,119.97000122070312,0)" opacity="1" style="display: inherit;"><g><g transform="matrix(1,0,0,1,0,0)" opacity="1" style="display: block;"><path d=" M16.8,-32.82 C24.51,-22.34 40.19,-1.13 50.75,-1.13 C53.96,-1.13 56.38,-3.03 56.38,-5.72 C56.38,-8.75 54.74,-21.13 54.74,-33.86 C54.74,-40.88 56.12,-56.3 56.12,-58.98 C56.12,-61.49 53.61,-63.4 50.49,-63.4 C47.2,-63.4 43.74,-62.01 43.74,-55.86 C43.74,-54.56 43.82,-52.31 43.82,-50.67 C43.82,-34.12 43.56,-31.18 43.39,-18.01 C24.51,-36.03 18.28,-60.28 8.4,-60.28 C6.06,-60.28 4.68,-58.29 4.68,-56.38 C4.68,-51.79 5.2,-41.23 5.2,-31.53 C5.2,-27.37 4.85,-18.02 4.5,-14.38 C4.33,-12.04 4.16,-8.66 4.16,-6.15 C4.16,-2.16 7.54,0.09 10.74,0.09 C13.94,0.09 16.37,-2.25 16.37,-5.46 C16.37,-7.19 16.46,-9.18 16.46,-11.87 C16.46,-15.42 16.71,-20.61 16.8,-32.82z"/><g opacity="1" transform="matrix(0.8600000143051147,0,0,0.8600000143051147,0,0)"/></g></g></g><g stroke-linecap="butt" stroke-linejoin="round" stroke-miterlimit="4" transform="matrix(1,0,0,1,179.5679931640625,0)" opacity="1" style="display: inherit;"><g><g transform="matrix(1,0,0,1,0,0)" opacity="1" style="display: block;"><path d=" M61.41,-24.42 C61.41,-35.6 49.63,-35.68 41.05,-35.68 C35.6,-35.68 29.19,-34.21 21.31,-34.21 C18.45,-34.38 16.37,-35.08 16.37,-36.64 C16.37,-42.44 27.11,-50.49 36.81,-50.49 C44.34,-50.49 45.47,-46.68 48.59,-46.68 C51.62,-46.68 53.7,-48.5 53.7,-51.27 C53.7,-57.42 47.72,-61.49 39.75,-61.49 C19.49,-61.49 2.25,-48.5 2.25,-36.03 C2.25,-27.28 11.26,-24.34 22.52,-24.34 C29.1,-24.34 36.46,-25.46 39.67,-25.46 C43.22,-25.46 47.2,-24.86 47.2,-22.09 C47.2,-14.64 36.72,-10.74 26.68,-10.74 C17.41,-10.74 13.25,-16.28 8.14,-16.28 C5.72,-16.28 4.5,-15.24 4.5,-13.42 C4.5,-12.13 5.2,-10.48 6.5,-8.57 C10.83,-2.43 18.79,0 29.97,0 C49.28,0 61.41,-12.65 61.41,-24.42z"/><g opacity="1" transform="matrix(0.8600000143051147,0,0,0.8600000143051147,0,0)"/></g></g></g><g stroke-linecap="butt" stroke-linejoin="round" stroke-miterlimit="4" transform="matrix(1,0,0,1,242.34799194335938,0)" opacity="1" style="display: inherit;"><g><g transform="matrix(1,0,0,1,0,0)" opacity="1" style="display: block;"><path d=" M46.94,-7.02 C47.55,-2.34 49.45,0.26 52.92,0.26 C56.82,0.26 59.07,-1.04 59.07,-6.84 C59.07,-10.74 57.85,-19.66 57.85,-26.24 C57.85,-35.68 58.55,-42.44 59.59,-51.19 C59.76,-53 60.11,-54.74 60.11,-56.21 C60.11,-59.15 58.63,-61.67 55.26,-61.67 C51.88,-61.67 46.51,-58.98 46.51,-52.57 C46.51,-49.8 46.68,-47.29 46.68,-44.78 C46.68,-38.71 46.42,-33 46.08,-25.38 C45.9,-22 45.04,-18.53 42.7,-16.11 C38.89,-12.21 34.3,-10.48 26.68,-10.48 C20.27,-10.48 15.94,-12.21 15.94,-18.1 C15.94,-25.38 17.24,-33.78 17.84,-37.76 C18.62,-43.04 20.09,-47.29 20.09,-52.31 C20.09,-57.77 17.49,-60.63 13.68,-60.63 C7.19,-60.63 6.58,-51.27 6.06,-44.26 C5.37,-34.73 3.2,-23.38 3.2,-17.58 C3.2,-2.6 16.37,1.13 28.75,1.13 C38.02,1.13 43.82,-2.86 46.94,-7.02z"/><g opacity="1" transform="matrix(0.8600000143051147,0,0,0.8600000143051147,0,0)"/></g></g></g></g></g></g></svg>