<svg xmlns="http://www.w3.org/2000/svg" xmlns:xlink="http://www.w3.org/1999/xlink" viewBox="0 0 1900 552" width="1900" height="552" preserveAspectRatio="xMidYMid meet" style="width: 100%; height: 100%; transform: translate3d(0px, 0px, 0px); content-visibility: visible;"><defs><clipPath id="__lottie_element_35"><rect width="1900" height="552" x="0" y="0"/></clipPath></defs><g clip-path="url(#__lottie_element_35)"><g transform="matrix(1,0,0,1,932,232)" opacity="1" fill="rgb(0,0,0)" font-size="86" font-family="Classic Comic" font-style="normal" font-weight="400" aria-label="scroll down to unfold the story" style="display: block;"><g stroke-linecap="butt" stroke-linejoin="round" stroke-miterlimit="4" transform="matrix(1,0,0,1,-334.5829772949219,0)" opacity="1" style="display: inherit;"><g><g transform="matrix(1,0,0,1,0,0)" opacity="1" style="display: block;"><path d=" M61.41,-24.42 C61.41,-35.6 49.63,-35.68 41.05,-35.68 C35.6,-35.68 29.19,-34.21 21.31,-34.21 C18.45,-34.38 16.37,-35.08 16.37,-36.64 C16.37,-42.44 27.11,-50.49 36.81,-50.49 C44.34,-50.49 45.47,-46.68 48.59,-46.68 C51.62,-46.68 53.7,-48.5 53.7,-51.27 C53.7,-57.42 47.72,-61.49 39.75,-61.49 C19.49,-61.49 2.25,-48.5 2.25,-36.03 C2.25,-27.28 11.26,-24.34 22.52,-24.34 C29.1,-24.34 36.46,-25.46 39.67,-25.46 C43.22,-25.46 47.2,-24.86 47.2,-22.09 C47.2,-14.64 36.72,-10.74 26.68,-10.74 C17.41,-10.74 13.25,-16.28 8.14,-16.28 C5.72,-16.28 4.5,-15.24 4.5,-13.42 C4.5,-12.13 5.2,-10.48 6.5,-8.57 C10.83,-2.43 18.79,0 29.97,0 C49.28,0 61.41,-12.65 61.41,-24.42z"/><g opacity="1" transform="matrix(0.8600000143051147,0,0,0.8600000143051147,0,0)"/></g></g></g><g stroke-linecap="butt" stroke-linejoin="round" stroke-miterlimit="4" transform="matrix(1,0,0,1,-271.8030090332031,0)" opacity="1" style="display: inherit;"><g><g transform="matrix(1,0,0,1,0,0)" opacity="1" style="display: block;"><path d=" M55.34,-16.63 C55.34,-18.97 54.04,-20.79 51.19,-20.79 C45.56,-20.79 44.17,-10.22 26.85,-10.22 C21.13,-10.22 15.07,-12.65 15.07,-20.01 C15.07,-33.43 25.12,-49.28 37.24,-49.28 C44.6,-49.28 46.42,-44.52 50.15,-44.52 C52.74,-44.52 54.91,-45.64 54.91,-49.54 C54.91,-57.68 47.29,-61.41 40.27,-61.41 C22.95,-61.41 2.6,-41.57 2.6,-19.31 C2.6,-5.98 15.16,0.87 28.67,0.87 C39.67,0.87 55.34,-8.14 55.34,-16.63z"/><g opacity="1" transform="matrix(0.8600000143051147,0,0,0.8600000143051147,0,0)"/></g></g></g><g stroke-linecap="butt" stroke-linejoin="round" stroke-miterlimit="4" transform="matrix(1,0,0,1,-214.61300659179688,0)" opacity="1" style="display: inherit;"><g><g transform="matrix(1,0,0,1,0,0)" opacity="1" style="display: block;"><path d=" M17.93,-47.81 C24.34,-49.8 29.45,-49.97 33.78,-49.97 C38.54,-49.97 42.53,-49.71 42.53,-46.16 C42.53,-38.71 27.89,-33.17 17.93,-32.91 C17.93,-32.91 17.93,-47.81 17.93,-47.81z M18.1,-22.86 C22.78,-18.97 28.06,-14.38 29.97,-12.47 C37.07,-5.02 42.44,-0.35 47.81,-0.35 C50.67,-0.35 53.7,-1.99 53.7,-5.2 C53.7,-8.31 49.28,-11.52 40.53,-18.97 C38.02,-21.05 35.6,-23.3 33.26,-25.38 C47.29,-29.62 56.12,-38.28 56.12,-47.81 C56.12,-57.42 47.29,-60.97 35.25,-60.97 C22.08,-60.97 7.27,-59.59 5.63,-55.78 C4.94,-54.22 4.94,-52.31 4.94,-49.54 C4.94,-45.12 5.37,-39.41 5.37,-35.25 C5.37,-31.09 5.54,-27.11 5.54,-22.61 C5.54,-16.28 4.76,-11 4.76,-4.5 C4.76,-1.73 6.32,0.43 8.66,0.43 C17.15,0.43 18.1,-5.11 18.1,-7.62 C18.1,-10.83 17.93,-13.25 17.93,-15.68 C17.93,-18.1 17.93,-20.53 18.1,-22.86z"/><g opacity="1" transform="matrix(0.8600000143051147,0,0,0.8600000143051147,0,0)"/></g></g></g><g stroke-linecap="butt" stroke-linejoin="round" stroke-miterlimit="4" transform="matrix(1,0,0,1,-156.7349853515625,0)" opacity="1" style="display: inherit;"><g><g transform="matrix(1,0,0,1,0,0)" opacity="1" style="display: block;"><path d=" M74.05,-38.11 C74.05,-53.52 61.06,-62.44 47.63,-62.44 C27.19,-62.44 3.46,-44.69 3.46,-23.04 C3.46,-7.79 13.94,0 29.97,0 C49.11,0 74.05,-13.08 74.05,-38.11z M62.44,-36.2 C62.44,-21.39 46.08,-10.22 29.45,-10.22 C22.69,-10.22 15.94,-13.6 15.94,-22.26 C15.94,-37.42 32.05,-52.23 46.34,-52.23 C55.52,-52.23 62.44,-46.94 62.44,-36.2z"/><g opacity="1" transform="matrix(0.8600000143051147,0,0,0.8600000143051147,0,0)"/></g></g></g><g stroke-linecap="butt" stroke-linejoin="round" stroke-miterlimit="4" transform="matrix(1,0,0,1,-79.85099792480469,0)" opacity="1" style="display: inherit;"><g><g transform="matrix(1,0,0,1,0,0)" opacity="1" style="display: block;"><path d=" M40.36,-4.07 C43.04,-4.5 44.17,-8.92 44.17,-10.74 C44.17,-13.94 42.26,-14.9 40.27,-14.9 C36.38,-14.9 32.65,-13.86 27.02,-12.56 C23.47,-11.69 20.44,-11.35 18.45,-11.35 C17.06,-11.35 16.2,-11.87 16.2,-12.73 C16.2,-14.64 16.28,-16.63 16.28,-18.71 C16.28,-29.97 16.98,-39.23 16.98,-49.45 C16.98,-51.97 17.49,-54.04 17.49,-56.04 C17.41,-58.72 15.76,-60.89 13.16,-60.89 C8.4,-60.89 4.59,-57.85 4.5,-52.74 C4.5,-50.49 4.85,-48.07 4.94,-30.05 C4.94,-19.57 3.46,-9.09 3.46,-3.81 C3.46,-1.04 4.76,1.39 7.97,1.39 C11.95,1.39 12.56,0.87 19.4,-0.35 C26.76,-1.65 31.01,-2.6 40.36,-4.07z"/><g opacity="1" transform="matrix(0.8600000143051147,0,0,0.8600000143051147,0,0)"/></g></g></g><g stroke-linecap="butt" stroke-linejoin="round" stroke-miterlimit="4" transform="matrix(1,0,0,1,-33.840999603271484,0)" opacity="1" style="display: inherit;"><g><g transform="matrix(1,0,0,1,0,0)" opacity="1" style="display: block;"><path d=" M40.36,-4.07 C43.04,-4.5 44.17,-8.92 44.17,-10.74 C44.17,-13.94 42.26,-14.9 40.27,-14.9 C36.38,-14.9 32.65,-13.86 27.02,-12.56 C23.47,-11.69 20.44,-11.35 18.45,-11.35 C17.06,-11.35 16.2,-11.87 16.2,-12.73 C16.2,-14.64 16.28,-16.63 16.28,-18.71 C16.28,-29.97 16.98,-39.23 16.98,-49.45 C16.98,-51.97 17.49,-54.04 17.49,-56.04 C17.41,-58.72 15.76,-60.89 13.16,-60.89 C8.4,-60.89 4.59,-57.85 4.5,-52.74 C4.5,-50.49 4.85,-48.07 4.94,-30.05 C4.94,-19.57 3.46,-9.09 3.46,-3.81 C3.46,-1.04 4.76,1.39 7.97,1.39 C11.95,1.39 12.56,0.87 19.4,-0.35 C26.76,-1.65 31.01,-2.6 40.36,-4.07z"/><g opacity="1" transform="matrix(0.8600000143051147,0,0,0.8600000143051147,0,0)"/></g></g></g><g stroke-linecap="butt" stroke-linejoin="round" stroke-miterlimit="4" transform="matrix(1,0,0,1,12.168987274169922,0)" opacity="1" style="display: inherit;"><g><g style="display: none;"/></g></g><g stroke-linecap="butt" stroke-linejoin="round" stroke-miterlimit="4" transform="matrix(1,0,0,1,44.84901428222656,0)" opacity="1" style="display: inherit;"><g><g transform="matrix(1,0,0,1,0,0)" opacity="1" style="display: block;"><path d=" M19.05,-47.63 C24.34,-49.37 31.27,-51.1 37.07,-51.1 C43.3,-51.1 48.24,-49.11 48.24,-43.13 C48.24,-34.04 38.89,-18.88 26.24,-14.38 C23.99,-13.6 21.39,-12.73 19.31,-12.73 C18.28,-12.73 17.06,-12.9 17.06,-14.12 C17.06,-17.67 19.05,-38.28 19.05,-47.12 C19.05,-47.12 19.05,-47.63 19.05,-47.63z M60.45,-46.86 C60.45,-58.11 46.08,-60.8 36.72,-60.8 C29.19,-60.8 18.97,-58.98 13.34,-57.94 C8.66,-57.08 5.63,-54.48 5.63,-49.11 C5.63,-46.77 5.89,-36.03 5.89,-27.28 C5.89,-19.23 4.94,-9.61 4.94,-3.2 C4.94,0.43 6.93,0.69 9.44,0.69 C40.36,0.43 60.45,-28.23 60.45,-46.86z"/><g opacity="1" transform="matrix(0.8600000143051147,0,0,0.8600000143051147,0,0)"/></g></g></g><g stroke-linecap="butt" stroke-linejoin="round" stroke-miterlimit="4" transform="matrix(1,0,0,1,106.59700775146484,0)" opacity="1" style="display: inherit;"><g><g transform="matrix(1,0,0,1,0,0)" opacity="1" style="display: block;"><path d=" M74.05,-38.11 C74.05,-53.52 61.06,-62.44 47.63,-62.44 C27.19,-62.44 3.46,-44.69 3.46,-23.04 C3.46,-7.79 13.94,0 29.97,0 C49.11,0 74.05,-13.08 74.05,-38.11z M62.44,-36.2 C62.44,-21.39 46.08,-10.22 29.45,-10.22 C22.69,-10.22 15.94,-13.6 15.94,-22.26 C15.94,-37.42 32.05,-52.23 46.34,-52.23 C55.52,-52.23 62.44,-46.94 62.44,-36.2z"/><g opacity="1" transform="matrix(0.8600000143051147,0,0,0.8600000143051147,0,0)"/></g></g></g><g stroke-linecap="butt" stroke-linejoin="round" stroke-miterlimit="4" transform="matrix(1,0,0,1,183.48101806640625,0)" opacity="1" style="display: inherit;"><g><g transform="matrix(1,0,0,1,0,0)" opacity="1" style="display: block;"><path d=" M41.83,-43.56 C37.67,-36.46 31.27,-26.5 27.02,-19.31 C22.17,-30.23 18.19,-45.12 15.33,-54.91 C14.03,-59.5 10.57,-62.1 6.84,-62.1 C3.98,-62.1 2.25,-59.5 2.25,-56.99 C2.25,-53.09 7.36,-37.67 14.72,-19.83 C16.89,-14.55 18.88,-7.19 20.61,-3.38 C21.74,-0.87 24.51,-0.26 26.94,-0.26 C29.62,-0.26 31.27,-3.72 32.48,-6.5 C36.29,-14.81 41.49,-24.25 46.16,-31.87 C48.15,-25.9 50.23,-21.22 51.1,-19.23 C52.92,-14.98 54.22,-11.26 57.51,-3.29 C58.29,-1.3 59.07,0 61.49,0 C66.86,0 70.76,-11 73.1,-16.11 C74.22,-18.53 75.35,-21.31 76.82,-24.51 C86.52,-45.21 90.25,-54.82 90.25,-57.6 C90.25,-60.19 87.47,-62.1 84.79,-62.1 C78.21,-62.1 75.78,-58.2 75.18,-49.89 C75,-47.55 73.7,-44.95 72.15,-41.49 C70.41,-37.5 64.52,-25.03 62.01,-20.87 C60.8,-23.3 54.13,-39.93 53,-45.12 C52.31,-48.33 51.36,-54.56 51.36,-57.25 C51.36,-60.28 49.97,-61.93 47.03,-61.93 C41.14,-61.93 39.06,-59.5 39.06,-55.17 C39.06,-53.52 39.32,-51.45 39.93,-49.28 C39.93,-49.28 41.83,-43.56 41.83,-43.56z"/><g opacity="1" transform="matrix(0.8600000143051147,0,0,0.8600000143051147,0,0)"/></g></g></g><g stroke-linecap="butt" stroke-linejoin="round" stroke-miterlimit="4" transform="matrix(1,0,0,1,274.9849853515625,0)" opacity="1" style="display: inherit;"><g><g transform="matrix(1,0,0,1,0,0)" opacity="1" style="display: block;"><path d=" M16.8,-32.82 C24.51,-22.34 40.19,-1.13 50.75,-1.13 C53.96,-1.13 56.38,-3.03 56.38,-5.72 C56.38,-8.75 54.74,-21.13 54.74,-33.86 C54.74,-40.88 56.12,-56.3 56.12,-58.98 C56.12,-61.49 53.61,-63.4 50.49,-63.4 C47.2,-63.4 43.74,-62.01 43.74,-55.86 C43.74,-54.56 43.82,-52.31 43.82,-50.67 C43.82,-34.12 43.56,-31.18 43.39,-18.01 C24.51,-36.03 18.28,-60.28 8.4,-60.28 C6.06,-60.28 4.68,-58.29 4.68,-56.38 C4.68,-51.79 5.2,-41.23 5.2,-31.53 C5.2,-27.37 4.85,-18.02 4.5,-14.38 C4.33,-12.04 4.16,-8.66 4.16,-6.15 C4.16,-2.16 7.54,0.09 10.74,0.09 C13.94,0.09 16.37,-2.25 16.37,-5.46 C16.37,-7.19 16.46,-9.18 16.46,-11.87 C16.46,-15.42 16.71,-20.61 16.8,-32.82z"/><g opacity="1" transform="matrix(0.8600000143051147,0,0,0.8600000143051147,0,0)"/></g></g></g><g stroke-linecap="butt" stroke-linejoin="round" stroke-miterlimit="4" transform="matrix(1,0,0,1,334.5829772949219,0)" opacity="1" style="display: inherit;"><g><g style="display: none;"/></g></g><g stroke-linecap="butt" stroke-linejoin="round" stroke-miterlimit="4" style="display: inherit;"><g><g style="display: none;"/></g></g><g stroke-linecap="butt" stroke-linejoin="round" stroke-miterlimit="4" transform="matrix(1,0,0,1,-533.2000122070312,104.20000457763672)" opacity="1" style="display: inherit;"><g><g transform="matrix(1,0,0,1,0,0)" opacity="1" style="display: block;"><path d=" M33.86,-49.71 C36.55,-50.41 42.61,-51.1 47.81,-51.1 C51.97,-51.1 54.04,-53.44 54.04,-56.99 C54.04,-61.15 51.19,-61.84 48.41,-61.84 C44,-61.84 39.93,-60.8 26.42,-59.76 C12.73,-58.72 8.49,-58.2 4.5,-56.3 C2.68,-55.43 1.39,-52.66 1.39,-49.71 C1.39,-47.55 2.68,-45.73 5.37,-45.73 C7.36,-45.73 17.15,-48.15 22,-48.24 C22,-43.82 22.35,-37.24 22.35,-32.13 C22.35,-22.95 21.31,-15.33 21.31,-6.76 C21.31,-1.9 22.43,-0.09 26.85,-0.09 C33.43,-0.09 33.69,-9.53 33.69,-14.29 C33.69,-22.17 34.04,-29.62 34.04,-39.67 C34.04,-42.44 33.86,-46.77 33.86,-49.71z"/><g opacity="1" transform="matrix(0.8600000143051147,0,0,0.8600000143051147,0,0)"/></g></g></g><g stroke-linecap="butt" stroke-linejoin="round" stroke-miterlimit="4" transform="matrix(1,0,0,1,-478.0740051269531,104.20000457763672)" opacity="1" style="display: inherit;"><g><g transform="matrix(1,0,0,1,0,0)" opacity="1" style="display: block;"><path d=" M74.05,-38.11 C74.05,-53.52 61.06,-62.44 47.63,-62.44 C27.19,-62.44 3.46,-44.69 3.46,-23.04 C3.46,-7.79 13.94,0 29.97,0 C49.11,0 74.05,-13.08 74.05,-38.11z M62.44,-36.2 C62.44,-21.39 46.08,-10.22 29.45,-10.22 C22.69,-10.22 15.94,-13.6 15.94,-22.26 C15.94,-37.42 32.05,-52.23 46.34,-52.23 C55.52,-52.23 62.44,-46.94 62.44,-36.2z"/><g opacity="1" transform="matrix(0.8600000143051147,0,0,0.8600000143051147,0,0)"/></g></g></g><g stroke-linecap="butt" stroke-linejoin="round" stroke-miterlimit="4" transform="matrix(1,0,0,1,-401.19000244140625,104.20000457763672)" opacity="1" style="display: inherit;"><g><g style="display: none;"/></g></g><g stroke-linecap="butt" stroke-linejoin="round" stroke-miterlimit="4" transform="matrix(1,0,0,1,-368.5099792480469,104.20000457763672)" opacity="1" style="display: inherit;"><g><g transform="matrix(1,0,0,1,0,0)" opacity="1" style="display: block;"><path d=" M46.94,-7.02 C47.55,-2.34 49.45,0.26 52.92,0.26 C56.82,0.26 59.07,-1.04 59.07,-6.84 C59.07,-10.74 57.85,-19.66 57.85,-26.24 C57.85,-35.68 58.55,-42.44 59.59,-51.19 C59.76,-53 60.11,-54.74 60.11,-56.21 C60.11,-59.15 58.63,-61.67 55.26,-61.67 C51.88,-61.67 46.51,-58.98 46.51,-52.57 C46.51,-49.8 46.68,-47.29 46.68,-44.78 C46.68,-38.71 46.42,-33 46.08,-25.38 C45.9,-22 45.04,-18.53 42.7,-16.11 C38.89,-12.21 34.3,-10.48 26.68,-10.48 C20.27,-10.48 15.94,-12.21 15.94,-18.1 C15.94,-25.38 17.24,-33.78 17.84,-37.76 C18.62,-43.04 20.09,-47.29 20.09,-52.31 C20.09,-57.77 17.49,-60.63 13.68,-60.63 C7.19,-60.63 6.58,-51.27 6.06,-44.26 C5.37,-34.73 3.2,-23.38 3.2,-17.58 C3.2,-2.6 16.37,1.13 28.75,1.13 C38.02,1.13 43.82,-2.86 46.94,-7.02z"/><g opacity="1" transform="matrix(0.8600000143051147,0,0,0.8600000143051147,0,0)"/></g></g></g><g stroke-linecap="butt" stroke-linejoin="round" stroke-miterlimit="4" transform="matrix(1,0,0,1,-305.47198486328125,104.20000457763672)" opacity="1" style="display: inherit;"><g><g transform="matrix(1,0,0,1,0,0)" opacity="1" style="display: block;"><path d=" M16.8,-32.82 C24.51,-22.34 40.19,-1.13 50.75,-1.13 C53.96,-1.13 56.38,-3.03 56.38,-5.72 C56.38,-8.75 54.74,-21.13 54.74,-33.86 C54.74,-40.88 56.12,-56.3 56.12,-58.98 C56.12,-61.49 53.61,-63.4 50.49,-63.4 C47.2,-63.4 43.74,-62.01 43.74,-55.86 C43.74,-54.56 43.82,-52.31 43.82,-50.67 C43.82,-34.12 43.56,-31.18 43.39,-18.01 C24.51,-36.03 18.28,-60.28 8.4,-60.28 C6.06,-60.28 4.68,-58.29 4.68,-56.38 C4.68,-51.79 5.2,-41.23 5.2,-31.53 C5.2,-27.37 4.85,-18.02 4.5,-14.38 C4.33,-12.04 4.16,-8.66 4.16,-6.15 C4.16,-2.16 7.54,0.09 10.74,0.09 C13.94,0.09 16.37,-2.25 16.37,-5.46 C16.37,-7.19 16.46,-9.18 16.46,-11.87 C16.46,-15.42 16.71,-20.61 16.8,-32.82z"/><g opacity="1" transform="matrix(0.8600000143051147,0,0,0.8600000143051147,0,0)"/></g></g></g><g stroke-linecap="butt" stroke-linejoin="round" stroke-miterlimit="4" transform="matrix(1,0,0,1,-245.87400817871094,104.20000457763672)" opacity="1" style="display: inherit;"><g><g transform="matrix(1,0,0,1,0,0)" opacity="1" style="display: block;"><path d=" M17.67,-23.38 C19.4,-23.82 31.44,-25.46 41.4,-27.37 C47.37,-28.49 49.71,-30.23 49.71,-32.65 C49.71,-35.94 45.73,-36.98 42.09,-36.98 C36.03,-36.98 23.56,-33.43 18.01,-33.43 C18.01,-37.5 17.75,-44.34 17.67,-48.24 C19.57,-48.5 21.22,-48.93 27.89,-49.63 C34.38,-50.32 39.15,-50.32 41.31,-50.32 C45.3,-50.32 50.41,-51.27 50.41,-56.73 C50.41,-60.45 47.2,-61.23 44.26,-61.23 C39.32,-61.23 30.14,-58.81 14.29,-58.55 C8.83,-58.46 5.72,-56.99 5.72,-53.26 C5.72,-52.74 5.89,-48.93 5.89,-42.61 C5.89,-35.25 5.98,-31.35 5.98,-24.16 C5.98,-11.35 5.02,-8.75 4.94,-3.72 C4.94,-1.9 6.15,-0.09 8.31,-0.09 C14.81,-0.09 18.27,-2.51 18.27,-7.54 C18.27,-12.47 17.67,-20.53 17.67,-23.38z"/><g opacity="1" transform="matrix(0.8600000143051147,0,0,0.8600000143051147,0,0)"/></g></g></g><g stroke-linecap="butt" stroke-linejoin="round" stroke-miterlimit="4" transform="matrix(1,0,0,1,-194.0159912109375,104.20000457763672)" opacity="1" style="display: inherit;"><g><g transform="matrix(1,0,0,1,0,0)" opacity="1" style="display: block;"><path d=" M74.05,-38.11 C74.05,-53.52 61.06,-62.44 47.63,-62.44 C27.19,-62.44 3.46,-44.69 3.46,-23.04 C3.46,-7.79 13.94,0 29.97,0 C49.11,0 74.05,-13.08 74.05,-38.11z M62.44,-36.2 C62.44,-21.39 46.08,-10.22 29.45,-10.22 C22.69,-10.22 15.94,-13.6 15.94,-22.26 C15.94,-37.42 32.05,-52.23 46.34,-52.23 C55.52,-52.23 62.44,-46.94 62.44,-36.2z"/><g opacity="1" transform="matrix(0.8600000143051147,0,0,0.8600000143051147,0,0)"/></g></g></g><g stroke-linecap="butt" stroke-linejoin="round" stroke-miterlimit="4" transform="matrix(1,0,0,1,-117.13201141357422,104.20000457763672)" opacity="1" style="display: inherit;"><g><g transform="matrix(1,0,0,1,0,0)" opacity="1" style="display: block;"><path d=" M40.36,-4.07 C43.04,-4.5 44.17,-8.92 44.17,-10.74 C44.17,-13.94 42.26,-14.9 40.27,-14.9 C36.38,-14.9 32.65,-13.86 27.02,-12.56 C23.47,-11.69 20.44,-11.35 18.45,-11.35 C17.06,-11.35 16.2,-11.87 16.2,-12.73 C16.2,-14.64 16.28,-16.63 16.28,-18.71 C16.28,-29.97 16.98,-39.23 16.98,-49.45 C16.98,-51.97 17.49,-54.04 17.49,-56.04 C17.41,-58.72 15.76,-60.89 13.16,-60.89 C8.4,-60.89 4.59,-57.85 4.5,-52.74 C4.5,-50.49 4.85,-48.07 4.94,-30.05 C4.94,-19.57 3.46,-9.09 3.46,-3.81 C3.46,-1.04 4.76,1.39 7.97,1.39 C11.95,1.39 12.56,0.87 19.4,-0.35 C26.76,-1.65 31.01,-2.6 40.36,-4.07z"/><g opacity="1" transform="matrix(0.8600000143051147,0,0,0.8600000143051147,0,0)"/></g></g></g><g stroke-linecap="butt" stroke-linejoin="round" stroke-miterlimit="4" transform="matrix(1,0,0,1,-71.12198638916016,104.20000457763672)" opacity="1" style="display: inherit;"><g><g transform="matrix(1,0,0,1,0,0)" opacity="1" style="display: block;"><path d=" M19.05,-47.63 C24.34,-49.37 31.27,-51.1 37.07,-51.1 C43.3,-51.1 48.24,-49.11 48.24,-43.13 C48.24,-34.04 38.89,-18.88 26.24,-14.38 C23.99,-13.6 21.39,-12.73 19.31,-12.73 C18.28,-12.73 17.06,-12.9 17.06,-14.12 C17.06,-17.67 19.05,-38.28 19.05,-47.12 C19.05,-47.12 19.05,-47.63 19.05,-47.63z M60.45,-46.86 C60.45,-58.11 46.08,-60.8 36.72,-60.8 C29.19,-60.8 18.97,-58.98 13.34,-57.94 C8.66,-57.08 5.63,-54.48 5.63,-49.11 C5.63,-46.77 5.89,-36.03 5.89,-27.28 C5.89,-19.23 4.94,-9.61 4.94,-3.2 C4.94,0.43 6.93,0.69 9.44,0.69 C40.36,0.43 60.45,-28.23 60.45,-46.86z"/><g opacity="1" transform="matrix(0.8600000143051147,0,0,0.8600000143051147,0,0)"/></g></g></g><g stroke-linecap="butt" stroke-linejoin="round" stroke-miterlimit="4" transform="matrix(1,0,0,1,-9.374008178710938,104.20000457763672)" opacity="1" style="display: inherit;"><g><g style="display: none;"/></g></g><g stroke-linecap="butt" stroke-linejoin="round" stroke-miterlimit="4" transform="matrix(1,0,0,1,23.305994033813477,104.20000457763672)" opacity="1" style="display: inherit;"><g><g transform="matrix(1,0,0,1,0,0)" opacity="1" style="display: block;"><path d=" M33.86,-49.71 C36.55,-50.41 42.61,-51.1 47.81,-51.1 C51.97,-51.1 54.04,-53.44 54.04,-56.99 C54.04,-61.15 51.19,-61.84 48.41,-61.84 C44,-61.84 39.93,-60.8 26.42,-59.76 C12.73,-58.72 8.49,-58.2 4.5,-56.3 C2.68,-55.43 1.39,-52.66 1.39,-49.71 C1.39,-47.55 2.68,-45.73 5.37,-45.73 C7.36,-45.73 17.15,-48.15 22,-48.24 C22,-43.82 22.35,-37.24 22.35,-32.13 C22.35,-22.95 21.31,-15.33 21.31,-6.76 C21.31,-1.9 22.43,-0.09 26.85,-0.09 C33.43,-0.09 33.69,-9.53 33.69,-14.29 C33.69,-22.17 34.04,-29.62 34.04,-39.67 C34.04,-42.44 33.86,-46.77 33.86,-49.71z"/><g opacity="1" transform="matrix(0.8600000143051147,0,0,0.8600000143051147,0,0)"/></g></g></g><g stroke-linecap="butt" stroke-linejoin="round" stroke-miterlimit="4" transform="matrix(1,0,0,1,78.4320297241211,104.20000457763672)" opacity="1" style="display: inherit;"><g><g transform="matrix(1,0,0,1,0,0)" opacity="1" style="display: block;"><path d=" M45.73,-25.72 C45.82,-23.99 45.9,-21.31 45.9,-19.57 C45.9,-13.68 45.64,-8.05 45.64,-6.24 C45.64,-1.39 46.68,0.26 52.4,0.26 C56.82,0.26 57.34,-2.77 57.34,-7.36 C57.25,-17.84 57.16,-24.77 57.16,-30.83 C57.16,-37.76 57.85,-49.71 57.85,-53.35 C57.85,-58.29 55.69,-60.19 49.89,-60.19 C47.64,-60.19 46.16,-58.89 45.99,-57.08 C45.82,-54.74 45.82,-50.67 45.82,-49.71 C45.82,-46.08 45.82,-39.67 45.73,-36.03 C34.47,-35.34 28.15,-34.82 17.32,-34.73 C17.76,-45.64 18.79,-52.57 18.79,-54.82 C18.79,-57.25 17.93,-60.11 11.43,-60.11 C8.49,-60.11 6.24,-57.85 6.24,-50.49 C6.24,-42.44 5.37,-34.21 5.37,-22.35 C5.37,-17.24 5.46,-9.96 5.72,-4.42 C5.89,-0.61 8.66,0.69 10.57,0.69 C13.34,0.69 16.98,-0.69 16.98,-5.54 C16.98,-10.05 16.8,-14.2 16.8,-18.01 C16.8,-20.35 16.89,-22.6 17.06,-24.77 C29.01,-25.46 35.42,-25.72 45.73,-25.72z"/><g opacity="1" transform="matrix(0.8600000143051147,0,0,0.8600000143051147,0,0)"/></g></g></g><g stroke-linecap="butt" stroke-linejoin="round" stroke-miterlimit="4" transform="matrix(1,0,0,1,140.43798828125,104.20000457763672)" opacity="1" style="display: inherit;"><g><g transform="matrix(1,0,0,1,0,0)" opacity="1" style="display: block;"><path d=" M11.26,-57.34 C6.93,-57.34 6.06,-52.48 5.89,-49.28 C5.54,-44.34 5.54,-43.3 5.54,-42.18 C5.46,-39.23 5.54,-35.86 5.54,-29.1 C5.54,-22.95 4.5,-13.25 4.5,-8.4 C4.5,-6.41 4.24,-5.28 4.24,-4.07 C4.5,-1.39 6.32,0.26 8.92,0.26 C9.87,0.35 10.39,0.35 11.09,0.35 C21.74,0.35 35.08,-2.34 42.18,-2.94 C47.64,-3.38 51.01,-6.15 51.01,-9.09 C51.01,-11.87 48.15,-13.51 44.52,-13.51 C34.73,-13.51 28.15,-11.17 21.65,-11.17 C19.83,-11.17 17.75,-11.17 16.54,-11.35 C16.37,-12.82 16.37,-15.5 16.37,-17.41 C16.37,-22.26 16.46,-22.52 16.46,-23.99 C26.16,-25.64 32.65,-25.38 41.57,-26.85 C44.6,-27.37 48.59,-29.45 48.59,-32.56 C48.59,-35.08 46.94,-36.98 44,-36.98 C38.11,-36.98 27.45,-34.73 16.8,-34.73 C16.8,-36.46 16.89,-35.86 16.89,-37.59 C16.89,-40.53 16.98,-44.78 17.24,-47.29 C20.27,-47.29 32.22,-47.98 45.56,-48.93 C48.59,-49.11 51.53,-51.97 51.53,-55 C51.53,-57.85 49.45,-59.93 47.29,-59.93 C43.57,-59.93 30.05,-57.34 16.02,-57.34 C16.02,-57.34 11.26,-57.34 11.26,-57.34z"/><g opacity="1" transform="matrix(0.8600000143051147,0,0,0.8600000143051147,0,0)"/></g></g></g><g stroke-linecap="butt" stroke-linejoin="round" stroke-miterlimit="4" transform="matrix(1,0,0,1,192.98399353027344,104.20000457763672)" opacity="1" style="display: inherit;"><g><g style="display: none;"/></g></g><g stroke-linecap="butt" stroke-linejoin="round" stroke-miterlimit="4" transform="matrix(1,0,0,1,225.66400146484375,104.20000457763672)" opacity="1" style="display: inherit;"><g><g transform="matrix(1,0,0,1,0,0)" opacity="1" style="display: block;"><path d=" M61.41,-24.42 C61.41,-35.6 49.63,-35.68 41.05,-35.68 C35.6,-35.68 29.19,-34.21 21.31,-34.21 C18.45,-34.38 16.37,-35.08 16.37,-36.64 C16.37,-42.44 27.11,-50.49 36.81,-50.49 C44.34,-50.49 45.47,-46.68 48.59,-46.68 C51.62,-46.68 53.7,-48.5 53.7,-51.27 C53.7,-57.42 47.72,-61.49 39.75,-61.49 C19.49,-61.49 2.25,-48.5 2.25,-36.03 C2.25,-27.28 11.26,-24.34 22.52,-24.34 C29.1,-24.34 36.46,-25.46 39.67,-25.46 C43.22,-25.46 47.2,-24.86 47.2,-22.09 C47.2,-14.64 36.72,-10.74 26.68,-10.74 C17.41,-10.74 13.25,-16.28 8.14,-16.28 C5.72,-16.28 4.5,-15.24 4.5,-13.42 C4.5,-12.13 5.2,-10.48 6.5,-8.57 C10.83,-2.43 18.79,0 29.97,0 C49.28,0 61.41,-12.65 61.41,-24.42z"/><g opacity="1" transform="matrix(0.8600000143051147,0,0,0.8600000143051147,0,0)"/></g></g></g><g stroke-linecap="butt" stroke-linejoin="round" stroke-miterlimit="4" transform="matrix(1,0,0,1,288.4439697265625,104.20000457763672)" opacity="1" style="display: inherit;"><g><g transform="matrix(1,0,0,1,0,0)" opacity="1" style="display: block;"><path d=" M33.86,-49.71 C36.55,-50.41 42.61,-51.1 47.81,-51.1 C51.97,-51.1 54.04,-53.44 54.04,-56.99 C54.04,-61.15 51.19,-61.84 48.41,-61.84 C44,-61.84 39.93,-60.8 26.42,-59.76 C12.73,-58.72 8.49,-58.2 4.5,-56.3 C2.68,-55.43 1.39,-52.66 1.39,-49.71 C1.39,-47.55 2.68,-45.73 5.37,-45.73 C7.36,-45.73 17.15,-48.15 22,-48.24 C22,-43.82 22.35,-37.24 22.35,-32.13 C22.35,-22.95 21.31,-15.33 21.31,-6.76 C21.31,-1.9 22.43,-0.09 26.85,-0.09 C33.43,-0.09 33.69,-9.53 33.69,-14.29 C33.69,-22.17 34.04,-29.62 34.04,-39.67 C34.04,-42.44 33.86,-46.77 33.86,-49.71z"/><g opacity="1" transform="matrix(0.8600000143051147,0,0,0.8600000143051147,0,0)"/></g></g></g><g stroke-linecap="butt" stroke-linejoin="round" stroke-miterlimit="4" transform="matrix(1,0,0,1,343.5699768066406,104.20000457763672)" opacity="1" style="display: inherit;"><g><g transform="matrix(1,0,0,1,0,0)" opacity="1" style="display: block;"><path d=" M74.05,-38.11 C74.05,-53.52 61.06,-62.44 47.63,-62.44 C27.19,-62.44 3.46,-44.69 3.46,-23.04 C3.46,-7.79 13.94,0 29.97,0 C49.11,0 74.05,-13.08 74.05,-38.11z M62.44,-36.2 C62.44,-21.39 46.08,-10.22 29.45,-10.22 C22.69,-10.22 15.94,-13.6 15.94,-22.26 C15.94,-37.42 32.05,-52.23 46.34,-52.23 C55.52,-52.23 62.44,-46.94 62.44,-36.2z"/><g opacity="1" transform="matrix(0.8600000143051147,0,0,0.8600000143051147,0,0)"/></g></g></g><g stroke-linecap="butt" stroke-linejoin="round" stroke-miterlimit="4" transform="matrix(1,0,0,1,420.4540100097656,104.20000457763672)" opacity="1" style="display: inherit;"><g><g transform="matrix(1,0,0,1,0,0)" opacity="1" style="display: block;"><path d=" M17.93,-47.81 C24.34,-49.8 29.45,-49.97 33.78,-49.97 C38.54,-49.97 42.53,-49.71 42.53,-46.16 C42.53,-38.71 27.89,-33.17 17.93,-32.91 C17.93,-32.91 17.93,-47.81 17.93,-47.81z M18.1,-22.86 C22.78,-18.97 28.06,-14.38 29.97,-12.47 C37.07,-5.02 42.44,-0.35 47.81,-0.35 C50.67,-0.35 53.7,-1.99 53.7,-5.2 C53.7,-8.31 49.28,-11.52 40.53,-18.97 C38.02,-21.05 35.6,-23.3 33.26,-25.38 C47.29,-29.62 56.12,-38.28 56.12,-47.81 C56.12,-57.42 47.29,-60.97 35.25,-60.97 C22.08,-60.97 7.27,-59.59 5.63,-55.78 C4.94,-54.22 4.94,-52.31 4.94,-49.54 C4.94,-45.12 5.37,-39.41 5.37,-35.25 C5.37,-31.09 5.54,-27.11 5.54,-22.61 C5.54,-16.28 4.76,-11 4.76,-4.5 C4.76,-1.73 6.32,0.43 8.66,0.43 C17.15,0.43 18.1,-5.11 18.1,-7.62 C18.1,-10.83 17.93,-13.25 17.93,-15.68 C17.93,-18.1 17.93,-20.53 18.1,-22.86z"/><g opacity="1" transform="matrix(0.8600000143051147,0,0,0.8600000143051147,0,0)"/></g></g></g><g stroke-linecap="butt" stroke-linejoin="round" stroke-miterlimit="4" transform="matrix(1,0,0,1,478.3320007324219,104.20000457763672)" opacity="1" style="display: inherit;"><g><g transform="matrix(1,0,0,1,0,0)" opacity="1" style="display: block;"><path d=" M13.68,-11.78 C11.61,-8.49 9.79,-5.63 9.79,-3.03 C9.79,-0.52 11.26,0.17 13.51,0.17 C22.6,0.17 23.73,-5.89 26.68,-12.21 C28.75,-16.72 39.41,-34.3 49.28,-45.64 C51.88,-48.59 55,-52.23 55,-56.38 C55,-60.02 52.4,-61.06 49.71,-61.06 C46.16,-61.06 43.74,-59.33 41.75,-55.69 C41.23,-54.82 34.99,-45.21 28.23,-34.56 C23.82,-41.31 20.09,-47.64 18.1,-51.45 C15.16,-56.99 10.83,-60.45 7.02,-60.45 C3.03,-60.45 1.13,-58.11 1.13,-55.69 C1.13,-53.18 4.33,-47.46 8.4,-43.04 C12.82,-38.19 17.49,-31.18 21.48,-24.08 C21.48,-24.08 13.68,-11.78 13.68,-11.78z"/><g opacity="1" transform="matrix(0.8600000143051147,0,0,0.8600000143051147,0,0)"/></g></g></g></g><g transform="matrix(0.25,0,0,0.25,1609.8489990234375,130.5)" opacity="1" style="display: block;"><g opacity="1" transform="matrix(1,0,0,1,274.0989990234375,439.0660095214844)"><path fill="rgb(255,254,255)" fill-opacity="1" d=" M40.12699890136719,386.8080139160156 C40.12699890136719,386.8080139160156 -40.12799835205078,386.8080139160156 -40.12799835205078,386.8080139160156 C-150.1280059814453,386.8080139160156 -240.1269989013672,296.8080139160156 -240.1269989013672,186.80799865722656 C-240.1269989013672,186.80799865722656 -240.1269989013672,-186.8090057373047 -240.1269989013672,-186.8090057373047 C-240.1269989013672,-296.8089904785156 -150.1280059814453,-386.8080139160156 -40.12799835205078,-386.8080139160156 C-40.12799835205078,-386.8080139160156 40.12699890136719,-386.8080139160156 40.12699890136719,-386.8080139160156 C150.1269989013672,-386.8080139160156 240.1269989013672,-296.8089904785156 240.1269989013672,-186.8090057373047 C240.1269989013672,-186.8090057373047 240.1269989013672,186.80799865722656 240.1269989013672,186.80799865722656 C240.1269989013672,296.8080139160156 150.1269989013672,386.8080139160156 40.12699890136719,386.8080139160156z"/></g><g opacity="1" transform="matrix(1,0,0,1,274.0989990234375,439.0660095214844)"><path fill="rgb(0,0,0)" fill-opacity="1" d=" M40.12799835205078,391.3080139160156 C40.12799835205078,391.3080139160156 -40.12799835205078,391.3080139160156 -40.12799835205078,391.3080139160156 C-94.53099822998047,391.3080139160156 -145.82400512695312,369.97601318359375 -184.55999755859375,331.2409973144531 C-223.2949981689453,292.5060119628906 -244.6280059814453,241.21299743652344 -244.6280059814453,186.8090057373047 C-244.6280059814453,186.8090057373047 -244.6280059814453,-186.80799865722656 -244.6280059814453,-186.80799865722656 C-244.6280059814453,-241.21099853515625 -223.2949981689453,-292.5039978027344 -184.55999755859375,-331.239990234375 C-145.82400512695312,-369.9750061035156 -94.53099822998047,-391.3080139160156 -40.12799835205078,-391.3080139160156 C-40.12799835205078,-391.3080139160156 40.12799835205078,-391.3080139160156 40.12799835205078,-391.3080139160156 C94.53099822998047,-391.3080139160156 145.82400512695312,-369.9750061035156 184.5590057373047,-331.239990234375 C223.2949981689453,-292.5039978027344 244.6280059814453,-241.21099853515625 244.6280059814453,-186.80799865722656 C244.6280059814453,-186.80799865722656 244.6280059814453,186.8090057373047 244.6280059814453,186.8090057373047 C244.6280059814453,241.21299743652344 223.2949981689453,292.5060119628906 184.5590057373047,331.2409973144531 C145.82400512695312,369.97601318359375 94.53099822998047,391.3080139160156 40.12799835205078,391.3080139160156z M-40.12799835205078,-382.3080139160156 C-147.927001953125,-382.3080139160156 -235.6280059814453,-294.60699462890625 -235.6280059814453,-186.80799865722656 C-235.6280059814453,-186.80799865722656 -235.6280059814453,186.8090057373047 -235.6280059814453,186.8090057373047 C-235.6280059814453,294.6080017089844 -147.927001953125,382.3080139160156 -40.12799835205078,382.3080139160156 C-40.12799835205078,382.3080139160156 40.12799835205078,382.3080139160156 40.12799835205078,382.3080139160156 C147.927001953125,382.3080139160156 235.6280059814453,294.6080017089844 235.6280059814453,186.8090057373047 C235.6280059814453,186.8090057373047 235.6280059814453,-186.80799865722656 235.6280059814453,-186.80799865722656 C235.6280059814453,-294.60699462890625 147.927001953125,-382.3080139160156 40.12799835205078,-382.3080139160156 C40.12799835205078,-382.3080139160156 -40.12799835205078,-382.3080139160156 -40.12799835205078,-382.3080139160156z"/></g><g opacity="1" transform="matrix(1,0,0,1,274.0989990234375,213.36199951171875)"><path fill="rgb(0,0,0)" fill-opacity="1" d=" M0,59.02399826049805 C0,59.02399826049805 0,59.02399826049805 0,59.02399826049805 C-20.222000122070312,59.02399826049805 -36.76599884033203,42.479000091552734 -36.76599884033203,22.257999420166016 C-36.76599884033203,22.257999420166016 -36.76599884033203,-22.259000778198242 -36.76599884033203,-22.259000778198242 C-36.76599884033203,-42.47999954223633 -20.222000122070312,-59.02399826049805 0,-59.02399826049805 C0,-59.02399826049805 0,-59.02399826049805 0,-59.02399826049805 C20.22100067138672,-59.02399826049805 36.76599884033203,-42.47999954223633 36.76599884033203,-22.259000778198242 C36.76599884033203,-22.259000778198242 36.76599884033203,22.257999420166016 36.76599884033203,22.257999420166016 C36.76599884033203,42.479000091552734 20.22100067138672,59.02399826049805 0,59.02399826049805z"/></g></g><g transform="matrix(0.1899999976158142,0,0,0.1899999976158142,1626.29541015625,153.37535095214844)" opacity="1" style="display: block;"><g opacity="1" transform="matrix(1,0,0,1,274.0979919433594,1083.803955078125)"><path fill="rgb(0,0,0)" fill-opacity="1" d=" M3.6010000705718994,113.64600372314453 C0.4020000100135803,113.64600372314453 -2.796999931335449,112.4260025024414 -5.236999988555908,109.98600006103516 C-5.236999988555908,109.98600006103516 -206.30599975585938,-91.08699798583984 -206.30599975585938,-91.08699798583984 C-211.18800354003906,-95.96900177001953 -211.18800354003906,-103.88300323486328 -206.30599975585938,-108.76499938964844 C-201.4250030517578,-113.64600372314453 -193.50900268554688,-113.64600372314453 -188.6280059814453,-108.76499938964844 C-188.6280059814453,-108.76499938964844 3.6010000705718994,83.46600341796875 3.6010000705718994,83.46600341796875 C3.6010000705718994,83.46600341796875 188.62899780273438,-101.56300354003906 188.62899780273438,-101.56300354003906 C193.50999450683594,-106.44300079345703 201.42599487304688,-106.44300079345703 206.3070068359375,-101.56300354003906 C211.18800354003906,-96.68099975585938 211.18800354003906,-88.76699829101562 206.3070068359375,-83.88500213623047 C206.3070068359375,-83.88500213623047 12.4399995803833,109.98600006103516 12.4399995803833,109.98600006103516 C10,112.4260025024414 6.801000118255615,113.64600372314453 3.6010000705718994,113.64600372314453z"/></g></g><g transform="matrix(0.1899999976158142,0,0,0.1899999976158142,1626.29541015625,192.37535095214844)" opacity="1" style="display: block;"><g opacity="1" transform="matrix(1,0,0,1,274.0979919433594,1083.803955078125)"><path fill="rgb(0,0,0)" fill-opacity="1" d=" M3.6010000705718994,113.64600372314453 C0.4020000100135803,113.64600372314453 -2.796999931335449,112.4260025024414 -5.236999988555908,109.98600006103516 C-5.236999988555908,109.98600006103516 -206.30599975585938,-91.08699798583984 -206.30599975585938,-91.08699798583984 C-211.18800354003906,-95.96900177001953 -211.18800354003906,-103.88300323486328 -206.30599975585938,-108.76499938964844 C-201.4250030517578,-113.64600372314453 -193.50900268554688,-113.64600372314453 -188.6280059814453,-108.76499938964844 C-188.6280059814453,-108.76499938964844 3.6010000705718994,83.46600341796875 3.6010000705718994,83.46600341796875 C3.6010000705718994,83.46600341796875 188.62899780273438,-101.56300354003906 188.62899780273438,-101.56300354003906 C193.50999450683594,-106.44300079345703 201.42599487304688,-106.44300079345703 206.3070068359375,-101.56300354003906 C211.18800354003906,-96.68099975585938 211.18800354003906,-88.76699829101562 206.3070068359375,-83.88500213623047 C206.3070068359375,-83.88500213623047 12.4399995803833,109.98600006103516 12.4399995803833,109.98600006103516 C10,112.4260025024414 6.801000118255615,113.64600372314453 3.6010000705718994,113.64600372314453z"/></g></g></g></svg>