<svg xmlns="http://www.w3.org/2000/svg" xmlns:xlink="http://www.w3.org/1999/xlink" viewBox="0 0 1900 1900" width="1900" height="1900" preserveAspectRatio="xMidYMid meet" style="width: 100%; height: 100%; transform: translate3d(0px, 0px, 0px); content-visibility: visible;"><defs><clipPath id="__lottie_element_808"><rect width="1900" height="1900" x="0" y="0"/></clipPath></defs><g clip-path="url(#__lottie_element_808)"><g transform="matrix(0,0,0,4.307690143585205,500,1006.2304077148438)" opacity="1" style="display: block;"><g opacity="1" transform="matrix(1,0,0,1,-367,-173)"><path fill="rgb(215,3,9)" fill-opacity="1" d=" M67,-13 C67,-13 67,13 67,13 C67,13 -67,13 -67,13 C-67,13 -67,-13 -67,-13 C-67,-13 67,-13 67,-13z"/></g></g><g transform="matrix(0,0,0,1,500,530)" opacity="1" style="display: block;"><g opacity="1" transform="matrix(1,0,0,1,-367,-173)"><path fill="rgb(215,3,9)" fill-opacity="1" d=" M67,-13 C67,-13 67,13 67,13 C67,13 -67,13 -67,13 C-67,13 -67,-13 -67,-13 C-67,-13 67,-13 67,-13z"/></g></g><g transform="matrix(0,0,0,2.8461499214172363,500,1009.3839111328125)" opacity="1" style="display: block;"><g opacity="1" transform="matrix(1,0,0,1,-367,-173)"><path fill="rgb(215,3,9)" fill-opacity="1" d=" M67,-13 C67,-13 67,13 67,13 C67,13 -67,13 -67,13 C-67,13 -67,-13 -67,-13 C-67,-13 67,-13 67,-13z"/></g></g><g transform="matrix(0,0,0,1,500,762)" opacity="1" style="display: block;"><g opacity="1" transform="matrix(1,0,0,1,-367,-173)"><path fill="rgb(215,3,9)" fill-opacity="1" d=" M67,-13 C67,-13 67,13 67,13 C67,13 -67,13 -67,13 C-67,13 -67,-13 -67,-13 C-67,-13 67,-13 67,-13z"/></g></g><g transform="matrix(0,0,0,1,500,820)" opacity="1" style="display: block;"><g opacity="1" transform="matrix(1,0,0,1,-367,-173)"><path fill="rgb(215,3,9)" fill-opacity="1" d=" M67,-13 C67,-13 67,13 67,13 C67,13 -67,13 -67,13 C-67,13 -67,-13 -67,-13 C-67,-13 67,-13 67,-13z"/></g></g><g transform="matrix(0,0,0,0.46153998374938965,541,1461.846435546875)" opacity="1" style="display: block;"><g opacity="1" transform="matrix(1,0,0,1,-367,-173)"><path fill="rgb(215,3,9)" fill-opacity="1" d=" M67,-13 C67,-13 67,13 67,13 C67,13 -67,13 -67,13 C-67,13 -67,-13 -67,-13 C-67,-13 67,-13 67,-13z"/></g></g><g transform="matrix(0,0,0,0.46153998374938965,541,1527.846435546875)" opacity="1" style="display: block;"><g opacity="1" transform="matrix(1,0,0,1,-367,-173)"><path fill="rgb(215,3,9)" fill-opacity="1" d=" M67,-13 C67,-13 67,13 67,13 C67,13 -67,13 -67,13 C-67,13 -67,-13 -67,-13 C-67,-13 67,-13 67,-13z"/></g></g><g transform="matrix(0,0,0,0.46153998374938965,541,1563.846435546875)" opacity="1" style="display: block;"><g opacity="1" transform="matrix(1,0,0,1,-367,-173)"><path fill="rgb(215,3,9)" fill-opacity="1" d=" M67,-13 C67,-13 67,13 67,13 C67,13 -67,13 -67,13 C-67,13 -67,-13 -67,-13 C-67,-13 67,-13 67,-13z"/></g></g><g transform="matrix(1,0,0,1,863.967041015625,860.6900024414062)" opacity="1" style="display: block;"><g opacity="1" transform="matrix(1,0,0,1,357.135009765625,149.3419952392578)"><path fill="rgb(0,0,0)" fill-opacity="1" d=" M-303.9010009765625,15.227999687194824 C-304.8059997558594,14.482999801635742 -306.18798828125,13.914999961853027 -306.5400085449219,12.965999603271484 C-309.11199951171875,6.0289998054504395 -311.5220031738281,-0.9679999947547913 -313.8800048828125,-7.980999946594238 C-314.6839904785156,-10.37399959564209 -314.8110046386719,-12.50100040435791 -311.0889892578125,-12.163000106811523 C-309.8890075683594,-12.053999900817871 -308.5199890136719,-12.413000106811523 -307.406005859375,-12.9350004196167 C-292.54901123046875,-19.892000198364258 -276.86199951171875,-23.72800064086914 -260.8420104980469,-27.256999969482422 C-227.91600036621094,-34.50899887084961 -195.30499267578125,-43.20399856567383 -162.61399841308594,-51.49800109863281 C-143.56300354003906,-56.33100128173828 -124.61900329589844,-61.577999114990234 -105.60700225830078,-66.56400299072266 C-87.96299743652344,-71.19100189208984 -70.9990005493164,-68.9520034790039 -54.73400115966797,-61.04899978637695 C-48.48099899291992,-58.0099983215332 -42.430999755859375,-54.555999755859375 -35.547000885009766,-50.895999908447266 C-12.847000122070312,-61.93199920654297 13.020999908447266,-66.29399871826172 38.9370002746582,-69.33100128173828 C60.04399871826172,-71.80500030517578 81.4489974975586,-71.73300170898438 102.72000122070312,-72.82099914550781 C115.87200164794922,-73.49299621582031 129.01800537109375,-74.69300079345703 142.1719970703125,-74.77400207519531 C152.2519989013672,-74.83599853515625 161.60699462890625,-77.83699798583984 171.3040008544922,-79.54399871826172 C208.8419952392578,-86.1520004272461 243.32000732421875,-100.85099792480469 277.18499755859375,-117.47200012207031 C281.1400146484375,-119.41300201416016 285.53900146484375,-120.43399810791016 289.64599609375,-122.09300231933594 C291.3009948730469,-122.76100158691406 292.7229919433594,-123.9990005493164 295.364990234375,-125.69100189208984 C297.59698486328125,-121.83000183105469 300.54400634765625,-117.85600280761719 302.34698486328125,-113.41999816894531 C310.6059875488281,-93.10099792480469 313.3420104980469,-71.63600158691406 314.7090148925781,-49.95899963378906 C314.8110046386719,-48.33599853515625 313.2659912109375,-46.60900115966797 312.1239929199219,-45.25400161743164 C310.28399658203125,-67.46399688720703 307.31500244140625,-88.92500305175781 299.9330139160156,-109.55500030517578 C299.25,-109.64099884033203 298.5679931640625,-109.72699737548828 297.885009765625,-109.81300354003906 C297.2460021972656,-108.05000305175781 296.05499267578125,-106.28600311279297 296.0589904785156,-104.52300262451172 C296.0769958496094,-94.2020034790039 296.4490051269531,-83.88099670410156 296.5559997558594,-73.55899810791016 C296.6499938964844,-64.51000213623047 295.9989929199219,-55.354000091552734 301.94000244140625,-47.45000076293945 C301.4320068359375,-47.20600128173828 300.92498779296875,-46.9630012512207 300.4169921875,-46.720001220703125 C298.9010009765625,-49.46200180053711 296.46099853515625,-52.073001861572266 296.0450134277344,-54.97200012207031 C294.8689880371094,-63.16600036621094 294.364013671875,-71.46900177001953 293.8970031738281,-79.74600219726562 C293.4460144042969,-87.76699829101562 293.37200927734375,-95.80799865722656 293.14898681640625,-103.2490005493164 C261.02301025390625,-90.77899932861328 229.72799682617188,-78.88600158691406 198.66400146484375,-66.41699981689453 C189.5989990234375,-62.77899932861328 180.8820037841797,-58.007999420166016 172.55599975585938,-52.869998931884766 C156.0749969482422,-42.70000076293945 150.02099609375,-26.698999404907227 149.07400512695312,-8.196000099182129 C148.34800720214844,5.982999801635742 148.6199951171875,20.309999465942383 146.59800720214844,34.305999755859375 C142.38600158691406,63.45500183105469 126.15899658203125,83.71600341796875 97.48999786376953,92.16899871826172 C70.13300323486328,100.23600006103516 42.05400085449219,104.14099884033203 13.404000282287598,101.65299987792969 C-4.020999908447266,100.13899993896484 -18.739999771118164,92.697998046875 -30.24799919128418,79.70500183105469 C-48.590999603271484,58.99599838256836 -64.11799621582031,36.58000183105469 -70.00399780273438,8.854000091552734 C-70.12000274658203,8.312000274658203 -70.28399658203125,7.7779998779296875 -70.38500213623047,7.232999801635742 C-72.12699890136719,-2.177000045776367 -72.16100311279297,-2.3510000705718994 -81.8270034790039,-2.492000102996826 C-94.79000091552734,-2.680000066757202 -105.87799835205078,2.759000062942505 -115.61100006103516,8.904999732971191 C-114.74199676513672,22.87299919128418 -113.3949966430664,36.284000396728516 -113.20500183105469,49.71200180053711 C-112.98200225830078,65.53900146484375 -117.48899841308594,80.42400360107422 -124.93099975585938,94.35399627685547 C-131.6739959716797,106.9729995727539 -142.60000610351562,114.76699829101562 -155.95399475097656,118.90699768066406 C-172.55099487304688,124.0530014038086 -189.7239990234375,125.69100189208984 -207.07200622558594,125.13700103759766 C-227.21600341796875,124.49400329589844 -242.7779998779297,114.99800109863281 -254.98399353027344,99.6050033569336 C-270.6719970703125,79.81999969482422 -281.00201416015625,57.391998291015625 -286.1619873046875,32.77199935913086 C-287.7850036621094,25.02899932861328 -292.37799072265625,21.593000411987305 -299.0320129394531,19.149999618530273 C-300.9339904785156,18.451000213623047 -302.37298583984375,16.49799919128418 -304.00799560546875,15.133999824523926 C-299.1260070800781,16.51300048828125 -294.260009765625,17.878000259399414 -289.2090148925781,19.29599952697754 C-290.2669982910156,8.947999954223633 -291.364013671875,-1.7730000019073486 -292.4939880371094,-12.821000099182129 C-294.42999267578125,-12.281999588012695 -296.2019958496094,-11.875 -297.9179992675781,-11.298999786376953 C-309.28900146484375,-7.484000205993652 -309.1440124511719,-7.513999938964844 -305.75299072265625,3.76200008392334 C-304.64801025390625,7.438000202178955 -304.4909973144531,11.39799976348877 -303.9010009765625,15.227999687194824z M137.2429962158203,6.526000022888184 C136.2779998779297,-6.181000232696533 136.27200317382812,-15.321000099182129 134.7830047607422,-24.21299934387207 C129.74899291992188,-54.28900146484375 117.88500213623047,-64.6719970703125 89.16200256347656,-64.53399658203125 C51.37699890136719,-64.35299682617188 14.534000396728516,-58.97800064086914 -21.36400032043457,-47.37200164794922 C-34.729000091552734,-43.05099868774414 -47.314998626708984,-36.81800079345703 -56.433998107910156,-25.804000854492188 C-60.016998291015625,-21.476999282836914 -63.729000091552734,-15.52299976348877 -63.69900131225586,-10.331000328063965 C-63.64400100708008,-0.6980000138282776 -61.987998962402344,9.27400016784668 -59.029998779296875,18.475000381469727 C-51.57099914550781,41.67499923706055 -36.849998474121094,60.551998138427734 -20.201000213623047,77.9020004272461 C-12.996999740600586,85.41000366210938 -3.759000062942505,90.17500305175781 6.5320000648498535,91.77799987792969 C14.916999816894531,93.08300018310547 23.57900047302246,93.98500061035156 31.999000549316406,93.39099884033203 C46.391998291015625,92.37699890136719 60.7760009765625,90.53600311279297 75.00199890136719,88.10199737548828 C84.07099914550781,86.5510025024414 93.20099639892578,84.1520004272461 101.68099975585938,80.63899993896484 C117.06999969482422,74.26399993896484 128.91400146484375,64.24800109863281 131.33700561523438,46.297000885009766 C133.28599548339844,31.865999221801758 135.60400390625,17.485000610351562 137.2429962158203,6.526000022888184z M-184.2429962158203,-28.04800033569336 C-184.2729949951172,-27.746000289916992 -184.302001953125,-27.444000244140625 -184.33200073242188,-27.142000198364258 C-200.61700439453125,-26.100000381469727 -216.91200256347656,-25.200000762939453 -233.18299865722656,-23.97800064086914 C-250.1959991455078,-22.700000762939453 -267.24200439453125,-21.572999954223633 -282.3009948730469,-11.9350004196167 C-285.739013671875,-9.734000205993652 -287.22601318359375,-7.679999828338623 -286.6860046386719,-3.5989999771118164 C-281.968994140625,32.03099822998047 -272.5870056152344,65.95800018310547 -251.0449981689453,95.56900024414062 C-239.4810028076172,111.46499633789062 -224.0489959716797,120.30699920654297 -204.22799682617188,119.88800048828125 C-192.41299438476562,119.63800048828125 -180.53700256347656,118.55599975585938 -168.8470001220703,116.7969970703125 C-143.49000549316406,112.98300170898438 -127.96800231933594,98.31600189208984 -122.64099884033203,73.12100219726562 C-117.44200134277344,48.52899932861328 -118.60900115966797,24.464000701904297 -126.55899810791016,0.42100000381469727 C-131.34300231933594,-14.048999786376953 -140.60699462890625,-22.48699951171875 -155.02099609375,-25.138999938964844 C-164.61500549316406,-26.90399932861328 -174.49200439453125,-27.131999969482422 -184.2429962158203,-28.04800033569336z M-128.30999755859375,-18.70599937438965 C-127.28199768066406,-19.190000534057617 -126.61000061035156,-19.47800064086914 -125.96399688720703,-19.815000534057617 C-107.02200317382812,-29.711000442504883 -87.25499725341797,-34.48099899291992 -65.88899993896484,-29.545000076293945 C-64.9020004272461,-29.316999435424805 -63.36199951171875,-29.155000686645508 -62.81700134277344,-29.698999404907227 C-58.20399856567383,-34.29600143432617 -53.76300048828125,-39.06399917602539 -48.52199935913086,-44.566001892089844 C-88.13899993896484,-55.46699905395508 -124.83899688720703,-44.922000885009766 -161.5469970703125,-34.03900146484375 C-149.08799743652344,-31.999000549316406 -137.69400024414062,-28.075000762939453 -128.30999755859375,-18.70599937438965z M-215.89100646972656,-32.87200164794922 C-215.8419952392578,-32.58399963378906 -215.79200744628906,-32.29600143432617 -215.7429962158203,-32.007999420166016 C-207.80799865722656,-32.487998962402344 -199.85699462890625,-32.784000396728516 -191.9429931640625,-33.49599838256836 C-182.96800231933594,-34.30400085449219 -173.65899658203125,-34.23699951171875 -165.1439971923828,-36.74300003051758 C-142.36199951171875,-43.44499969482422 -119.71099853515625,-50.4379997253418 -95.89800262451172,-52.42900085449219 C-79.17400360107422,-53.82699966430664 -62.56999969482422,-54.141998291015625 -46.78900146484375,-46.70000076293945 C-45.13800048828125,-45.922000885009766 -42.358001708984375,-47.527000427246094 -40.10200119018555,-48.027000427246094 C-44.50899887084961,-51.268001556396484 -48.571998596191406,-53.066001892089844 -52.527000427246094,-55.07500076293945 C-71.61399841308594,-64.77100372314453 -91.3219985961914,-66.19400024414062 -111.9209976196289,-60.48699951171875 C-137.45399475097656,-53.41299819946289 -163.13400268554688,-46.86800003051758 -188.7480010986328,-40.0880012512207 C-197.79800415039062,-37.69200134277344 -206.84300231933594,-35.27799987792969 -215.89100646972656,-32.87200164794922z M294.3529968261719,-120.23100280761719 C252.23500061035156,-98.31099700927734 209.21400451660156,-79.40699768066406 161.11099243164062,-73.7239990234375 C163.11399841308594,-66.03199768066406 164.7169952392578,-59.87900161743164 166.31199645996094,-53.75299835205078 C167.04400634765625,-53.85599899291992 167.4709930419922,-53.78900146484375 167.7209930419922,-53.96900177001953 C187.9290008544922,-68.51799774169922 210.81300354003906,-77.58200073242188 233.9429931640625,-86.14800262451172 C249.72999572753906,-91.99500274658203 265.5929870605469,-97.64900207519531 281.2409973144531,-103.84300231933594 C287.156005859375,-106.18399810791016 292.56500244140625,-109.7979965209961 298.3110046386719,-112.88899993896484 C297.2380065917969,-115.09700012207031 296.5559997558594,-116.5979995727539 295.7850036621094,-118.052001953125 C295.3590087890625,-118.85600280761719 294.7850036621094,-119.58200073242188 294.3529968261719,-120.23100280761719z M-66.29900360107422,-24.95400047302246 C-86.97699737548828,-26.684999465942383 -106.83200073242188,-24.996000289916992 -125.2030029296875,-14.538000106811523 C-122.58699798583984,-7.468999862670898 -120.11199951171875,-0.7770000100135803 -117.46700286865234,6.372000217437744 C-103.35099792480469,-2.5889999866485596 -88.76799774169922,-8.871000289916992 -72.00900268554688,-5.388000011444092 C-70.03900146484375,-12.137999534606934 -68.20800018310547,-18.413999557495117 -66.29900360107422,-24.95400047302246z M157.69700622558594,-67.93499755859375 C144.9810028076172,-67.93499755859375 133.47500610351562,-67.93499755859375 121.96800231933594,-67.93499755859375 C134.85800170898438,-56.792999267578125 141.7469940185547,-42.94599914550781 145.5290069580078,-28.429000854492188 C150.57699584960938,-35.50899887084961 155.6999969482422,-42.63999938964844 160.73699951171875,-49.83100128173828 C161.30299377441406,-50.64099884033203 161.82699584960938,-51.88999938964844 161.6219940185547,-52.7599983215332 C160.36199951171875,-58.117000579833984 158.88600158691406,-63.42499923706055 157.69700622558594,-67.93499755859375z"/></g><g opacity="1" transform="matrix(1,0,0,1,393.8919982910156,163.9980010986328)"><path fill="rgb(255,254,255)" fill-opacity="1" d=" M100.48600006103516,-8.130000114440918 C98.84700012207031,2.8289999961853027 96.52899932861328,17.209999084472656 94.58000183105469,31.641000747680664 C92.15699768066406,49.59199905395508 80.31300354003906,59.608001708984375 64.92400360107422,65.98300170898438 C56.444000244140625,69.49600219726562 47.31399917602539,71.8949966430664 38.244998931884766,73.44599914550781 C24.018999099731445,75.87999725341797 9.635000228881836,77.72100067138672 -4.757999897003174,78.73500061035156 C-13.178000450134277,79.3290023803711 -21.84000015258789,78.427001953125 -30.225000381469727,77.12200164794922 C-40.51599884033203,75.51899719238281 -49.75400161743164,70.75399780273438 -56.95800018310547,63.24599838256836 C-73.60700225830078,45.895999908447266 -88.3280029296875,27.018999099731445 -95.78700256347656,3.819000005722046 C-98.74500274658203,-5.381999969482422 -100.4010009765625,-15.354000091552734 -100.45600128173828,-24.98699951171875 C-100.48600006103516,-30.179000854492188 -96.77400207519531,-36.132999420166016 -93.19100189208984,-40.459999084472656 C-84.0719985961914,-51.4739990234375 -71.48600006103516,-57.707000732421875 -58.12099838256836,-62.02799987792969 C-22.222999572753906,-73.63400268554688 14.619999885559082,-79.01000213623047 52.404998779296875,-79.19100189208984 C81.12799835205078,-79.3290023803711 92.99199676513672,-68.94499969482422 98.0260009765625,-38.86899948120117 C99.51499938964844,-29.976999282836914 99.52100372314453,-20.836999893188477 100.48600006103516,-8.130000114440918z M-15.83899974822998,71.36100006103516 C-4.86299991607666,70.73999786376953 5.50600004196167,70.15799713134766 15.87399959564209,69.56700134277344 C33.959999084472656,68.53600311279297 51.5629997253418,65.47599792480469 68.1760025024414,57.805999755859375 C74.60700225830078,54.83700180053711 79.57599639892578,50.37099838256836 81.59300231933594,43.76900100708008 C84.27799987792969,34.98099899291992 86.93199920654297,25.983999252319336 87.85099792480469,16.900999069213867 C89.52100372314453,0.39500001072883606 91.20600128173828,-16.29400062561035 90.53099822998047,-32.810001373291016 C89.37799835205078,-61.02399826049805 67.82099914550781,-73.31600189208984 47.683998107910156,-71.4739990234375 C26.82900047302246,-69.56600189208984 5.961999893188477,-67.58399963378906 -14.782999992370605,-64.77400207519531 C-28.298999786376953,-62.94300079345703 -41.970001220703125,-60.71799850463867 -54.917999267578125,-56.61600112915039 C-72.01300048828125,-51.20100021362305 -85.28099822998047,-40.426998138427734 -90.95600128173828,-22.44300079345703 C-91.58699798583984,-20.44300079345703 -91.7750015258789,-18.10300064086914 -91.4469985961914,-16.034000396728516 C-87.34700012207031,9.847999572753906 -75.01200103759766,32.04600143432617 -60.20500183105469,53.14799880981445 C-50.99599838256836,66.27100372314453 -38.33700180053711,72.0479965209961 -22.472999572753906,71.375 C-20.066999435424805,71.27300262451172 -17.652999877929688,71.36100006103516 -15.83899974822998,71.36100006103516z"/></g><g opacity="1" transform="matrix(1,0,0,1,154.80099487304688,195.4709930419922)"><path fill="rgb(255,254,255)" fill-opacity="1" d=" M18.090999603271484,-74.1780014038086 C27.841999053955078,-73.26200103759766 37.71900177001953,-73.03399658203125 47.3129997253418,-71.26899719238281 C61.72700119018555,-68.61699676513672 70.99099731445312,-60.17900085449219 75.7750015258789,-45.70899963378906 C83.7249984741211,-21.666000366210938 84.89199829101562,2.3989999294281006 79.69300079345703,26.990999221801758 C74.36599731445312,52.18600082397461 58.84400177001953,66.85399627685547 33.48699951171875,70.66799926757812 C21.797000885009766,72.427001953125 9.920999526977539,73.50900268554688 -1.8940000534057617,73.75900268554688 C-21.71500015258789,74.1780014038086 -37.14699935913086,65.33499908447266 -48.71099853515625,49.43899917602539 C-70.25299835205078,19.827999114990234 -79.63500213623047,-14.098999977111816 -84.35199737548828,-49.729000091552734 C-84.89199829101562,-53.810001373291016 -83.40399932861328,-55.86399841308594 -79.96600341796875,-58.064998626708984 C-64.90699768066406,-67.7030029296875 -47.86199951171875,-68.83000183105469 -30.849000930786133,-70.10800170898438 C-14.57800006866455,-71.33000183105469 1.7170000076293945,-72.2300033569336 18.00200080871582,-73.27200317382812 C18.031999588012695,-73.5739974975586 18.06100082397461,-73.8759994506836 18.090999603271484,-74.1780014038086z M-4.889999866485596,-68.00800323486328 C-18.645000457763672,-66.79100036621094 -35.45199966430664,-65.48400115966797 -52.2140007019043,-63.749000549316406 C-60.797000885009766,-62.86000061035156 -68.9489974975586,-60.18600082397461 -75.7959976196289,-54.68199920654297 C-77.0770034790039,-53.6510009765625 -78.22100067138672,-51.4379997253418 -78.08100128173828,-49.893001556396484 C-77.85099792480469,-47.35200119018555 -76.12200164794922,-44.9739990234375 -75.71199798583984,-42.41699981689453 C-71.39600372314453,-15.529999732971191 -63.96900177001953,10.291000366210938 -50.097999572753906,33.99100112915039 C-42.38399887084961,47.17100143432617 -32.165000915527344,57.606998443603516 -17.636999130249023,63.0890007019043 C-1.5889999866485596,69.14399719238281 15.133999824523926,69.90299987792969 31.704999923706055,66.59300231933594 C49.090999603271484,63.119998931884766 63.1870002746582,54.090999603271484 70.0999984741211,36.9379997253418 C79.70600128173828,13.100000381469727 81.58300018310547,-11.600000381469727 75.93699645996094,-36.637001037597656 C72.22200012207031,-53.108001708984375 61.755001068115234,-62.03099822998047 44.87300109863281,-63.762001037597656 C29.3799991607666,-65.3499984741211 13.835000038146973,-66.43299865722656 -4.889999866485596,-68.00800323486328z"/></g><g opacity="1" transform="matrix(1,0,0,1,229.13800048828125,100.24099731445312)"><path fill="rgb(255,254,255)" fill-opacity="1" d=" M-87.89399719238281,16.229000091552734 C-78.84600067138672,13.822999954223633 -69.8010025024414,11.409000396728516 -60.750999450683594,9.012999534606934 C-35.137001037597656,2.2330000400543213 -9.456999778747559,-4.311999797821045 16.076000213623047,-11.38599967956543 C36.67499923706055,-17.093000411987305 56.38199996948242,-15.670000076293945 75.46900177001953,-5.973999977111816 C79.42400360107422,-3.9649999141693115 83.48699951171875,-2.1670000553131104 87.89399719238281,1.0740000009536743 C85.63800048828125,1.5740000009536743 82.85900115966797,3.178999900817871 81.20800018310547,2.4010000228881836 C65.427001953125,-5.040999889373779 48.821998596191406,-4.72599983215332 32.097999572753906,-3.328000068664551 C8.28499984741211,-1.3370000123977661 -14.364999771118164,5.656000137329102 -37.14699935913086,12.357999801635742 C-45.6619987487793,14.86400032043457 -54.97100067138672,14.79699993133545 -63.94599914550781,15.604999542236328 C-71.86000061035156,16.316999435424805 -79.81099700927734,16.613000869750977 -87.74600219726562,17.093000411987305 C-87.79499816894531,16.80500030517578 -87.84500122070312,16.517000198364258 -87.89399719238281,16.229000091552734z"/></g><g opacity="1" transform="matrix(1,0,0,1,586.8460083007812,62.349998474121094)"><path fill="rgb(255,254,255)" fill-opacity="1" d=" M64.64199829101562,-33.23899841308594 C65.0739974975586,-32.59000015258789 65.64800262451172,-31.86400032043457 66.0739974975586,-31.059999465942383 C66.84500122070312,-29.606000900268555 67.5270004272461,-28.104999542236328 68.5999984741211,-25.89699935913086 C62.854000091552734,-22.805999755859375 57.44499969482422,-19.191999435424805 51.529998779296875,-16.85099983215332 C35.88199996948242,-10.656999588012695 20.018999099731445,-5.002999782562256 4.23199987411499,0.843999981880188 C-18.898000717163086,9.40999984741211 -41.78200149536133,18.474000930786133 -61.9900016784668,33.02299880981445 C-62.2400016784668,33.202999114990234 -62.66699981689453,33.13600158691406 -63.39899826049805,33.23899841308594 C-64.99400329589844,27.113000869750977 -66.59700012207031,20.959999084472656 -68.5999984741211,13.267999649047852 C-20.496999740600586,7.585000038146973 22.52400016784668,-11.319000244140625 64.64199829101562,-33.23899841308594z"/></g><g opacity="1" transform="matrix(1,0,0,1,261.3840026855469,139.18499755859375)"><path fill="rgb(255,254,255)" fill-opacity="1" d=" M29.45199966430664,-14.79800033569336 C27.542999267578125,-8.258000373840332 25.711999893188477,-1.9819999933242798 23.742000579833984,4.76800012588501 C6.982999801635742,1.284999966621399 -7.599999904632568,7.567999839782715 -21.715999603271484,16.52899932861328 C-24.361000061035156,9.380000114440918 -26.836000442504883,2.687000036239624 -29.45199966430664,-4.381999969482422 C-11.081000328063965,-14.84000015258789 8.77400016784668,-16.52899932861328 29.45199966430664,-14.79800033569336z"/></g><g opacity="1" transform="matrix(1,0,0,1,499.0320129394531,101.16000366210938)"><path fill="rgb(255,254,255)" fill-opacity="1" d=" M15.798999786376953,-19.753000259399414 C16.988000869750977,-15.243000030517578 18.46500015258789,-9.935999870300293 19.725000381469727,-4.578999996185303 C19.93000030517578,-3.7090001106262207 19.4060001373291,-2.4590001106262207 18.84000015258789,-1.6490000486373901 C13.803000450134277,5.541999816894531 8.680000305175781,12.67300033569336 3.631999969482422,19.753000259399414 C-0.15000000596046448,5.236000061035156 -7.039000034332275,-8.611000061035156 -19.929000854492188,-19.753000259399414 C-8.42199993133545,-19.753000259399414 3.0829999446868896,-19.753000259399414 15.798999786376953,-19.753000259399414z"/></g><g opacity="1" transform="matrix(1,0,0,1,57.88600158691406,152.57899475097656)"><path fill="rgb(255,254,255)" fill-opacity="1" d=" M-4.6519999504089355,11.989999771118164 C-5.242000102996826,8.15999984741211 -5.39900016784668,4.199999809265137 -6.504000186920166,0.5239999890327454 C-9.895000457763672,-10.751999855041504 -10.039999961853027,-10.722000122070312 1.3309999704360962,-14.536999702453613 C3.046999931335449,-15.11299991607666 4.818999767303467,-15.520000457763672 6.755000114440918,-16.05900001525879 C7.885000228881836,-5.011000156402588 8.982000350952148,5.710999965667725 10.039999961853027,16.05900001525879 C4.988999843597412,14.640999794006348 0.12300000339746475,13.274999618530273 -4.758999824523926,11.895999908447266 C-4.775000095367432,11.883000373840332 -4.6519999504089355,11.989999771118164 -4.6519999504089355,11.989999771118164z"/></g><g opacity="1" transform="matrix(1,0,0,1,393.5740051269531,163.36399841308594)"><path fill="rgb(0,0,0)" fill-opacity="1" d=" M-15.520999908447266,71.99500274658203 C-17.334999084472656,71.99500274658203 -19.749000549316406,71.90699768066406 -22.155000686645508,72.00900268554688 C-38.01900100708008,72.68199920654297 -50.678001403808594,66.90499877929688 -59.887001037597656,53.78200149536133 C-74.69400024414062,32.68000030517578 -87.02899932861328,10.482000350952148 -91.12899780273438,-15.399999618530273 C-91.45700073242188,-17.4689998626709 -91.26899719238281,-19.80900001525879 -90.63800048828125,-21.80900001525879 C-84.96299743652344,-39.792999267578125 -71.69499969482422,-50.56700134277344 -54.599998474121094,-55.981998443603516 C-41.652000427246094,-60.08399963378906 -27.981000900268555,-62.308998107910156 -14.46500015258789,-64.13999938964844 C6.28000020980835,-66.94999694824219 27.14699935913086,-68.93099975585938 48.00199890136719,-70.83899688720703 C68.13899993896484,-72.68099975585938 89.69599914550781,-60.38999938964844 90.8489990234375,-32.17599868774414 C91.52400207519531,-15.65999984741211 89.83899688720703,1.0290000438690186 88.16899871826172,17.53499984741211 C87.25,26.618000030517578 84.59600067138672,35.6150016784668 81.91100311279297,44.40299987792969 C79.89399719238281,51.005001068115234 74.92500305175781,55.47100067138672 68.49400329589844,58.439998626708984 C51.88100051879883,66.11000061035156 34.27799987792969,69.16999816894531 16.191999435424805,70.20099639892578 C5.823999881744385,70.79199981689453 -4.545000076293945,71.3740005493164 -15.520999908447266,71.99500274658203z M-45.165000915527344,-56.24700164794922 C-45.17300033569336,-55.52799987792969 -45.180999755859375,-54.80799865722656 -45.18899917602539,-54.0880012512207 C-40.09000015258789,-52.49800109863281 -34.95899963378906,-51.00299835205078 -29.902999877929688,-49.290000915527344 C-25.545000076293945,-47.8129997253418 -20.715999603271484,-46.8390007019043 -17.150999069213867,-44.215999603271484 C-14.689000129699707,-42.40399932861328 -12.178999900817871,-37.6609992980957 -12.878999710083008,-35.09199905395508 C-15.748000144958496,-24.562000274658203 -28.277999877929688,-20.905000686645508 -37.143001556396484,-27.055999755859375 C-45.959999084472656,-33.172000885009766 -54.91600036621094,-39.10499954223633 -64.03299713134766,-44.76300048828125 C-65.63800048828125,-45.75899887084961 -69.0260009765625,-45.93899917602539 -70.41799926757812,-44.91400146484375 C-82.68800354003906,-35.87699890136719 -91.52400207519531,-24.547000885009766 -86.5459976196289,-6.050000190734863 C-80.31900024414062,17.08799934387207 -67.56400299072266,36.354000091552734 -53.29100036621094,54.9010009765625 C-48.108001708984375,61.637001037597656 -40.77199935913086,65.72200012207031 -32.27299880981445,66.03099822998047 C-19.518999099731445,66.49600219726562 -6.7220001220703125,66.32499694824219 6.039999961853027,65.9020004272461 C25.371999740600586,65.26200103759766 44.422000885009766,63.167999267578125 62.680999755859375,55.81800079345703 C72.0260009765625,52.05699920654297 77.47200012207031,45.792999267578125 80.125,36.49300003051758 C85.46199798583984,17.78700065612793 86.0199966430664,-1.5010000467300415 86.48899841308594,-20.701000213623047 C86.68099975585938,-28.518999099731445 84.85199737548828,-36.46900177001953 83.2750015258789,-44.222999572753906 C81.81199645996094,-51.41400146484375 77.23799896240234,-56.742000579833984 71.13899993896484,-60.8489990234375 C63.36399841308594,-66.08300018310547 54.7239990234375,-67.66999816894531 45.64099884033203,-66.77300262451172 C23.87299919128418,-64.62300109863281 2.121000051498413,-62.31100082397461 -19.617000579833984,-59.87900161743164 C-28.16200065612793,-58.92300033569336 -36.6510009765625,-57.472999572753906 -45.165000915527344,-56.24700164794922z M-62.551998138427734,-49.39099884033203 C-52.72700119018555,-42.314998626708984 -42.99399948120117,-35.37900161743164 -33.35200119018555,-28.31800079345703 C-30.26799964904785,-26.06100082397461 -27.011999130249023,-24.527999877929688 -23.790000915527344,-27.256000518798828 C-20.69099998474121,-29.878999710083008 -16.7450008392334,-32.8650016784668 -15.95300006866455,-36.32500076293945 C-15.486000061035156,-38.36600112915039 -20.145999908447266,-41.99399948120117 -23.027999877929688,-44.23099899291992 C-24.954999923706055,-45.72700119018555 -27.79800033569336,-46.06700134277344 -30.25200080871582,-46.861000061035156 C-34.2859992980957,-48.165000915527344 -38.67900085449219,-48.80500030517578 -42.31100082397461,-50.819000244140625 C-49.8120002746582,-54.97700119018555 -56.41600036621094,-53.465999603271484 -62.551998138427734,-49.39099884033203z"/></g><g opacity="1" transform="matrix(1,0,0,1,156.48199462890625,196.41900634765625)"><path fill="rgb(0,0,0)" fill-opacity="1" d=" M-6.571000099182129,-68.95500183105469 C12.154000282287598,-67.37999725341797 27.698999404907227,-66.2979965209961 43.19200134277344,-64.70999908447266 C60.07400131225586,-62.979000091552734 70.54100036621094,-54.05500030517578 74.25599670410156,-37.58399963378906 C79.9020004272461,-12.54699993133545 78.0250015258789,12.152000427246094 68.41899871826172,35.9900016784668 C61.50600051879883,53.143001556396484 47.40999984741211,62.172000885009766 30.02400016784668,65.6449966430664 C13.45300006866455,68.95500183105469 -3.2699999809265137,68.19599914550781 -19.31800079345703,62.14099884033203 C-33.84600067138672,56.659000396728516 -44.064998626708984,46.2239990234375 -51.77899932861328,33.04399871826172 C-65.6500015258789,9.343999862670898 -73.0770034790039,-16.476999282836914 -77.39299774169922,-43.36399841308594 C-77.8030014038086,-45.92100143432617 -79.53199768066406,-48.29899978637695 -79.76200103759766,-50.84000015258789 C-79.9020004272461,-52.3849983215332 -78.75700378417969,-54.5989990234375 -77.47599792480469,-55.630001068115234 C-70.62899780273438,-61.13399887084961 -62.47800064086914,-63.80799865722656 -53.89500045776367,-64.6969985961914 C-37.132999420166016,-66.43199920654297 -20.326000213623047,-67.73799896240234 -6.571000099182129,-68.95500183105469z M-76.06099700927734,-54.03799819946289 C-75.44300079345703,-50.6609992980957 -75.06800079345703,-48.67399978637695 -74.71600341796875,-46.68199920654297 C-69.66300201416016,-18.040000915527344 -61.41999816894531,9.470000267028809 -46.12900161743164,34.54199981689453 C-37.71900177001953,48.332000732421875 -25.878000259399414,57.439998626708984 -10.189000129699707,61.48099899291992 C2.816999912261963,64.83200073242188 16.023000717163086,64.68199920654297 29.01799964904785,62.1609992980957 C42.904998779296875,59.46699905395508 55.641998291015625,53.51900100708008 62.262001037597656,40.28200149536133 C74.75199890136719,15.312999725341797 77.30500030517578,-11.095000267028809 69.65499877929688,-37.97600173950195 C66.11399841308594,-50.41999816894531 57.768001556396484,-58.422000885009766 43.94900131225586,-60.04899978637695 C8.958999633789062,-64.16600036621094 -25.97800064086914,-65.58599853515625 -60.821998596191406,-59.058998107910156 C-65.98200225830078,-58.09199905395508 -70.88899993896484,-55.77799987792969 -76.06099700927734,-54.03799819946289z"/></g><g opacity="1" transform="matrix(1,0,0,1,354.55499267578125,123.61100006103516)"><path fill="rgb(255,254,255)" fill-opacity="1" d=" M-23.533000946044922,-9.638999938964844 C-17.39699935913086,-13.71399974822998 -10.793000221252441,-15.225000381469727 -3.2920000553131104,-11.067000389099121 C0.3400000035762787,-9.053000450134277 4.732999801635742,-8.413000106811523 8.767000198364258,-7.109000205993652 C11.220999717712402,-6.315000057220459 14.064000129699707,-5.974999904632568 15.991000175476074,-4.479000091552734 C18.87299919128418,-2.242000102996826 23.533000946044922,1.3860000371932983 23.06599998474121,3.427000045776367 C22.27400016784668,6.88700008392334 18.327999114990234,9.87399959564209 15.229000091552734,12.496999740600586 C12.006999969482422,15.225000381469727 8.75100040435791,13.690999984741211 5.666999816894531,11.434000015258789 C-3.9749999046325684,4.373000144958496 -13.708000183105469,-2.562999963760376 -23.533000946044922,-9.638999938964844z"/></g></g></g></svg>