<svg xmlns="http://www.w3.org/2000/svg" xmlns:xlink="http://www.w3.org/1999/xlink" viewBox="0 0 1900 3775" width="1900" height="3775" preserveAspectRatio="xMidYMid meet" style="width: 100%; height: 100%; transform: translate3d(0px, 0px, 0px); content-visibility: visible;"><defs><clipPath id="__lottie_element_163"><rect width="1900" height="3775" x="0" y="0"/></clipPath></defs><g clip-path="url(#__lottie_element_163)"><g transform="matrix(0.9287142753601074,0,0,0.9287142753601074,277.6192626953125,1383.1268310546875)" opacity="1" style="display: block;"><g opacity="1" transform="matrix(1,0,0,1,186.0590057373047,162.18099975585938)"><path fill="rgb(254,254,255)" fill-opacity="1" d=" M40.029998779296875,-128.1510009765625 C-21.469999313354492,-116.4489974975586 -78.70099639892578,-83.4209976196289 -119.6050033569336,-36.02899932861328 C-135.66799926757812,-17.41699981689453 -149.52000427246094,3.9179999828338623 -154.72799682617188,27.944000244140625 C-159.08399963378906,48.042999267578125 -156.5570068359375,70.7040023803711 -143.20599365234375,86.34600067138672 C-134.86000061035156,96.125 -123.06999969482422,102.35399627685547 -110.99099731445312,106.75499725341797 C-52.270999908447266,128.1510009765625 14.361000061035156,109.7959976196289 67.94000244140625,77.62200164794922 C99.7030029296875,58.54800033569336 129.6230010986328,33.40999984741211 144.35400390625,-0.5870000123977661 C159.0850067138672,-34.58399963378906 154.85800170898438,-78.73400115966797 126.77300262451172,-102.9000015258789 C102.09100341796875,-124.13800048828125 66.0790023803711,-125.56400299072266 33.83399963378906,-121.03199768066406"/></g><g opacity="1" transform="matrix(1,0,0,1,184.5709991455078,155.94900512695312)"><path fill="rgb(0,0,0)" fill-opacity="1" d=" M43.07699966430664,-123.8219985961914 C12.831999778747559,-118.03900146484375 -16.676000595092773,-107.79299926757812 -43.8129997253418,-93.20999908447266 C-69.59100341796875,-79.35800170898438 -93.30699920654297,-61.779998779296875 -113.77100372314453,-40.8380012512207 C-134.61300659179688,-19.509000778198242 -153.76199340820312,5.855999946594238 -160.3419952392578,35.50299835205078 C-163.3769989013672,49.17900085449219 -163.32699584960938,63.89699935913086 -158.66799926757812,77.21099853515625 C-156.3419952392578,83.85700225830078 -152.822998046875,90.0790023803711 -148.11599731445312,95.33100128173828 C-143.1750030517578,100.84300231933594 -137.1280059814453,105.2699966430664 -130.64199829101562,108.79499816894531 C-117.40899658203125,115.98699951171875 -102.39099884033203,120.16100311279297 -87.5780029296875,122.51000213623047 C-72.27100372314453,124.93699645996094 -56.70000076293945,125.03199768066406 -41.29399871826172,123.56800079345703 C-8.885000228881836,120.48699951171875 22.930999755859375,110.31199645996094 52.07099914550781,95.98999786376953 C78.3759994506836,83.06199645996094 103.88400268554688,66.69200134277344 124.43499755859375,45.625 C143.56300354003906,26.017000198364258 158.00399780273438,1.4270000457763672 160.83299255371094,-26.19099998474121 C163.3780059814453,-51.04100036621094 156.85299682617188,-77.81099700927734 138.57200622558594,-95.6500015258789 C117.95999908447266,-115.76399993896484 87.98400115966797,-120.30599975585938 60.310001373291016,-119.04499816894531 C53.0620002746582,-118.71499633789062 45.82600021362305,-117.99299621582031 38.64099884033203,-116.98999786376953 C35.45899963378906,-116.5459976196289 31.584999084472656,-115.86499786376953 28.908000946044922,-113.96800231933594 C26.420000076293945,-112.20500183105469 31.20599937438965,-112.4990005493164 32.00400161743164,-112.61000061035156 C35.409000396728516,-113.08499908447266 38.823001861572266,-113.48600006103516 42.244998931884766,-113.822998046875 C43.82899856567383,-113.97899627685547 41.01900100708008,-113.7249984741211 42.606998443603516,-113.85399627685547 C43.07899856567383,-113.89199829101562 43.54899978637695,-113.93399810791016 44.02000045776367,-113.97100067138672 C44.80699920654297,-114.03299713134766 45.59299850463867,-114.09200286865234 46.380001068115234,-114.1449966430664 C48.11399841308594,-114.26200103759766 49.8489990234375,-114.35800170898438 51.584999084472656,-114.4280014038086 C53.323001861572266,-114.49800109863281 55.06100082397461,-114.54399871826172 56.79899978637695,-114.56300354003906 C57.5890007019043,-114.5719985961914 58.37900161743164,-114.57499694824219 59.16899871826172,-114.572998046875 C59.15999984741211,-114.572998046875 60.7130012512207,-114.55599975585938 59.86000061035156,-114.56900024414062 C60.33300018310547,-114.56199645996094 60.805999755859375,-114.5530014038086 61.27899932861328,-114.54199981689453 C64.73500061035156,-114.46099853515625 68.18800354003906,-114.26499938964844 71.62799835205078,-113.93699645996094 C84.91999816894531,-112.6709976196289 98.10700225830078,-109.29000091552734 109.78399658203125,-102.67500305175781 C120.85700225830078,-96.4020004272461 129.9429931640625,-87.34700012207031 136.20199584960938,-76.26499938964844 C142.24099731445312,-65.572998046875 145.58099365234375,-53.481998443603516 146.60400390625,-41.279998779296875 C147.6490020751953,-28.804000854492188 146.31900024414062,-16.121000289916992 142.80599975585938,-4.109000205993652 C139.05499267578125,8.717000007629395 132.5469970703125,20.70400047302246 124.68800354003906,31.46299934387207 C108.25700378417969,53.95600128173828 85.68900299072266,71.19499969482422 61.930999755859375,85.33300018310547 C55.48899841308594,89.16600036621094 49.777000427246094,92.29100036621094 42.946998596191406,95.697998046875 C39.59700012207031,97.36900329589844 36.215999603271484,98.97699737548828 32.805999755859375,100.51899719238281 C31.176000595092773,101.25599670410156 29.538999557495117,101.97699737548828 27.895999908447266,102.68499755859375 C29.131999969482422,102.1520004272461 27.56800079345703,102.822998046875 27.41699981689453,102.88700103759766 C27.10300064086914,103.01899719238281 26.788000106811523,103.1510009765625 26.474000930786133,103.28199768066406 C25.45199966430664,103.70800018310547 24.427000045776367,104.12799835205078 23.399999618530273,104.54199981689453 C20.0049991607666,105.91100311279297 16.58300018310547,107.21299743652344 13.135000228881836,108.44300079345703 C12.654999732971191,108.61499786376953 12.17300033569336,108.78299713134766 11.692000389099121,108.9540023803711 C10.041000366210938,109.53800201416016 13.105999946594238,108.47599792480469 11.447999954223633,109.03700256347656 C10.642999649047852,109.30899810791016 9.83899974822998,109.58200073242188 9.031999588012695,109.8489990234375 C7.257999897003174,110.43499755859375 5.478000164031982,111.00199890136719 3.693000078201294,111.54900360107422 C2.7200000286102295,111.84700012207031 1.7450000047683716,112.13899993896484 0.7680000066757202,112.42500305175781 C0.4429999887943268,112.5199966430664 0.11800000071525574,112.61399841308594 -0.20800000429153442,112.70800018310547 C-0.7070000171661377,112.85199737548828 -2.128999948501587,113.52999877929688 -0.25999999046325684,112.72699737548828 C-1.9110000133514404,113.43699645996094 -3.9170000553131104,113.7239990234375 -5.6539998054504395,114.16600036621094 C-7.453999996185303,114.6240005493164 -9.260000228881836,115.052001953125 -11.069000244140625,115.4739990234375 C-12.73799991607666,115.86399841308594 -9.769000053405762,115.19200134277344 -10.864999771118164,115.42900085449219 C-11.277000427246094,115.51799774169922 -11.687999725341797,115.61000061035156 -12.100000381469727,115.697998046875 C-13.086999893188477,115.91000366210938 -14.076000213623047,116.11499786376953 -15.065999984741211,116.31300354003906 C-16.878000259399414,116.677001953125 -18.694000244140625,117.01699829101562 -20.514999389648438,117.33399963378906 C-20.92799949645996,117.40599822998047 -21.341999053955078,117.4739990234375 -21.7549991607666,117.5459976196289 C-22.801000595092773,117.7300033569336 -20.08799934387207,117.28700256347656 -21.73200035095215,117.54399871826172 C-22.724000930786133,117.6989974975586 -23.716999053955078,117.85299682617188 -24.711000442504883,117.99700164794922 C-26.5310001373291,118.26000213623047 -28.354000091552734,118.5 -30.18000030517578,118.71399688720703 C-31.007999420166016,118.81199645996094 -31.836999893188477,118.90299987792969 -32.66699981689453,118.98999786376953 C-33.16400146484375,119.04199981689453 -33.6619987487793,119.08999633789062 -34.15999984741211,119.13899993896484 C-35.81999969482422,119.30500030517578 -32.970001220703125,119.04399871826172 -34.63199996948242,119.18299865722656 C-38.275001525878906,119.48699951171875 -41.92300033569336,119.70899963378906 -45.57699966430664,119.81199645996094 C-49.41299819946289,119.91899871826172 -52.19599914550781,119.90799713134766 -55.79199981689453,119.7770004272461 C-70.25599670410156,119.2490005493164 -84.61599731445312,116.85800170898438 -98.37200164794922,112.3219985961914 C-111.98500061035156,107.83200073242188 -125.8239974975586,101.33699798583984 -135.10699462890625,90.03800201416016 C-143.84300231933594,79.40599822998047 -147.6929931640625,65.5989990234375 -147.97000122070312,52.00699996948242 C-148.57699584960938,22.2549991607666 -132.7740020751953,-5.041999816894531 -114.35399627685547,-27.274999618530273 C-96.39299774169922,-48.95500183105469 -74.99400329589844,-67.70999908447266 -51.32500076293945,-82.93199920654297 C-48.35499954223633,-84.84200286865234 -45.349998474121094,-86.6969985961914 -42.31100082397461,-88.49500274658203 C-40.861000061035156,-89.35299682617188 -39.40299987792969,-90.1989974975586 -37.9370002746582,-91.03099822998047 C-37.2400016784668,-91.427001953125 -36.540000915527344,-91.82099914550781 -35.8390007019043,-92.21199798583984 C-36.5620002746582,-91.80899810791016 -35.180999755859375,-92.5739974975586 -35.20600128173828,-92.56099700927734 C-34.7130012512207,-92.83100128173828 -34.21900177001953,-93.0989990234375 -33.724998474121094,-93.36599731445312 C-27.583999633789062,-96.68599700927734 -21.31999969482422,-99.78099822998047 -14.951000213623047,-102.63999938964844 C-14.071999549865723,-103.03399658203125 -13.192000389099121,-103.42400360107422 -12.309000015258789,-103.80899810791016 C-11.963000297546387,-103.95999908447266 -9.76099967956543,-104.9010009765625 -11.057999610900879,-104.35299682617188 C-9.430999755859375,-105.04000091552734 -7.802000045776367,-105.71800231933594 -6.164000034332275,-106.37699890136719 C-2.8889999389648438,-107.69599914550781 0.4099999964237213,-108.9530029296875 3.7320001125335693,-110.14700317382812 C4.63700008392334,-110.47200012207031 5.539000034332275,-110.81700134277344 6.454999923706055,-111.11000061035156 C6.2820000648498535,-111.05500030517578 4.97599983215332,-110.6050033569336 6.135000228881836,-110.99800109863281 C6.591000080108643,-111.1520004272461 7.046000003814697,-111.30799865722656 7.501999855041504,-111.46199798583984 C9.175000190734863,-112.0250015258789 10.852999687194824,-112.57099914550781 12.536999702453613,-113.10199737548828 C14.220000267028809,-113.63300323486328 15.907999992370605,-114.14800262451172 17.60099983215332,-114.64700317382812 C18.371000289916992,-114.8740005493164 19.142000198364258,-115.09500122070312 19.913000106811523,-115.31700134277344 C21.56999969482422,-115.79399871826172 18.198999404907227,-114.84300231933594 19.86199951171875,-115.3010025024414 C20.32699966430664,-115.42900085449219 20.790000915527344,-115.55799865722656 21.2549991607666,-115.68399810791016 C24.506000518798828,-116.56900024414062 27.77400016784668,-117.39399719238281 31.055999755859375,-118.15799713134766 C31.524999618530273,-118.26699829101562 31.9950008392334,-118.3740005493164 32.4640007019043,-118.48200225830078 C34.14500045776367,-118.87000274658203 30.72599983215332,-118.1050033569336 32.41299819946289,-118.46900177001953 C33.196998596191406,-118.63800048828125 33.98099899291992,-118.81099700927734 34.76599884033203,-118.97599792480469 C36.49399948120117,-119.33999633789062 38.224998474121094,-119.68499755859375 39.959999084472656,-120.01699829101562 C41.814998626708984,-120.37200164794922 43.715999603271484,-120.88300323486328 45.479000091552734,-121.56999969482422 C46.027000427246094,-121.78299713134766 48.237998962402344,-122.54399871826172 48.56999969482422,-123.28700256347656 C49.35100173950195,-125.03199768066406 43.45899963378906,-123.8949966430664 43.07699966430664,-123.8219985961914 C43.07699966430664,-123.8219985961914 43.07699966430664,-123.8219985961914 43.07699966430664,-123.8219985961914z"/></g></g><g transform="matrix(0.7208863496780396,-0.1798039674758911,0.1798039674758911,0.7208863496780396,367.79840087890625,1587.3319091796875)" opacity="1" fill="rgb(0,0,0)" font-size="106" font-family="Classic Comic" font-style="normal" font-weight="400" aria-label="too" style="display: block;"><g stroke-linecap="butt" stroke-linejoin="round" stroke-miterlimit="4" transform="matrix(1,0,0,1,0,0)" opacity="1" style="display: inherit;"><g><g transform="matrix(1,0,0,1,0,0)" opacity="1" style="display: block;"><path d=" M41.74,-61.27 C45.05,-62.13 52.52,-62.98 58.93,-62.98 C64.05,-62.98 66.61,-65.87 66.61,-70.24 C66.61,-75.37 63.09,-76.22 59.67,-76.22 C54.23,-76.22 49.21,-74.94 32.56,-73.66 C15.69,-72.38 10.46,-71.74 5.55,-69.39 C3.31,-68.32 1.71,-64.9 1.71,-61.27 C1.71,-58.61 3.31,-56.36 6.62,-56.36 C9.07,-56.36 21.14,-59.35 27.11,-59.46 C27.11,-54.02 27.54,-45.9 27.54,-39.6 C27.54,-28.29 26.26,-18.89 26.26,-8.33 C26.26,-2.35 27.65,-0.11 33.09,-0.11 C41.21,-0.11 41.53,-11.74 41.53,-17.61 C41.53,-27.33 41.95,-36.51 41.95,-48.89 C41.95,-52.31 41.74,-57.64 41.74,-61.27z"/><g opacity="1" transform="matrix(1.059999942779541,0,0,1.059999942779541,0,0)"/></g></g></g><g stroke-linecap="butt" stroke-linejoin="round" stroke-miterlimit="4" transform="matrix(1,0,0,1,67.94599914550781,0)" opacity="1" style="display: inherit;"><g><g transform="matrix(1,0,0,1,0,0)" opacity="1" style="display: block;"><path d=" M91.27,-46.97 C91.27,-65.97 75.26,-76.97 58.71,-76.97 C33.52,-76.97 4.27,-55.08 4.27,-28.4 C4.27,-9.61 17.19,0 36.94,0 C60.53,0 91.27,-16.12 91.27,-46.97z M76.97,-44.62 C76.97,-26.37 56.79,-12.6 36.3,-12.6 C27.97,-12.6 19.64,-16.76 19.64,-27.43 C19.64,-46.12 39.5,-64.37 57.11,-64.37 C68.43,-64.37 76.97,-57.86 76.97,-44.62z"/><g opacity="1" transform="matrix(1.059999942779541,0,0,1.059999942779541,0,0)"/></g></g></g><g stroke-linecap="butt" stroke-linejoin="round" stroke-miterlimit="4" transform="matrix(1,0,0,1,162.7100067138672,0)" opacity="1" style="display: inherit;"><g><g transform="matrix(1,0,0,1,0,0)" opacity="1" style="display: block;"><path d=" M91.27,-46.97 C91.27,-65.97 75.26,-76.97 58.71,-76.97 C33.52,-76.97 4.27,-55.08 4.27,-28.4 C4.27,-9.61 17.19,0 36.94,0 C60.53,0 91.27,-16.12 91.27,-46.97z M76.97,-44.62 C76.97,-26.37 56.79,-12.6 36.3,-12.6 C27.97,-12.6 19.64,-16.76 19.64,-27.43 C19.64,-46.12 39.5,-64.37 57.11,-64.37 C68.43,-64.37 76.97,-57.86 76.97,-44.62z"/><g opacity="1" transform="matrix(1.059999942779541,0,0,1.059999942779541,0,0)"/></g></g></g></g><g style="display: none;"><g><path/></g><g><path/></g></g><g transform="matrix(0,0,0,0,338.4469909667969,2094.31591796875)" opacity="1" fill="rgb(0,0,0)" font-size="106" font-family="Classic Comic" font-style="normal" font-weight="400" aria-label="much" style="display: block;"><g stroke-linecap="butt" stroke-linejoin="round" stroke-miterlimit="4" transform="matrix(1,0,0,1,0,0)" opacity="1" style="display: inherit;"><g><g transform="matrix(1,0,0,1,0,0)" opacity="1" style="display: block;"><path d=" M71.1,-8.33 C71.1,-2.78 74.83,-0.43 81.98,-0.43 C85.51,-0.43 88.39,-2.78 88.39,-6.94 C88.39,-8.01 88.18,-8.97 87.86,-11 C84.55,-31.81 83.59,-37.26 82.2,-49 C80.7,-62.13 80.06,-68.96 79.96,-69.49 C79.42,-71.63 76.54,-77.18 70.24,-77.18 C68.21,-77.18 66.19,-75.58 65.33,-73.66 C61.27,-65.12 59.57,-58.82 55.51,-51.35 C51.45,-43.77 45.69,-32.13 45.05,-31.6 C44.41,-32.13 38.64,-43.77 34.59,-51.35 C30.53,-58.82 28.82,-65.12 24.77,-73.66 C23.91,-75.58 21.88,-77.18 19.86,-77.18 C13.56,-77.18 10.68,-71.63 10.14,-69.49 C10.03,-68.96 9.39,-62.13 7.9,-49 C6.51,-37.26 5.55,-31.81 2.24,-11 C1.92,-8.97 1.71,-8.01 1.71,-6.94 C1.71,-2.78 4.59,-0.43 8.11,-0.43 C15.27,-0.43 19,-2.78 19,-8.33 C19,-8.33 18.47,-13.88 18.47,-17.4 C18.47,-22.1 19.64,-37.68 21.88,-45.9 C28.08,-34.16 32.67,-24.55 38.11,-11.96 C39.6,-8.54 41.95,-6.4 45.05,-6.4 C48.15,-6.4 50.49,-8.54 51.99,-11.96 C57.43,-24.55 62.02,-34.16 68.21,-45.9 C70.46,-37.68 71.63,-22.1 71.63,-17.4 C71.63,-13.88 71.1,-8.33 71.1,-8.33z"/><g opacity="1" transform="matrix(1.059999942779541,0,0,1.059999942779541,0,0)"/></g></g></g><g stroke-linecap="butt" stroke-linejoin="round" stroke-miterlimit="4" transform="matrix(1,0,0,1,90.0999984741211,0)" opacity="1" style="display: inherit;"><g><g transform="matrix(1,0,0,1,0,0)" opacity="1" style="display: block;"><path d=" M57.86,-8.65 C58.61,-2.88 60.96,0.32 65.22,0.32 C70.03,0.32 72.8,-1.28 72.8,-8.43 C72.8,-13.24 71.31,-24.23 71.31,-32.35 C71.31,-43.98 72.16,-52.31 73.44,-63.09 C73.66,-65.33 74.08,-67.47 74.08,-69.28 C74.08,-72.91 72.27,-76.01 68.11,-76.01 C63.94,-76.01 57.32,-72.7 57.32,-64.8 C57.32,-61.38 57.54,-58.29 57.54,-55.19 C57.54,-47.72 57.22,-40.67 56.79,-31.28 C56.58,-27.11 55.51,-22.85 52.63,-19.86 C47.93,-15.05 42.27,-12.92 32.88,-12.92 C24.98,-12.92 19.64,-15.05 19.64,-22.31 C19.64,-31.28 21.24,-41.63 21.99,-46.54 C22.95,-53.06 24.77,-58.29 24.77,-64.48 C24.77,-71.2 21.56,-74.73 16.87,-74.73 C8.86,-74.73 8.11,-63.2 7.47,-54.55 C6.62,-42.81 3.95,-28.82 3.95,-21.67 C3.95,-3.2 20.18,1.39 35.44,1.39 C46.86,1.39 54.02,-3.52 57.86,-8.65z"/><g opacity="1" transform="matrix(1.059999942779541,0,0,1.059999942779541,0,0)"/></g></g></g><g stroke-linecap="butt" stroke-linejoin="round" stroke-miterlimit="4" transform="matrix(1,0,0,1,167.79798889160156,0)" opacity="1" style="display: inherit;"><g><g transform="matrix(1,0,0,1,0,0)" opacity="1" style="display: block;"><path d=" M68.21,-20.5 C68.21,-23.38 66.61,-25.62 63.09,-25.62 C56.15,-25.62 54.44,-12.6 33.09,-12.6 C26.05,-12.6 18.57,-15.59 18.57,-24.66 C18.57,-41.21 30.96,-60.74 45.9,-60.74 C54.98,-60.74 57.22,-54.87 61.81,-54.87 C65.01,-54.87 67.68,-56.26 67.68,-61.06 C67.68,-71.1 58.29,-75.69 49.64,-75.69 C28.29,-75.69 3.2,-51.24 3.2,-23.81 C3.2,-7.37 18.68,1.07 35.33,1.07 C48.89,1.07 68.21,-10.04 68.21,-20.5z"/><g opacity="1" transform="matrix(1.059999942779541,0,0,1.059999942779541,0,0)"/></g></g></g><g stroke-linecap="butt" stroke-linejoin="round" stroke-miterlimit="4" transform="matrix(1,0,0,1,238.28799438476562,0)" opacity="1" style="display: inherit;"><g><g transform="matrix(1,0,0,1,0,0)" opacity="1" style="display: block;"><path d=" M56.36,-31.7 C56.47,-29.57 56.58,-26.26 56.58,-24.13 C56.58,-16.87 56.26,-9.93 56.26,-7.69 C56.26,-1.71 57.54,0.32 64.58,0.32 C70.03,0.32 70.67,-3.42 70.67,-9.07 C70.56,-21.99 70.46,-30.53 70.46,-38 C70.46,-46.54 71.31,-61.27 71.31,-65.76 C71.31,-71.84 68.64,-74.19 61.49,-74.19 C58.71,-74.19 56.9,-72.59 56.68,-70.35 C56.47,-67.47 56.47,-62.45 56.47,-61.27 C56.47,-56.79 56.47,-48.89 56.36,-44.41 C42.49,-43.55 34.69,-42.91 21.35,-42.81 C21.88,-56.26 23.17,-64.8 23.17,-67.57 C23.17,-70.56 22.1,-74.08 14.09,-74.08 C10.46,-74.08 7.69,-71.31 7.69,-62.24 C7.69,-52.31 6.62,-42.17 6.62,-27.54 C6.62,-21.24 6.73,-12.28 7.05,-5.44 C7.26,-0.75 10.67,0.85 13.02,0.85 C16.44,0.85 20.92,-0.85 20.92,-6.83 C20.92,-12.38 20.71,-17.51 20.71,-22.2 C20.71,-25.09 20.82,-27.86 21.03,-30.53 C35.76,-31.38 43.66,-31.7 56.36,-31.7z"/><g opacity="1" transform="matrix(1.059999942779541,0,0,1.059999942779541,0,0)"/></g></g></g></g><g style="display: none;"><g><path/></g><g><path/></g></g><g transform="matrix(0,0,0,0,436.927001953125,3205.131103515625)" opacity="1" fill="rgb(0,0,0)" font-size="106" font-family="Classic Comic" font-style="normal" font-weight="400" aria-label="to learn" style="display: block;"><g stroke-linecap="butt" stroke-linejoin="round" stroke-miterlimit="4" transform="matrix(1,0,0,1,0,0)" opacity="1" style="display: inherit;"><g><g transform="matrix(1,0,0,1,0,0)" opacity="1" style="display: block;"><path d=" M41.74,-61.27 C45.05,-62.13 52.52,-62.98 58.93,-62.98 C64.05,-62.98 66.61,-65.87 66.61,-70.24 C66.61,-75.37 63.09,-76.22 59.67,-76.22 C54.23,-76.22 49.21,-74.94 32.56,-73.66 C15.69,-72.38 10.46,-71.74 5.55,-69.39 C3.31,-68.32 1.71,-64.9 1.71,-61.27 C1.71,-58.61 3.31,-56.36 6.62,-56.36 C9.07,-56.36 21.14,-59.35 27.11,-59.46 C27.11,-54.02 27.54,-45.9 27.54,-39.6 C27.54,-28.29 26.26,-18.89 26.26,-8.33 C26.26,-2.35 27.65,-0.11 33.09,-0.11 C41.21,-0.11 41.53,-11.74 41.53,-17.61 C41.53,-27.33 41.95,-36.51 41.95,-48.89 C41.95,-52.31 41.74,-57.64 41.74,-61.27z"/><g opacity="1" transform="matrix(1.059999942779541,0,0,1.059999942779541,0,0)"/></g></g></g><g stroke-linecap="butt" stroke-linejoin="round" stroke-miterlimit="4" transform="matrix(1,0,0,1,67.94599914550781,0)" opacity="1" style="display: inherit;"><g><g transform="matrix(1,0,0,1,0,0)" opacity="1" style="display: block;"><path d=" M91.27,-46.97 C91.27,-65.97 75.26,-76.97 58.71,-76.97 C33.52,-76.97 4.27,-55.08 4.27,-28.4 C4.27,-9.61 17.19,0 36.94,0 C60.53,0 91.27,-16.12 91.27,-46.97z M76.97,-44.62 C76.97,-26.37 56.79,-12.6 36.3,-12.6 C27.97,-12.6 19.64,-16.76 19.64,-27.43 C19.64,-46.12 39.5,-64.37 57.11,-64.37 C68.43,-64.37 76.97,-57.86 76.97,-44.62z"/><g opacity="1" transform="matrix(1.059999942779541,0,0,1.059999942779541,0,0)"/></g></g></g><g stroke-linecap="butt" stroke-linejoin="round" stroke-miterlimit="4" transform="matrix(1,0,0,1,162.7100067138672,0)" opacity="1" style="display: inherit;"><g><g style="display: none;"/></g></g><g stroke-linecap="butt" stroke-linejoin="round" stroke-miterlimit="4" transform="matrix(1,0,0,1,202.989990234375,0)" opacity="1" style="display: inherit;"><g><g transform="matrix(1,0,0,1,0,0)" opacity="1" style="display: block;"><path d=" M49.75,-5.02 C53.06,-5.55 54.44,-11 54.44,-13.24 C54.44,-17.19 52.09,-18.36 49.64,-18.36 C44.83,-18.36 40.25,-17.08 33.31,-15.48 C28.93,-14.41 25.19,-13.98 22.74,-13.98 C21.03,-13.98 19.96,-14.62 19.96,-15.69 C19.96,-18.04 20.07,-20.5 20.07,-23.06 C20.07,-36.94 20.92,-48.36 20.92,-60.95 C20.92,-64.05 21.56,-66.61 21.56,-69.07 C21.46,-72.38 19.43,-75.05 16.23,-75.05 C10.36,-75.05 5.66,-71.31 5.55,-65.01 C5.55,-62.24 5.98,-59.25 6.08,-37.04 C6.08,-24.13 4.27,-11.21 4.27,-4.7 C4.27,-1.28 5.87,1.71 9.82,1.71 C14.73,1.71 15.48,1.07 23.91,-0.43 C32.99,-2.03 38.22,-3.2 49.75,-5.02z"/><g opacity="1" transform="matrix(1.059999942779541,0,0,1.059999942779541,0,0)"/></g></g></g><g stroke-linecap="butt" stroke-linejoin="round" stroke-miterlimit="4" transform="matrix(1,0,0,1,259.70001220703125,0)" opacity="1" style="display: inherit;"><g><g transform="matrix(1,0,0,1,0,0)" opacity="1" style="display: block;"><path d=" M13.88,-70.67 C8.54,-70.67 7.47,-64.69 7.26,-60.74 C6.83,-54.66 6.83,-53.38 6.83,-51.99 C6.72,-48.36 6.83,-44.19 6.83,-35.87 C6.83,-28.29 5.55,-16.33 5.55,-10.36 C5.55,-7.9 5.23,-6.51 5.23,-5.02 C5.55,-1.71 7.79,0.32 11,0.32 C12.17,0.43 12.81,0.43 13.66,0.43 C26.79,0.43 43.23,-2.88 51.99,-3.63 C58.71,-4.16 62.88,-7.58 62.88,-11.21 C62.88,-14.62 59.35,-16.65 54.87,-16.65 C42.81,-16.65 34.69,-13.77 26.69,-13.77 C24.45,-13.77 21.88,-13.77 20.39,-13.98 C20.18,-15.8 20.18,-19.11 20.18,-21.46 C20.18,-27.43 20.28,-27.76 20.28,-29.57 C32.24,-31.6 40.25,-31.28 51.24,-33.09 C54.98,-33.73 59.89,-36.3 59.89,-40.14 C59.89,-43.23 57.86,-45.58 54.23,-45.58 C46.97,-45.58 33.84,-42.81 20.71,-42.81 C20.71,-44.94 20.82,-44.19 20.82,-46.33 C20.82,-49.96 20.92,-55.19 21.24,-58.29 C24.98,-58.29 39.71,-59.14 56.15,-60.31 C59.89,-60.53 63.52,-64.05 63.52,-67.79 C63.52,-71.31 60.96,-73.87 58.29,-73.87 C53.7,-73.87 37.04,-70.67 19.75,-70.67 C19.75,-70.67 13.88,-70.67 13.88,-70.67z"/><g opacity="1" transform="matrix(1.059999942779541,0,0,1.059999942779541,0,0)"/></g></g></g><g stroke-linecap="butt" stroke-linejoin="round" stroke-miterlimit="4" transform="matrix(1,0,0,1,324.46600341796875,0)" opacity="1" style="display: inherit;"><g><g transform="matrix(1,0,0,1,0,0)" opacity="1" style="display: block;"><path d=" M51.67,-31.7 C44.84,-31.17 36.19,-30.85 29.25,-30.53 C34.16,-41.1 39.5,-51.56 40.67,-51.56 C42.06,-51.56 46.86,-42.27 51.67,-31.7z M56.9,-20.07 C59.46,-14.41 61.6,-9.29 62.98,-5.98 C64.8,-1.49 68,-0.21 71.63,-0.21 C76.75,-0.21 78.89,-2.56 78.89,-7.15 C78.89,-11.1 67.15,-33.73 55.83,-54.66 C52.41,-60.85 49,-69.6 46.44,-74.08 C45.05,-76.43 42.38,-77.18 39.82,-77.18 C35.44,-77.18 32.88,-73.34 31.28,-68.53 C26.37,-53.38 13.24,-29.46 3.74,-10.57 C2.78,-8.65 2.03,-6.73 2.03,-4.8 C2.03,-1.81 4.38,0.11 7.47,0.11 C15.59,0.11 17.93,-3.84 20.71,-11 C21.35,-12.7 22.42,-15.27 23.7,-18.25 C32.45,-19.11 46.97,-19.11 56.9,-20.07z"/><g opacity="1" transform="matrix(1.059999942779541,0,0,1.059999942779541,0,0)"/></g></g></g><g stroke-linecap="butt" stroke-linejoin="round" stroke-miterlimit="4" transform="matrix(1,0,0,1,404.3900146484375,0)" opacity="1" style="display: inherit;"><g><g transform="matrix(1,0,0,1,0,0)" opacity="1" style="display: block;"><path d=" M22.1,-58.93 C30,-61.38 36.3,-61.6 41.63,-61.6 C47.5,-61.6 52.41,-61.27 52.41,-56.9 C52.41,-47.72 34.37,-40.89 22.1,-40.57 C22.1,-40.57 22.1,-58.93 22.1,-58.93z M22.31,-28.18 C28.08,-23.38 34.59,-17.72 36.94,-15.37 C45.69,-6.19 52.31,-0.43 58.93,-0.43 C62.45,-0.43 66.19,-2.45 66.19,-6.4 C66.19,-10.25 60.74,-14.2 49.96,-23.38 C46.86,-25.94 43.87,-28.72 40.99,-31.28 C58.29,-36.51 69.17,-47.18 69.17,-58.93 C69.17,-70.78 58.29,-75.15 43.45,-75.15 C27.22,-75.15 8.97,-73.44 6.94,-68.75 C6.08,-66.83 6.08,-64.48 6.08,-61.06 C6.08,-55.62 6.62,-48.57 6.62,-43.45 C6.62,-38.32 6.83,-33.41 6.83,-27.86 C6.83,-20.07 5.87,-13.56 5.87,-5.55 C5.87,-2.13 7.79,0.53 10.68,0.53 C21.14,0.53 22.31,-6.3 22.31,-9.39 C22.31,-13.34 22.1,-16.33 22.1,-19.32 C22.1,-22.31 22.1,-25.3 22.31,-28.18z"/><g opacity="1" transform="matrix(1.059999942779541,0,0,1.059999942779541,0,0)"/></g></g></g><g stroke-linecap="butt" stroke-linejoin="round" stroke-miterlimit="4" transform="matrix(1,0,0,1,475.7279968261719,0)" opacity="1" style="display: inherit;"><g><g transform="matrix(1,0,0,1,0,0)" opacity="1" style="display: block;"><path d=" M20.71,-40.46 C30.21,-27.54 49.53,-1.39 62.56,-1.39 C66.51,-1.39 69.49,-3.74 69.49,-7.05 C69.49,-10.78 67.47,-26.05 67.47,-41.74 C67.47,-50.39 69.17,-69.39 69.17,-72.7 C69.17,-75.79 66.08,-78.14 62.24,-78.14 C58.18,-78.14 53.91,-76.43 53.91,-68.85 C53.91,-67.25 54.02,-64.48 54.02,-62.45 C54.02,-42.06 53.7,-38.43 53.48,-22.2 C30.21,-44.41 22.52,-74.3 10.36,-74.3 C7.47,-74.3 5.76,-71.84 5.76,-69.49 C5.76,-63.84 6.4,-50.81 6.4,-38.86 C6.4,-33.73 5.98,-22.2 5.55,-17.72 C5.34,-14.84 5.12,-10.68 5.12,-7.58 C5.12,-2.67 9.29,0.11 13.24,0.11 C17.19,0.11 20.18,-2.78 20.18,-6.73 C20.18,-8.86 20.28,-11.32 20.28,-14.62 C20.28,-19 20.6,-25.41 20.71,-40.46z"/><g opacity="1" transform="matrix(1.059999942779541,0,0,1.059999942779541,0,0)"/></g></g></g></g><g style="mix-blend-mode: lighten; display: none;"><g><path/><path stroke-linecap="butt" stroke-linejoin="miter" fill-opacity="0" stroke-miterlimit="4"/></g></g><g style="mix-blend-mode: lighten; display: none;"><g><path/><path stroke-linecap="butt" stroke-linejoin="miter" fill-opacity="0" stroke-miterlimit="4"/></g></g></g></svg>