<svg xmlns="http://www.w3.org/2000/svg" xmlns:xlink="http://www.w3.org/1999/xlink" viewBox="0 0 1900 1900" width="1900" height="1900" preserveAspectRatio="xMidYMid meet" style="width: 100%; height: 100%; transform: translate3d(0px, 0px, 0px); content-visibility: visible;"><defs><clipPath id="__lottie_element_25"><rect width="1900" height="1900" x="0" y="0"/></clipPath></defs><g clip-path="url(#__lottie_element_25)"><g transform="matrix(0,0,0,0,1581.550048828125,575.2659912109375)" opacity="1" style="display: block;"><g opacity="1" transform="matrix(1,0,0,1,372.8919982910156,146.6719970703125)"><path fill="rgb(255,254,255)" fill-opacity="1" d=" M-20.799999237060547,-26.104999542236328 C-19.2810001373291,-28.36199951171875 -17.76300048828125,-30.618999481201172 -16.243999481201172,-32.875999450683594 C-16.992000579833984,-38.9379997253418 -25.083999633789062,-40.689998626708984 -31.099000930786133,-39.625999450683594 C-48.47100067138672,-36.551998138427734 -63.198001861572266,-21.93000030517578 -66.3949966430664,-4.579999923706055 C-69.59200286865234,12.770999908447266 -61.04600143432617,31.68199920654297 -45.909000396728516,40.74599838256836 C-53.23899841308594,44.28900146484375 -52.57400131225586,55.31700134277344 -48.25299835205078,62.21699905395508 C-37.37200164794922,79.58899688720703 -11.864999771118164,83.84400177001953 6.372000217437744,74.48400115966797 C24.608999252319336,65.1240005493164 35.67900085449219,45.220001220703125 38.96799850463867,24.98699951171875 C40.16899871826172,17.597999572753906 40.33100128173828,9.493000030517578 36.24800109863281,3.2190001010894775 C34.347999572753906,3.5429999828338623 34.3489990234375,6.65500020980835 35.974998474121094,7.689000129699707 C37.60100173950195,8.722999572753906 39.736000061035156,8.24899959564209 41.54399871826172,7.584000110626221 C61.564998626708984,0.2160000056028366 69.59300231933594,-26.558000564575195 61.071998596191406,-46.11600112915039 C52.54999923706055,-65.67400360107422 31.722999572753906,-77.69100189208984 10.65999984741211,-81.07599639892578 C-6.564000129699707,-83.84400177001953 -25.163000106811523,-81.41699981689453 -39.47600173950195,-71.44400024414062 C-53.78900146484375,-61.47100067138672 -62.79199981689453,-43.1609992980957 -59.000999450683594,-26.132999420166016"/></g><g opacity="1" transform="matrix(1,0,0,1,372.322998046875,144.74099731445312)"><path fill="rgb(0,0,0)" fill-opacity="1" d=" M-14.517000198364258,-19.64299964904785 C-13.668000221252441,-20.905000686645508 -12.819999694824219,-22.166000366210938 -11.970999717712402,-23.427000045776367 C-10.71399974822998,-25.295000076293945 -9.333999633789062,-26.881999969482422 -9.562999725341797,-29.299999237060547 C-9.868000030517578,-32.53099822998047 -11.640000343322754,-35.8120002746582 -13.857999801635742,-38.12900161743164 C-17.972000122070312,-42.42599868774414 -23.71299934387207,-44.52199935913086 -29.618999481201172,-44.47600173950195 C-34.25199890136719,-44.439998626708984 -39.04199981689453,-43.073001861572266 -43.277000427246094,-41.25600051879883 C-47.763999938964844,-39.33100128173828 -52.0359992980957,-36.70800018310547 -55.75699996948242,-33.54399871826172 C-63.233001708984375,-27.187999725341797 -68.52100372314453,-18.729000091552734 -71.14199829101562,-9.309000015258789 C-73.81099700927734,0.2809999883174896 -72.8270034790039,10.836000442504883 -69.40399932861328,20.108999252319336 C-65.05899810791016,31.878999710083008 -56.83100128173828,41.84700012207031 -46.11000061035156,48.33399963378906 C-47.09400177001953,44.356998443603516 -48.07699966430664,40.38100051879883 -49.06100082397461,36.40399932861328 C-51.88800048828125,37.82600021362305 -54.176998138427734,39.8390007019043 -55.499000549316406,42.78200149536133 C-56.847999572753906,45.78499984741211 -57.13999938964844,48.957000732421875 -56.999000549316406,52.20500183105469 C-56.702999114990234,59.066001892089844 -53.388999938964844,65.38500213623047 -49.15399932861328,70.62300109863281 C-41.145999908447266,80.5260009765625 -29.027000427246094,86.08799743652344 -16.552000045776367,87.46700286865234 C-4.691999912261963,88.77899932861328 7.111999988555908,85.61299896240234 16.965999603271484,78.98600006103516 C27.326000213623047,72.01899719238281 35.11000061035156,61.332000732421875 39.94499969482422,49.92300033569336 C42.78200149536133,43.22800064086914 44.801998138427734,36.084999084472656 45.840999603271484,28.886999130249023 C47.09000015258789,20.233999252319336 46.53799819946289,11.041000366210938 41.73500061035156,3.4800000190734863 C39.926998138427734,0.6330000162124634 36.66999816894531,-2.003999948501587 33.09600067138672,-1.1230000257492065 C29.864999771118164,-0.32600000500679016 28.96299934387207,3.249000072479248 29.29199981689453,6.125999927520752 C29.825000762939453,10.788000106811523 33.76100158691406,15.031999588012695 38.20199966430664,16.291000366210938 C43.176998138427734,17.701000213623047 48.21799850463867,15.053999900817871 52.358001708984375,12.529999732971191 C58.702999114990234,8.661999702453613 63.641998291015625,2.440000057220459 66.71600341796875,-4.269999980926514 C73.81099700927734,-19.757999420166016 72.14600372314453,-38.007999420166016 63.12900161743164,-52.33300018310547 C52.96099853515625,-68.48400115966797 35.80799865722656,-79.28700256347656 17.518999099731445,-83.94999694824219 C-1.4240000247955322,-88.77899932861328 -22.47599983215332,-87.60199737548828 -39.63199996948242,-77.74199676513672 C-55.69300079345703,-68.51200103759766 -66.23500061035156,-50.74399948120117 -65.37300109863281,-32.0890007019043 C-65.2760009765625,-29.98699951171875 -64.99099731445312,-27.902000427246094 -64.54399871826172,-25.84600067138672 C-64.13800048828125,-23.975000381469727 -63.4630012512207,-22.389999389648438 -62.183998107910156,-20.924999237060547 C-61.08300018310547,-19.665000915527344 -59.314998626708984,-18.288000106811523 -57.625999450683594,-17.923999786376953 C-56.284000396728516,-17.634000778198242 -54.606998443603516,-17.533000946044922 -53.53900146484375,-18.599000930786133 C-52.53200149536133,-19.604999542236328 -52.01100158691406,-21.138999938964844 -52.319000244140625,-22.55699920654297 C-52.64799880981445,-24.070999145507812 -52.893001556396484,-25.599000930786133 -53.034000396728516,-27.142000198364258 C-53.10100173950195,-27.87700080871582 -53.14699935913086,-28.614999771118164 -53.16999816894531,-29.35300064086914 C-53.2130012512207,-30.709999084472656 -53.19300079345703,-28.714000701904297 -53.180999755859375,-29.28700065612793 C-53.17300033569336,-29.6560001373291 -53.17100143432617,-30.02400016784668 -53.15800094604492,-30.392000198364258 C-53.04899978637695,-33.40399932861328 -52.5880012512207,-36.4010009765625 -51.82099914550781,-39.314998626708984 C-51.729000091552734,-39.66400146484375 -51.59000015258789,-40.03200149536133 -51.525001525878906,-40.38600158691406 C-51.77899932861328,-39.01100158691406 -51.599998474121094,-40.12300109863281 -51.4900016784668,-40.45800018310547 C-51.25899887084961,-41.165000915527344 -51.01100158691406,-41.86600112915039 -50.744998931884766,-42.56100082397461 C-50.21200180053711,-43.95600128173828 -49.61000061035156,-45.32500076293945 -48.94599914550781,-46.6619987487793 C-47.551998138427734,-49.46799850463867 -45.87900161743164,-52.12099838256836 -43.986000061035156,-54.61600112915039 C-44.2599983215332,-54.25899887084961 -44.534000396728516,-53.902000427246094 -44.80799865722656,-53.54499816894531 C-40.71699905395508,-58.854000091552734 -35.65800094604492,-63.20500183105469 -29.847999572753906,-66.53700256347656 C-30.23900032043457,-66.31300354003906 -30.628999710083008,-66.08999633789062 -31.020000457763672,-65.86599731445312 C-26.13800048828125,-68.61699676513672 -20.885000228881836,-70.63800048828125 -15.4399995803833,-71.9540023803711 C-14.107000350952148,-72.2760009765625 -12.762999534606934,-72.55599975585938 -11.413000106811523,-72.7969970703125 C-11.074000358581543,-72.85800170898438 -10.736000061035156,-72.91300201416016 -10.39799976348877,-72.97100067138672 C-9.557000160217285,-73.11599731445312 -11.701000213623047,-72.79900360107422 -10.359000205993652,-72.97100067138672 C-9.538999557495117,-73.07599639892578 -8.722999572753906,-73.19000244140625 -7.901000022888184,-73.27899932861328 C-5.15500020980835,-73.57599639892578 -2.3929998874664307,-73.71800231933594 0.36800000071525574,-73.71900177001953 C3.2699999809265137,-73.72000122070312 6.171999931335449,-73.55999755859375 9.057999610900879,-73.25399780273438 C9.673999786376953,-73.18800354003906 10.289999961853027,-73.11599731445312 10.906000137329102,-73.03700256347656 C11.307999610900879,-72.98500061035156 12.23799991607666,-73.01599884033203 10.812000274658203,-73.05400085449219 C11.147000312805176,-73.04499816894531 11.5,-72.94999694824219 11.831000328063965,-72.89800262451172 C13.121000289916992,-72.69400024414062 14.404999732971191,-72.45899963378906 15.682999610900879,-72.19300079345703 C18.240999221801758,-71.66000366210938 20.773000717163086,-71.0009994506836 23.267000198364258,-70.22100067138672 C24.398000717163086,-69.86699676513672 25.520999908447266,-69.48699951171875 26.635000228881836,-69.08300018310547 C27.160999298095703,-68.89199829101562 27.67799949645996,-68.66100311279297 28.211000442504883,-68.49199676513672 C26.16699981689453,-69.14099884033203 28.511999130249023,-68.35900115966797 29.059999465942383,-68.125 C31.40399932861328,-67.1240005493164 33.69900131225586,-66.00299835205078 35.926998138427734,-64.76399993896484 C36.95500183105469,-64.19200134277344 37.96799850463867,-63.595001220703125 38.965999603271484,-62.97200012207031 C39.279998779296875,-62.7760009765625 39.5880012512207,-62.56999969482422 39.90299987792969,-62.375999450683594 C38.15399932861328,-63.45399856567383 38.902000427246094,-63.03499984741211 39.28300094604492,-62.77299880981445 C39.89099884033203,-62.354000091552734 40.50199890136719,-61.93899917602539 41.10100173950195,-61.50699996948242 C43.1349983215332,-60.03900146484375 45.08300018310547,-58.452999114990234 46.92300033569336,-56.74700164794922 C47.3380012512207,-56.36199951171875 48.08000183105469,-55.57600021362305 46.41699981689453,-57.2400016784668 C46.5890007019043,-57.06800079345703 46.766998291015625,-56.900001525878906 46.93899917602539,-56.72800064086914 C47.369998931884766,-56.29999923706055 47.79499816894531,-55.86399841308594 48.21200180053711,-55.422000885009766 C49.12799835205078,-54.45100021362305 50.00899887084961,-53.446998596191406 50.85100173950195,-52.4109992980957 C51.233001708984375,-51.939998626708984 51.606998443603516,-51.4640007019043 51.972999572753906,-50.97999954223633 C52.11800003051758,-50.7869987487793 52.2599983215332,-50.58700180053711 52.409000396728516,-50.395999908447266 C50.875,-52.35900115966797 51.76300048828125,-51.2859992980957 52.08700180053711,-50.81700134277344 C52.77899932861328,-49.81700134277344 53.433998107910156,-48.792999267578125 54.05099868774414,-47.74599838256836 C54.67100143432617,-46.69300079345703 55.24399948120117,-45.6150016784668 55.79199981689453,-44.52199935913086 C56.42399978637695,-43.26100158691406 55.064998626708984,-46.15299987792969 55.630001068115234,-44.858001708984375 C55.729000091552734,-44.63199996948242 55.832000732421875,-44.409000396728516 55.930999755859375,-44.18299865722656 C56.185001373291016,-43.5989990234375 56.42599868774414,-43.00899887084961 56.6510009765625,-42.41299819946289 C57.0260009765625,-41.41899871826172 57.35900115966797,-40.40999984741211 57.65299987792969,-39.388999938964844 C57.8120002746582,-38.8390007019043 58.17900085449219,-36.9630012512207 57.73699951171875,-39.18299865722656 C57.840999603271484,-38.6609992980957 57.9739990234375,-38.14400100708008 58.07699966430664,-37.62200164794922 C58.51300048828125,-35.422000885009766 58.770999908447266,-33.1870002746582 58.862998962402344,-30.945999145507812 C58.87099838256836,-30.73200035095215 58.880001068115234,-30.51799964904785 58.8849983215332,-30.304000854492188 C58.89099884033203,-30.09000015258789 58.89500045776367,-29.875999450683594 58.89799880981445,-29.66200065612793 C58.89799880981445,-30.613000869750977 58.89500045776367,-30.857999801635742 58.893001556396484,-30.39900016784668 C58.87300109863281,-29.809999465942383 58.87699890136719,-29.222000122070312 58.85100173950195,-28.632999420166016 C58.79399871826172,-27.35099983215332 58.68199920654297,-26.06999969482422 58.518001556396484,-24.797000885009766 C58.367000579833984,-23.631999969482422 58.17300033569336,-22.472999572753906 57.933998107910156,-21.322999954223633 C57.803001403808594,-20.697999954223633 57.65999984741211,-20.075000762939453 57.50299835205078,-19.45599937438965 C57.45100021362305,-19.249000549316406 57.39699935913086,-19.04400062561035 57.34199905395508,-18.83799934387207 C57.231998443603516,-18.427000045776367 56.66600036621094,-17.125999450683594 57.30500030517578,-18.655000686645508 C56.387001037597656,-16.459999084472656 55.74700164794922,-14.201000213623047 54.67399978637695,-12.055999755859375 C53.58100128173828,-9.869999885559082 52.28799819946289,-7.795000076293945 50.8120002746582,-5.8470001220703125 C51.08599853515625,-6.203999996185303 51.361000061035156,-6.560999870300293 51.63600158691406,-6.919000148773193 C48.92499923706055,-3.4040000438690186 45.62300109863281,-0.41999998688697815 41.770999908447266,1.7979999780654907 C42.1619987487793,1.5740000009536743 42.551998138427734,1.350000023841858 42.94300079345703,1.1269999742507935 C41.15800094604492,2.130000114440918 39.25299835205078,3.055999994277954 37.27399826049805,3.6070001125335693 C37.198001861572266,3.628999948501587 36.51599884033203,3.75 36.505001068115234,3.7939999103546143 C37.18600082397461,3.703000068664551 37.327999114990234,3.674999952316284 36.92900085449219,3.7109999656677246 C36.801998138427734,3.7239999771118164 36.67399978637695,3.7300000190734863 36.54600143432617,3.7269999980926514 C36.055999755859375,3.7330000400543213 35.41299819946289,3.4649999141693115 36.766998291015625,3.7909998893737793 C37.45100021362305,3.9570000171661377 38.09000015258789,4.4120001792907715 38.64799880981445,4.816999912261963 C39.742000579833984,5.616000175476074 40.53099822998047,6.61299991607666 41.01300048828125,7.808000087738037 C41.28900146484375,8.454999923706055 41.36600112915039,8.61299991607666 41.24599838256836,8.281999588012695 C41.0369987487793,7.691999912261963 41.5620002746582,10.062000274658203 41.47200012207031,9.02299976348877 C41.47700119018555,9.079000473022461 41.435001373291016,10.557999610900879 41.53900146484375,9.79800033569336 C41.374000549316406,11.00100040435791 41.165000915527344,10.807999610900879 41.52799987792969,10.277000427246094 C41.25400161743164,10.633999824523926 40.97999954223633,10.991000175476074 40.70600128173828,11.347999572753906 C40.875999450683594,11.159000396728516 41.01900100708008,11.038000106811523 41.23699951171875,10.906000137329102 C40.84700012207031,11.130000114440918 40.457000732421875,11.352999687194824 40.066001892089844,11.57699966430664 C40.21500015258789,11.501999855041504 40.37099838256836,11.451000213623047 40.5359992980957,11.42300033569336 C37.65700149536133,9.888999938964844 34.77799987792969,8.354999542236328 31.898000717163086,6.820000171661377 C32.152000427246094,7.21999979019165 32.39899826049805,7.624000072479248 32.625999450683594,8.039999961853027 C33.4370002746582,9.520999908447266 32.1879997253418,6.873000144958496 32.630001068115234,7.998000144958496 C33,8.939000129699707 33.31800079345703,9.871000289916992 33.619998931884766,10.836000442504883 C33.874000549316406,11.651000022888184 33.34700012207031,9.520999908447266 33.505001068115234,10.361000061035156 C33.54199981689453,10.5600004196167 33.5890007019043,10.755999565124512 33.62799835205078,10.954000473022461 C33.71900177001953,11.418000221252441 33.797000885009766,11.883999824523926 33.862998962402344,12.35200023651123 C34.00600051879883,13.36400032043457 34.09299850463867,14.383000373840332 34.137001037597656,15.402999877929688 C34.14699935913086,15.628000259399414 34.097999572753906,16.034000396728516 34.1609992980957,16.22599983215332 C34.15700149536133,16.21500015258789 34.176998138427734,15.053999900817871 34.1609992980957,15.718999862670898 C34.14899826049805,16.20199966430664 34.14400100708008,16.68400001525879 34.12300109863281,17.16699981689453 C34.07899856567383,18.20199966430664 33.99800109863281,19.236000061035156 33.88800048828125,20.267000198364258 C33.685001373291016,22.173999786376953 33.3849983215332,24.06999969482422 33.0260009765625,25.952999114990234 C32.683998107910156,27.743999481201172 32.28200149536133,29.523000717163086 31.820999145507812,31.28700065612793 C31.708999633789062,31.71299934387207 31.594999313354492,32.138999938964844 31.476999282836914,32.56399917602539 C31.409000396728516,32.80699920654297 31.33799934387207,33.04899978637695 31.268999099731445,33.29199981689453 C31.231000900268555,33.428001403808594 31.042999267578125,34.060001373291016 31.256999969482422,33.34400177001953 C31.472000122070312,32.62900161743164 31.281999588012695,33.2599983215332 31.23900032043457,33.39500045776367 C31.163999557495117,33.63600158691406 31.08799934387207,33.87699890136719 31.01099967956543,34.117000579833984 C30.857999801635742,34.597999572753906 30.698999404907227,35.077999114990234 30.53700065612793,35.555999755859375 C29.357999801635742,39.01599884033203 27.94099998474121,42.395999908447266 26.2810001373291,45.65399932861328 C24.408000946044922,49.332000732421875 22.216999053955078,52.8390007019043 19.72100067138672,56.125999450683594 C19.9950008392334,55.76900100708008 20.270000457763672,55.4119987487793 20.54400062561035,55.05500030517578 C16.009000778198242,60.95600128173828 10.482000350952148,66.02200317382812 4.020999908447266,69.74400329589844 C4.4120001792907715,69.5199966430664 4.802000045776367,69.2969970703125 5.192999839782715,69.072998046875 C2.759999990463257,70.45099639892578 0.23100000619888306,71.6259994506836 -2.4159998893737793,72.53099822998047 C-3.621000051498413,72.94300079345703 -4.84499979019165,73.3030014038086 -6.080999851226807,73.61100006103516 C-6.72599983215332,73.77200317382812 -7.375,73.91799926757812 -8.027000427246094,74.0510025024414 C-8.354000091552734,74.11699676513672 -8.680999755859375,74.18000030517578 -9.008000373840332,74.23899841308594 C-9.22700023651123,74.27799987792969 -9.446000099182129,74.31600189208984 -9.664999961853027,74.35299682617188 C-8.878000259399414,74.23200225830078 -8.6899995803833,74.2030029296875 -9.097999572753906,74.26300048828125 C-11.817000389099121,74.57099914550781 -14.496999740600586,74.82499694824219 -17.238000869750977,74.75499725341797 C-18.45599937438965,74.7239990234375 -19.672000885009766,74.64600372314453 -20.884000778198242,74.5199966430664 C-21.214000701904297,74.48600006103516 -21.542999267578125,74.44400024414062 -21.87299919128418,74.40799713134766 C-23.100000381469727,74.2699966430664 -20.444000244140625,74.64099884033203 -21.660999298095703,74.43800354003906 C-22.42099952697754,74.30999755859375 -23.18199920654297,74.18399810791016 -23.937999725341797,74.02799987792969 C-25.118999481201172,73.78399658203125 -26.290000915527344,73.49400329589844 -27.447999954223633,73.15499877929688 C-28.07699966430664,72.97100067138672 -28.701000213623047,72.77300262451172 -29.320999145507812,72.56099700927734 C-29.6299991607666,72.45500183105469 -29.93899917602539,72.34500122070312 -30.2450008392334,72.23200225830078 C-31.854999542236328,71.63899993896484 -29.145000457763672,72.70800018310547 -30.184999465942383,72.26100158691406 C-31.280000686645508,71.79000091552734 -32.362998962402344,71.30400085449219 -33.41999816894531,70.75199890136719 C-33.99300003051758,70.4530029296875 -34.558998107910156,70.13999938964844 -35.11600112915039,69.81199645996094 C-35.39400100708008,69.64900207519531 -35.66699981689453,69.47799682617188 -35.944000244140625,69.31099700927734 C-36.97800064086914,68.68900299072266 -34.275001525878906,70.44599914550781 -35.74700164794922,69.43800354003906 C-36.720001220703125,68.77100372314453 -37.6609992980957,68.05799865722656 -38.56399917602539,67.2979965209961 C-39.05699920654297,66.88300323486328 -39.5260009765625,66.44200134277344 -40.00699996948242,66.01399993896484 C-37.81800079345703,67.95899963378906 -39.88100051879883,66.09500122070312 -40.38199996948242,65.5459976196289 C-40.74599838256836,65.14600372314453 -41.099998474121094,64.73799896240234 -41.444000244140625,64.32099914550781 C-41.89400100708008,63.775001525878906 -43.255001068115234,61.7400016784668 -41.667999267578125,64.11799621582031 C-42.44300079345703,62.957000732421875 -43.152000427246094,61.80699920654297 -43.81399917602539,60.57899856567383 C-42.590999603271484,62.84700012207031 -43.64400100708008,60.869998931884766 -43.8849983215332,60.207000732421875 C-44.141998291015625,59.50299835205078 -44.321998596191406,58.78200149536133 -44.54499816894531,58.069000244140625 C-43.849998474121094,60.29199981689453 -44.53799819946289,57.86600112915039 -44.624000549316406,57.21500015258789 C-44.71900177001953,56.487998962402344 -44.70500183105469,55.75299835205078 -44.78799819946289,55.02799987792969 C-44.6150016784668,56.5359992980957 -44.805999755859375,56.084999084472656 -44.777000427246094,55.643001556396484 C-44.750999450683594,55.237998962402344 -44.736000061035156,54.834999084472656 -44.69200134277344,54.430999755859375 C-44.617000579833984,53.73899841308594 -44.474998474121094,53.06999969482422 -44.32400131225586,52.391998291015625 C-44.0890007019043,51.332000732421875 -44.79999923706055,53.630001068115234 -44.387001037597656,52.63600158691406 C-44.24100112915039,52.28499984741211 -44.11399841308594,51.930999755859375 -43.94900131225586,51.5880012512207 C-43.66400146484375,50.99599838256836 -43.321998596191406,50.444000244140625 -42.935001373291016,49.91400146484375 C-43.20899963378906,50.270999908447266 -43.483001708984375,50.62799835205078 -43.75699996948242,50.98500061035156 C-42.98500061035156,49.99300003051758 -42.06800079345703,49.194000244140625 -40.98400115966797,48.558998107910156 C-41.374000549316406,48.78300094604492 -41.763999938964844,49.00600051879883 -42.154998779296875,49.22999954223633 C-41.979000091552734,49.13100051879883 -41.801998138427734,49.03799819946289 -41.62099838256836,48.95000076293945 C-39.435001373291016,47.85100173950195 -38.85300064086914,45.854000091552734 -39.430999755859375,43.499000549316406 C-40.125999450683594,40.66299819946289 -42.11899948120117,38.50400161743164 -44.56999969482422,37.02000045776367 C-44.82899856567383,36.86399841308594 -45.08399963378906,36.702999114990234 -45.34199905395508,36.54600143432617 C-46.138999938964844,36.060001373291016 -43.75899887084961,37.62900161743164 -44.856998443603516,36.86199951171875 C-45.30099868774414,36.55099868774414 -45.74800109863281,36.244998931884766 -46.185001373291016,35.92399978637695 C-47.10599899291992,35.24599838256836 -47.999000549316406,34.529998779296875 -48.861000061035156,33.77799987792969 C-49.319000244140625,33.37799835205078 -50.9640007019043,31.739999771118164 -49.02000045776367,33.68600082397461 C-49.40299987792969,33.301998138427734 -49.790000915527344,32.92599868774414 -50.165000915527344,32.534000396728516 C-50.99800109863281,31.665000915527344 -51.79600143432617,30.761999130249023 -52.55400085449219,29.827999114990234 C-52.895999908447266,29.4060001373291 -53.224998474121094,28.976999282836914 -53.555999755859375,28.547000885009766 C-54.275001525878906,27.61199951171875 -53.03200149536133,29.27899932861328 -53.03099822998047,29.27899932861328 C-53.23099899291992,29.06800079345703 -53.3849983215332,28.77899932861328 -53.54999923706055,28.538999557495117 C-54.231998443603516,27.54400062561035 -54.875,26.523000717163086 -55.47700119018555,25.47800064086914 C-56.02000045776367,24.53499984741211 -56.516998291015625,23.57200050354004 -57.00199890136719,22.599000930786133 C-57.41899871826172,21.761999130249023 -56.20800018310547,24.347000122070312 -56.75,23.1200008392334 C-56.847999572753906,22.89900016784668 -56.946998596191406,22.679000854492188 -57.042999267578125,22.45800018310547 C-57.305999755859375,21.849000930786133 -57.55699920654297,21.233999252319336 -57.79399871826172,20.61400032043457 C-58.20399856567383,19.542999267578125 -58.57500076293945,18.45800018310547 -58.90399932861328,17.360000610351562 C-59.04199981689453,16.898000717163086 -59.16600036621094,16.430999755859375 -59.29800033569336,15.967000007629395 C-59.65299987792969,14.720000267028809 -59.00699996948242,17.249000549316406 -59.20100021362305,16.385000228881836 C-59.279998779296875,16.033000946044922 -59.362998962402344,15.680999755859375 -59.4379997253418,15.32699966430664 C-59.92100143432617,13.029999732971191 -60.2239990234375,10.694999694824219 -60.33399963378906,8.350000381469727 C-60.35499954223633,7.88700008392334 -60.28099822998047,7.35699987411499 -60.37699890136719,6.9070000648498535 C-60.10100173950195,8.20199966430664 -60.37900161743164,7.747000217437744 -60.36899948120117,7.183000087738037 C-60.36399841308594,6.881999969482422 -60.35499954223633,6.580999851226807 -60.34400177001953,6.281000137329102 C-60.297000885009766,5.077000141143799 -60.19599914550781,3.875999927520752 -60.042999267578125,2.680999994277954 C-59.904998779296875,1.6089999675750732 -59.7239990234375,0.5410000085830688 -59.499000549316406,-0.5170000195503235 C-59.38800048828125,-1.0399999618530273 -59.26599884033203,-1.5609999895095825 -59.13399887084961,-2.0799999237060547 C-59.060001373291016,-2.368000030517578 -58.979000091552734,-2.6540000438690186 -58.904998779296875,-2.941999912261963 C-58.6349983215332,-3.984999895095825 -59.270999908447266,-1.8550000190734863 -58.902000427246094,-2.9600000381469727 C-57.27000045776367,-7.8429999351501465 -54.928001403808594,-12.354000091552734 -51.79499816894531,-16.445999145507812 C-52.069000244140625,-16.089000701904297 -52.34299850463867,-15.732000350952148 -52.617000579833984,-15.375 C-48.95100021362305,-20.086999893188477 -44.4370002746582,-24.05900001525879 -39.27799987792969,-27.066999435424805 C-39.66899871826172,-26.843000411987305 -40.058998107910156,-26.618999481201172 -40.45000076293945,-26.395999908447266 C-38.027000427246094,-27.783000946044922 -35.48899841308594,-28.95800018310547 -32.84600067138672,-29.861000061035156 C-31.55299949645996,-30.30299949645996 -30.23900032043457,-30.680999755859375 -28.908000946044922,-30.990999221801758 C-28.21500015258789,-31.152999877929688 -27.49799919128418,-31.243999481201172 -26.809999465942383,-31.42099952697754 C-28.29199981689453,-31.038999557495117 -27.42300033569336,-31.327999114990234 -26.990999221801758,-31.375999450683594 C-26.68199920654297,-31.40999984741211 -26.371000289916992,-31.437000274658203 -26.059999465942383,-31.45599937438965 C-24.829999923706055,-31.533000946044922 -23.641000747680664,-31.429000854492188 -22.41699981689453,-31.351999282836914 C-21.815000534057617,-31.315000534057617 -23.950000762939453,-31.649999618530273 -22.69300079345703,-31.368999481201172 C-22.43899917602539,-31.312000274658203 -22.183000564575195,-31.264999389648438 -21.93000030517578,-31.202999114990234 C-21.6299991607666,-31.1299991607666 -21.333999633789062,-31.04800033569336 -21.040000915527344,-30.957000732421875 C-19.808000564575195,-30.576000213623047 -21.158000946044922,-31.21500015258789 -21.479000091552734,-31.172000885009766 C-21.07200050354004,-31.22599983215332 -20.281999588012695,-30.56599998474121 -19.917999267578125,-30.386999130249023 C-21.702999114990234,-31.26300048828125 -21.100000381469727,-31.195999145507812 -20.54400062561035,-30.750999450683594 C-19.875999450683594,-30.216999053955078 -20.030000686645508,-29.834999084472656 -21.172000885009766,-31.381000518798828 C-20.722999572753906,-30.773000717163086 -20.606000900268555,-30.18600082397461 -21.659000396728516,-32.143001556396484 C-21.559999465942383,-31.957000732421875 -21.39299964904785,-31.555999755859375 -21.2450008392334,-31.44099998474121 C-21.384000778198242,-31.548999786376953 -22.038000106811523,-33.30699920654297 -21.66699981689453,-32.2140007019043 C-21.52400016784668,-31.79199981689453 -22,-34.05500030517578 -21.788000106811523,-32.59000015258789 C-21.655000686645508,-33.551998138427734 -21.523000717163086,-34.513999938964844 -21.391000747680664,-35.47600173950195 C-22.909000396728516,-33.21900177001953 -24.42799949645996,-30.961999893188477 -25.945999145507812,-28.70599937438965 C-26.736000061035156,-27.533000946044922 -26.354999542236328,-25.357999801635742 -25.940000534057617,-24.17300033569336 C-25.340999603271484,-22.46500015258789 -24.006000518798828,-20.60300064086914 -22.54800033569336,-19.525999069213867 C-20.027000427246094,-17.663000106811523 -16.542999267578125,-16.631999969482422 -14.517000198364258,-19.64299964904785 C-14.517000198364258,-19.64299964904785 -14.517000198364258,-19.64299964904785 -14.517000198364258,-19.64299964904785z"/></g></g><g transform="matrix(0.16506455838680267,0.06216450035572052,-0.06216450035572052,0.16506455838680267,1448.3499755859375,534.1319580078125)" opacity="1" style="display: block;"><g opacity="1" transform="matrix(1,0,0,1,90.03099822998047,-641.302001953125)"><path fill="rgb(255,254,255)" fill-opacity="1" d=" M-14.234999656677246,-38.70399856567383 C-24.757999420166016,-52.95000076293945 -47.53799819946289,-50.8849983215332 -63.07600021362305,-42.138999938964844 C-89.87999725341797,-27.05299949645996 -106.56600189208984,3.875999927520752 -104.24299621582031,34.16299819946289 C-103.21399688720703,47.57500076293945 -98.0510025024414,61.5989990234375 -86.71399688720703,69.12100219726562 C-75.37799835205078,76.64299774169922 -57.18600082397461,74.47200012207031 -51.167999267578125,62.39500045776367 C-53.17399978637695,81.62000274658203 -37.518001556396484,100.33300018310547 -18.277000427246094,104.25800323486328 C0.9629999995231628,108.18399810791016 21.65999984741211,98.5469970703125 32.85300064086914,82.66200256347656 C42.3650016784668,69.16500091552734 45.50600051879883,52.17100143432617 45.24100112915039,35.750999450683594 C47.529998779296875,42.04100036621094 55.525001525878906,44.867000579833984 62.167999267578125,43.47200012207031 C68.80999755859375,42.07699966430664 74.27200317382812,37.525001525878906 79.05599975585938,32.784000396728516 C90.45899963378906,21.48200035095215 99.97699737548828,7.736999988555908 103.27100372314453,-7.85099983215332 C106.56500244140625,-23.440000534057617 102.78700256347656,-41.01300048828125 91.04000091552734,-51.96799850463867 C79.29199981689453,-62.922000885009766 59.165000915527344,-65.18000030517578 46.768001556396484,-54.941001892089844 C33.02000045776367,-84.81999969482422 1.8450000286102295,-108.18399810791016 -31.454999923706055,-106.46199798583984 C-64.75499725341797,-104.73999786376953 -95.23400115966797,-72.7699966430664 -88.97799682617188,-40.555999755859375"/></g><g opacity="1" transform="matrix(1,0,0,1,90.49199676513672,-641.9140014648438)"><path fill="rgb(0,0,0)" fill-opacity="1" d=" M-7.71999979019165,-40.23400115966797 C-10.32699966430664,-43.71200180053711 -13.336000442504883,-46.5099983215332 -17.121999740600586,-48.69200134277344 C-20.44700050354004,-50.60900115966797 -24.219999313354492,-51.91999816894531 -27.98900032043457,-52.61399841308594 C-36.84600067138672,-54.244998931884766 -45.87099838256836,-53.499000549316406 -54.50199890136719,-50.987998962402344 C-70.90799713134766,-46.21500015258789 -85.1729965209961,-34.66999816894531 -95.23699951171875,-21.083999633789062 C-105.32099914550781,-7.46999979019165 -111.26200103759766,8.918999671936035 -112.19499969482422,25.81999969482422 C-113.09300231933594,42.082000732421875 -108.76100158691406,60.91400146484375 -95.37899780273438,71.46499633789062 C-88.16400146484375,77.15299987792969 -79.50900268554688,79.47899627685547 -70.39900207519531,79.10800170898438 C-61.847999572753906,78.75900268554688 -53.33399963378906,75.25499725341797 -47.6510009765625,68.77999877929688 C-46.5890007019043,67.56999969482422 -45.691001892089844,66.26100158691406 -44.959999084472656,64.82499694824219 C-49.60900115966797,64.04100036621094 -54.257999420166016,63.257999420166016 -58.90700149536133,62.4739990234375 C-59.494998931884766,68.4280014038086 -58.82899856567383,73.91400146484375 -56.90700149536133,79.5790023803711 C-55.11899948120117,84.8489990234375 -52.138999938964844,89.51899719238281 -48.56999969482422,93.75800323486328 C-40.82500076293945,102.95700073242188 -29.729999542236328,108.56099700927734 -17.944000244140625,110.33300018310547 C-5.64900016784668,112.18299865722656 7.416999816894531,109.25199890136719 18.27199935913086,103.37300109863281 C28.95400047302246,97.58999633789062 37.874000549316406,88.72699737548828 43.39500045776367,77.88500213623047 C50.08000183105469,64.75599670410156 52.38100051879883,50.1609992980957 52.17100143432617,35.52899932861328 C47.38199996948242,36.520999908447266 42.59299850463867,37.51300048828125 37.80400085449219,38.505001068115234 C40.42399978637695,45.367000579833984 48.1870002746582,48.67900085449219 54.99800109863281,49.404998779296875 C63.52899932861328,50.316001892089844 71.6969985961914,46.72100067138672 78.322998046875,41.61899948120117 C84.06900024414062,37.19599914550781 89.11100006103516,31.58300018310547 93.65799713134766,25.965999603271484 C98.23100280761719,20.315000534057617 102.08399963378906,14.204999923706055 105.177001953125,7.627999782562256 C110.84400177001953,-4.422999858856201 113.09300231933594,-18.261999130249023 109.86499786376953,-31.32200050354004 C106.64900207519531,-44.33399963378906 98.50800323486328,-56.02000045776367 86.08000183105469,-61.67300033569336 C71.56500244140625,-68.2750015258789 53.34299850463867,-67.61599731445312 40.67900085449219,-57.29499816894531 C44.88100051879883,-57.02000045776367 49.082000732421875,-56.744998931884766 53.28300094604492,-56.470001220703125 C47.50600051879883,-68.95700073242188 38.85100173950195,-80.2760009765625 28.4060001373291,-89.2239990234375 C17.656999588012695,-98.43399810791016 4.809999942779541,-105.47100067138672 -9.001999855041504,-108.76899719238281 C-23.299999237060547,-112.18299865722656 -38.61399841308594,-111.88500213623047 -52.42900085449219,-106.5979995727539 C-65.86199951171875,-101.45700073242188 -77.7959976196289,-92.73600006103516 -86.29900360107422,-81.07099914550781 C-94.09100341796875,-70.37999725341797 -98.63099670410156,-57.099998474121094 -97.48500061035156,-43.797000885009766 C-97.3489990234375,-42.222999572753906 -97.125,-40.6609992980957 -96.83000183105469,-39.10900115966797 C-96.17500305175781,-35.66600036621094 -91.93599700927734,-34.472999572753906 -88.87100219726562,-34.91400146484375 C-86.25299835205078,-35.290000915527344 -81.37100219726562,-37.21799850463867 -82.0479965209961,-40.77799987792969 C-82.8280029296875,-44.882999420166016 -83.04199981689453,-49.051998138427734 -82.7040023803711,-53.215999603271484 C-82.74099731445312,-52.7599983215332 -82.77899932861328,-52.30400085449219 -82.81700134277344,-51.8489990234375 C-82.32099914550781,-57.44300079345703 -80.85099792480469,-62.90700149536133 -78.56600189208984,-68.03399658203125 C-78.43900299072266,-68.31900024414062 -78.197998046875,-68.67500305175781 -78.13500213623047,-68.97799682617188 C-78.3949966430664,-67.73200225830078 -78.38800048828125,-68.44499969482422 -78.14099884033203,-68.94000244140625 C-77.83100128173828,-69.56199645996094 -77.50900268554688,-70.1780014038086 -77.177001953125,-70.78800201416016 C-76.4530029296875,-72.11699676513672 -75.677001953125,-73.41699981689453 -74.85299682617188,-74.68599700927734 C-73.31800079345703,-77.052001953125 -71.61799621582031,-79.30999755859375 -69.77899932861328,-81.447998046875 C-69.5479965209961,-81.71700286865234 -69.31199645996094,-81.98100280761719 -69.0790023803711,-82.2490005493164 C-68.22599792480469,-83.2239990234375 -70.05699920654297,-81.21199798583984 -69.16400146484375,-82.1520004272461 C-68.6729965209961,-82.66799926757812 -68.18699645996094,-83.18599700927734 -67.68499755859375,-83.69200134277344 C-66.59600067138672,-84.79100036621094 -65.46800231933594,-85.85199737548828 -64.30500030517578,-86.87300109863281 C-63.31800079345703,-87.73899841308594 -62.30500030517578,-88.57599639892578 -61.26900100708008,-89.38400268554688 C-60.702999114990234,-89.82499694824219 -60.130001068115234,-90.25700378417969 -59.54999923706055,-90.68000030517578 C-59.25899887084961,-90.89099884033203 -58.96799850463867,-91.10099792480469 -58.67399978637695,-91.30799865722656 C-57.21200180053711,-92.33799743652344 -59.569000244140625,-90.73400115966797 -58.5989990234375,-91.36799621582031 C-56.18899917602539,-92.94300079345703 -53.7130012512207,-94.4010009765625 -51.12799835205078,-95.67400360107422 C-50.483001708984375,-95.99199676513672 -49.83300018310547,-96.29900360107422 -49.178001403808594,-96.59500122070312 C-48.619998931884766,-96.84700012207031 -46.183998107910156,-97.75399780273438 -48.57400131225586,-96.87999725341797 C-47.11000061035156,-97.41500091552734 -45.67100143432617,-97.99600219726562 -44.18600082397461,-98.4729995727539 C-42.819000244140625,-98.91200256347656 -41.4370002746582,-99.30400085449219 -40.042999267578125,-99.6449966430664 C-39.46200180053711,-99.78700256347656 -38.875,-99.90499877929688 -38.29399871826172,-100.04499816894531 C-41.069000244140625,-99.37699890136719 -38.117000579833984,-100.05799865722656 -37.41699981689453,-100.1709976196289 C-35.999000549316406,-100.4010009765625 -34.573001861572266,-100.5770034790039 -33.141998291015625,-100.697998046875 C-32.42100143432617,-100.75900268554688 -31.698999404907227,-100.80500030517578 -30.976999282836914,-100.83799743652344 C-30.606000900268555,-100.8550033569336 -30.233999252319336,-100.85600280761719 -29.86400032043457,-100.87999725341797 C-32.470001220703125,-100.71399688720703 -30.600000381469727,-100.86599731445312 -29.99799919128418,-100.86699676513672 C-27.058000564575195,-100.87300109863281 -24.118000030517578,-100.68499755859375 -21.20199966430664,-100.31300354003906 C-20.47599983215332,-100.22100067138672 -19.753000259399414,-100.11100006103516 -19.030000686645508,-100.0009994506836 C-17.638999938964844,-99.79100036621094 -20.792999267578125,-100.3270034790039 -19.41200065612793,-100.06400299072266 C-19.05299949645996,-99.99600219726562 -18.694000244140625,-99.93199920654297 -18.334999084472656,-99.86100006103516 C-16.902999877929688,-99.58000183105469 -15.479000091552734,-99.25399780273438 -14.065999984741211,-98.88700103759766 C-12.652000427246094,-98.5199966430664 -11.25,-98.11000061035156 -9.861000061035156,-97.66100311279297 C-9.166000366210938,-97.43599700927734 -8.473999977111816,-97.20099639892578 -7.784999847412109,-96.95700073242188 C-7.440999984741211,-96.83399963378906 -7.0970001220703125,-96.70999908447266 -6.755000114440918,-96.58200073242188 C-5.065999984741211,-95.95500183105469 -7.708000183105469,-96.9800033569336 -6.632999897003174,-96.54299926757812 C-3.9119999408721924,-95.43900299072266 -1.2450000047683716,-94.2229995727539 1.350000023841858,-92.8479995727539 C4.064000129699707,-91.41100311279297 6.698999881744385,-89.8239974975586 9.244000434875488,-88.1050033569336 C9.545999526977539,-87.9010009765625 9.843000411987305,-87.65699768066406 10.159000396728516,-87.47899627685547 C8.690999984741211,-88.30599975585938 9.758999824523926,-87.75599670410156 10.097000122070312,-87.51300048828125 C10.597999572753906,-87.15299987792969 11.095999717712402,-86.78800201416016 11.58899974822998,-86.41699981689453 C12.87399959564209,-85.4530029296875 14.133000373840332,-84.45500183105469 15.366000175476074,-83.42500305175781 C17.930999755859375,-81.27999877929688 20.3799991607666,-78.99600219726562 22.700000762939453,-76.58899688720703 C23.905000686645508,-75.33999633789062 25.073999404907227,-74.05799865722656 26.20800018310547,-72.74500274658203 C26.774999618530273,-72.08799743652344 27.33300018310547,-71.42400360107422 27.881000518798828,-70.75199890136719 C28.10099983215332,-70.48200225830078 28.41200065612793,-70.18900299072266 28.58099937438965,-69.88500213623047 C27.841999053955078,-71.21900177001953 28.600000381469727,-69.85700225830078 28.843000411987305,-69.53900146484375 C32.96099853515625,-64.15799713134766 36.486000061035156,-58.33700180053711 39.33100128173828,-52.1870002746582 C40.244998931884766,-50.21099853515625 42.93000030517578,-49.40599822998047 44.88999938964844,-49.25699996948242 C47.393001556396484,-49.064998626708984 49.979000091552734,-49.768001556396484 51.935001373291016,-51.36199951171875 C52.34000015258789,-51.69200134277344 52.75,-52.01499938964844 53.172000885009766,-52.323001861572266 C53.59000015258789,-52.62900161743164 54.347999572753906,-52.957000732421875 52.75899887084961,-52.0620002746582 C52.95600128173828,-52.17300033569336 53.14699935913086,-52.31700134277344 53.3380012512207,-52.4370002746582 C54.2599983215332,-53.016998291015625 55.21699905395508,-53.54100036621094 56.20100021362305,-54.00899887084961 C56.750999450683594,-54.270999908447266 58.51599884033203,-54.80699920654297 56.22200012207031,-54.05699920654297 C56.65599822998047,-54.19900131225586 57.07699966430664,-54.38600158691406 57.50899887084961,-54.53499984741211 C58.540000915527344,-54.88999938964844 59.5890007019043,-55.18899917602539 60.650001525878906,-55.433998107910156 C61.24399948120117,-55.57099914550781 62.17300033569336,-55.595001220703125 59.88800048828125,-55.28200149536133 C60.11399841308594,-55.3129997253418 60.34299850463867,-55.36600112915039 60.56800079345703,-55.404998779296875 C61.02299880981445,-55.481998443603516 61.47999954223633,-55.54899978637695 61.9379997253418,-55.606998443603516 C62.51300048828125,-55.68000030517578 63.0890007019043,-55.737998962402344 63.66600036621094,-55.78099822998047 C64.3270034790039,-55.83100128173828 66.48300170898438,-55.78799819946289 63.77000045776367,-55.83399963378906 C65.89399719238281,-55.79800033569336 67.95500183105469,-55.65599822998047 70.06199645996094,-55.38399887084961 C67.74800109863281,-55.68299865722656 69.39299774169922,-55.49599838256836 69.9739990234375,-55.37699890136719 C70.55000305175781,-55.257999420166016 71.1240005493164,-55.125999450683594 71.69400024414062,-54.98099899291992 C72.72000122070312,-54.720001220703125 73.73699951171875,-54.41600036621094 74.73799896240234,-54.069000244140625 C75.01599884033203,-53.972999572753906 75.29100036621094,-53.86899948120117 75.56900024414062,-53.770999908447266 C76.34100341796875,-53.49800109863281 74.21600341796875,-54.323001861572266 74.97200012207031,-54.005001068115234 C75.45999908447266,-53.79999923706055 75.9489974975586,-53.5989990234375 76.43099975585938,-53.37900161743164 C77.44599914550781,-52.91699981689453 78.44000244140625,-52.40999984741211 79.40899658203125,-51.856998443603516 C80.27100372314453,-51.3650016784668 81.07099914550781,-50.74700164794922 81.93699645996094,-50.270999908447266 C80.375,-51.12900161743164 81.7979965209961,-50.347999572753906 82.22100067138672,-50.020999908447266 C82.68099975585938,-49.66299819946289 83.13200378417969,-49.29399871826172 83.572998046875,-48.91299819946289 C84.35900115966797,-48.23400115966797 85.11100006103516,-47.516998291015625 85.83399963378906,-46.77299880981445 C86.65799713134766,-45.92300033569336 87.70999908447266,-44.979000091552734 88.31400299072266,-43.95199966430664 C88.25,-44.060001373291016 87.54499816894531,-44.970001220703125 88.12000274658203,-44.18199920654297 C88.33999633789062,-43.880001068115234 88.56400299072266,-43.58100128173828 88.77999877929688,-43.2760009765625 C89.13999938964844,-42.768001556396484 89.48799896240234,-42.25199890136719 89.822998046875,-41.72800064086914 C90.49400329589844,-40.68000030517578 91.11799621582031,-39.60200119018555 91.69200134277344,-38.499000549316406 C92.90299987792969,-36.172000885009766 93.88800048828125,-33.7400016784668 94.68499755859375,-31.242000579833984 C94.5469970703125,-31.67799949645996 94.40899658203125,-32.11399841308594 94.2699966430664,-32.54999923706055 C96.22000122070312,-26.270000457763672 96.88899993896484,-19.67799949645996 96.39099884033203,-13.128000259399414 C96.42900085449219,-13.583999633789062 96.46700286865234,-14.039999961853027 96.50399780273438,-14.494999885559082 C95.99800109863281,-8.406000137329102 94.4469985961914,-2.4579999446868896 92.12000274658203,3.186000108718872 C91.80699920654297,3.944000005722046 91.48100280761719,4.697999954223633 91.14099884033203,5.445000171661377 C91.05699920654297,5.63100004196167 90.9219970703125,6.070000171661377 90.7969970703125,6.190999984741211 C90.88200378417969,6.010000228881836 90.96800231933594,5.828999996185303 91.0530014038086,5.646999835968018 C90.93399810791016,5.894000053405762 90.81400299072266,6.140999794006348 90.69200134277344,6.386000156402588 C89.95899963378906,7.86299991607666 89.177001953125,9.314000129699707 88.35099792480469,10.741000175476074 C86.75800323486328,13.491000175476074 85.00199890136719,16.145000457763672 83.12000274658203,18.704999923706055 C81.22699737548828,21.277999877929688 79.20500183105469,23.7549991607666 77.08300018310547,26.142000198364258 C77.01599884033203,26.216999053955078 76.07599639892578,27.222000122070312 76.76599884033203,26.496999740600586 C77.45700073242188,25.770999908447266 76.50900268554688,26.770999908447266 76.44100189208984,26.8439998626709 C75.8740005493164,27.45400047302246 75.3010025024414,28.058000564575195 74.72100067138672,28.655000686645508 C73.56600189208984,29.847000122070312 72.38999938964844,31.020999908447266 71.17900085449219,32.15700149536133 C70.06300354003906,33.20199966430664 68.91699981689453,34.215999603271484 67.72200012207031,35.17100143432617 C67.18099975585938,35.604000091552734 66.62999725341797,36.0260009765625 66.06800079345703,36.43199920654297 C65.95600128173828,36.512001037597656 65.84300231933594,36.59299850463867 65.73100280761719,36.67300033569336 C65.1510009765625,37.07600021362305 65.27799987792969,36.99100112915039 66.11100006103516,36.417999267578125 C65.8740005493164,36.404998779296875 65.30599975585938,36.930999755859375 65.06400299072266,37.07699966430664 C64.36000061035156,37.50199890136719 63.63999938964844,37.89899826049805 62.902000427246094,38.262001037597656 C62.55400085449219,38.43299865722656 62.10599899291992,38.5629997253418 61.7869987487793,38.77799987792969 C62.97800064086914,37.972999572753906 62.941001892089844,38.33399963378906 62.35499954223633,38.53200149536133 C61.573001861572266,38.797000885009766 60.79499816894531,39.03900146484375 60.00199890136719,39.26900100708008 C58.51599884033203,39.70000076293945 61.83399963378906,38.994998931884766 60.492000579833984,39.17499923706055 C60.16400146484375,39.220001220703125 59.8390007019043,39.27399826049805 59.50899887084961,39.308998107910156 C59.18000030517578,39.34400177001953 58.84299850463867,39.34299850463867 58.51499938964844,39.38399887084961 C60.98400115966797,39.06999969482422 59.571998596191406,39.37699890136719 58.832000732421875,39.3390007019043 C58.08399963378906,39.30099868774414 55.95000076293945,38.75699996948242 58.33300018310547,39.37699890136719 C57.6349983215332,39.19499969482422 56.93000030517578,39.073001861572266 56.2400016784668,38.85300064086914 C55.979000091552734,38.77000045776367 55.722999572753906,38.65800094604492 55.459999084472656,38.58399963378906 C57.452999114990234,39.14799880981445 56.08300018310547,38.81700134277344 55.547000885009766,38.54899978637695 C55.257999420166016,38.40399932861328 54.972999572753906,38.25 54.694000244140625,38.08599853515625 C54.191001892089844,37.790000915527344 53.770999908447266,37.22700119018555 54.89099884033203,38.27299880981445 C54.35100173950195,37.76900100708008 53.73500061035156,37.3650016784668 53.21799850463867,36.82600021362305 C53.071998596191406,36.67499923706055 52.9379997253418,36.513999938964844 52.79499816894531,36.361000061035156 C52.42499923706055,35.91600036621094 52.52399826049805,36.04199981689453 53.09199905395508,36.73899841308594 C52.970001220703125,36.569000244140625 52.85200119018555,36.39500045776367 52.7400016784668,36.21799850463867 C52.34000015258789,35.58700180053711 52.02299880981445,34.91899871826172 51.75699996948242,34.22100067138672 C51.26300048828125,32.92900085449219 49.22700119018555,31.89299964904785 48.020999908447266,31.599000930786133 C46.43000030517578,31.211000442504883 44.84199905395508,31.202999114990234 43.2400016784668,31.534000396728516 C40.38999938964844,32.12200164794922 37.34299850463867,33.935001373291016 37.388999938964844,37.198001861572266 C37.44200134277344,40.8650016784668 37.33000183105469,44.52899932861328 37.02899932861328,48.185001373291016 C37.066001892089844,47.729000091552734 37.104000091552734,47.27299880981445 37.141998291015625,46.81800079345703 C36.70899963378906,51.80500030517578 35.92599868774414,56.76100158691406 34.66600036621094,61.608001708984375 C34.04899978637695,63.98099899291992 33.31999969482422,66.32499694824219 32.46799850463867,68.6240005493164 C32.05400085449219,69.73699951171875 31.613000869750977,70.83999633789062 31.141000747680664,71.93099975585938 C30.909000396728516,72.46700286865234 30.70599937438965,73.16699981689453 30.368000030517578,73.6510009765625 C30.457000732421875,73.52300262451172 30.895000457763672,72.58000183105469 30.433000564575195,73.4990005493164 C30.2450008392334,73.87300109863281 30.05900001525879,74.2490005493164 29.865999221801758,74.62100219726562 C27.70199966430664,78.80400085449219 25.020999908447266,82.50499725341797 22.017000198364258,86.11000061035156 C23.135000228881836,84.76899719238281 22.10099983215332,86.00399780273438 21.788999557495117,86.3290023803711 C21.400999069213867,86.73300170898438 21.006000518798828,87.12999725341797 20.604999542236328,87.52100372314453 C19.757999420166016,88.3489990234375 18.882999420166016,89.14800262451172 17.982999801635742,89.91799926757812 C17.224000930786133,90.56800079345703 16.44700050354004,91.19599914550781 15.654000282287598,91.8030014038086 C15.206999778747559,92.14399719238281 14.755000114440918,92.47899627685547 14.298999786376953,92.80699920654297 C14.095999717712402,92.9520034790039 13.888999938964844,93.09400177001953 13.685999870300293,93.23899841308594 C13.026000022888184,93.71299743652344 14.972999572753906,92.39700317382812 14.008000373840332,93.02200317382812 C12.116999626159668,94.24500274658203 10.185999870300293,95.38800048828125 8.168999671936035,96.39299774169922 C7.2179999351501465,96.86599731445312 6.251999855041504,97.29900360107422 5.28000020980835,97.72599792480469 C4.4720001220703125,98.08300018310547 6.775000095367432,97.12899780273438 5.952000141143799,97.4489974975586 C5.6620001792907715,97.56300354003906 5.373000144958496,97.68000030517578 5.081999778747559,97.79100036621094 C4.559000015258789,97.99099731445312 4.0320000648498535,98.18199920654297 3.502000093460083,98.36499786376953 C2.503000020980835,98.70999908447266 1.49399995803833,99.0260009765625 0.47600001096725464,99.30899810791016 C-0.0020000000949949026,99.44300079345703 -0.4830000102519989,99.56900024414062 -0.9649999737739563,99.68800354003906 C-1.2660000324249268,99.76300048828125 -1.5679999589920044,99.83399963378906 -1.8700000047683716,99.90299987792969 C-3.1010000705718994,100.18399810791016 -1.555999994277954,99.87999725341797 -1.1990000009536743,99.7750015258789 C-3.2769999504089355,100.38999938964844 -5.670000076293945,100.50800323486328 -7.822999954223633,100.63500213623047 C-8.317000389099121,100.66500091552734 -8.812000274658203,100.66899871826172 -9.305999755859375,100.6989974975586 C-6.706999778747559,100.54199981689453 -8.722000122070312,100.6780014038086 -9.36299991607666,100.66600036621094 C-10.477999687194824,100.64600372314453 -11.592000007629395,100.58499908447266 -12.70300006866455,100.48100280761719 C-13.260000228881836,100.42900085449219 -13.815999984741211,100.36699676513672 -14.369999885559082,100.29299926757812 C-14.940999984741211,100.21800231933594 -16.632999420166016,99.86100006103516 -14.394000053405762,100.31600189208984 C-15.465999603271484,100.0979995727539 -16.535999298095703,99.8949966430664 -17.594999313354492,99.61599731445312 C-18.635000228881836,99.34200286865234 -19.663000106811523,99.0260009765625 -20.677000045776367,98.66799926757812 C-21.229999542236328,98.4729995727539 -22.52199935913086,97.75399780273438 -20.767000198364258,98.65299987792969 C-21.29400062561035,98.38400268554688 -21.87299919128418,98.19300079345703 -22.413000106811523,97.947998046875 C-24.315000534057617,97.08399963378906 -26.150999069213867,96.07499694824219 -27.90399932861328,94.94100189208984 C-28.104999542236328,94.81099700927734 -28.304000854492188,94.68000030517578 -28.503000259399414,94.5469970703125 C-29.631000518798828,93.79000091552734 -27.933000564575195,94.97100067138672 -28.408000946044922,94.61799621582031 C-28.839000701904297,94.2969970703125 -29.27400016784668,93.98300170898438 -29.698999404907227,93.65399932861328 C-30.639999389648438,92.9229965209961 -31.552000045776367,92.15499877929688 -32.430999755859375,91.3499984741211 C-33.308998107910156,90.5469970703125 -34.15399932861328,89.70999908447266 -34.9640007019043,88.83899688720703 C-35.36800003051758,88.40399932861328 -35.76300048828125,87.96099853515625 -36.14899826049805,87.51100158691406 C-36.435001373291016,87.177001953125 -37.525001525878906,85.63899993896484 -36.61399841308594,86.97699737548828 C-37.946998596191406,85.0199966430664 -39.332000732421875,83.16000366210938 -40.45100021362305,81.06099700927734 C-41.54899978637695,79.00299835205078 -42.45399856567383,76.85299682617188 -43.172000885009766,74.63400268554688 C-43.034000396728516,75.06999969482422 -42.895999908447266,75.50499725341797 -42.757999420166016,75.94100189208984 C-44.08300018310547,71.70800018310547 -44.641998291015625,67.3030014038086 -44.303001403808594,62.875 C-44.340999603271484,63.33100128173828 -44.37799835205078,63.7869987487793 -44.41600036621094,64.24199676513672 C-44.39699935913086,64.00800323486328 -44.375,63.77299880981445 -44.35100173950195,63.53900146484375 C-44.20600128173828,62.07500076293945 -44.321998596191406,60.79499816894531 -45.53300094604492,59.74700164794922 C-46.61399841308594,58.8129997253418 -47.904998779296875,58.32400131225586 -49.29999923706055,58.0880012512207 C-50.86899948120117,57.823001861572266 -52.62099838256836,57.854000091552734 -54.14099884033203,58.37799835205078 C-55.61800003051758,58.88800048828125 -57.54899978637695,59.71799850463867 -58.297000885009766,61.1879997253418 C-58.70899963378906,61.99800109863281 -59.16699981689453,62.77899932861328 -59.69200134277344,63.520999908447266 C-59.979000091552734,63.926998138427734 -60.29199981689453,64.30699920654297 -60.599998474121094,64.6969985961914 C-60.867000579833984,65.03500366210938 -61.3489990234375,65.33699798583984 -60.14699935913086,64.21399688720703 C-60.361000061035156,64.41300201416016 -60.55500030517578,64.64299774169922 -60.763999938964844,64.8479995727539 C-61.395999908447266,65.46700286865234 -62.073001861572266,66.04100036621094 -62.784000396728516,66.56800079345703 C-64.12200164794922,67.55799865722656 -61.426998138427734,65.73200225830078 -62.8489990234375,66.60600280761719 C-63.27199935913086,66.86599731445312 -63.70500183105469,67.11100006103516 -64.1449966430664,67.34100341796875 C-64.54299926757812,67.54900360107422 -64.9520034790039,67.73500061035156 -65.35800170898438,67.92900085449219 C-66.68599700927734,68.56500244140625 -63.59299850463867,67.26399993896484 -65.18599700927734,67.8499984741211 C-66.13999938964844,68.20099639892578 -67.11699676513672,68.49199676513672 -68.10600280761719,68.72699737548828 C-69.83100128173828,69.13600158691406 -66.28500366210938,68.43699645996094 -67.822998046875,68.66300201416016 C-68.28299713134766,68.73100280761719 -68.74099731445312,68.80899810791016 -69.2040023803711,68.86499786376953 C-69.66799926757812,68.91999816894531 -70.13300323486328,68.96399688720703 -70.5989990234375,68.99700164794922 C-70.85900115966797,69.01499938964844 -71.11900329589844,69.0260009765625 -71.37899780273438,69.04199981689453 C-72.5979995727539,69.11399841308594 -69.3489990234375,69.04900360107422 -70.6449966430664,69.0260009765625 C-71.58899688720703,69.01000213623047 -72.52799987792969,68.98100280761719 -73.46800231933594,68.88999938964844 C-73.88500213623047,68.8499984741211 -74.302001953125,68.80000305175781 -74.71700286865234,68.74199676513672 C-74.98500061035156,68.7040023803711 -76.08300018310547,68.52400207519531 -74.73799896240234,68.74800109863281 C-73.3759994506836,68.9749984741211 -74.61199951171875,68.75700378417969 -74.90699768066406,68.69400024414062 C-75.87799835205078,68.48699951171875 -76.83899688720703,68.2300033569336 -77.78399658203125,67.9209976196289 C-78.18000030517578,67.79100036621094 -78.56700134277344,67.63300323486328 -78.96299743652344,67.50499725341797 C-76.77400207519531,68.21499633789062 -78.71700286865234,67.5790023803711 -79.24400329589844,67.33100128173828 C-80.08599853515625,66.93399810791016 -80.90699768066406,66.49199676513672 -81.6989974975586,66.00299835205078 C-82.0979995727539,65.75599670410156 -83.33399963378906,64.74099731445312 -82.00199890136719,65.83799743652344 C-82.47799682617188,65.44599914550781 -82.99700164794922,65.10399627685547 -83.47699737548828,64.71600341796875 C-85.29499816894531,63.24700164794922 -86.89399719238281,61.577999114990234 -88.39900207519531,59.79600143432617 C-89.19599914550781,58.85200119018555 -87.83999633789062,60.558998107910156 -88.30999755859375,59.904998779296875 C-88.52400207519531,59.608001708984375 -88.7490005493164,59.31800079345703 -88.96099853515625,59.02000045776367 C-89.35199737548828,58.47200012207031 -89.72899627685547,57.91400146484375 -90.08999633789062,57.34600067138672 C-90.7509994506836,56.310001373291016 -91.36399841308594,55.242000579833984 -91.93099975585938,54.1510009765625 C-93.19200134277344,51.7239990234375 -94.21399688720703,49.18299865722656 -95.05799865722656,46.582000732421875 C-94.91999816894531,47.018001556396484 -94.78199768066406,47.45399856567383 -94.64299774169922,47.88999938964844 C-97.27400207519531,39.584999084472656 -97.96299743652344,30.784000396728516 -97.27400207519531,22.125 C-97.31199645996094,22.58099937438965 -97.3499984741211,23.03700065612793 -97.38700103759766,23.492000579833984 C-96.64600372314453,14.696999549865723 -94.43499755859375,6.063000202178955 -90.92500305175781,-2.0339999198913574 C-90.7040023803711,-2.5439999103546143 -90.47799682617188,-3.052999973297119 -90.24600219726562,-3.559000015258789 C-90.14399719238281,-3.7820000648498535 -90.0270004272461,-4.005000114440918 -89.93499755859375,-4.23199987411499 C-90.4280014038086,-3.010999917984009 -90.2040023803711,-3.6700000762939453 -90.06600189208984,-3.9519999027252197 C-89.5479965209961,-5.007999897003174 -89.01899719238281,-6.058000087738037 -88.46199798583984,-7.093999862670898 C-87.43699645996094,-9.005000114440918 -86.33899688720703,-10.875 -85.16999816894531,-12.701000213623047 C-82.76100158691406,-16.46500015258789 -80.04900360107422,-20.017000198364258 -77.08699798583984,-23.36199951171875 C-76.85099792480469,-23.628000259399414 -76.2979965209961,-24.141000747680664 -77.37899780273438,-23.041000366210938 C-77.20500183105469,-23.218000411987305 -77.04199981689453,-23.406999588012695 -76.87300109863281,-23.58799934387207 C-76.49199676513672,-23.996000289916992 -76.10600280761719,-24.399999618530273 -75.71700286865234,-24.799999237060547 C-74.8949966430664,-25.645000457763672 -74.05400085449219,-26.472999572753906 -73.19599914550781,-27.2810001373291 C-71.61399841308594,-28.77199935913086 -69.97200012207031,-30.200000762939453 -68.27400207519531,-31.55699920654297 C-67.4489974975586,-32.21699905395508 -66.61000061035156,-32.861000061035156 -65.75800323486328,-33.48699951171875 C-65.30699920654297,-33.819000244140625 -64.85199737548828,-34.145999908447266 -64.39399719238281,-34.46799850463867 C-64.19100189208984,-34.611000061035156 -63.98500061035156,-34.75199890136719 -63.78099822998047,-34.89500045776367 C-63.233001708984375,-35.27799987792969 -65.1780014038086,-33.9630012512207 -63.94900131225586,-34.775001525878906 C-62.16299819946289,-35.95399856567383 -60.33100128173828,-37.06999969482422 -58.44599914550781,-38.08399963378906 C-57.56100082397461,-38.560001373291016 -56.66299819946289,-39.00899887084961 -55.75199890136719,-39.433998107910156 C-55.34400177001953,-39.625 -54.93299865722656,-39.81100082397461 -54.51900100708008,-39.99100112915039 C-54.3129997253418,-40.082000732421875 -54.099998474121094,-40.165000915527344 -53.895999908447266,-40.25899887084961 C-55.96500015258789,-39.301998138427734 -54.854000091552734,-39.867000579833984 -54.34299850463867,-40.06800079345703 C-52.426998138427734,-40.821998596191406 -50.47100067138672,-41.47100067138672 -48.48400115966797,-42.0099983215332 C-47.542999267578125,-42.26499938964844 -46.59600067138672,-42.48699951171875 -45.64500045776367,-42.698001861572266 C-44.76300048828125,-42.89400100708008 -47.470001220703125,-42.34000015258789 -46.58100128173828,-42.50299835205078 C-46.30099868774414,-42.55400085449219 -46.02000045776367,-42.60900115966797 -45.73899841308594,-42.659000396728516 C-45.17900085449219,-42.757999420166016 -44.61600112915039,-42.847999572753906 -44.053001403808594,-42.92900085449219 C-43.15599822998047,-43.05699920654297 -42.25600051879883,-43.1609992980957 -41.354000091552734,-43.23899841308594 C-40.849998474121094,-43.28200149536133 -40.345001220703125,-43.31700134277344 -39.84000015258789,-43.345001220703125 C-39.56100082397461,-43.35900115966797 -39.28099822998047,-43.36899948120117 -39.00199890136719,-43.38199996948242 C-37.803001403808594,-43.4370002746582 -40.71900177001953,-43.38399887084961 -39.81700134277344,-43.3650016784668 C-38.7130012512207,-43.34199905395508 -37.61399841308594,-43.340999603271484 -36.51100158691406,-43.26100158691406 C-35.96799850463867,-43.22200012207031 -35.42599868774414,-43.17100143432617 -34.8849983215332,-43.10900115966797 C-34.566001892089844,-43.071998596191406 -32.619998931884766,-42.77299880981445 -34.034000396728516,-43.01300048828125 C-35.46699905395508,-43.25600051879883 -33.547000885009766,-42.90599822998047 -33.2130012512207,-42.83300018310547 C-32.69499969482422,-42.71799850463867 -32.180999755859375,-42.590999603271484 -31.670000076293945,-42.45100021362305 C-31.163000106811523,-42.3120002746582 -30.659000396728516,-42.15999984741211 -30.15999984741211,-41.99399948120117 C-29.91200065612793,-41.9119987487793 -29.666000366210938,-41.821998596191406 -29.417999267578125,-41.737998962402344 C-28.410999298095703,-41.39500045776367 -30.69499969482422,-42.2869987487793 -29.98200035095215,-41.9630012512207 C-29.03499984741211,-41.53200149536133 -28.089000701904297,-41.130001068115234 -27.177000045776367,-40.62699890136719 C-26.724000930786133,-40.37699890136719 -26.280000686645508,-40.11399841308594 -25.8439998626709,-39.83700180053711 C-25.628999710083008,-39.69900131225586 -25.420000076293945,-39.53300094604492 -25.19700050354004,-39.40999984741211 C-25.510000228881836,-39.582000732421875 -26.35099983215332,-40.27199935913086 -25.583999633789062,-39.665000915527344 C-24.761999130249023,-39.013999938964844 -23.958999633789062,-38.35900115966797 -23.211000442504883,-37.62300109863281 C-22.83300018310547,-37.250999450683594 -22.4689998626709,-36.86600112915039 -22.117000579833984,-36.46900177001953 C-21.93899917602539,-36.268001556396484 -21.768999099731445,-36.06100082397461 -21.593000411987305,-35.858001708984375 C-20.915000915527344,-35.071998596191406 -22.347999572753906,-36.85200119018555 -21.67300033569336,-35.95000076293945 C-19.533000946044922,-33.09400177001953 -15.522000312805176,-32.31100082397461 -12.184000015258789,-33.4630012512207 C-10.644000053405762,-33.994998931884766 -8.892999649047852,-34.8129997253418 -8.027999877929688,-36.27399826049805 C-7.367000102996826,-37.388999938964844 -6.839000225067139,-39.05699920654297 -7.71999979019165,-40.23400115966797 C-7.71999979019165,-40.23400115966797 -7.71999979019165,-40.23400115966797 -7.71999979019165,-40.23400115966797z"/></g></g><g transform="matrix(1,0,0,1,950,950)" opacity="1" style="display: block;"><g opacity="1" transform="matrix(1,0,0,1,-23.95819091796875,7.567559242248535)"><path fill="rgb(192,192,192)" fill-opacity="1" d=" M804.5,-411 C804.5,-411 421.5,-378 421.5,-378 C421.5,-378 420,-368.5 420,-368.5 C420,-368.5 802,-392.5 802,-392.5 C802,-392.5 804.5,-411 804.5,-411z"/></g><g opacity="1" transform="matrix(1,0,0,1,-11.865175247192383,16.781124114990234)"><path fill="rgb(192,192,192)" fill-opacity="1" d=" M804.5,-411 C804.5,-411 421.5,-378 421.5,-378 C421.5,-378 420,-368.5 420,-368.5 C420,-368.5 802,-392.5 802,-392.5 C802,-392.5 804.5,-411 804.5,-411z"/></g><g opacity="1" transform="matrix(1,0,0,1,4.823182582855225,74.06578063964844)"><path fill="rgb(192,192,192)" fill-opacity="1" d=" M804.5,-411 C804.5,-411 421.5,-378 421.5,-378 C421.5,-378 420,-368.5 420,-368.5 C420,-368.5 802,-392.5 802,-392.5 C802,-392.5 804.5,-411 804.5,-411z"/></g><g opacity="1" transform="matrix(1,0,0,1,-92.9196548461914,101.8818130493164)"><path fill="rgb(192,192,192)" fill-opacity="1" d=" M804.5,-411 C804.5,-411 421.5,-378 421.5,-378 C421.5,-378 420,-368.5 420,-368.5 C420,-368.5 802,-392.5 802,-392.5 C802,-392.5 804.5,-411 804.5,-411z"/></g><g opacity="1" transform="matrix(1,0,0,1,-19.778629302978516,80.22254180908203)"><path fill="rgb(157,157,157)" fill-opacity="1" d=" M804.5,-411 C804.5,-411 421.5,-378 421.5,-378 C421.5,-378 420,-368.5 420,-368.5 C420,-368.5 802,-392.5 802,-392.5 C802,-392.5 804.5,-411 804.5,-411z"/></g><g opacity="1" transform="matrix(1,0,0,1,23.15412712097168,-44.40641784667969)"><path fill="rgb(157,157,157)" fill-opacity="1" d=" M804.5,-411 C804.5,-411 421.5,-378 421.5,-378 C421.5,-378 420,-368.5 420,-368.5 C420,-368.5 802,-392.5 802,-392.5 C802,-392.5 804.5,-411 804.5,-411z"/></g><g opacity="1" transform="matrix(1,0,0,1,-55.368080139160156,142.77664184570312)"><path fill="rgb(157,157,157)" fill-opacity="1" d=" M804.5,-411 C804.5,-411 421.5,-378 421.5,-378 C421.5,-378 420,-368.5 420,-368.5 C420,-368.5 802,-392.5 802,-392.5 C802,-392.5 804.5,-411 804.5,-411z"/></g></g></g></svg>