<svg xmlns="http://www.w3.org/2000/svg" xmlns:xlink="http://www.w3.org/1999/xlink" viewBox="0 0 1900 1900" width="1900" height="1900" preserveAspectRatio="xMidYMid meet" style="width: 100%; height: 100%; transform: translate3d(0px, 0px, 0px); content-visibility: visible;"><defs><clipPath id="__lottie_element_964"><rect width="1900" height="1900" x="0" y="0"/></clipPath></defs><g clip-path="url(#__lottie_element_964)"><g transform="matrix(0,0,0,1,1764,950)" opacity="1" style="display: block;"><g opacity="1" transform="matrix(1,0,0,1,14,371)"><path fill="rgb(215,3,9)" fill-opacity="1" d=" M800,-47 C800,-47 800,47 800,47 C800,47 -800,47 -800,47 C-800,47 -800,-47 -800,-47 C-800,-47 800,-47 800,-47z"/></g></g><g transform="matrix(0,0,0,1,1546,1166)" opacity="1" style="display: block;"><g opacity="1" transform="matrix(1,0,0,1,14,371)"><path fill="rgb(215,3,9)" fill-opacity="1" d=" M800,-47 C800,-47 800,47 800,47 C800,47 -800,47 -800,47 C-800,47 -800,-47 -800,-47 C-800,-47 800,-47 800,-47z"/></g></g><g transform="matrix(1.159999966621399,0,0,1.159999966621399,1022.2000122070312,461.22003173828125)" opacity="1" style="display: block;"><g opacity="1" transform="matrix(1,0,0,1,289.75201416015625,356.7080078125)"><path fill="rgb(255,254,255)" fill-opacity="1" d=" M-281.68499755859375,-166.72500610351562 C-281.68499755859375,-166.72500610351562 -18.150999069213867,-303.8699951171875 -18.150999069213867,-303.8699951171875 C-18.150999069213867,-303.8699951171875 43.698001861572266,-244.70899963378906 43.698001861572266,-244.70899963378906 C43.698001861572266,-244.70899963378906 197.8719940185547,-9.347999572753906 197.8719940185547,-9.347999572753906 C197.8719940185547,-9.347999572753906 198.9720001220703,9.295999526977539 198.9720001220703,9.295999526977539 C198.9720001220703,9.295999526977539 209.07899475097656,16.135000228881836 209.07899475097656,16.135000228881836 C209.07899475097656,16.135000228881836 277.9530029296875,148.3300018310547 277.9530029296875,148.3300018310547 C277.9530029296875,148.3300018310547 281.68499755859375,205.71800231933594 281.68499755859375,205.71800231933594 C281.68499755859375,205.71800231933594 135.1280059814453,303.8699951171875 135.1280059814453,303.8699951171875 C135.1280059814453,303.8699951171875 81.34600067138672,290.42498779296875 81.34600067138672,290.42498779296875 C81.34600067138672,290.42498779296875 19.496000289916992,232.60899353027344 19.496000289916992,232.60899353027344 C19.496000289916992,232.60899353027344 -108.23699951171875,86.052001953125 -108.23699951171875,86.052001953125 C-108.23699951171875,86.052001953125 -281.68499755859375,-166.72500610351562 -281.68499755859375,-166.72500610351562z"/></g><g opacity="1" transform="matrix(1,0,0,1,506.0260009765625,641.02197265625)"><path fill="rgb(14,13,15)" fill-opacity="1" d=" M-64.4219970703125,-26.416000366210938 C-55.69499969482422,-30.594999313354492 -47.433998107910156,-35.59400177001953 -39.457000732421875,-41.03099822998047 C-18.048999786376953,-55.62200164794922 1.1720000505447388,-72.81500244140625 19.76799964904785,-90.79000091552734 C32.869998931884766,-103.4530029296875 44.78099822998047,-117.06199645996094 55.064998626708984,-132.10000610351562 C55.11000061035156,-132.16600036621094 55.15399932861328,-132.23300170898438 55.20100021362305,-132.29800415039062 C56.80099868774414,-134.53700256347656 58.41999816894531,-137.17999267578125 61.68000030517578,-135.98399353027344 C64.66000366210938,-134.89100646972656 65.2239990234375,-131.86599731445312 65.62000274658203,-129.07699584960938 C66.54399871826172,-122.57099914550781 65.9520034790039,-115.99099731445312 66.51300048828125,-109.4489974975586 C67.2239990234375,-101.17500305175781 68.41100311279297,-92.96900177001953 69.58899688720703,-84.76499938964844 C71.0270004272461,-74.74700164794922 72.1050033569336,-64.66699981689453 74.21399688720703,-54.755001068115234 C79.88099670410156,-28.114999771118164 88.98899841308594,-2.7009999752044678 101.44300079345703,21.518999099731445 C104.83599853515625,28.117000579833984 108.72699737548828,34.46500015258789 111.47000122070312,41.38999938964844 C111.75199890136719,42.10300064086914 111.8740005493164,42.67499923706055 112.9280014038086,42.0989990234375 C113.85900115966797,41.5890007019043 114.78199768066406,42.354000091552734 114.17400360107422,43.20100021362305 C112.61199951171875,45.37900161743164 113.45500183105469,47.39400100708008 114.29199981689453,49.53499984741211 C113.07499694824219,49.611000061035156 113.13800048828125,48.32600021362305 112.09400177001953,48.20199966430664 C111.18900299072266,49.777000427246094 110.24400329589844,51.51100158691406 109.20800018310547,53.189998626708984 C108.55999755859375,54.24100112915039 109.38999938964844,54.83300018310547 109.80999755859375,55.527000427246094 C114.28500366210938,62.90999984741211 119.00499725341797,70.12999725341797 124.5260009765625,76.78299713134766 C125.59600067138672,78.072998046875 125.61900329589844,79.00399780273438 124.49299621582031,80.23699951171875 C121.03199768066406,84.03099822998047 119.49600219726562,88.91300201416016 117.36100006103516,93.43000030517578 C111.83300018310547,105.12300109863281 105.11799621582031,116.18099975585938 99.2770004272461,127.7030029296875 C98.1969985961914,129.83299255371094 96.93099975585938,131.88800048828125 96.302001953125,134.21800231933594 C95.8290023803711,135.97300720214844 94.29199981689453,136.44200134277344 92.95899963378906,137.17999267578125 C92.47899627685547,137.17999267578125 91.9990005493164,137.17999267578125 91.51899719238281,137.17999267578125 C81.20899963378906,132.09800720214844 75.05999755859375,122.73500061035156 68.10900115966797,114.23500061035156 C64.56900024414062,109.90799713134766 61.3390007019043,105.3239974975586 58.06800079345703,100.78500366210938 C57.13100051879883,99.48500061035156 56.31700134277344,99.14700317382812 54.7400016784668,99.72000122070312 C50.29199981689453,101.33499908447266 45.724998474121094,102.50399780273438 40.922000885009766,101.69100189208984 C38.03300094604492,101.2020034790039 36.97999954223633,99.66100311279297 37.750999450683594,96.85099792480469 C38.0369987487793,95.80500030517578 37.36399841308594,95.61599731445312 36.893001556396484,95.16100311279297 C7.304999828338623,66.60600280761719 -27.461999893188477,46.10100173950195 -64.86100006103516,29.716999053955078 C-82.0199966430664,22.198999404907227 -99.2300033569336,14.79800033569336 -116.43299865722656,7.382999897003174 C-118.40399932861328,6.5329999923706055 -120.47000122070312,5.892000198364258 -122.51699829101562,5.230000019073486 C-125.177001953125,4.369999885559082 -125.62000274658203,3.559999942779541 -124.76399993896484,0.8309999704360962 C-123.47799682617188,-0.10100000351667404 -122.05999755859375,-0.47600001096725464 -120.48400115966797,-0.18199999630451202 C-119.33300018310547,0.032999999821186066 -118.56600189208984,0.03400000184774399 -117.61799621582031,-1.1990000009536743 C-116.46700286865234,-2.696000099182129 -114.99400329589844,-4.190000057220459 -112.9990005493164,-4.866000175476074 C-108.39900207519531,-6.423999786376953 -103.88500213623047,-8.279999732971191 -99.21399688720703,-9.574000358581543 C-94.54100036621094,-10.868000030517578 -90.5770034790039,-13.609000205993652 -86.13700103759766,-15.395000457763672 C-78.625,-18.417999267578125 -71.37999725341797,-22.187999725341797 -64.4219970703125,-26.416000366210938z M-111.75900268554688,2.059000015258789 C-110.5989990234375,2.493000030517578 -109.43800354003906,2.928999900817871 -108.2760009765625,3.359999895095825 C-95.33599853515625,8.156999588012695 -82.99800109863281,14.402000427246094 -70.12300109863281,19.34600067138672 C-37.917999267578125,31.711999893188477 -8.383999824523926,48.79100036621094 18.851999282836914,69.8759994506836 C27.83300018310547,76.8280029296875 36.55500030517578,84.14199829101562 42.630001068115234,94.00299835205078 C43.095001220703125,94.75800323486328 43.617000579833984,95.02300262451172 44.38600158691406,94.77799987792969 C47.65599822998047,93.73500061035156 51.36899948120117,93.7699966430664 53.862998962402344,90.81700134277344 C54.32699966430664,90.26899719238281 55.1150016784668,90.05599975585938 55.856998443603516,90.18199920654297 C56.9739990234375,90.37100219726562 57.88999938964844,89.93299865722656 58.78499984741211,89.39099884033203 C61.0359992980957,88.0260009765625 63.354000091552734,86.75399780273438 65.51100158691406,85.25299835205078 C77.2509994506836,77.08000183105469 87.5780029296875,67.30799865722656 97.31500244140625,56.882999420166016 C99.21099853515625,54.85200119018555 100.86599731445312,52.542999267578125 102.83300018310547,50.659000396728516 C104.46399688720703,49.09600067138672 106.16999816894531,47.472999572753906 108.04000091552734,46.124000549316406 C109.09100341796875,45.36600112915039 108.83300018310547,44.81399917602539 108.05500030517578,44.07099914550781 C106.02200317382812,42.13199996948242 104.31300354003906,39.92100143432617 102.70899963378906,37.617000579833984 C83.61599731445312,10.210000038146973 73.5260009765625,-20.854000091552734 66.13300323486328,-52.9739990234375 C63.790000915527344,-63.15599822998047 62.770999908447266,-73.58799743652344 61.37300109863281,-83.93599700927734 C60.4119987487793,-91.04499816894531 59.345001220703125,-98.14399719238281 58.784000396728516,-105.31099700927734 C58.375999450683594,-110.52999877929688 57.917999267578125,-115.74400329589844 57.89400100708008,-120.47599792480469 C21.229000091552734,-75.875 -20.775999069213867,-37.35100173950195 -73.49600219726562,-11.003999710083008 C-49.922000885009766,-3.2909998893737793 -29.343000411987305,8.710000038146973 -10.234999656677246,24.67300033569336 C-11.963000297546387,24.6560001373291 -12.76200008392334,24.12299919128418 -13.571000099182129,23.665000915527344 C-17.67099952697754,21.344999313354492 -21.802000045776367,19.076000213623047 -25.850000381469727,16.66900062561035 C-40.99399948120117,7.663000106811523 -56.887001037597656,0.3479999899864197 -73.58100128173828,-5.329999923706055 C-78.31800079345703,-6.941999912261963 -82.24099731445312,-7.053999900817871 -86.86299896240234,-4.714000225067139 C-94.55000305175781,-0.8220000267028809 -102.66100311279297,2.247999906539917 -111.75900268554688,2.059000015258789z M104.09100341796875,60.80799865722656 C92.46299743652344,74.39800262451172 79.58300018310547,86.11599731445312 64.49600219726562,95.27999877929688 C63.483001708984375,95.89600372314453 63.83300018310547,96.26000213623047 64.36199951171875,96.87899780273438 C65.50499725341797,98.21499633789062 66.66500091552734,99.54299926757812 67.70800018310547,100.95500183105469 C74.72200012207031,110.4540023803711 82.59200286865234,119.28600311279297 89.35399627685547,128.94900512695312 C90.13600158691406,128.58399963378906 90.15399932861328,127.85199737548828 90.43099975585938,127.30599975585938 C98.45500183105469,111.52799987792969 106.22899627685547,95.61000061035156 116.5,81.1050033569336 C117.01599884033203,80.375 117.02400207519531,79.95099639892578 116.47100067138672,79.26799774169922 C111.84500122070312,73.55400085449219 107.75499725341797,67.4729995727539 104.09100341796875,60.80799865722656z"/></g><g opacity="1" transform="matrix(1,0,0,1,380.9729919433594,503.9280090332031)"><path fill="rgb(204,203,196)" fill-opacity="1" d=" M60.63199996948242,110.6780014038086 C53.67399978637695,114.90599822998047 46.42900085449219,118.6760025024414 38.91699981689453,121.6989974975586 C34.47700119018555,123.48500061035156 30.511999130249023,126.22599792480469 25.839000701904297,127.5199966430664 C21.167999267578125,128.81399536132812 16.65399932861328,130.6699981689453 12.053999900817871,132.22799682617188 C10.059000015258789,132.9040069580078 8.586000442504883,134.3979949951172 7.434999942779541,135.89500427246094 C6.486999988555908,137.1280059814453 5.7210001945495605,137.1269989013672 4.570000171661377,136.91200256347656 C2.99399995803833,136.6179962158203 1.5750000476837158,136.99200439453125 0.289000004529953,137.9239959716797 C-2.7360000610351562,136.51800537109375 -5.75,135.08900451660156 -8.793000221252441,133.7239990234375 C-9.574999809265137,133.3730010986328 -10.390999794006348,132.98500061035156 -11.3100004196167,133.12100219726562 C-14.49899959564209,131.04400634765625 -16.64900016784668,127.86799621582031 -19.476999282836914,125.40299987792969 C-29.849000930786133,116.36699676513672 -40.00699996948242,107.09300231933594 -50.07699966430664,97.71900177001953 C-70.51399993896484,78.69599914550781 -90.99500274658203,59.724998474121094 -109.08200073242188,38.36399841308594 C-111.49199676513672,35.518001556396484 -111.56600189208984,35.47800064086914 -108.09500122070312,33.9010009765625 C-100.39700317382812,30.402999877929688 -92.55400085449219,27.208999633789062 -85.19999694824219,22.996999740600586 C-83.88500213623047,22.243000030517578 -83.33499908447266,22.969999313354492 -82.61299896240234,23.738000869750977 C-71.41200256347656,35.64899826049805 -59.03300094604492,46.21500015258789 -45.9010009765625,55.92100143432617 C-45.64899826049805,56.108001708984375 -45.374000549316406,56.29800033569336 -44.845001220703125,55.76900100708008 C-47.56700134277344,53.354000091552734 -49.9640007019043,50.61899948120117 -52.433998107910156,47.9640007019043 C-60.76499938964844,39.00299835205078 -69.2760009765625,30.208999633789062 -77.76699829101562,21.39900016784668 C-78.94000244140625,20.18199920654297 -79.30799865722656,19.631000518798828 -77.50599670410156,18.520000457763672 C-64.51399993896484,10.508999824523926 -51.79199981689453,2.0759999752044678 -39.457000732421875,-6.916999816894531 C-15.170000076293945,-24.625999450683594 8.949000358581543,-42.56399917602539 31.93899917602539,-61.957000732421875 C40.486000061035156,-69.16699981689453 48.81700134277344,-76.63300323486328 57.24599838256836,-83.98200225830078 C59.277000427246094,-83.96099853515625 60.05500030517578,-85.30799865722656 60.525001525878906,-86.99099731445312 C60.525001525878906,-86.99099731445312 60.479000091552734,-86.93699645996094 60.479000091552734,-86.93699645996094 C60.792999267578125,-86.93499755859375 61.21900177001953,-86.7959976196289 61.40299987792969,-86.94999694824219 C64.93399810791016,-89.87999725341797 68.25199890136719,-93.02799987792969 71.03399658203125,-96.69999694824219 C71.0999984741211,-96.78800201416016 70.9990005493164,-97.00299835205078 70.9749984741211,-97.15899658203125 C70.9749984741211,-97.15899658203125 71.10800170898438,-97.10399627685547 71.10800170898438,-97.10399627685547 C71.10800170898438,-97.10399627685547 71.05599975585938,-96.97000122070312 71.05599975585938,-96.97000122070312 C71.24099731445312,-97.16000366210938 71.4260025024414,-97.3499984741211 71.61100006103516,-97.54000091552734 C71.61100006103516,-97.54000091552734 71.53700256347656,-97.4469985961914 71.53700256347656,-97.4469985961914 C71.72200012207031,-97.63899993896484 71.90699768066406,-97.83300018310547 72.09100341796875,-98.0250015258789 C72.09100341796875,-98.0250015258789 72.0510025024414,-97.90899658203125 72.0510025024414,-97.90899658203125 C72.0510025024414,-97.90899658203125 71.94000244140625,-97.95899963378906 71.94000244140625,-97.95899963378906 C72.41100311279297,-98.06099700927734 72.48400115966797,-98.46600341796875 72.60299682617188,-98.83499908447266 C73.11900329589844,-99.42900085449219 73.59300231933594,-100.06600189208984 74.15799713134766,-100.60900115966797 C80.61299896240234,-106.81199645996094 86.70099639892578,-113.36399841308594 92.6760025024414,-120.0260009765625 C97.83799743652344,-125.78199768066406 102.95899963378906,-131.56900024414062 107.7509994506836,-137.9239959716797 C109.16200256347656,-135.44500732421875 110.63700103759766,-133.3040008544922 111.56600189208984,-130.85499572753906 C110.66899871826172,-128.19700622558594 108.427001953125,-126.50599670410156 106.81500244140625,-124.375 C97.22200012207031,-111.68399810791016 86.84300231933594,-99.68000030517578 75.21600341796875,-88.78800201416016 C65.2030029296875,-79.40799713134766 55.10900115966797,-70.13500213623047 44.369998931884766,-61.566001892089844 C35.275001525878906,-54.310001373291016 26.54599952697754,-46.597999572753906 17.520000457763672,-39.25299835205078 C10.906000137329102,-33.869998931884766 3.9609999656677246,-28.893999099731445 -2.63700008392334,-23.490999221801758 C-13.942000389099121,-14.234000205993652 -26.184999465942383,-6.258999824523926 -37.805999755859375,2.562999963760376 C-39.43299865722656,3.7980000972747803 -39.321998596191406,4.631999969482422 -38.2869987487793,6.013999938964844 C-31.783000946044922,14.692999839782715 -25.857999801635742,23.804000854492188 -19.027999877929688,32.237998962402344 C-13.711000442504883,38.80400085449219 -8.125,45.1510009765625 -2.7720000743865967,51.6879997253418 C3.9200000762939453,59.862998962402344 11.279999732971191,67.4010009765625 18.88599967956543,74.7020034790039 C27.697999954223633,83.16200256347656 36.47800064086914,91.66300201416016 45.529998779296875,99.86000061035156 C49.637001037597656,103.5790023803711 54.06100082397461,107.06400299072266 59.31100082397461,109.21499633789062 C59.948001861572266,109.47599792480469 60.72600173950195,109.70999908447266 60.63199996948242,110.6780014038086z"/></g><g opacity="1" transform="matrix(1,0,0,1,409.1759948730469,344.1289978027344)"><path fill="rgb(14,13,15)" fill-opacity="1" d=" M29.04199981689453,75.81700134277344 C20.613000869750977,83.16600036621094 12.282999992370605,90.63200378417969 3.7360000610351562,97.84200286865234 C-19.253999710083008,117.23500061035156 -43.37300109863281,135.17300415039062 -67.66000366210938,152.8820037841797 C-79.99500274658203,161.875 -92.71800231933594,170.30799865722656 -105.70999908447266,178.31900024414062 C-107.51200103759766,179.42999267578125 -107.14299774169922,179.9810028076172 -105.97000122070312,181.197998046875 C-97.47899627685547,190.00799560546875 -88.96800231933594,198.802001953125 -80.63700103759766,207.76300048828125 C-78.16699981689453,210.41799926757812 -75.77100372314453,213.1529998779297 -73.04900360107422,215.5679931640625 C-73.5780029296875,216.0970001220703 -73.85199737548828,215.90699768066406 -74.10399627685547,215.72000122070312 C-87.23600006103516,206.01400756835938 -99.61599731445312,195.447998046875 -110.81700134277344,183.53700256347656 C-111.53900146484375,182.7689971923828 -112.08899688720703,182.04200744628906 -113.40399932861328,182.79600524902344 C-120.75800323486328,187.00799560546875 -128.6009979248047,190.20199584960938 -136.2989959716797,193.6999969482422 C-139.77000427246094,195.27699279785156 -139.6959991455078,195.31700134277344 -137.28599548339844,198.16299438476562 C-119.1989974975586,219.5240020751953 -98.71700286865234,238.4949951171875 -78.27999877929688,257.51800537109375 C-68.20999908447266,266.8919982910156 -58.053001403808594,276.1659851074219 -47.680999755859375,285.2019958496094 C-44.85300064086914,287.6669921875 -42.70199966430664,290.8429870605469 -39.51300048828125,292.9200134277344 C-39.553001403808594,294.8890075683594 -40.500999450683594,294.3370056152344 -41.7130012512207,293.8529968261719 C-55.987998962402344,288.1520080566406 -66.97000122070312,277.8240051269531 -78.12200164794922,267.7950134277344 C-94.40899658203125,253.1479949951172 -110.99099731445312,238.80799865722656 -125.97200012207031,222.76600646972656 C-133.28700256347656,214.93299865722656 -140.50399780273438,207.01800537109375 -147.3000030517578,198.7259979248047 C-148.2689971923828,197.54400634765625 -149.21400451660156,196.375 -149.12600708007812,194.6929931640625 C-149.01600646972656,192.58900451660156 -147.5500030517578,190.90899658203125 -145.4759979248047,191.12100219726562 C-143.83999633789062,191.28799438476562 -142.7740020751953,190.74899291992188 -141.81399536132812,189.61199951171875 C-140.7480010986328,189.08200073242188 -139.67999267578125,188.552001953125 -138.61399841308594,188.02099609375 C-131.9739990234375,184.71299743652344 -125.34400177001953,181.3820037841797 -118.68399810791016,178.11399841308594 C-117.27200317382812,177.42100524902344 -116.8489990234375,176.85400390625 -118.18699645996094,175.5970001220703 C-119.52100372314453,174.34300231933594 -120.6719970703125,172.89199829101562 -121.87300109863281,171.50100708007812 C-129.08200073242188,163.1529998779297 -136.32400512695312,154.83200073242188 -143.20199584960938,146.20399475097656 C-144.11700439453125,145.05599975585938 -145.1219940185547,143.67599487304688 -143.76300048828125,142.3979949951172 C-142.28500366210938,141.0070037841797 -140.95399475097656,142.1719970703125 -139.85499572753906,143.28599548339844 C-138.39599609375,144.76499938964844 -136.9510040283203,146.26300048828125 -135.57899475097656,147.822998046875 C-128.2429962158203,156.1649932861328 -120.93099975585938,164.5290069580078 -113.61199951171875,172.88699340820312 C-112.8759994506836,173.7270050048828 -112.33100128173828,174.52699279785156 -110.91300201416016,173.6280059814453 C-99.86100006103516,166.62399291992188 -88.84500122070312,159.5709991455078 -78.31800079345703,151.78399658203125 C-67.62999725341797,144.62100219726562 -57.45100021362305,136.75599670410156 -47.14500045776367,129.06900024414062 C-23.0939998626709,111.13200378417969 0.17499999701976776,92.23400115966797 22.2549991607666,71.90799713134766 C39.564998626708984,55.972999572753906 56.459999084472656,39.612998962402344 71.24400329589844,21.229000091552734 C76.00700378417969,15.305999755859375 75.87999725341797,15.258000373840332 72.22599792480469,8.654999732971191 C52.667999267578125,-26.68400001525879 32.2400016784668,-61.51599884033203 10.338000297546387,-95.44599914550781 C-10.626999855041504,-127.9260025024414 -32.5989990234375,-159.74099731445312 -54.32899856567383,-191.71099853515625 C-65.3740005493164,-207.9600067138672 -76.04000091552734,-224.45700073242188 -86.91899871826172,-240.81399536132812 C-93.14700317382812,-250.17599487304688 -100.7040023803711,-258.44500732421875 -108.50700378417969,-266.4809875488281 C-115.63899993896484,-273.82598876953125 -122.44000244140625,-281.4939880371094 -129.9429931640625,-288.47900390625 C-131.32000732421875,-289.7619934082031 -132.34500122070312,-291.2659912109375 -131.00999450683594,-293.0849914550781 C-129.68600463867188,-294.8890075683594 -127.8290023803711,-294.72900390625 -126.0479965209961,-293.81298828125 C-124.18699645996094,-292.8559875488281 -122.62300109863281,-291.4620056152344 -121.12300109863281,-290.0190124511719 C-101.48699951171875,-271.1310119628906 -83.21700286865234,-251.18800354003906 -68.50900268554688,-227.99899291992188 C-54.52000045776367,-205.94500732421875 -39.55799865722656,-184.4980010986328 -24.698999404907227,-163.00900268554688 C12.437000274658203,-109.30000305175781 46.97100067138672,-53.987998962402344 78.447998046875,3.2309999465942383 C79.06400299072266,4.35099983215332 79.23200225830078,5.328999996185303 78.86399841308594,6.5920000076293945 C77.94000244140625,9.755000114440918 78.2020034790039,12.930000305175781 79.3740005493164,15.991000175476074 C80.66300201416016,19.360000610351562 83.03099822998047,20.95599937438965 86.5739974975586,20.708999633789062 C87.77799987792969,20.625999450683594 88.2249984741211,21.04800033569336 88.73799896240234,21.99799919128418 C107.69599914550781,57.08399963378906 126.1449966430664,92.41799926757812 141.39999389648438,129.32699584960938 C144.5260009765625,136.89100646972656 146.531005859375,144.7779998779297 148.7989959716797,152.59800720214844 C148.96099853515625,153.15499877929688 149.21499633789062,153.79200744628906 148.4770050048828,154.00100708007812 C147.77000427246094,154.2030029296875 147.6649932861328,153.44900512695312 147.37399291992188,152.9969940185547 C137.88699340820312,138.2469940185547 131.0780029296875,122.125 123.46199798583984,106.41200256347656 C111.08399963378906,80.8759994506836 98.08799743652344,55.654998779296875 84.5510025024414,30.714000701904297 C84.21299743652344,30.091999053955078 83.76100158691406,29.533000946044922 83.36299896240234,28.944000244140625 C82.43399810791016,26.4950008392334 80.95899963378906,24.354000091552734 79.5479965209961,21.875 C74.75599670410156,28.229999542236328 69.63400268554688,34.016998291015625 64.47200012207031,39.77299880981445 C58.49700164794922,46.435001373291016 52.409000396728516,52.98699951171875 45.95399856567383,59.189998626708984 C45.388999938964844,59.733001708984375 44.91600036621094,60.37099838256836 44.400001525878906,60.96500015258789 C44.04600143432617,61.15599822998047 43.71799850463867,61.36600112915039 43.73699951171875,61.84000015258789 C43.73699951171875,61.84000015258789 43.847999572753906,61.88999938964844 43.847999572753906,61.88999938964844 C43.847999572753906,61.88999938964844 43.887001037597656,61.775001525878906 43.88600158691406,61.77399826049805 C43.44499969482422,61.72100067138672 43.23500061035156,61.888999938964844 43.33300018310547,62.35200119018555 C43.33300018310547,62.35200119018555 43.40800094604492,62.25899887084961 43.40700149536133,62.257999420166016 C42.96500015258789,62.19900131225586 42.7599983215332,62.36899948120117 42.85300064086914,62.82899856567383 C42.85300064086914,62.82899856567383 42.904998779296875,62.69499969482422 42.904998779296875,62.69499969482422 C42.904998779296875,62.69499969482422 42.770999908447266,62.63999938964844 42.77199935913086,62.64099884033203 C39.27399826049805,66.04900360107422 35.775001525878906,69.45600128173828 32.2760009765625,72.86199951171875 C32.2760009765625,72.86199951171875 32.32099914550781,72.80899810791016 32.32099914550781,72.80899810791016 C31.22800064086914,73.81199645996094 30.135000228881836,74.81400299072266 29.04199981689453,75.81700134277344z"/></g><g opacity="1" transform="matrix(1,0,0,1,293.9020080566406,474.3280029296875)"><path fill="rgb(204,203,196)" fill-opacity="1" d=" M36.957000732421875,21.584999084472656 C26.43000030517578,29.371999740600586 15.413000106811523,36.42499923706055 4.361000061035156,43.42900085449219 C2.943000078201294,44.327999114990234 2.3989999294281006,43.52799987792969 1.6629999876022339,42.6879997253418 C-5.656000137329102,34.33000183105469 -12.968999862670898,25.965999603271484 -20.30500030517578,17.624000549316406 C-21.677000045776367,16.06399917602539 -23.121000289916992,14.565999984741211 -24.579999923706055,13.086999893188477 C-25.679000854492188,11.972999572753906 -27.01099967956543,10.807999610900879 -28.48900032043457,12.199000358581543 C-29.847999572753906,13.47700023651123 -28.841999053955078,14.857000350952148 -27.927000045776367,16.0049991607666 C-21.048999786376953,24.632999420166016 -13.807000160217285,32.95399856567383 -6.5980000495910645,41.301998138427734 C-5.396999835968018,42.69300079345703 -4.247000217437744,44.14400100708008 -2.9130001068115234,45.39799880981445 C-1.5750000476837158,46.654998779296875 -1.9980000257492065,47.22200012207031 -3.4100000858306885,47.915000915527344 C-10.069999694824219,51.18299865722656 -16.700000762939453,54.513999938964844 -23.34000015258789,57.821998596191406 C-24.4060001373291,58.35300064086914 -25.472999572753906,58.882999420166016 -26.538999557495117,59.41299819946289 C-27.142000198364258,52.51300048828125 -27.75,45.612998962402344 -28.343000411987305,38.71099853515625 C-28.70400047302246,34.50400161743164 -29.02899932861328,30.29400062561035 -29.39299964904785,26.086000442504883 C-30.003999710083008,19.025999069213867 -30.65999984741211,11.968999862670898 -31.246999740600586,4.906000137329102 C-31.788999557495117,-1.6050000190734863 -32.224998474121094,-8.125 -32.779998779296875,-14.635000228881836 C-33.34199905395508,-21.2189998626709 -34.025001525878906,-27.792999267578125 -34.595001220703125,-34.37699890136719 C-35.14500045776367,-40.72700119018555 -35.68299865722656,-47.08000183105469 -36.08700180053711,-53.439998626708984 C-36.20800018310547,-55.34299850463867 -36.957000732421875,-57.20000076293945 -36.44200134277344,-59.41299819946289 C-33.698001861572266,-55.529998779296875 -31.06399917602539,-51.779998779296875 -28.405000686645508,-48.04800033569336 C-21.5049991607666,-38.36399841308594 -14.85099983215332,-28.499000549316406 -7.313000202178955,-19.28499984741211 C-5.89900016784668,-17.55699920654297 -4.48799991607666,-15.810999870300293 -2.9210000038146973,-14.22599983215332 C4.776000022888184,-6.442999839782715 12.232999801635742,1.5789999961853027 20.270999908447266,9.026000022888184 C24.965999603271484,13.37600040435791 30.18199920654297,17.05900001525879 35.16299819946289,21.04199981689453 C35.70600128173828,21.47599983215332 36.3120002746582,21.559999465942383 36.957000732421875,21.584999084472656z"/></g><g opacity="1" transform="matrix(1,0,0,1,504.6919860839844,628.2949829101562)"><path fill="rgb(204,203,196)" fill-opacity="1" d=" M-110.42500305175781,14.78600025177002 C-101.3270034790039,14.975000381469727 -93.21600341796875,11.904999732971191 -85.52899932861328,8.012999534606934 C-80.90699768066406,5.672999858856201 -76.98400115966797,5.784999847412109 -72.24700164794922,7.396999835968018 C-55.553001403808594,13.074999809265137 -39.65999984741211,20.389999389648438 -24.516000747680664,29.395999908447266 C-20.468000411987305,31.80299949645996 -16.336999893188477,34.071998596191406 -12.237000465393066,36.391998291015625 C-11.428000450134277,36.849998474121094 -10.628999710083008,37.382999420166016 -8.901000022888184,37.400001525878906 C-28.009000778198242,21.437000274658203 -48.5880012512207,9.435999870300293 -72.16200256347656,1.7230000495910645 C-19.441999435424805,-24.624000549316406 22.562999725341797,-63.14799880981445 59.22800064086914,-107.7490005493164 C59.25199890136719,-103.01699829101562 59.709999084472656,-97.8030014038086 60.11800003051758,-92.58399963378906 C60.67900085449219,-85.41699981689453 61.74599838256836,-78.31800079345703 62.707000732421875,-71.20899963378906 C64.1050033569336,-60.861000061035156 65.12300109863281,-50.42900085449219 67.46600341796875,-40.24700164794922 C74.85900115966797,-8.126999855041504 84.94999694824219,22.937000274658203 104.04299926757812,50.34400177001953 C105.64700317382812,52.64799880981445 107.35600280761719,54.85900115966797 109.38899993896484,56.79800033569336 C110.16699981689453,57.54100036621094 110.42500305175781,58.09299850463867 109.3740005493164,58.85100173950195 C107.50399780273438,60.20000076293945 105.7979965209961,61.823001861572266 104.16699981689453,63.38600158691406 C102.19999694824219,65.2699966430664 100.54399871826172,67.5790023803711 98.64800262451172,69.61000061035156 C88.91100311279297,80.03500366210938 78.58499908447266,89.80699920654297 66.84500122070312,97.9800033569336 C64.68800354003906,99.48100280761719 62.369998931884766,100.75199890136719 60.11899948120117,102.11699676513672 C59.2239990234375,102.65899658203125 58.30699920654297,103.0979995727539 57.189998626708984,102.90899658203125 C56.448001861572266,102.78299713134766 55.6609992980957,102.99600219726562 55.196998596191406,103.54399871826172 C52.702999114990234,106.49700164794922 48.9900016784668,106.46199798583984 45.720001220703125,107.50499725341797 C44.95100021362305,107.75 44.428001403808594,107.48500061035156 43.9630012512207,106.7300033569336 C37.88800048828125,96.86900329589844 29.166000366210938,89.55400085449219 20.184999465942383,82.60199737548828 C-7.051000118255615,61.516998291015625 -36.58399963378906,44.43899917602539 -68.78900146484375,32.073001861572266 C-81.66400146484375,27.128999710083008 -94.00199890136719,20.884000778198242 -106.94200134277344,16.086999893188477 C-108.10399627685547,15.656000137329102 -109.26499938964844,15.220000267028809 -110.42500305175781,14.78600025177002z"/></g><g opacity="1" transform="matrix(1,0,0,1,596.2789916992188,735.9010009765625)"><path fill="rgb(236,48,22)" fill-opacity="1" d=" M13.838000297546387,-34.06999969482422 C17.50200080871582,-27.405000686645508 21.591999053955078,-21.325000762939453 26.218000411987305,-15.611000061035156 C26.770999908447266,-14.928000450134277 26.76300048828125,-14.503000259399414 26.246999740600586,-13.77299976348877 C15.97599983215332,0.7319999933242798 8.20199966430664,16.64900016784668 0.17800000309944153,32.426998138427734 C-0.0989999994635582,32.972999572753906 -0.11800000071525574,33.70500183105469 -0.8999999761581421,34.06999969482422 C-7.6620001792907715,24.406999588012695 -15.531000137329102,15.574999809265137 -22.545000076293945,6.076000213623047 C-23.58799934387207,4.664000034332275 -24.749000549316406,3.3359999656677246 -25.892000198364258,2 C-26.42099952697754,1.38100004196167 -26.770000457763672,1.0169999599456787 -25.756999969482422,0.4009999930858612 C-10.670000076293945,-8.762999534606934 2.2100000381469727,-20.479999542236328 13.838000297546387,-34.06999969482422z"/></g><g opacity="1" transform="matrix(1,0,0,1,446.76300048828125,411.95098876953125)"><path fill="rgb(254,254,254)" fill-opacity="1" d=" M-5.310999870300293,5.039999961853027 C-1.812000036239624,1.6339999437332153 1.687999963760376,-1.7730000019073486 5.185999870300293,-5.181000232696533 C5.209000110626221,-5.026000022888184 5.309999942779541,-4.810999870300293 5.24399995803833,-4.7230000495910645 C2.4619998931884766,-1.0509999990463257 -0.8560000061988831,2.0969998836517334 -4.38700008392334,5.0269999504089355 C-4.571000099182129,5.181000232696533 -4.997000217437744,5.041999816894531 -5.310999870300293,5.039999961853027z"/></g><g opacity="1" transform="matrix(1,0,0,1,439.8580017089844,418.4519958496094)"><path fill="rgb(254,254,254)" fill-opacity="1" d=" M-1.6390000581741333,1.4930000305175781 C-0.5460000038146973,0.49000000953674316 0.5460000038146973,-0.5120000243186951 1.6390000581741333,-1.5149999856948853 C1.1690000295639038,0.1679999977350235 0.3919999897480011,1.5140000581741333 -1.6390000581741333,1.4930000305175781z"/></g><g opacity="1" transform="matrix(1,0,0,1,453.2349853515625,405.531005859375)"><path fill="rgb(254,254,254)" fill-opacity="1" d=" M-0.32199999690055847,0.43799999356269836 C-0.3409999907016754,-0.035999998450279236 -0.013000000268220901,-0.24699999392032623 0.3409999907016754,-0.43799999356269836 C0.22200000286102295,-0.0689999982714653 0.14900000393390656,0.335999995470047 -0.32199999690055847,0.43799999356269836z"/></g><g opacity="1" transform="matrix(1,0,0,1,452.73699951171875,406.1650085449219)"><path fill="rgb(254,254,254)" fill-opacity="1" d=" M-0.2280000001192093,0.3149999976158142 C-0.32600000500679016,-0.14800000190734863 -0.11599999666213989,-0.3149999976158142 0.32499998807907104,-0.2619999945163727 C0.1420000046491623,-0.0689999982714653 -0.0430000014603138,0.12300000339746475 -0.2280000001192093,0.3149999976158142z"/></g><g opacity="1" transform="matrix(1,0,0,1,452.260009765625,406.64300537109375)"><path fill="rgb(254,254,254)" fill-opacity="1" d=" M-0.23100000619888306,0.3149999976158142 C-0.3240000009536743,-0.14499999582767487 -0.11900000274181366,-0.3149999976158142 0.3230000138282776,-0.25600001215934753 C0.13899999856948853,-0.06499999761581421 -0.04600000008940697,0.125 -0.23100000619888306,0.3149999976158142z"/></g><g opacity="1" transform="matrix(1,0,0,1,134.6199951171875,365.406005859375)"><path fill="rgb(0,0,0)" fill-opacity="1" d=" M-123.14199829101562,-162.8820037841797 C-109.86799621582031,-139.84800720214844 -96.14700317382812,-117.0719985961914 -81.98200225830078,-94.57499694824219 C-67.81700134277344,-72.0790023803711 -53.209999084472656,-49.86000061035156 -38.17399978637695,-27.93600082397461 C-23.08099937438965,-5.928999900817871 -7.556000232696533,15.782999992370605 8.390999794006348,37.18000030517578 C24.350000381469727,58.595001220703125 40.722999572753906,79.7030029296875 57.5,100.48300170898438 C74.26399993896484,121.24600219726562 91.43599700927734,141.6790008544922 109.00499725341797,161.76600646972656 C111.13500213623047,164.2010040283203 113.27100372314453,166.6300048828125 115.41100311279297,169.05499267578125 C117.19999694824219,171.0800018310547 120.65699768066406,170.8800048828125 122.48300170898438,169.05499267578125 C124.49400329589844,167.04400634765625 124.2750015258789,164.01300048828125 122.48300170898438,161.98199462890625 C104.9540023803711,142.12899780273438 87.80899810791016,121.93800354003906 71.06800079345703,101.41699981689453 C54.32699966430664,80.89399719238281 38.14799880981445,60.25199890136719 22.29599952697754,39.172000885009766 C6.377999782562256,18.006000518798828 -9.12600040435791,-3.4709999561309814 -24.204999923706055,-25.243000030517578 C-39.28499984741211,-47.013999938964844 -53.93899917602539,-69.0790023803711 -68.15699768066406,-91.4219970703125 C-82.43000030517578,-113.85099792480469 -96.26200103759766,-136.55999755859375 -109.64299774169922,-159.531005859375 C-111.27100372314453,-162.3260040283203 -112.89199829101562,-165.1269989013672 -114.50700378417969,-167.9290008544922 C-115.85399627685547,-170.26699829101562 -119.02799987792969,-171.0800018310547 -121.3479995727539,-169.72300720214844 C-123.6969985961914,-168.3489990234375 -124.49500274658203,-165.22999572753906 -123.14199829101562,-162.8820037841797 C-123.14199829101562,-162.8820037841797 -123.14199829101562,-162.8820037841797 -123.14199829101562,-162.8820037841797z"/></g></g></g></svg>