<svg xmlns="http://www.w3.org/2000/svg" xmlns:xlink="http://www.w3.org/1999/xlink" viewBox="0 0 1900 1900" width="1900" height="1900" preserveAspectRatio="xMidYMid meet" style="width: 100%; height: 100%; transform: translate3d(0px, 0px, 0px); content-visibility: visible;"><defs><clipPath id="__lottie_element_782"><rect width="1900" height="1900" x="0" y="0"/></clipPath></defs><g clip-path="url(#__lottie_element_782)"><g transform="matrix(0,0,0,4.307690143585205,500,1284.23046875)" opacity="1" style="display: block;"><g opacity="1" transform="matrix(1,0,0,1,-367,-173)"><path fill="rgb(215,3,9)" fill-opacity="1" d=" M67,-13 C67,-13 67,13 67,13 C67,13 -67,13 -67,13 C-67,13 -67,-13 -67,-13 C-67,-13 67,-13 67,-13z"/></g></g><g transform="matrix(0,0,0,1,500,950)" opacity="1" style="display: block;"><g opacity="1" transform="matrix(1,0,0,1,-367,-173)"><path fill="rgb(215,3,9)" fill-opacity="1" d=" M67,-13 C67,-13 67,13 67,13 C67,13 -67,13 -67,13 C-67,13 -67,-13 -67,-13 C-67,-13 67,-13 67,-13z"/></g></g><g transform="matrix(0,0,0,2.8461499214172363,500,1382.3839111328125)" opacity="1" style="display: block;"><g opacity="1" transform="matrix(1,0,0,1,-367,-173)"><path fill="rgb(215,3,9)" fill-opacity="1" d=" M67,-13 C67,-13 67,13 67,13 C67,13 -67,13 -67,13 C-67,13 -67,-13 -67,-13 C-67,-13 67,-13 67,-13z"/></g></g><g transform="matrix(0,0,0,1,500,1382)" opacity="1" style="display: block;"><g opacity="1" transform="matrix(1,0,0,1,-367,-173)"><path fill="rgb(215,3,9)" fill-opacity="1" d=" M67,-13 C67,-13 67,13 67,13 C67,13 -67,13 -67,13 C-67,13 -67,-13 -67,-13 C-67,-13 67,-13 67,-13z"/></g></g><g transform="matrix(0,0,0,0.46153998374938965,541,1325.846435546875)" opacity="1" style="display: block;"><g opacity="1" transform="matrix(1,0,0,1,-367,-173)"><path fill="rgb(215,3,9)" fill-opacity="1" d=" M67,-13 C67,-13 67,13 67,13 C67,13 -67,13 -67,13 C-67,13 -67,-13 -67,-13 C-67,-13 67,-13 67,-13z"/></g></g><g transform="matrix(0,0,0,1.5384598970413208,500,1807.153564453125)" opacity="1" style="display: block;"><g opacity="1" transform="matrix(1,0,0,1,-367,-173)"><path fill="rgb(215,3,9)" fill-opacity="1" d=" M67,-13 C67,-13 67,13 67,13 C67,13 -67,13 -67,13 C-67,13 -67,-13 -67,-13 C-67,-13 67,-13 67,-13z"/></g></g><g transform="matrix(0,0,0,1,500,1835)" opacity="1" style="display: block;"><g opacity="1" transform="matrix(1,0,0,1,-367,-173)"><path fill="rgb(215,3,9)" fill-opacity="1" d=" M67,-13 C67,-13 67,13 67,13 C67,13 -67,13 -67,13 C-67,13 -67,-13 -67,-13 C-67,-13 67,-13 67,-13z"/></g></g><g transform="matrix(0,0,0,0.46153998374938965,545,1797.846435546875)" opacity="1" style="display: block;"><g opacity="1" transform="matrix(1,0,0,1,-367,-173)"><path fill="rgb(215,3,9)" fill-opacity="1" d=" M67,-13 C67,-13 67,13 67,13 C67,13 -67,13 -67,13 C-67,13 -67,-13 -67,-13 C-67,-13 67,-13 67,-13z"/></g></g></g></svg>