<svg xmlns="http://www.w3.org/2000/svg" xmlns:xlink="http://www.w3.org/1999/xlink" viewBox="0 0 1900 1900" width="1900" height="1900" preserveAspectRatio="xMidYMid meet" style="width: 100%; height: 100%; transform: translate3d(0px, 0px, 0px); content-visibility: visible;"><defs><clipPath id="__lottie_element_233"><rect width="1900" height="1900" x="0" y="0"/></clipPath></defs><g clip-path="url(#__lottie_element_233)"><g transform="matrix(0.7300000190734863,0,0,0.7300000190734863,357.43994140625,887.47998046875)" opacity="1" style="display: block;"><g opacity="1" transform="matrix(1,0,0,1,111.03299713134766,125.01599884033203)"><path fill="rgb(211,211,211)" fill-opacity="1" d=" M96.13200378417969,112.15399932861328 C96.13200378417969,112.15399932861328 -96.13200378417969,112.15399932861328 -96.13200378417969,112.15399932861328 C-96.13200378417969,112.15399932861328 -96.13200378417969,-112.15399932861328 -96.13200378417969,-112.15399932861328 C-96.13200378417969,-112.15399932861328 29.365999221801758,-112.15399932861328 29.365999221801758,-112.15399932861328 C29.365999221801758,-112.15399932861328 96.13200378417969,-52.856998443603516 96.13200378417969,-52.856998443603516 C96.13200378417969,-52.856998443603516 96.13200378417969,112.15399932861328 96.13200378417969,112.15399932861328z"/></g><g opacity="1" transform="matrix(1,0,0,1,111.03299713134766,125.01599884033203)"><path stroke-linecap="round" stroke-linejoin="round" fill-opacity="0" stroke="rgb(0,0,0)" stroke-opacity="1" stroke-width="4" d=" M-77.79399871826172,80.02300262451172 C-77.79399871826172,80.02300262451172 80.60600280761719,80.02300262451172 80.60600280761719,80.02300262451172 M-77.79399871826172,65.58699798583984 C-77.79399871826172,65.58699798583984 80.60600280761719,65.58699798583984 80.60600280761719,65.58699798583984 M-77.79399871826172,51.152000427246094 C-77.79399871826172,51.152000427246094 80.60600280761719,51.152000427246094 80.60600280761719,51.152000427246094 M-77.79399871826172,36.715999603271484 C-77.79399871826172,36.715999603271484 80.60600280761719,36.715999603271484 80.60600280761719,36.715999603271484 M-77.79399871826172,22.2810001373291 C-77.79399871826172,22.2810001373291 80.60600280761719,22.2810001373291 80.60600280761719,22.2810001373291 M-77.79399871826172,7.84499979019165 C-77.79399871826172,7.84499979019165 80.60600280761719,7.84499979019165 80.60600280761719,7.84499979019165 M-77.79399871826172,-6.590000152587891 C-77.79399871826172,-6.590000152587891 80.60600280761719,-6.590000152587891 80.60600280761719,-6.590000152587891 M-77.79399871826172,-60.82099914550781 C-77.79399871826172,-60.82099914550781 4.5269999504089355,-60.82099914550781 4.5269999504089355,-60.82099914550781 M29.365999221801758,-112.15399932861328 C29.365999221801758,-112.15399932861328 29.365999221801758,-52.62799835205078 29.365999221801758,-52.62799835205078 C29.365999221801758,-52.62799835205078 96.13200378417969,-52.62799835205078 96.13200378417969,-52.62799835205078 M96.13200378417969,112.15399932861328 C96.13200378417969,112.15399932861328 -96.13200378417969,112.15399932861328 -96.13200378417969,112.15399932861328 C-96.13200378417969,112.15399932861328 -96.13200378417969,-112.15399932861328 -96.13200378417969,-112.15399932861328 C-96.13200378417969,-112.15399932861328 29.365999221801758,-112.15399932861328 29.365999221801758,-112.15399932861328 C29.365999221801758,-112.15399932861328 96.13200378417969,-52.856998443603516 96.13200378417969,-52.856998443603516 C96.13200378417969,-52.856998443603516 96.13200378417969,112.15399932861328 96.13200378417969,112.15399932861328z"/></g></g><g style="display: none;"><g><path/></g><g><path stroke-linecap="round" stroke-linejoin="round" fill-opacity="0"/></g></g><g transform="matrix(1,0,0,1,1002,438)" opacity="1" style="display: block;"><g opacity="1" transform="matrix(1,0,0,1,111.03299713134766,125.01599884033203)"><path fill="rgb(242,241,242)" fill-opacity="1" d=" M96.13200378417969,112.15399932861328 C96.13200378417969,112.15399932861328 -96.13200378417969,112.15399932861328 -96.13200378417969,112.15399932861328 C-96.13200378417969,112.15399932861328 -96.13200378417969,-112.15399932861328 -96.13200378417969,-112.15399932861328 C-96.13200378417969,-112.15399932861328 29.365999221801758,-112.15399932861328 29.365999221801758,-112.15399932861328 C29.365999221801758,-112.15399932861328 96.13200378417969,-52.856998443603516 96.13200378417969,-52.856998443603516 C96.13200378417969,-52.856998443603516 96.13200378417969,112.15399932861328 96.13200378417969,112.15399932861328z"/></g><g opacity="1" transform="matrix(1,0,0,1,111.03299713134766,125.01599884033203)"><path stroke-linecap="round" stroke-linejoin="round" fill-opacity="0" stroke="rgb(0,0,0)" stroke-opacity="1" stroke-width="4" d=" M-77.79399871826172,80.02300262451172 C-77.79399871826172,80.02300262451172 80.60600280761719,80.02300262451172 80.60600280761719,80.02300262451172 M-77.79399871826172,65.58699798583984 C-77.79399871826172,65.58699798583984 80.60600280761719,65.58699798583984 80.60600280761719,65.58699798583984 M-77.79399871826172,51.152000427246094 C-77.79399871826172,51.152000427246094 80.60600280761719,51.152000427246094 80.60600280761719,51.152000427246094 M-77.79399871826172,36.715999603271484 C-77.79399871826172,36.715999603271484 80.60600280761719,36.715999603271484 80.60600280761719,36.715999603271484 M-77.79399871826172,22.2810001373291 C-77.79399871826172,22.2810001373291 80.60600280761719,22.2810001373291 80.60600280761719,22.2810001373291 M-77.79399871826172,7.84499979019165 C-77.79399871826172,7.84499979019165 80.60600280761719,7.84499979019165 80.60600280761719,7.84499979019165 M-77.79399871826172,-6.590000152587891 C-77.79399871826172,-6.590000152587891 80.60600280761719,-6.590000152587891 80.60600280761719,-6.590000152587891 M-77.79399871826172,-60.82099914550781 C-77.79399871826172,-60.82099914550781 4.5269999504089355,-60.82099914550781 4.5269999504089355,-60.82099914550781 M29.365999221801758,-112.15399932861328 C29.365999221801758,-112.15399932861328 29.365999221801758,-52.62799835205078 29.365999221801758,-52.62799835205078 C29.365999221801758,-52.62799835205078 96.13200378417969,-52.62799835205078 96.13200378417969,-52.62799835205078 M96.13200378417969,112.15399932861328 C96.13200378417969,112.15399932861328 -96.13200378417969,112.15399932861328 -96.13200378417969,112.15399932861328 C-96.13200378417969,112.15399932861328 -96.13200378417969,-112.15399932861328 -96.13200378417969,-112.15399932861328 C-96.13200378417969,-112.15399932861328 29.365999221801758,-112.15399932861328 29.365999221801758,-112.15399932861328 C29.365999221801758,-112.15399932861328 96.13200378417969,-52.856998443603516 96.13200378417969,-52.856998443603516 C96.13200378417969,-52.856998443603516 96.13200378417969,112.15399932861328 96.13200378417969,112.15399932861328z"/></g></g><g style="display: none;"><g><path/></g><g><path stroke-linecap="round" stroke-linejoin="round" fill-opacity="0"/></g></g><g transform="matrix(0.699999988079071,0,0,0.699999988079071,699.5999755859375,915.2000122070312)" opacity="1" style="display: block;"><g opacity="1" transform="matrix(1,0,0,1,111.03299713134766,125.01599884033203)"><path fill="rgb(242,241,242)" fill-opacity="1" d=" M96.13200378417969,112.15399932861328 C96.13200378417969,112.15399932861328 -96.13200378417969,112.15399932861328 -96.13200378417969,112.15399932861328 C-96.13200378417969,112.15399932861328 -96.13200378417969,-112.15399932861328 -96.13200378417969,-112.15399932861328 C-96.13200378417969,-112.15399932861328 29.365999221801758,-112.15399932861328 29.365999221801758,-112.15399932861328 C29.365999221801758,-112.15399932861328 96.13200378417969,-52.856998443603516 96.13200378417969,-52.856998443603516 C96.13200378417969,-52.856998443603516 96.13200378417969,112.15399932861328 96.13200378417969,112.15399932861328z"/></g><g opacity="1" transform="matrix(1,0,0,1,111.03299713134766,125.01599884033203)"><path stroke-linecap="round" stroke-linejoin="round" fill-opacity="0" stroke="rgb(0,0,0)" stroke-opacity="1" stroke-width="4" d=" M-77.79399871826172,80.02300262451172 C-77.79399871826172,80.02300262451172 80.60600280761719,80.02300262451172 80.60600280761719,80.02300262451172 M-77.79399871826172,65.58699798583984 C-77.79399871826172,65.58699798583984 80.60600280761719,65.58699798583984 80.60600280761719,65.58699798583984 M-77.79399871826172,51.152000427246094 C-77.79399871826172,51.152000427246094 80.60600280761719,51.152000427246094 80.60600280761719,51.152000427246094 M-77.79399871826172,36.715999603271484 C-77.79399871826172,36.715999603271484 80.60600280761719,36.715999603271484 80.60600280761719,36.715999603271484 M-77.79399871826172,22.2810001373291 C-77.79399871826172,22.2810001373291 80.60600280761719,22.2810001373291 80.60600280761719,22.2810001373291 M-77.79399871826172,7.84499979019165 C-77.79399871826172,7.84499979019165 80.60600280761719,7.84499979019165 80.60600280761719,7.84499979019165 M-77.79399871826172,-6.590000152587891 C-77.79399871826172,-6.590000152587891 80.60600280761719,-6.590000152587891 80.60600280761719,-6.590000152587891 M-77.79399871826172,-60.82099914550781 C-77.79399871826172,-60.82099914550781 4.5269999504089355,-60.82099914550781 4.5269999504089355,-60.82099914550781 M29.365999221801758,-112.15399932861328 C29.365999221801758,-112.15399932861328 29.365999221801758,-52.62799835205078 29.365999221801758,-52.62799835205078 C29.365999221801758,-52.62799835205078 96.13200378417969,-52.62799835205078 96.13200378417969,-52.62799835205078 M96.13200378417969,112.15399932861328 C96.13200378417969,112.15399932861328 -96.13200378417969,112.15399932861328 -96.13200378417969,112.15399932861328 C-96.13200378417969,112.15399932861328 -96.13200378417969,-112.15399932861328 -96.13200378417969,-112.15399932861328 C-96.13200378417969,-112.15399932861328 29.365999221801758,-112.15399932861328 29.365999221801758,-112.15399932861328 C29.365999221801758,-112.15399932861328 96.13200378417969,-52.856998443603516 96.13200378417969,-52.856998443603516 C96.13200378417969,-52.856998443603516 96.13200378417969,112.15399932861328 96.13200378417969,112.15399932861328z"/></g></g><g style="display: none;"><g><path/></g><g><path stroke-linecap="round" stroke-linejoin="round" fill-opacity="0"/></g></g><g style="display: none;"><g><path/></g><g><path stroke-linecap="round" stroke-linejoin="round" fill-opacity="0"/></g></g><g transform="matrix(0.3100000023841858,0,0,0.3100000023841858,588.6134033203125,1566.2266845703125)" opacity="1" style="display: block;"><g opacity="1" transform="matrix(1,0,0,1,111.03299713134766,125.01599884033203)"><path fill="rgb(138,138,138)" fill-opacity="1" d=" M96.13200378417969,112.15399932861328 C96.13200378417969,112.15399932861328 -96.13200378417969,112.15399932861328 -96.13200378417969,112.15399932861328 C-96.13200378417969,112.15399932861328 -96.13200378417969,-112.15399932861328 -96.13200378417969,-112.15399932861328 C-96.13200378417969,-112.15399932861328 29.365999221801758,-112.15399932861328 29.365999221801758,-112.15399932861328 C29.365999221801758,-112.15399932861328 96.13200378417969,-52.856998443603516 96.13200378417969,-52.856998443603516 C96.13200378417969,-52.856998443603516 96.13200378417969,112.15399932861328 96.13200378417969,112.15399932861328z"/></g><g opacity="1" transform="matrix(1,0,0,1,111.03299713134766,125.01599884033203)"><path stroke-linecap="round" stroke-linejoin="round" fill-opacity="0" stroke="rgb(0,0,0)" stroke-opacity="1" stroke-width="4" d=" M-77.79399871826172,80.02300262451172 C-77.79399871826172,80.02300262451172 80.60600280761719,80.02300262451172 80.60600280761719,80.02300262451172 M-77.79399871826172,65.58699798583984 C-77.79399871826172,65.58699798583984 80.60600280761719,65.58699798583984 80.60600280761719,65.58699798583984 M-77.79399871826172,51.152000427246094 C-77.79399871826172,51.152000427246094 80.60600280761719,51.152000427246094 80.60600280761719,51.152000427246094 M-77.79399871826172,36.715999603271484 C-77.79399871826172,36.715999603271484 80.60600280761719,36.715999603271484 80.60600280761719,36.715999603271484 M-77.79399871826172,22.2810001373291 C-77.79399871826172,22.2810001373291 80.60600280761719,22.2810001373291 80.60600280761719,22.2810001373291 M-77.79399871826172,7.84499979019165 C-77.79399871826172,7.84499979019165 80.60600280761719,7.84499979019165 80.60600280761719,7.84499979019165 M-77.79399871826172,-6.590000152587891 C-77.79399871826172,-6.590000152587891 80.60600280761719,-6.590000152587891 80.60600280761719,-6.590000152587891 M-77.79399871826172,-60.82099914550781 C-77.79399871826172,-60.82099914550781 4.5269999504089355,-60.82099914550781 4.5269999504089355,-60.82099914550781 M29.365999221801758,-112.15399932861328 C29.365999221801758,-112.15399932861328 29.365999221801758,-52.62799835205078 29.365999221801758,-52.62799835205078 C29.365999221801758,-52.62799835205078 96.13200378417969,-52.62799835205078 96.13200378417969,-52.62799835205078 M96.13200378417969,112.15399932861328 C96.13200378417969,112.15399932861328 -96.13200378417969,112.15399932861328 -96.13200378417969,112.15399932861328 C-96.13200378417969,112.15399932861328 -96.13200378417969,-112.15399932861328 -96.13200378417969,-112.15399932861328 C-96.13200378417969,-112.15399932861328 29.365999221801758,-112.15399932861328 29.365999221801758,-112.15399932861328 C29.365999221801758,-112.15399932861328 96.13200378417969,-52.856998443603516 96.13200378417969,-52.856998443603516 C96.13200378417969,-52.856998443603516 96.13200378417969,112.15399932861328 96.13200378417969,112.15399932861328z"/></g></g><g style="display: none;"><g><path/></g><g><path stroke-linecap="round" stroke-linejoin="round" fill-opacity="0"/></g></g></g></svg>