<svg xmlns="http://www.w3.org/2000/svg" xmlns:xlink="http://www.w3.org/1999/xlink" viewBox="0 0 1900 3800" width="1900" height="3800" preserveAspectRatio="xMidYMid meet" style="width: 100%; height: 100%; transform: translate3d(0px, 0px, 0px); content-visibility: visible;"><defs><clipPath id="__lottie_element_472"><rect width="1900" height="3800" x="0" y="0"/></clipPath></defs><g clip-path="url(#__lottie_element_472)"><g transform="matrix(0.8596294522285461,0.5109180212020874,-0.5109180212020874,0.8596294522285461,1099.0697021484375,-109.28914642333984)" opacity="1" style="display: block;"><g opacity="1" transform="matrix(1,0,0,1,147.75599670410156,281.83599853515625)"><path fill="rgb(0,0,0)" fill-opacity="1" d=" M-47.84199905395508,175.85899353027344 C-71.36399841308594,135.08599853515625 -83.7229995727539,93.88200378417969 -83.90599822998047,49.430999755859375 C-83.99299621582031,28.173999786376953 -79.09600067138672,7.645999908447266 -72.05899810791016,-12.347000122070312 C-64.71399688720703,-33.21500015258789 -58.555999755859375,-54.38399887084961 -57.74800109863281,-76.64199829101562 C-57.209999084472656,-91.47799682617188 -57.80500030517578,-106.35299682617188 -57.4640007019043,-121.20099639892578 C-57.034000396728516,-139.93299865722656 -54.888999938964844,-158.4459991455078 -45.75299835205078,-175.25599670410156 C-35.715999603271484,-193.7220001220703 -21.233999252319336,-206.46400451660156 0.5170000195503235,-209.0290069580078 C24.006999969482422,-211.7989959716797 44.26100158691406,-201.0970001220703 55.62099838256836,-179.69400024414062 C65.74199676513672,-160.6280059814453 68.70099639892578,-139.91000366210938 66.95500183105469,-118.83699798583984 C65.43499755859375,-100.49800109863281 62.11199951171875,-82.28399658203125 59.066001892089844,-64.10099792480469 C54.57699966430664,-37.308998107910156 58.04800033569336,-11.48799991607666 66.9530029296875,13.937999725341797 C71.47799682617188,26.85700035095215 76.07599639892578,39.84299850463867 79.20999908447266,53.13600158691406 C83.99400329589844,73.43000030517578 81.5510025024414,93.77799987792969 76.4280014038086,113.73899841308594 C73.5510025024414,124.947998046875 70.7770004272461,136.3520050048828 66.24400329589844,146.9340057373047 C56.935001373291016,168.66799926757812 44.47800064086914,188.25999450683594 22.652999877929688,199.89300537109375 C0.31700000166893005,211.7989959716797 -23.424999237060547,207.11300659179688 -39.37699890136719,187.5030059814453 C-42.97600173950195,183.07899475097656 -46.10200119018555,178.2689971923828 -47.84199905395508,175.85899353027344z M-38.685001373291016,166.16799926757812 C-36.70399856567383,169.3560028076172 -34.91999816894531,172.69000244140625 -32.709999084472656,175.71099853515625 C-17.110000610351562,197.0290069580078 2.9590001106262207,200.53199768066406 24.01099967956543,184.7969970703125 C42.95000076293945,170.64100646972656 56.03499984741211,151.8300018310547 63.0099983215332,129.24400329589844 C70.08100128173828,106.34600067138672 75.43800354003906,82.89900207519531 70.75199890136719,58.85599899291992 C68.14800262451172,45.49700164794922 63.51300048828125,32.46799850463867 59.02399826049805,19.558000564575195 C51.05699920654297,-3.3559999465942383 45.569000244140625,-26.639999389648438 48.35200119018555,-51.01300048828125 C50.25600051879883,-67.69100189208984 53.231998443603516,-84.25499725341797 56.00600051879883,-100.822998046875 C59.84400177001953,-123.75 59.71099853515625,-146.39199829101562 51.303001403808594,-168.38299560546875 C39.80500030517578,-198.45199584960938 7.513999938964844,-209.75599670410156 -17.121000289916992,-192.1490020751953 C-29.058000564575195,-183.61700439453125 -36.40399932861328,-171.47900390625 -40.619998931884766,-157.49899291992188 C-46.02000045776367,-139.59100341796875 -46.85900115966797,-121.08000183105469 -46.0890007019043,-102.66100311279297 C-44.78900146484375,-71.51799774169922 -49.61199951171875,-41.542999267578125 -59.95800018310547,-12.253999710083008 C-70.60800170898438,17.895999908447266 -75.4209976196289,48.65299987792969 -69.83100128173828,80.66000366210938 C-64.51799774169922,111.0770034790039 -54.58100128173828,139.69700622558594 -38.685001373291016,166.16799926757812z"/></g><g opacity="1" transform="matrix(1,0,0,1,147.76400756835938,277.2239990234375)"><path fill="rgb(195,195,195)" fill-opacity="1" d=" M-38.69300079345703,170.77999877929688 C-54.5890007019043,144.3090057373047 -64.5260009765625,115.68900299072266 -69.83899688720703,85.27200317382812 C-75.42900085449219,53.26499938964844 -70.61599731445312,22.507999420166016 -59.965999603271484,-7.642000198364258 C-49.619998931884766,-36.930999755859375 -44.797000885009766,-66.90599822998047 -46.09700012207031,-98.04900360107422 C-46.867000579833984,-116.46800231933594 -46.02799987792969,-134.97900390625 -40.62799835205078,-152.88699340820312 C-36.4119987487793,-166.86700439453125 -29.06599998474121,-179.0050048828125 -17.128999710083008,-187.53700256347656 C7.50600004196167,-205.1439971923828 39.797000885009766,-193.83999633789062 51.29499816894531,-163.77099609375 C59.702999114990234,-141.77999877929688 59.83599853515625,-119.13800048828125 55.99800109863281,-96.21099853515625 C53.2239990234375,-79.64299774169922 50.24800109863281,-63.07899856567383 48.34400177001953,-46.4010009765625 C45.56100082397461,-22.027999877929688 51.04899978637695,1.25600004196167 59.01599884033203,24.170000076293945 C63.505001068115234,37.08000183105469 68.13999938964844,50.10900115966797 70.74400329589844,63.46799850463867 C75.43000030517578,87.51100158691406 70.072998046875,110.95800018310547 63.00199890136719,133.8560028076172 C56.027000427246094,156.44200134277344 42.94200134277344,175.2530059814453 24.003000259399414,189.40899658203125 C2.9509999752044678,205.1439971923828 -17.118000030517578,201.64100646972656 -32.71799850463867,180.322998046875 C-34.928001403808594,177.302001953125 -36.71200180053711,173.96800231933594 -38.69300079345703,170.77999877929688z"/></g><g opacity="1" transform="matrix(1,0,0,1,154.23500061035156,141.5240020751953)"><path fill="rgb(0,0,0)" fill-opacity="1" d=" M13.831999778747559,-10.73900032043457 C14.07699966430664,-14.45300006866455 13.996000289916992,-18.27199935913086 14.262999534606934,-22.316999435424805 C14.557000160217285,-26.775999069213867 19.658000946044922,-28.67799949645996 22.134000778198242,-28.514999389648438 C24.033000946044922,-28.388999938964844 27.434999465942383,-27.16900062561035 27.270999908447266,-24.691999435424805 C27.091999053955078,-21.9689998626709 26.951000213623047,-21.06599998474121 26.889999389648438,-20.159000396728516 C26.018999099731445,-6.948999881744385 24.40399932861328,6.210000038146973 22.895000457763672,20.288999557495117 C22.26099967956543,26.134000778198242 19.39900016784668,26.773000717163086 15.54800033569336,27.349000930786133 C9.35099983215332,28.266000747680664 -1.6649999618530273,29.36400032043457 -9.59000015258789,28.841999053955078 C-18.423999786376953,28.259000778198242 -27.43600082397461,25.343000411987305 -26.902000427246094,17.25200080871582 C-26.351999282836914,8.914999961853027 -13.729000091552734,-1.4459999799728394 -0.28999999165534973,-1.5540000200271606 C-4.165999889373779,-4.38100004196167 -8.307000160217285,-8.218999862670898 -12.473999977111816,-11.645000457763672 C-21.27899932861328,-18.941999435424805 -25.667999267578125,-21.552000045776367 -25.45599937438965,-24.77199935913086 C-25.249000549316406,-27.909000396728516 -22.16699981689453,-29.36400032043457 -19.11199951171875,-29.163000106811523 C-18.53499984741211,-29.125 -17.875,-29.082000732421875 -17.308000564575195,-28.878000259399414 C-11.940999984741211,-27.280000686645508 -9.791999816894531,-24.650999069213867 -3.1730000972747803,-18.160999298095703 C-0.6010000109672546,-15.670000076293945 8.725000381469727,-8.753999710083008 13.538000106811523,-5.0370001792907715 C13.628999710083008,-7.684000015258789 13.734000205993652,-9.251999855041504 13.831999778747559,-10.73900032043457z M12.956999778747559,6.283999919891357 C11.729000091552734,6.038000106811523 11.317000389099121,6.010000228881836 9.829999923706055,5.9120001792907715 C3.7219998836517334,5.507999897003174 -12.967000007629395,9.630999565124512 -13.354000091552734,15.493000030517578 C-13.50100040435791,17.722000122070312 -10.236000061035156,18.51799964904785 -5.942999839782715,18.801000595092773 C0.578000009059906,19.231000900268555 7.373000144958496,18.020999908447266 11.812999725341797,16.076000213623047 C12.39900016784668,10.972999572753906 12.513999938964844,11.72700023651123 12.956999778747559,6.283999919891357z"/></g></g><g style="display: none;"><g><path/></g><g><path/></g><g><path/></g></g><g style="display: none;"><g><path/></g><g><path/></g><g><path/></g></g><g style="display: none;"><g><path/></g><g><path/></g><g><path/></g></g><g style="display: none;"><g><path/></g><g><path/></g><g><path/></g></g><g transform="matrix(0.916537344455719,0.39994916319847107,-0.39994916319847107,0.916537344455719,1093.4888916015625,-145.00416564941406)" opacity="1" style="display: block;"><g opacity="1" transform="matrix(1,0,0,1,374.0199890136719,272.2909851074219)"><path fill="rgb(0,0,0)" fill-opacity="1" d=" M55.41699981689453,-172.2270050048828 C64.16699981689453,-149.44900512695312 66.50199890136719,-128.2259979248047 66.2979965209961,-106.71800231933594 C66.03199768066406,-78.64199829101562 64.9800033569336,-50.6349983215332 70.86799621582031,-22.81599998474121 C74.23699951171875,-6.89300012588501 76.75800323486328,9.368000030517578 77.79299926757812,25.594999313354492 C80.41300201416016,66.70899963378906 72.16699981689453,106.16000366210938 57.007999420166016,144.2760009765625 C51.13999938964844,159.03199768066406 44.64500045776367,173.5290069580078 34.777000427246094,186.09800720214844 C30.07200050354004,192.09100341796875 24.839000701904297,197.8800048828125 18.98699951171875,202.7239990234375 C-0.968999981880188,219.2429962158203 -24.959999084472656,218.36199951171875 -44.064998626708984,200.8179931640625 C-60.832000732421875,185.4199981689453 -67.76499938964844,165.27200317382812 -71.18800354003906,143.54100036621094 C-73.11599731445312,131.302001953125 -74.8479995727539,119.03099822998047 -76.58999633789062,106.76399993896484 C-80.41300201416016,79.84100341796875 -75.30999755859375,54.24800109863281 -65.94200134277344,29.016000747680664 C-60.676998138427734,14.835000038146973 -56.24100112915039,0.2150000035762787 -52.99700164794922,-14.550999641418457 C-49.393001556396484,-30.952999114990234 -51.54999923706055,-47.737998962402344 -53.06700134277344,-64.322998046875 C-55.733001708984375,-93.46800231933594 -57.89899826049805,-122.5770034790039 -53.1879997253418,-151.74600219726562 C-50.861000061035156,-166.1510009765625 -47.03099822998047,-179.7830047607422 -37.10300064086914,-191.05799865722656 C-12.28600025177002,-219.2429962158203 28.447999954223633,-216.23199462890625 48.76300048828125,-184.54299926757812 C51.74599838256836,-179.88999938964844 54.042999267578125,-174.7969970703125 55.41699981689453,-172.2270050048828z M44.52299880981445,-166.28500366210938 C43.303001403808594,-169.31199645996094 42.28499984741211,-172.4409942626953 40.83000183105469,-175.3509979248047 C29.24799919128418,-198.5229949951172 0.48500001430511475,-206.59100341796875 -20.357999801635742,-192.45599365234375 C-33.09600067138672,-183.8179931640625 -39.91600036621094,-171.3979949951172 -42.88199996948242,-156.52000427246094 C-48.150001525878906,-130.10400390625 -46.98899841308594,-103.64800262451172 -44.44499969482422,-77.04000091552734 C-42.724998474121094,-59.04600143432617 -41.5629997253418,-40.90800094604492 -41.736000061035156,-22.850000381469727 C-41.92499923706055,-3.187000036239624 -48.948001861572266,15.201000213623047 -55.77799987792969,33.41999816894531 C-63.82699966430664,54.888999938964844 -69.53600311279297,76.89399719238281 -66.90699768066406,99.93800354003906 C-64.74600219726562,118.87300109863281 -62.06800079345703,137.9010009765625 -57.49800109863281,156.36300659179688 C-53.72200012207031,171.6179962158203 -45.893001556396484,185.51100158691406 -32.768001556396484,195.41299438476562 C-19.281999588012695,205.58799743652344 -4.892000198364258,205.822998046875 8.947999954223633,196.1529998779297 C21.625999450683594,187.29400634765625 30.2450008392334,175.07899475097656 36.8650016784668,161.41700744628906 C46.861000061035156,140.78500366210938 54.5359992980957,119.31800079345703 59.571998596191406,96.89399719238281 C67.3219985961914,62.38399887084961 69.7239990234375,27.64900016784668 62.09299850463867,-7.050000190734863 C55.34000015258789,-37.75699996948242 52.983001708984375,-68.57499694824219 54.28900146484375,-99.93199920654297 C55.22999954223633,-122.53600311279297 53.15999984741211,-144.98599243164062 44.52299880981445,-166.28500366210938z"/></g><g opacity="1" transform="matrix(1,0,0,1,374.114013671875,271.9070129394531)"><path fill="rgb(255,254,255)" fill-opacity="1" d=" M44.42900085449219,-165.9010009765625 C53.066001892089844,-144.6020050048828 55.13600158691406,-122.1520004272461 54.19499969482422,-99.5479965209961 C52.888999938964844,-68.19100189208984 55.24599838256836,-37.37300109863281 61.999000549316406,-6.665999889373779 C69.62999725341797,28.033000946044922 67.22799682617188,62.768001556396484 59.47800064086914,97.27799987792969 C54.44200134277344,119.7020034790039 46.766998291015625,141.16900634765625 36.770999908447266,161.80099487304688 C30.150999069213867,175.46299743652344 21.531999588012695,187.67799377441406 8.854000091552734,196.53700256347656 C-4.986000061035156,206.20700073242188 -19.375999450683594,205.9720001220703 -32.86199951171875,195.7969970703125 C-45.98699951171875,185.89500427246094 -53.816001892089844,172.0019989013672 -57.59199905395508,156.7469940185547 C-62.1619987487793,138.28500366210938 -64.83999633789062,119.25700378417969 -67.0009994506836,100.3219985961914 C-69.62999725341797,77.27799987792969 -63.92100143432617,55.27299880981445 -55.87200164794922,33.80400085449219 C-49.04199981689453,15.585000038146973 -42.01900100708008,-2.802999973297119 -41.83000183105469,-22.465999603271484 C-41.65700149536133,-40.52399826049805 -42.819000244140625,-58.6619987487793 -44.53900146484375,-76.65599822998047 C-47.08300018310547,-103.26399993896484 -48.24399948120117,-129.72000122070312 -42.97600173950195,-156.13600158691406 C-40.0099983215332,-171.01400756835938 -33.189998626708984,-183.4340057373047 -20.45199966430664,-192.07200622558594 C0.39100000262260437,-206.20700073242188 29.15399932861328,-198.13900756835938 40.736000061035156,-174.9669952392578 C42.191001892089844,-172.0570068359375 43.20899963378906,-168.92799377441406 44.42900085449219,-165.9010009765625z"/></g><g opacity="1" transform="matrix(1,0,0,1,373.8840026855469,132.26800537109375)"><path fill="rgb(0,0,0)" fill-opacity="1" d=" M2.4639999866485596,-26.850000381469727 C8.984000205993652,-28.094999313354492 12.845999717712402,-30.131999969482422 16.650999069213867,-30.183000564575195 C19.711999893188477,-30.224000930786133 20.983999252319336,-27.923999786376953 21.020000457763672,-25.277000427246094 C21.086999893188477,-20.231000900268555 19.81399917602539,-10.20199966430664 19.94700050354004,-0.19200000166893005 C20.260000228881836,17.013999938964844 20.631000518798828,20.152999877929688 20.65999984741211,22.304000854492188 C20.642000198364258,27.18600082397461 16.95800018310547,30.131000518798828 12.407999992370605,30.191999435424805 C9.925999641418457,30.225000381469727 8.32800006866455,28.177000045776367 8.210000038146973,25.61400032043457 C8.1850004196167,23.711999893188477 8.654000282287598,21.7189998626709 8.621999740600586,19.320999145507812 C8.493000030517578,9.559000015258789 9.024999618530273,-0.12800000607967377 8.881999969482422,-10.883000373840332 C8.854999542236328,-12.869000434875488 8.913000106811523,-14.77299976348877 8.888999938964844,-16.591999053955078 C8.878000259399414,-17.420000076293945 8.043000221252441,-17.9060001373291 6.71999979019165,-17.888999938964844 C4.816999912261963,-17.863000869750977 -1.2799999713897705,-15.960000038146973 -4.660999774932861,-15.08899974822998 C-10.020999908447266,-13.774999618530273 -13.5649995803833,-12.737000465393066 -17.288000106811523,-12.687000274658203 C-19.190000534057617,-12.66100025177002 -21.02199935913086,-13.545000076293945 -21.062999725341797,-16.60700035095215 C-21.086000442504883,-18.3439998626709 -20.066999435424805,-22.577999114990234 -17.507999420166016,-23.024999618530273 C-8.592000007629395,-24.552000045776367 -4.551000118255615,-25.516000747680664 2.4639999866485596,-26.850000381469727z"/></g></g><g style="display: none;"><g><path/></g><g><path/></g><g><path/></g></g><g style="display: none;"><g><path/></g><g><path/></g><g><path/></g></g><g style="display: none;"><g><path/></g><g><path/></g><g><path/></g></g><g style="display: none;"><g><path/></g><g><path/></g><g><path/></g></g><g style="display: none;"/><g style="display: none;"/><g style="display: none;"/><g style="display: none;"/></g></svg>