<svg xmlns="http://www.w3.org/2000/svg" xmlns:xlink="http://www.w3.org/1999/xlink" viewBox="0 0 1900 1900" width="1900" height="1900" preserveAspectRatio="xMidYMid meet" style="width: 100%; height: 100%; transform: translate3d(0px, 0px, 0px); content-visibility: visible;"><defs><clipPath id="__lottie_element_837"><rect width="1900" height="1900" x="0" y="0"/></clipPath><clipPath id="__lottie_element_839"><path d="M0,0 L662,0 L662,514 L0,514z"/></clipPath><g id="__lottie_element_842"><g transform="matrix(1.0399999618530273,0,0,1.0399999618530273,331,257)" opacity="1" style="display: block;"><g opacity="1" transform="matrix(1,0,0,1,0,0)"><path stroke-linecap="butt" stroke-linejoin="miter" fill-opacity="0" stroke-miterlimit="4" stroke="rgb(9,212,124)" stroke-opacity="1" stroke-width="99" d="M0 0"/></g></g></g><mask id="__lottie_element_842_1"/></defs><g clip-path="url(#__lottie_element_837)"><g transform="matrix(1,0,0,1,498,774)" opacity="1" fill="rgb(213,2,8)" font-size="86" font-family="Classic Comic" font-style="normal" font-weight="400" aria-label="authorization" style="display: block;"><g stroke-linecap="butt" stroke-linejoin="round" stroke-miterlimit="4" transform="matrix(1,0,0,1,0,0)" opacity="0" style="display: inherit;"><g><g transform="matrix(1,0,0,1,0,0)" opacity="1" style="display: block;"><path d=" M41.92,-25.72 C36.38,-25.29 29.36,-25.03 23.73,-24.77 C27.72,-33.34 32.05,-41.83 33,-41.83 C34.12,-41.83 38.02,-34.3 41.92,-25.72z M46.16,-16.28 C48.24,-11.69 49.97,-7.54 51.1,-4.85 C52.57,-1.21 55.17,-0.17 58.11,-0.17 C62.27,-0.17 64,-2.08 64,-5.8 C64,-9.01 54.48,-27.37 45.3,-44.34 C42.52,-49.37 39.75,-56.47 37.67,-60.11 C36.55,-62.01 34.38,-62.62 32.31,-62.62 C28.75,-62.62 26.68,-59.5 25.38,-55.6 C21.39,-43.3 10.74,-23.9 3.03,-8.57 C2.25,-7.02 1.65,-5.46 1.65,-3.9 C1.65,-1.47 3.55,0.09 6.06,0.09 C12.65,0.09 14.55,-3.12 16.8,-8.92 C17.32,-10.31 18.19,-12.38 19.23,-14.81 C26.33,-15.5 38.11,-15.5 46.16,-16.28z"/><g opacity="1" transform="matrix(0.8600000143051147,0,0,0.8600000143051147,0,0)"/></g></g></g><g stroke-linecap="butt" stroke-linejoin="round" stroke-miterlimit="4" transform="matrix(1,0,0,1,64.84400177001953,0)" opacity="0" style="display: inherit;"><g><g transform="matrix(1,0,0,1,0,0)" opacity="1" style="display: block;"><path d=" M46.94,-7.02 C47.55,-2.34 49.45,0.26 52.92,0.26 C56.82,0.26 59.07,-1.04 59.07,-6.84 C59.07,-10.74 57.85,-19.66 57.85,-26.24 C57.85,-35.68 58.55,-42.44 59.59,-51.19 C59.76,-53 60.11,-54.74 60.11,-56.21 C60.11,-59.15 58.63,-61.67 55.26,-61.67 C51.88,-61.67 46.51,-58.98 46.51,-52.57 C46.51,-49.8 46.68,-47.29 46.68,-44.78 C46.68,-38.71 46.42,-33 46.08,-25.38 C45.9,-22 45.04,-18.53 42.7,-16.11 C38.89,-12.21 34.3,-10.48 26.68,-10.48 C20.27,-10.48 15.94,-12.21 15.94,-18.1 C15.94,-25.38 17.24,-33.78 17.84,-37.76 C18.62,-43.04 20.09,-47.29 20.09,-52.31 C20.09,-57.77 17.49,-60.63 13.68,-60.63 C7.19,-60.63 6.58,-51.27 6.06,-44.26 C5.37,-34.73 3.2,-23.38 3.2,-17.58 C3.2,-2.6 16.37,1.13 28.75,1.13 C38.02,1.13 43.82,-2.86 46.94,-7.02z"/><g opacity="1" transform="matrix(0.8600000143051147,0,0,0.8600000143051147,0,0)"/></g></g></g><g stroke-linecap="butt" stroke-linejoin="round" stroke-miterlimit="4" transform="matrix(1,0,0,1,127.88200378417969,0)" opacity="0" style="display: inherit;"><g><g transform="matrix(1,0,0,1,0,0)" opacity="1" style="display: block;"><path d=" M33.86,-49.71 C36.55,-50.41 42.61,-51.1 47.81,-51.1 C51.97,-51.1 54.04,-53.44 54.04,-56.99 C54.04,-61.15 51.19,-61.84 48.41,-61.84 C44,-61.84 39.93,-60.8 26.42,-59.76 C12.73,-58.72 8.49,-58.2 4.5,-56.3 C2.68,-55.43 1.39,-52.66 1.39,-49.71 C1.39,-47.55 2.68,-45.73 5.37,-45.73 C7.36,-45.73 17.15,-48.15 22,-48.24 C22,-43.82 22.35,-37.24 22.35,-32.13 C22.35,-22.95 21.31,-15.33 21.31,-6.76 C21.31,-1.9 22.43,-0.09 26.85,-0.09 C33.43,-0.09 33.69,-9.53 33.69,-14.29 C33.69,-22.17 34.04,-29.62 34.04,-39.67 C34.04,-42.44 33.86,-46.77 33.86,-49.71z"/><g opacity="1" transform="matrix(0.8600000143051147,0,0,0.8600000143051147,0,0)"/></g></g></g><g stroke-linecap="butt" stroke-linejoin="round" stroke-miterlimit="4" transform="matrix(1,0,0,1,183.0080108642578,0)" opacity="0" style="display: inherit;"><g><g transform="matrix(1,0,0,1,0,0)" opacity="1" style="display: block;"><path d=" M45.73,-25.72 C45.82,-23.99 45.9,-21.31 45.9,-19.57 C45.9,-13.68 45.64,-8.05 45.64,-6.24 C45.64,-1.39 46.68,0.26 52.4,0.26 C56.82,0.26 57.34,-2.77 57.34,-7.36 C57.25,-17.84 57.16,-24.77 57.16,-30.83 C57.16,-37.76 57.85,-49.71 57.85,-53.35 C57.85,-58.29 55.69,-60.19 49.89,-60.19 C47.64,-60.19 46.16,-58.89 45.99,-57.08 C45.82,-54.74 45.82,-50.67 45.82,-49.71 C45.82,-46.08 45.82,-39.67 45.73,-36.03 C34.47,-35.34 28.15,-34.82 17.32,-34.73 C17.76,-45.64 18.79,-52.57 18.79,-54.82 C18.79,-57.25 17.93,-60.11 11.43,-60.11 C8.49,-60.11 6.24,-57.85 6.24,-50.49 C6.24,-42.44 5.37,-34.21 5.37,-22.35 C5.37,-17.24 5.46,-9.96 5.72,-4.42 C5.89,-0.61 8.66,0.69 10.57,0.69 C13.34,0.69 16.98,-0.69 16.98,-5.54 C16.98,-10.05 16.8,-14.2 16.8,-18.01 C16.8,-20.35 16.89,-22.6 17.06,-24.77 C29.01,-25.46 35.42,-25.72 45.73,-25.72z"/><g opacity="1" transform="matrix(0.8600000143051147,0,0,0.8600000143051147,0,0)"/></g></g></g><g stroke-linecap="butt" stroke-linejoin="round" stroke-miterlimit="4" transform="matrix(1,0,0,1,245.01400756835938,0)" opacity="0" style="display: inherit;"><g><g transform="matrix(1,0,0,1,0,0)" opacity="1" style="display: block;"><path d=" M74.05,-38.11 C74.05,-53.52 61.06,-62.44 47.63,-62.44 C27.19,-62.44 3.46,-44.69 3.46,-23.04 C3.46,-7.79 13.94,0 29.97,0 C49.11,0 74.05,-13.08 74.05,-38.11z M62.44,-36.2 C62.44,-21.39 46.08,-10.22 29.45,-10.22 C22.69,-10.22 15.94,-13.6 15.94,-22.26 C15.94,-37.42 32.05,-52.23 46.34,-52.23 C55.52,-52.23 62.44,-46.94 62.44,-36.2z"/><g opacity="1" transform="matrix(0.8600000143051147,0,0,0.8600000143051147,0,0)"/></g></g></g><g stroke-linecap="butt" stroke-linejoin="round" stroke-miterlimit="4" transform="matrix(1,0,0,1,321.89801025390625,0)" opacity="0" style="display: inherit;"><g><g transform="matrix(1,0,0,1,0,0)" opacity="1" style="display: block;"><path d=" M17.93,-47.81 C24.34,-49.8 29.45,-49.97 33.78,-49.97 C38.54,-49.97 42.53,-49.71 42.53,-46.16 C42.53,-38.71 27.89,-33.17 17.93,-32.91 C17.93,-32.91 17.93,-47.81 17.93,-47.81z M18.1,-22.86 C22.78,-18.97 28.06,-14.38 29.97,-12.47 C37.07,-5.02 42.44,-0.35 47.81,-0.35 C50.67,-0.35 53.7,-1.99 53.7,-5.2 C53.7,-8.31 49.28,-11.52 40.53,-18.97 C38.02,-21.05 35.6,-23.3 33.26,-25.38 C47.29,-29.62 56.12,-38.28 56.12,-47.81 C56.12,-57.42 47.29,-60.97 35.25,-60.97 C22.08,-60.97 7.27,-59.59 5.63,-55.78 C4.94,-54.22 4.94,-52.31 4.94,-49.54 C4.94,-45.12 5.37,-39.41 5.37,-35.25 C5.37,-31.09 5.54,-27.11 5.54,-22.61 C5.54,-16.28 4.76,-11 4.76,-4.5 C4.76,-1.73 6.32,0.43 8.66,0.43 C17.15,0.43 18.1,-5.11 18.1,-7.62 C18.1,-10.83 17.93,-13.25 17.93,-15.68 C17.93,-18.1 17.93,-20.53 18.1,-22.86z"/><g opacity="1" transform="matrix(0.8600000143051147,0,0,0.8600000143051147,0,0)"/></g></g></g><g stroke-linecap="butt" stroke-linejoin="round" stroke-miterlimit="4" transform="matrix(1,0,0,1,379.7760009765625,0)" opacity="0" style="display: inherit;"><g><g transform="matrix(1,0,0,1,0,0)" opacity="1" style="display: block;"><path d=" M11.69,0.09 C16.11,0.09 16.37,-4.33 16.63,-8.92 C17.15,-19.4 17.41,-23.9 17.41,-29.97 C17.41,-36.9 18.1,-49.37 18.1,-53 C18.1,-57.94 17.84,-62.1 12.9,-62.1 C6.32,-62.1 5.37,-55.78 5.37,-51.62 C5.37,-47.98 5.11,-38.97 5.11,-19.75 C5.11,-13.86 4.94,-8.23 4.94,-6.41 C4.94,-1.56 5.98,0.09 11.69,0.09z"/><g opacity="1" transform="matrix(0.8600000143051147,0,0,0.8600000143051147,0,0)"/></g></g></g><g stroke-linecap="butt" stroke-linejoin="round" stroke-miterlimit="4" transform="matrix(1,0,0,1,402.7380065917969,0)" opacity="0" style="display: inherit;"><g><g transform="matrix(1,0,0,1,0,0)" opacity="1" style="display: block;"><path d=" M20.53,-11.87 C32.39,-23.04 44.6,-39.41 56.9,-51.1 C58.2,-52.4 59.93,-54.82 59.93,-56.3 C59.93,-59.33 56.21,-61.06 53.35,-61.06 C48.67,-60.97 40.19,-60.89 33.34,-60.54 C20.18,-59.85 17.41,-59.67 12.9,-59.67 C10.65,-59.67 7.45,-56.82 7.45,-52.4 C7.45,-50.93 8.05,-48.5 13.94,-48.5 C19.92,-48.5 25.64,-50.75 35.51,-50.75 C36.72,-50.75 39.84,-50.93 40.88,-50.93 C33.52,-41.57 19.66,-24.42 4.59,-11 C2.77,-9.35 1.47,-7.88 1.47,-5.98 C1.47,-1.21 4.24,-0.43 7.27,-0.43 C16.02,-0.43 19.23,-1.39 27.72,-1.39 C37.07,-1.39 44,-0.69 52.66,-0.69 C56.82,-0.69 60.45,-2.77 60.45,-7.1 C60.45,-11.17 56.99,-12.99 51.62,-12.99 C43.04,-12.99 35.86,-11.78 28.23,-11.78 C24.86,-11.78 22.86,-11.87 20.53,-11.87z"/><g opacity="1" transform="matrix(0.8600000143051147,0,0,0.8600000143051147,0,0)"/></g></g></g><g stroke-linecap="butt" stroke-linejoin="round" stroke-miterlimit="4" transform="matrix(1,0,0,1,464.1419982910156,0)" opacity="0" style="display: inherit;"><g><g transform="matrix(1,0,0,1,0,0)" opacity="1" style="display: block;"><path d=" M41.92,-25.72 C36.38,-25.29 29.36,-25.03 23.73,-24.77 C27.72,-33.34 32.05,-41.83 33,-41.83 C34.12,-41.83 38.02,-34.3 41.92,-25.72z M46.16,-16.28 C48.24,-11.69 49.97,-7.54 51.1,-4.85 C52.57,-1.21 55.17,-0.17 58.11,-0.17 C62.27,-0.17 64,-2.08 64,-5.8 C64,-9.01 54.48,-27.37 45.3,-44.34 C42.52,-49.37 39.75,-56.47 37.67,-60.11 C36.55,-62.01 34.38,-62.62 32.31,-62.62 C28.75,-62.62 26.68,-59.5 25.38,-55.6 C21.39,-43.3 10.74,-23.9 3.03,-8.57 C2.25,-7.02 1.65,-5.46 1.65,-3.9 C1.65,-1.47 3.55,0.09 6.06,0.09 C12.65,0.09 14.55,-3.12 16.8,-8.92 C17.32,-10.31 18.19,-12.38 19.23,-14.81 C26.33,-15.5 38.11,-15.5 46.16,-16.28z"/><g opacity="1" transform="matrix(0.8600000143051147,0,0,0.8600000143051147,0,0)"/></g></g></g><g stroke-linecap="butt" stroke-linejoin="round" stroke-miterlimit="4" transform="matrix(1,0,0,1,528.9860229492188,0)" opacity="0" style="display: inherit;"><g><g transform="matrix(1,0,0,1,0,0)" opacity="1" style="display: block;"><path d=" M33.86,-49.71 C36.55,-50.41 42.61,-51.1 47.81,-51.1 C51.97,-51.1 54.04,-53.44 54.04,-56.99 C54.04,-61.15 51.19,-61.84 48.41,-61.84 C44,-61.84 39.93,-60.8 26.42,-59.76 C12.73,-58.72 8.49,-58.2 4.5,-56.3 C2.68,-55.43 1.39,-52.66 1.39,-49.71 C1.39,-47.55 2.68,-45.73 5.37,-45.73 C7.36,-45.73 17.15,-48.15 22,-48.24 C22,-43.82 22.35,-37.24 22.35,-32.13 C22.35,-22.95 21.31,-15.33 21.31,-6.76 C21.31,-1.9 22.43,-0.09 26.85,-0.09 C33.43,-0.09 33.69,-9.53 33.69,-14.29 C33.69,-22.17 34.04,-29.62 34.04,-39.67 C34.04,-42.44 33.86,-46.77 33.86,-49.71z"/><g opacity="1" transform="matrix(0.8600000143051147,0,0,0.8600000143051147,0,0)"/></g></g></g><g stroke-linecap="butt" stroke-linejoin="round" stroke-miterlimit="4" transform="matrix(1,0,0,1,584.1119995117188,0)" opacity="0" style="display: inherit;"><g><g transform="matrix(1,0,0,1,0,0)" opacity="1" style="display: block;"><path d=" M11.69,0.09 C16.11,0.09 16.37,-4.33 16.63,-8.92 C17.15,-19.4 17.41,-23.9 17.41,-29.97 C17.41,-36.9 18.1,-49.37 18.1,-53 C18.1,-57.94 17.84,-62.1 12.9,-62.1 C6.32,-62.1 5.37,-55.78 5.37,-51.62 C5.37,-47.98 5.11,-38.97 5.11,-19.75 C5.11,-13.86 4.94,-8.23 4.94,-6.41 C4.94,-1.56 5.98,0.09 11.69,0.09z"/><g opacity="1" transform="matrix(0.8600000143051147,0,0,0.8600000143051147,0,0)"/></g></g></g><g stroke-linecap="butt" stroke-linejoin="round" stroke-miterlimit="4" transform="matrix(1,0,0,1,607.0740356445312,0)" opacity="0" style="display: inherit;"><g><g transform="matrix(1,0,0,1,0,0)" opacity="1" style="display: block;"><path d=" M74.05,-38.11 C74.05,-53.52 61.06,-62.44 47.63,-62.44 C27.19,-62.44 3.46,-44.69 3.46,-23.04 C3.46,-7.79 13.94,0 29.97,0 C49.11,0 74.05,-13.08 74.05,-38.11z M62.44,-36.2 C62.44,-21.39 46.08,-10.22 29.45,-10.22 C22.69,-10.22 15.94,-13.6 15.94,-22.26 C15.94,-37.42 32.05,-52.23 46.34,-52.23 C55.52,-52.23 62.44,-46.94 62.44,-36.2z"/><g opacity="1" transform="matrix(0.8600000143051147,0,0,0.8600000143051147,0,0)"/></g></g></g><g stroke-linecap="butt" stroke-linejoin="round" stroke-miterlimit="4" transform="matrix(1,0,0,1,683.9580078125,0)" opacity="0" style="display: inherit;"><g><g transform="matrix(1,0,0,1,0,0)" opacity="1" style="display: block;"><path d=" M16.8,-32.82 C24.51,-22.34 40.19,-1.13 50.75,-1.13 C53.96,-1.13 56.38,-3.03 56.38,-5.72 C56.38,-8.75 54.74,-21.13 54.74,-33.86 C54.74,-40.88 56.12,-56.3 56.12,-58.98 C56.12,-61.49 53.61,-63.4 50.49,-63.4 C47.2,-63.4 43.74,-62.01 43.74,-55.86 C43.74,-54.56 43.82,-52.31 43.82,-50.67 C43.82,-34.12 43.56,-31.18 43.39,-18.01 C24.51,-36.03 18.28,-60.28 8.4,-60.28 C6.06,-60.28 4.68,-58.29 4.68,-56.38 C4.68,-51.79 5.2,-41.23 5.2,-31.53 C5.2,-27.37 4.85,-18.02 4.5,-14.38 C4.33,-12.04 4.16,-8.66 4.16,-6.15 C4.16,-2.16 7.54,0.09 10.74,0.09 C13.94,0.09 16.37,-2.25 16.37,-5.46 C16.37,-7.19 16.46,-9.18 16.46,-11.87 C16.46,-15.42 16.71,-20.61 16.8,-32.82z"/><g opacity="1" transform="matrix(0.8600000143051147,0,0,0.8600000143051147,0,0)"/></g></g></g></g><g clip-path="url(#__lottie_element_839)" transform="matrix(1,0,0,1,1201,1201)" opacity="1" style="display: block;"><g mask="url(#__lottie_element_842_1)" style="display: block;"><g transform="matrix(1,0,0,1,0,0)" opacity="1"><g opacity="1" transform="matrix(1,0,0,1,305.3529968261719,261.56298828125)"><path fill="rgb(213,2,8)" fill-opacity="1" d=" M305.3529968261719,-224.44400024414062 C235.7259979248047,-197.54299926757812 -111.99400329589844,114.55599975585938 -111.99400329589844,114.55599975585938 C-111.99400329589844,114.55599975585938 -267.67401123046875,31.458999633789062 -289.7130126953125,31.458999633789062 C-311.75299072265625,31.458999633789062 -135.36000061035156,186.36599731445312 -134.97500610351562,224.44400024414062 C-89.7239990234375,165.88600158691406 305.3529968261719,-224.44400024414062 305.3529968261719,-224.44400024414062z"/></g><g opacity="1" transform="matrix(1,0,0,1,329.0740051269531,257.5870056152344)"><path fill="rgb(0,0,0)" fill-opacity="1" d=" M-287.4159851074219,70.5479965209961 C-238.47500610351562,116.9000015258789 -191.62899780273438,164.91799926757812 -151.90699768066406,220.43099975585938 C-150.38299560546875,218.66299438476562 -149.2469940185547,217.60800170898438 -148.4219970703125,216.35000610351562 C-129.60499572753906,187.67599487304688 -106.91999816894531,162.1199951171875 -84.04900360107422,136.7310028076172 C-15.956999778747559,61.14500045776367 56.21799850463867,-10.489999771118164 128.34800720214844,-82.16400146484375 C140.81100463867188,-94.5479965209961 153.46800231933594,-106.73699951171875 166.0260009765625,-119.0270004272461 C166.7030029296875,-119.69000244140625 167.2790069580078,-120.45600128173828 167.40699768066406,-121.86599731445312 C165.77000427246094,-120.73999786376953 164.09800720214844,-119.66000366210938 162.5,-118.4800033569336 C99.80799865722656,-72.14900207519531 37.98400115966797,-24.691999435424805 -21.982999801635742,25.125999450683594 C-59.39899826049805,56.20899963378906 -96.40799713134766,87.78199768066406 -133.52699279785156,119.22100067138672 C-137.18299865722656,122.31700134277344 -140.35699462890625,122.92400360107422 -144.37100219726562,119.93000030517578 C-173.78199768066406,97.98899841308594 -206.4499969482422,81.81700134277344 -239.75900268554688,66.91799926757812 C-259.656005859375,58.018001556396484 -279.9570007324219,50.02000045776367 -300.0710144042969,41.60200119018555 C-301.5050048828125,41.00199890136719 -302.88800048828125,40.279998779296875 -303.93499755859375,38.7400016784668 C-297.9930114746094,40.75199890136719 -292.0320129394531,42.71099853515625 -286.11199951171875,44.784000396728516 C-241.92799377441406,60.25600051879883 -199.3260040283203,79.2229995727539 -158.7480010986328,102.62200164794922 C-154.10299682617188,105.3010025024414 -149.656005859375,108.33300018310547 -145.19400024414062,111.31500244140625 C-139.29299926757812,115.26000213623047 -139.3679962158203,115.26200103759766 -133.93299865722656,110.33100128173828 C-107.06099700927734,85.94999694824219 -80.45899963378906,61.26100158691406 -53.224998474121094,37.290000915527344 C48.8129997253418,-52.525001525878906 153.81500244140625,-138.68699645996094 264.0469970703125,-218.3520050048828 C269.71600341796875,-222.44900512695312 275.5140075683594,-226.37100219726562 281.3110046386719,-230.28700256347656 C283.0530090332031,-231.46299743652344 284.9070129394531,-232.57400512695312 286.86199951171875,-233.31399536132812 C291.8909912109375,-235.2169952392578 297.1610107421875,-233.85499572753906 300.1929931640625,-230.11500549316406 C303.4159851074219,-226.14100646972656 303.93499755859375,-221.0659942626953 300.6600036621094,-216.5229949951172 C297.63800048828125,-212.3300018310547 294.0870056152344,-208.43099975585938 290.3269958496094,-204.86900329589844 C252.64700317382812,-169.177001953125 214.84300231933594,-133.61700439453125 177.13900756835938,-97.95099639892578 C112.36399841308594,-36.67599868774414 47.069000244140625,24.06399917602539 -16.89900016784668,86.16899871826172 C-55.5099983215332,123.65599822998047 -92.90799713134766,162.48500061035156 -126.97899627685547,204.29100036621094 C-133.4409942626953,212.2209930419922 -139.6020050048828,220.42599487304688 -145.43800354003906,228.8260040283203 C-149.76100158691406,235.0489959716797 -152.11399841308594,235.2169952392578 -156.50900268554688,229.10800170898438 C-170.56100463867188,209.57400512695312 -183.72900390625,189.2790069580078 -199.16000366210938,170.88999938964844 C-226.75599670410156,138.0030059814453 -255.7530059814453,106.29100036621094 -284.16900634765625,74.09200286865234 C-285.22900390625,72.89099884033203 -286.3330078125,71.72899627685547 -287.4159851074219,70.5479965209961z"/></g></g></g></g></g></svg>