<svg xmlns="http://www.w3.org/2000/svg" xmlns:xlink="http://www.w3.org/1999/xlink" viewBox="0 0 1900 1900" width="1900" height="1900" preserveAspectRatio="xMidYMid meet" style="width: 100%; height: 100%; transform: translate3d(0px, 0px, 0px); content-visibility: visible;"><defs><clipPath id="__lottie_element_775"><rect width="1900" height="1900" x="0" y="0"/></clipPath></defs><g clip-path="url(#__lottie_element_775)"><g transform="matrix(1,0,0,1,816.08203125,764.23095703125)" opacity="1" style="display: block;"><g opacity="1" transform="matrix(1,0,0,1,396.6390075683594,504.71600341796875)"><path fill="rgb(184,183,184)" fill-opacity="1" d=" M-224.54100036621094,-402.2439880371094 C-212.7169952392578,-393.1300048828125 -200.4239959716797,-384.3489990234375 -188.91299438476562,-374.6400146484375 C-163.12600708007812,-352.8900146484375 -137.16299438476562,-331.2969970703125 -112.28199768066406,-308.5360107421875 C-48.69200134277344,-250.36300659179688 17.26300048828125,-195.00399780273438 84.95700073242188,-141.73300170898438 C119.6719970703125,-114.41500091552734 156.85499572753906,-90.52100372314453 194.57899475097656,-67.52400207519531 C212.38499450683594,-56.66999816894531 229.6840057373047,-45.07899856567383 245.15499877929688,-30.98200035095215 C252.35899353027344,-24.41699981689453 258.635009765625,-17.125999450683594 263.031005859375,-7.534999847412109 C259.0249938964844,-7.073999881744385 255.34100341796875,-6.53000020980835 251.63800048828125,-6.241000175476074 C202.21499633789062,-2.384000062942505 152.83099365234375,1.8819999694824219 103.14700317382812,0.9629999995231628 C91.68699645996094,0.7509999871253967 80.09500122070312,3.0239999294281006 68.7030029296875,4.968999862670898 C56.31800079345703,7.083000183105469 51.73400115966797,13.675000190734863 52.957000732421875,26.6299991607666 C53.935001373291016,36.987998962402344 55.638999938964844,47.2760009765625 56.70100021362305,57.62900161743164 C61.165000915527344,101.12899780273438 80.39299774169922,139.10400390625 100.51799774169922,176.89599609375 C123.31999969482422,219.71800231933594 145.72999572753906,262.7590026855469 167.5959930419922,306.06500244140625 C176.66799926757812,324.0320129394531 182.09300231933594,343.4809875488281 185.16299438476562,363.4649963378906 C186.11399841308594,369.656005859375 185.38699340820312,372.1499938964844 179.4709930419922,374.2019958496094 C164.2790069580078,379.4739990234375 149.04299926757812,384.8370056152344 133.46499633789062,388.72601318359375 C107.86499786376953,395.11700439453125 81.93399810791016,400.0849914550781 55.5260009765625,401.97198486328125 C54.35599899291992,402.0559997558594 53.18199920654297,402.1310119628906 52.0099983215332,402.1390075683594 C37.65999984741211,402.2439880371094 34.13199996948242,399.67999267578125 29.451000213623047,386.23199462890625 C5.949999809265137,318.7179870605469 -16.19099998474121,250.75399780273438 -36.21099853515625,182.13499450683594 C-46.13399887084961,148.1199951171875 -54.323001861572266,113.5999984741211 -63.33100128173828,79.31800079345703 C-64.11199951171875,76.34700012207031 -64.93000030517578,73.35099792480469 -66.11799621582031,70.52899932861328 C-69.76799774169922,61.862998962402344 -78.36000061035156,59.60200119018555 -85.43099975585938,65.7750015258789 C-106.76100158691406,84.39600372314453 -128.14300537109375,102.96700286865234 -149.06700134277344,122.03700256347656 C-173.79100036621094,144.57000732421875 -197.8509979248047,167.83200073242188 -222.64300537109375,190.28700256347656 C-230.51400756835938,197.4149932861328 -239.56900024414062,203.3459930419922 -248.53799438476562,209.11500549316406 C-254.78900146484375,213.13499450683594 -256.57000732421875,212.4600067138672 -258.8739929199219,205.57899475097656 C-260.9880065917969,199.26499938964844 -263.0299987792969,192.5050048828125 -262.97100830078125,185.96099853515625 C-262.7569885253906,162.50999450683594 -261.87701416015625,139.05599975585938 -260.7869873046875,115.6240005493164 C-259.8940124511719,96.43900299072266 -258.57000732421875,77.26699829101562 -257.0199890136719,58.12200164794922 C-255.41200256347656,38.255001068115234 -253.47000122070312,18.410999298095703 -251.36700439453125,-1.409999966621399 C-249.06199645996094,-23.125 -246.35499572753906,-44.79800033569336 -243.91799926757812,-66.4990005493164 C-241.57899475097656,-87.3270034790039 -239.2010040283203,-108.1520004272461 -237.13299560546875,-129.00799560546875 C-235.06500244140625,-149.8679962158203 -233.15499877929688,-170.74899291992188 -231.5489959716797,-191.6490020751953 C-229.66299438476562,-216.20899963378906 -227.76100158691406,-240.781005859375 -226.6439971923828,-265.38299560546875 C-225.63999938964844,-287.5050048828125 -225.6649932861328,-309.6759948730469 -225.28199768066406,-331.82598876953125 C-224.9969940185547,-348.40301513671875 -224.75599670410156,-364.98199462890625 -224.55499267578125,-381.5610046386719 C-224.4709930419922,-388.43701171875 -224.54100036621094,-395.31500244140625 -224.54100036621094,-402.2439880371094z"/></g></g><g transform="matrix(1,0,0,1,751.967041015625,725.18994140625)" opacity="1" style="display: block;"><g opacity="1" transform="matrix(1,0,0,1,398.7229919433594,498.9070129394531)"><path fill="rgb(0,0,0)" fill-opacity="1" d=" M-83.93299865722656,92.12100219726562 C-101.46299743652344,107.7020034790039 -118.31700134277344,122.29000091552734 -134.72999572753906,137.35800170898438 C-162.28500366210938,162.656005859375 -189.44700622558594,188.38299560546875 -217.0330047607422,213.64700317382812 C-223.9290008544922,219.96200561523438 -231.48699951171875,225.69400024414062 -239.30599975585938,230.83399963378906 C-258.864013671875,243.6909942626953 -279.4429931640625,235.78199768066406 -285.6650085449219,213.29400634765625 C-290.1109924316406,197.2209930419922 -289.6109924316406,180.76499938964844 -288.8450012207031,164.33900451660156 C-287.90899658203125,144.27000427246094 -287.0450134277344,124.19400024414062 -285.6730041503906,104.1520004272461 C-283.9620056152344,79.14600372314453 -282.0840148925781,54.14099884033203 -279.69500732421875,29.191999435424805 C-277.02801513671875,1.3300000429153442 -273.7229919433594,-26.47100067138672 -270.6669921875,-54.29600143432617 C-267.8680114746094,-79.79000091552734 -264.8479919433594,-105.26000213623047 -262.26800537109375,-130.7760009765625 C-260.1300048828125,-151.92100524902344 -258.0679931640625,-173.09100341796875 -256.72601318359375,-194.2969970703125 C-254.42999267578125,-230.58700561523438 -252.88400268554688,-266.9230041503906 -250.71800231933594,-303.22100830078125 C-249.13699340820312,-329.7080078125 -247.23199462890625,-356.1780090332031 -245.11099243164062,-382.62701416015625 C-244.4929962158203,-390.3380126953125 -242.7570037841797,-397.97198486328125 -241.3000030517578,-405.59698486328125 C-240.29400634765625,-410.8599853515625 -239.02000427246094,-416.0830078125 -237.61500549316406,-421.2550048828125 C-236.52499389648438,-425.2640075683594 -233.44400024414062,-426.5669860839844 -229.7270050048828,-425.38800048828125 C-224.64599609375,-423.7770080566406 -219.68099975585938,-422.3039855957031 -215.23199462890625,-418.6619873046875 C-196.16600036621094,-403.0559997558594 -176.11500549316406,-388.6159973144531 -157.50100708007812,-372.5050048828125 C-122.33899688720703,-342.0719909667969 -88.23600006103516,-310.4159851074219 -53.10100173950195,-279.95098876953125 C-18.525999069213867,-249.9720001220703 16.81800079345703,-220.8820037841797 51.75899887084961,-191.32400512695312 C81.5780029296875,-166.10000610351562 112.28700256347656,-142.04200744628906 144.98199462890625,-120.63800048828125 C169.88499450683594,-104.33599853515625 195.2989959716797,-88.80699920654297 219.98399353027344,-72.18800354003906 C233.8159942626953,-62.87699890136719 246.93800354003906,-52.42599868774414 259.8089904785156,-41.797000885009766 C272.0780029296875,-31.665000915527344 279.5669860839844,-17.905000686645508 285.3559875488281,-3.3289999961853027 C290.1109924316406,8.642999649047852 284.1809997558594,17.0939998626709 271.3210144042969,18.099000930786133 C246.61700439453125,20.030000686645508 221.96600341796875,22.799999237060547 197.23599243164062,24.187999725341797 C174.55799865722656,25.461000442504883 151.80599975585938,25.711000442504883 129.08399963378906,25.777000427246094 C110.44400024414062,25.83099937438965 91.81900024414062,25.30500030517578 73.39399719238281,28.874000549316406 C72.83200073242188,28.982999801635742 72.28099822998047,29.14699935913086 71.125,29.43400001525879 C71.83399963378906,35.9370002746582 72.73300170898438,42.402000427246094 73.21800231933594,48.89899826049805 C76.40899658203125,91.69000244140625 94.56500244140625,129.0850067138672 114.23400115966797,166.2220001220703 C137.13800048828125,209.46800231933594 159.18099975585938,253.18600463867188 180.73399353027344,297.12298583984375 C190.9429931640625,317.93701171875 197.48599243164062,340.2569885253906 201.7429962158203,363.1400146484375 C204.82000732421875,379.6809997558594 200.75,388.072998046875 185.7760009765625,395.8190002441406 C169.4720001220703,404.25201416015625 151.7429962158203,408.3739929199219 134.11399841308594,412.7489929199219 C108.46399688720703,419.114990234375 82.53099822998047,423.8420104980469 56.13100051879883,425.73699951171875 C44.55400085449219,426.5679931640625 33.28300094604492,425.8210144042969 22.87700080871582,419.8739929199219 C16.7549991607666,416.3739929199219 12.607000350952148,411.1319885253906 9.65999984741211,404.9580078125 C7.078999996185303,399.5480041503906 4.754000186920166,393.9849853515625 2.746999979019165,388.3370056152344 C-21.930999755859375,318.9010009765625 -44.229000091552734,248.69200134277344 -63.99300003051758,177.71499633789062 C-70.94200134277344,152.76300048828125 -75.63999938964844,127.18499755859375 -81.39199829101562,101.89900207519531 C-82.03199768066406,99.08200073242188 -82.84100341796875,96.3030014038086 -83.93299865722656,92.12100219726562z M-226.625,-396.43499755859375 C-226.625,-389.5060119628906 -226.55499267578125,-382.62799072265625 -226.63900756835938,-375.75201416015625 C-226.83999633789062,-359.1730041503906 -227.08099365234375,-342.593994140625 -227.36599731445312,-326.0169982910156 C-227.74899291992188,-303.86700439453125 -227.7239990234375,-281.6960144042969 -228.72799682617188,-259.5740051269531 C-229.84500122070312,-234.9720001220703 -231.7469940185547,-210.39999389648438 -233.63299560546875,-185.83999633789062 C-235.23899841308594,-164.94000244140625 -237.1490020751953,-144.0590057373047 -239.2169952392578,-123.1989974975586 C-241.28500366210938,-102.34300231933594 -243.66299438476562,-81.51799774169922 -246.0019989013672,-60.689998626708984 C-248.43899536132812,-38.98899841308594 -251.14599609375,-17.31599998474121 -253.4510040283203,4.39900016784668 C-255.5540008544922,24.219999313354492 -257.4960021972656,44.06399917602539 -259.10400390625,63.930999755859375 C-260.65399169921875,83.07599639892578 -261.9779968261719,102.2490005493164 -262.8710021972656,121.43399810791016 C-263.96099853515625,144.86599731445312 -264.84100341796875,168.31900024414062 -265.05499267578125,191.77000427246094 C-265.114013671875,198.31399536132812 -263.0719909667969,205.07400512695312 -260.9580078125,211.38800048828125 C-258.65399169921875,218.2689971923828 -256.87298583984375,218.94400024414062 -250.6219940185547,214.9239959716797 C-241.6529998779297,209.15499877929688 -232.59800720214844,203.22500610351562 -224.7270050048828,196.0970001220703 C-199.93499755859375,173.64199829101562 -175.875,150.37899780273438 -151.1510009765625,127.84600067138672 C-130.2270050048828,108.7760009765625 -108.84500122070312,90.20500183105469 -87.51499938964844,71.58399963378906 C-80.44400024414062,65.41100311279297 -71.85199737548828,67.6729965209961 -68.2020034790039,76.33899688720703 C-67.01399993896484,79.16100311279297 -66.19599914550781,82.15699768066406 -65.41500091552734,85.12799835205078 C-56.40700149536133,119.41000366210938 -48.21799850463867,153.9290008544922 -38.29499816894531,187.94400024414062 C-18.274999618530273,256.56298828125 3.865999937057495,324.5270080566406 27.367000579833984,392.0409851074219 C32.04800033569336,405.489013671875 35.57600021362305,408.0539855957031 49.92599868774414,407.9490051269531 C51.097999572753906,407.9410095214844 52.27199935913086,407.8659973144531 53.44200134277344,407.7820129394531 C79.8499984741211,405.8949890136719 105.78099822998047,400.9259948730469 131.38099670410156,394.5350036621094 C146.95899963378906,390.64599609375 162.1959991455078,385.2829895019531 177.38800048828125,380.010986328125 C183.3040008544922,377.9590148925781 184.02999877929688,375.4649963378906 183.07899475097656,369.27398681640625 C180.00900268554688,349.2900085449219 174.58399963378906,329.84100341796875 165.51199340820312,311.8739929199219 C143.64599609375,268.5679931640625 121.23600006103516,225.52699279785156 98.43399810791016,182.7050018310547 C78.30899810791016,144.91299438476562 59.08100128173828,106.93800354003906 54.617000579833984,63.4379997253418 C53.55500030517578,53.084999084472656 51.85100173950195,42.797000885009766 50.87300109863281,32.43899917602539 C49.650001525878906,19.483999252319336 54.23400115966797,12.892999649047852 66.61900329589844,10.779000282287598 C78.01100158691406,8.833999633789062 89.60299682617188,6.559999942779541 101.06300354003906,6.771999835968018 C150.7469940185547,7.690999984741211 200.1320037841797,3.4260001182556152 249.55499267578125,-0.4309999942779541 C253.25799560546875,-0.7200000286102295 256.9410095214844,-1.2649999856948853 260.9469909667969,-1.7259999513626099 C256.5509948730469,-11.317000389099121 250.27499389648438,-18.607999801635742 243.0709991455078,-25.17300033569336 C227.60000610351562,-39.27000045776367 210.30099487304688,-50.861000061035156 192.4949951171875,-61.71500015258789 C154.77099609375,-84.71199798583984 117.58799743652344,-108.60600280761719 82.87300109863281,-135.9239959716797 C15.178999900817871,-189.19500732421875 -50.7760009765625,-244.5540008544922 -114.36599731445312,-302.72698974609375 C-139.2469940185547,-325.4880065917969 -165.2100067138672,-347.08099365234375 -190.9969940185547,-368.83099365234375 C-202.50799560546875,-378.5400085449219 -214.80099487304688,-387.3210144042969 -226.625,-396.43499755859375z"/></g><g opacity="1" transform="matrix(1,0,0,1,396.6390075683594,504.71600341796875)"><path fill="rgb(255,254,255)" fill-opacity="1" d=" M-224.54100036621094,-402.2439880371094 C-212.7169952392578,-393.1300048828125 -200.4239959716797,-384.3489990234375 -188.91299438476562,-374.6400146484375 C-163.12600708007812,-352.8900146484375 -137.16299438476562,-331.2969970703125 -112.28199768066406,-308.5360107421875 C-48.69200134277344,-250.36300659179688 17.26300048828125,-195.00399780273438 84.95700073242188,-141.73300170898438 C119.6719970703125,-114.41500091552734 156.85499572753906,-90.52100372314453 194.57899475097656,-67.52400207519531 C212.38499450683594,-56.66999816894531 229.6840057373047,-45.07899856567383 245.15499877929688,-30.98200035095215 C252.35899353027344,-24.41699981689453 258.635009765625,-17.125999450683594 263.031005859375,-7.534999847412109 C259.0249938964844,-7.073999881744385 255.34100341796875,-6.53000020980835 251.63800048828125,-6.241000175476074 C202.21499633789062,-2.384000062942505 152.83099365234375,1.8819999694824219 103.14700317382812,0.9629999995231628 C91.68699645996094,0.7509999871253967 80.09500122070312,3.0239999294281006 68.7030029296875,4.968999862670898 C56.31800079345703,7.083000183105469 51.73400115966797,13.675000190734863 52.957000732421875,26.6299991607666 C53.935001373291016,36.987998962402344 55.638999938964844,47.2760009765625 56.70100021362305,57.62900161743164 C61.165000915527344,101.12899780273438 80.39299774169922,139.10400390625 100.51799774169922,176.89599609375 C123.31999969482422,219.71800231933594 145.72999572753906,262.7590026855469 167.5959930419922,306.06500244140625 C176.66799926757812,324.0320129394531 182.09300231933594,343.4809875488281 185.16299438476562,363.4649963378906 C186.11399841308594,369.656005859375 185.38699340820312,372.1499938964844 179.4709930419922,374.2019958496094 C164.2790069580078,379.4739990234375 149.04299926757812,384.8370056152344 133.46499633789062,388.72601318359375 C107.86499786376953,395.11700439453125 81.93399810791016,400.0849914550781 55.5260009765625,401.97198486328125 C54.35599899291992,402.0559997558594 53.18199920654297,402.1310119628906 52.0099983215332,402.1390075683594 C37.65999984741211,402.2439880371094 34.13199996948242,399.67999267578125 29.451000213623047,386.23199462890625 C5.949999809265137,318.7179870605469 -16.19099998474121,250.75399780273438 -36.21099853515625,182.13499450683594 C-46.13399887084961,148.1199951171875 -54.323001861572266,113.5999984741211 -63.33100128173828,79.31800079345703 C-64.11199951171875,76.34700012207031 -64.93000030517578,73.35099792480469 -66.11799621582031,70.52899932861328 C-69.76799774169922,61.862998962402344 -78.36000061035156,59.60200119018555 -85.43099975585938,65.7750015258789 C-106.76100158691406,84.39600372314453 -128.14300537109375,102.96700286865234 -149.06700134277344,122.03700256347656 C-173.79100036621094,144.57000732421875 -197.8509979248047,167.83200073242188 -222.64300537109375,190.28700256347656 C-230.51400756835938,197.4149932861328 -239.56900024414062,203.3459930419922 -248.53799438476562,209.11500549316406 C-254.78900146484375,213.13499450683594 -256.57000732421875,212.4600067138672 -258.8739929199219,205.57899475097656 C-260.9880065917969,199.26499938964844 -263.0299987792969,192.5050048828125 -262.97100830078125,185.96099853515625 C-262.7569885253906,162.50999450683594 -261.87701416015625,139.05599975585938 -260.7869873046875,115.6240005493164 C-259.8940124511719,96.43900299072266 -258.57000732421875,77.26699829101562 -257.0199890136719,58.12200164794922 C-255.41200256347656,38.255001068115234 -253.47000122070312,18.410999298095703 -251.36700439453125,-1.409999966621399 C-249.06199645996094,-23.125 -246.35499572753906,-44.79800033569336 -243.91799926757812,-66.4990005493164 C-241.57899475097656,-87.3270034790039 -239.2010040283203,-108.1520004272461 -237.13299560546875,-129.00799560546875 C-235.06500244140625,-149.8679962158203 -233.15499877929688,-170.74899291992188 -231.5489959716797,-191.6490020751953 C-229.66299438476562,-216.20899963378906 -227.76100158691406,-240.781005859375 -226.6439971923828,-265.38299560546875 C-225.63999938964844,-287.5050048828125 -225.6649932861328,-309.6759948730469 -225.28199768066406,-331.82598876953125 C-224.9969940185547,-348.40301513671875 -224.75599670410156,-364.98199462890625 -224.55499267578125,-381.5610046386719 C-224.4709930419922,-388.43701171875 -224.54100036621094,-395.31500244140625 -224.54100036621094,-402.2439880371094z"/></g></g></g></svg>