<svg xmlns="http://www.w3.org/2000/svg" xmlns:xlink="http://www.w3.org/1999/xlink" viewBox="0 0 1900 1900" width="1900" height="1900" preserveAspectRatio="xMidYMid meet" style="width: 100%; height: 100%; transform: translate3d(0px, 0px, 0px); content-visibility: visible;"><defs><clipPath id="__lottie_element_1002"><rect width="1900" height="1900" x="0" y="0"/></clipPath><g id="__lottie_element_1003"><g transform="matrix(1,0,0,1,950,950)" opacity="1" style="display: block;"><g opacity="1" transform="matrix(1,0,0,1,0,0)"><path fill="url(#__lottie_element_1006)" fill-opacity="1" d=" M-62,424 C-62,424 -182,762 -182,762 C-182,762 64,774 64,774 C64,774 -62,424 -62,424z"/></g></g></g><radialGradient id="__lottie_element_1006" spreadMethod="pad" gradientUnits="userSpaceOnUse" cx="0" cy="0" r="100" fx="0" fy="0"><stop offset="0%" stop-color="rgb(255,240,9)"/><stop offset="50%" stop-color="rgb(255,120,17)"/><stop offset="100%" stop-color="rgb(255,0,24)"/></radialGradient><filter id="__lottie_element_1010" filterUnits="objectBoundingBox" x="0%" y="0%" width="100%" height="100%"><feComponentTransfer in="SourceGraphic"><feFuncA type="table"/></feComponentTransfer></filter><mask id="__lottie_element_1003_2"><g filter="url(#__lottie_element_1010)"><rect width="1900" height="1900" x="0" y="0" fill="#ffffff" opacity="0"/></g></mask><g id="__lottie_element_1011"><g transform="matrix(1,0,0,1,950,950)" opacity="1" style="display: block;"><g opacity="1" transform="matrix(1,0,0,1,0,0)"><path fill="url(#__lottie_element_1014)" fill-opacity="1" d=" M-62,424 C-62,424 -182,762 -182,762 C-182,762 64,774 64,774 C64,774 -62,424 -62,424z"/></g></g></g><radialGradient id="__lottie_element_1014" spreadMethod="pad" gradientUnits="userSpaceOnUse" cx="0" cy="0" r="100" fx="0" fy="0"><stop offset="0%" stop-color="rgb(255,240,9)"/><stop offset="50%" stop-color="rgb(255,120,17)"/><stop offset="100%" stop-color="rgb(255,0,24)"/></radialGradient><filter id="__lottie_element_1018" filterUnits="objectBoundingBox" x="0%" y="0%" width="100%" height="100%"><feComponentTransfer in="SourceGraphic"><feFuncA type="table"/></feComponentTransfer></filter><mask id="__lottie_element_1011_2"><g filter="url(#__lottie_element_1018)"><rect width="1900" height="1900" x="0" y="0" fill="#ffffff" opacity="0"/></g></mask></defs><g clip-path="url(#__lottie_element_1002)"><g mask="url(#__lottie_element_1011_2)" style="display: none;"><g><g><path stroke-linecap="butt" stroke-linejoin="miter" fill-opacity="0" stroke-miterlimit="4"/></g><g><path stroke-linecap="butt" stroke-linejoin="miter" fill-opacity="0" stroke-miterlimit="4"/></g></g></g><g mask="url(#__lottie_element_1003_2)" style="display: none;"><g><g><path stroke-linecap="butt" stroke-linejoin="miter" fill-opacity="0" stroke-miterlimit="4"/></g><g><path stroke-linecap="butt" stroke-linejoin="miter" fill-opacity="0" stroke-miterlimit="4"/></g></g></g></g></svg>