<svg xmlns="http://www.w3.org/2000/svg" xmlns:xlink="http://www.w3.org/1999/xlink" viewBox="0 0 1900 1900" width="1900" height="1900" preserveAspectRatio="xMidYMid meet" style="width: 100%; height: 100%; transform: translate3d(0px, 0px, 0px); content-visibility: visible;"><defs><clipPath id="__lottie_element_515"><rect width="1900" height="1900" x="0" y="0"/></clipPath><clipPath id="__lottie_element_517"><path d="M0,0 L730,0 L730,246 L0,246z"/></clipPath><clipPath id="__lottie_element_527"><path d="M0,0 L896,0 L896,584 L0,584z"/></clipPath></defs><g clip-path="url(#__lottie_element_515)"><g clip-path="url(#__lottie_element_527)" transform="matrix(1,0,0,1,946,90)" opacity="1" style="display: block;"><g transform="matrix(1,0,0,1,86,5)" opacity="1" style="display: block;"><g opacity="1" transform="matrix(1,0,0,1,342.3559875488281,295.22698974609375)"><path fill="rgb(255,254,255)" fill-opacity="1" d=" M195.60499572753906,90.2030029296875 C191.17599487304688,81.51899719238281 186.01699829101562,73.05500030517578 180.08399963378906,65.32099914550781 C164.35699462890625,44.81999969482422 147.5760040283203,25.115999221801758 132.1269989013672,4.414999961853027 C114.75399780273438,-18.864999771118164 95.66699981689453,-40.52000045776367 74.87100219726562,-60.724998474121094 C73.16899871826172,-62.37900161743164 71.06500244140625,-63.64099884033203 69.07099914550781,-64.96900177001953 C59.369998931884766,-71.43299865722656 49.24100112915039,-77.33399963378906 40.01900100708008,-84.41899871826172 C33.909000396728516,-89.11499786376953 31.246999740600586,-92.11299896240234 28.839000701904297,-93.0250015258789 C0.46299999952316284,-124.16699981689453 -47.07899856567383,-152.5709991455078 -54.3849983215332,-159.38400268554688 C-55.52000045776367,-160.44200134277344 -56.91299819946289,-161.18699645996094 -58.39799880981445,-161.63299560546875 C-58.52899932861328,-161.6719970703125 -74.76599884033203,-163.64999389648438 -74.89600372314453,-163.68899536132812 C-94.11599731445312,-169.3820037841797 -113.81999969482422,-167.91200256347656 -133.4149932861328,-167.17599487304688 C-140.94500732421875,-166.89300537109375 -148.46400451660156,-165.552001953125 -155.9029998779297,-164.2169952392578 C-157.4980010986328,-163.93099975585938 -159.6529998779297,-161.7729949951172 -159.9810028076172,-160.1580047607422 C-164.23300170898438,-139.23500061035156 -168.3730010986328,-118.28399658203125 -172.20399475097656,-97.27899932861328 C-178.9709930419922,-60.178001403808594 -184.46499633789062,-22.802000045776367 -196.45700073242188,13.140999794006348 C-197.43299865722656,16.065000534057617 -195.92599487304688,17.040000915527344 -193.95899963378906,18.427000045776367 C-187.06500244140625,23.288000106811523 -179.8260040283203,27.799999237060547 -173.5570068359375,33.38600158691406 C-137.8070068359375,65.24500274658203 -102.4000015258789,97.48999786376953 -66.6510009765625,129.35000610351562 C-54.97700119018555,139.7550048828125 -42.89400100708008,149.7530059814453 -30.447999954223633,159.21299743652344 C-25.658000946044922,162.85400390625 -19.52400016784668,165.0850067138672 -13.67199993133545,166.8769989013672 C-5.49399995803833,169.38099670410156 6.3379998207092285,164.2779998779297 10.404999732971191,157.5760040283203 C12.680999755859375,153.82699584960938 15.248000144958496,150.25599670410156 18.042999267578125,146.0659942626953 C17.334999084472656,145.18800354003906 16.184999465942383,143.7239990234375 14.998000144958496,142.29400634765625 C-0.4059999883174896,123.73600006103516 -15.850000381469727,105.21099853515625 -31.176000595092773,86.58899688720703 C-33.005001068115234,84.36699676513672 -34.9370002746582,81.76599884033203 -35.4630012512207,79.07499694824219 C-35.91899871826172,76.74800109863281 -35.207000732421875,73.21900177001953 -33.606998443603516,71.73799896240234 C-32.0099983215332,70.25900268554688 -28.576000213623047,70.05999755859375 -26.121999740600586,70.43599700927734 C-24.13599967956543,70.74099731445312 -22.17099952697754,72.48999786376953 -20.610000610351562,74.0199966430664 C-15.446000099182129,79.08200073242188 -10.309000015258789,84.19000244140625 -5.451000213623047,89.54299926757812 C10.180000305175781,106.76599884033203 25.760000228881836,124.03800201416016 41.20399856567383,141.4290008544922 C51.04399871826172,152.50999450683594 63.483001708984375,155.66900634765625 77.62799835205078,154.2209930419922 C80.9990005493164,153.87600708007812 82.51899719238281,152.22500610351562 83.12799835205078,148.64700317382812 C83.89800262451172,144.1230010986328 85.76899719238281,139.78700256347656 87.46600341796875,134.42100524902344 C87.90799713134766,134.94200134277344 87.37300109863281,134.2830047607422 86.80799865722656,133.6510009765625 C70.50199890136719,115.41899871826172 53.99399948120117,97.36199951171875 37.972999572753906,78.88200378417969 C30.76799964904785,70.57099914550781 24.464000701904297,61.46799850463867 17.893999099731445,52.619998931884766 C15.45199966430664,49.33100128173828 14.425999641418457,45.4900016784668 17.92799949645996,42.362998962402344 C21.628999710083008,39.05799865722656 25.389999389648438,40.63600158691406 28.511999130249023,43.625999450683594 C31.867000579833984,46.8390007019043 35.0260009765625,50.262001037597656 38.19200134277344,53.667999267578125 C56.95800018310547,73.85800170898438 75.48999786376953,94.2699966430664 94.572998046875,114.15399932861328 C100.71499633789062,120.55400085449219 108.09200286865234,125.84500122070312 115.25700378417969,131.16799926757812 C125.18800354003906,138.5449981689453 136.14500427246094,138.42999267578125 147.14100646972656,133.89100646972656 C148.7550048828125,133.22500610351562 150.33700561523438,130.5030059814453 150.46200561523438,128.6320037841797 C150.71200561523438,124.89900207519531 149.5070037841797,121.07099914550781 149.718994140625,117.3290023803711 C149.91600036621094,113.8280029296875 148.7570037841797,111.61299896240234 146.24600219726562,109.33000183105469 C132.99099731445312,97.2760009765625 119.46900177001953,85.47000122070312 106.86699676513672,72.75700378417969 C95.50299835205078,61.29399871826172 85,48.94900131225586 74.52999877929688,36.641998291015625 C69.61100006103516,30.861000061035156 68.18299865722656,23.527999877929688 68.18499755859375,15.104000091552734 C76.91999816894531,17.625 83.28600311279297,22.29599952697754 89.22000122070312,27.875999450683594 C112.31099700927734,49.59199905395508 135.3459930419922,71.375 158.76199340820312,92.73799896240234 C165.5709991455078,98.94999694824219 173.2779998779297,104.33599853515625 181.13800048828125,109.18499755859375 C187.23500061035156,112.9469985961914 194.41900634765625,110 196.33900451660156,103.02200317382812 C197.4320068359375,99.05000305175781 197.41099548339844,93.74299621582031 195.60499572753906,90.2030029296875z"/></g><g opacity="1" transform="matrix(1,0,0,1,101.46399688720703,218.51400756835938)"><path fill="rgb(255,254,255)" fill-opacity="1" d=" M-10.562000274658203,-126.55599975585938 C7.050000190734863,-126.02300262451172 25.354999542236328,-122.1969985961914 43.17300033569336,-115.90799713134766 C45.60100173950195,-115.05000305175781 47.979000091552734,-113.99400329589844 50.268001556396484,-112.81300354003906 C57.340999603271484,-109.16400146484375 61.57600021362305,-103.625 60.345001220703125,-95.34100341796875 C58.069000244140625,-80.03099822998047 55.805999755859375,-64.70700073242188 52.95500183105469,-49.49700164794922 C46.577999114990234,-15.472999572753906 40.321998596191406,18.586000442504883 33.08000183105469,52.43000030517578 C28.61400032043457,73.3010025024414 22.340999603271484,93.73400115966797 12.723999977111816,113.0250015258789 C8.47700023651123,121.54299926757812 2.828000068664551,126.29399871826172 -7.026000022888184,126.84400177001953 C-21.308000564575195,127.64199829101562 -35.25400161743164,126.01699829101562 -48.981998443603516,122.5780029296875 C-58.73500061035156,120.13400268554688 -61.57600021362305,115.58499908447266 -60.494998931884766,105.46800231933594 C-58.902000427246094,90.56900024414062 -56.67100143432617,75.73300170898438 -55.29399871826172,60.81700134277344 C-50.590999603271484,9.868000030517578 -46.11600112915039,-41.10200119018555 -41.63199996948242,-92.07099914550781 C-41.14899826049805,-97.55599975585938 -40.95100021362305,-103.08899688720703 -41.04499816894531,-108.59200286865234 C-41.097999572753906,-111.68699645996094 -40.505001068115234,-113.78600311279297 -37.50699996948242,-115.23100280761719 C-35.720001220703125,-116.09100341796875 -33.750999450683594,-117.5270004272461 -32.90399932861328,-119.2239990234375 C-29.145999908447266,-126.75499725341797 -22.756999969482422,-127.64199829101562 -15.491000175476074,-126.81999969482422 C-14.295000076293945,-126.68499755859375 -13.083000183105469,-126.68599700927734 -10.562000274658203,-126.55599975585938z"/></g><g opacity="1" transform="matrix(1,0,0,1,101.46399688720703,218.51400756835938)"><path fill="rgb(255,254,255)" fill-opacity="1" d=" M-10.562000274658203,-126.55599975585938 C7.050000190734863,-126.02300262451172 25.354999542236328,-122.1969985961914 43.17300033569336,-115.90799713134766 C45.60100173950195,-115.05000305175781 47.979000091552734,-113.99400329589844 50.268001556396484,-112.81300354003906 C57.340999603271484,-109.16400146484375 61.57600021362305,-103.625 60.345001220703125,-95.34100341796875 C58.069000244140625,-80.03099822998047 55.805999755859375,-64.70700073242188 52.95500183105469,-49.49700164794922 C46.577999114990234,-15.472999572753906 40.321998596191406,18.586000442504883 33.08000183105469,52.43000030517578 C28.61400032043457,73.3010025024414 22.340999603271484,93.73400115966797 12.723999977111816,113.0250015258789 C8.47700023651123,121.54299926757812 2.828000068664551,126.29399871826172 -7.026000022888184,126.84400177001953 C-21.308000564575195,127.64199829101562 -35.25400161743164,126.01699829101562 -48.981998443603516,122.5780029296875 C-58.73500061035156,120.13400268554688 -61.57600021362305,115.58499908447266 -60.494998931884766,105.46800231933594 C-58.902000427246094,90.56900024414062 -56.67100143432617,75.73300170898438 -55.29399871826172,60.81700134277344 C-50.590999603271484,9.868000030517578 -46.11600112915039,-41.10200119018555 -41.63199996948242,-92.07099914550781 C-41.14899826049805,-97.55599975585938 -40.95100021362305,-103.08899688720703 -41.04499816894531,-108.59200286865234 C-41.097999572753906,-111.68699645996094 -40.505001068115234,-113.78600311279297 -37.50699996948242,-115.23100280761719 C-35.720001220703125,-116.09100341796875 -33.750999450683594,-117.5270004272461 -32.90399932861328,-119.2239990234375 C-29.145999908447266,-126.75499725341797 -22.756999969482422,-127.64199829101562 -15.491000175476074,-126.81999969482422 C-14.295000076293945,-126.68499755859375 -13.083000183105469,-126.68599700927734 -10.562000274658203,-126.55599975585938z"/></g><g opacity="1" transform="matrix(1,0,0,1,292.49798583984375,276.1050109863281)"><path fill="rgb(0,0,0)" fill-opacity="1" d=" M267.4830017089844,107.2300033569336 C265.12701416015625,99.96900177001953 260.7049865722656,93.3740005493164 257.1700134277344,86.50399780273438 C256.9809875488281,86.13500213623047 256.7770080566406,85.77300262451172 256.56500244140625,85.41100311279297 C255.16600036621094,84.05899810791016 253.89999389648438,82.56900024414062 252.81199645996094,80.95999908447266 C252.802001953125,80.94499969482422 252.79100036621094,80.93000030517578 252.77999877929688,80.91500091552734 C248.49400329589844,76.02200317382812 244.88400268554688,70.5770034790039 241.52999877929688,65.01399993896484 C240.69000244140625,64.72799682617188 239.906005859375,64.08899688720703 239.04200744628906,63.01300048828125 C224.8040008544922,45.28499984741211 210.58299255371094,27.540000915527344 196.0709991455078,10.036999702453613 C183.32699584960938,-5.333000183105469 170.21099853515625,-20.395999908447266 157.26100158691406,-35.595001220703125 C156.5260009765625,-36.45800018310547 155.80299377441406,-37.33100128173828 154.6230010986328,-38.73699951171875 C154.98300170898438,-38.76900100708008 155.33200073242188,-38.797000885009766 155.68499755859375,-38.82600021362305 C150.11300659179688,-44.1349983215332 144.62399291992188,-49.53499984741211 139.1020050048828,-54.89899826049805 C133.95399475097656,-59.31800079345703 128.97500610351562,-63.91899871826172 124.44599914550781,-68.99099731445312 C121.2490005493164,-70.77999877929688 118.18900299072266,-72.96900177001953 115.26300048828125,-75.69300079345703 C109.06500244140625,-81.46399688720703 101.75299835205078,-86.10399627685547 94.427001953125,-90.61599731445312 C91.51200103759766,-93.24500274658203 69.04900360107422,-113.36299896240234 49.02299880981445,-127.0250015258789 C41.42900085449219,-132.20700073242188 -3.994999885559082,-157.64100646972656 -8.732999801635742,-160.29200744628906 C-8.70199966430664,-160.3280029296875 -8.67300033569336,-160.36700439453125 -8.640999794006348,-160.4040069580078 C-10.753999710083008,-161.4219970703125 -12.984000205993652,-162.26300048828125 -15.279000282287598,-163.02999877929688 C-34.29600143432617,-169.3820037841797 -53.90399932861328,-169.63900756835938 -73.58399963378906,-168.6060028076172 C-85.39900207519531,-167.98599243164062 -97.1780014038086,-166.677001953125 -108.51799774169922,-165.71600341796875 C-111.16100311279297,-170.43499755859375 -113.38500213623047,-175.50900268554688 -116.58100128173828,-179.8699951171875 C-122.26699829101562,-187.6300048828125 -130.51800537109375,-192.0760040283203 -139.38099670410156,-195.29400634765625 C-163.41700744628906,-204.02099609375 -188.2209930419922,-208.59300231933594 -213.82000732421875,-208.25100708007812 C-230.85800170898438,-208.0229949951172 -239.41799926757812,-199.85899353027344 -241.17100524902344,-182.99099731445312 C-241.32400512695312,-181.51600646972656 -242.19500732421875,-179.2779998779297 -243.281005859375,-178.87600708007812 C-249.0229949951172,-176.74899291992188 -250.12899780273438,-172.0590057373047 -250.64700317382812,-166.906005859375 C-256.05999755859375,-113.0719985961914 -261.4309997558594,-59.23400115966797 -266.885009765625,-5.40500020980835 C-268.67401123046875,12.24899959564209 -271.23199462890625,29.8439998626709 -272.42498779296875,47.534000396728516 C-273.73699951171875,66.9800033569336 -264.64599609375,79.60299682617188 -245.89300537109375,84.74400329589844 C-226.42100524902344,90.08300018310547 -206.63699340820312,91.53099822998047 -186.5590057373047,87.49600219726562 C-176.36199951171875,85.4469985961914 -168.7790069580078,80.41500091552734 -163.7259979248047,71.45700073242188 C-160.1820068359375,65.1729965209961 -156.7469940185547,58.82699966430664 -152.86199951171875,51.779998779296875 C-149.56900024414062,54.37099838256836 -146.47000122070312,56.542999267578125 -143.6750030517578,59.053001403808594 C-125.98500061035156,74.94100189208984 -108.23799896240234,90.76799774169922 -90.74800109863281,106.8740005493164 C-66.03099822998047,129.63499450683594 -41.577999114990234,152.6840057373047 -16.893999099731445,175.47999572753906 C-5.714000225067139,185.80499267578125 6.363999843597412,194.927001953125 20.288000106811523,201.37100219726562 C35.89500045776367,208.59300231933594 50.95000076293945,207.79800415039062 65.64399719238281,198.73800659179688 C72.9469985961914,194.23500061035156 78.2300033569336,188.2779998779297 80.19300079345703,179.24600219726562 C82.2030029296875,180.8090057373047 83.52100372314453,181.88299560546875 84.88700103759766,182.89100646972656 C99.43900299072266,193.6300048828125 115.77200317382812,197.07699584960938 133.33700561523438,193.76699829101562 C147.57400512695312,191.08399963378906 153.718994140625,182.81700134277344 153.49400329589844,168.34800720214844 C153.49099731445312,168.09500122070312 153.83999633789062,167.83599853515625 154.2220001220703,167.30499267578125 C155.0760040283203,167.69900512695312 156.03799438476562,168.01199340820312 156.86000061035156,168.54200744628906 C173.1790008544922,179.05599975585938 190.08999633789062,178.16900634765625 207.31100463867188,171.1840057373047 C214.44900512695312,168.2899932861328 219.54100036621094,163.4980010986328 221.0800018310547,155.66099548339844 C221.57200622558594,153.1580047607422 221.6959991455078,150.58399963378906 222.03199768066406,147.6580047607422 C224.02099609375,148.27499389648438 225.75799560546875,149.10400390625 227.56900024414062,149.32000732421875 C232.2969970703125,149.88400268554688 237.2310028076172,151.1909942626953 241.7729949951172,150.406005859375 C261.4049987792969,147.01300048828125 273.7359924316406,126.5009994506836 267.4830017089844,107.2300033569336z M-157.95399475097656,-5.160999774932861 C-162.4199981689453,15.710000038146973 -168.6929931640625,36.143001556396484 -178.30999755859375,55.433998107910156 C-182.5570068359375,63.95199966430664 -188.20599365234375,68.7030029296875 -198.05999755859375,69.25299835205078 C-212.3419952392578,70.0510025024414 -226.28700256347656,68.4260025024414 -240.01499938964844,64.98699951171875 C-249.76800537109375,62.542999267578125 -252.60899353027344,57.99399948120117 -251.5279998779297,47.87699890136719 C-249.93499755859375,32.97800064086914 -247.70399475097656,18.142000198364258 -246.32699584960938,3.2260000705718994 C-241.62399291992188,-47.722999572753906 -237.14999389648438,-98.69400024414062 -232.66600036621094,-149.66200256347656 C-232.18299865722656,-155.14700317382812 -231.98399353027344,-160.6790008544922 -232.0780029296875,-166.18299865722656 C-232.13099670410156,-169.2790069580078 -231.53799438476562,-171.3769989013672 -228.5399932861328,-172.82200622558594 C-226.7530059814453,-173.6820068359375 -224.78500366210938,-175.1179962158203 -223.93800354003906,-176.81500244140625 C-220.17999267578125,-184.3459930419922 -213.79100036621094,-185.23399353027344 -206.52499389648438,-184.41200256347656 C-205.32899475097656,-184.27699279785156 -204.11700439453125,-184.2779998779297 -201.5959930419922,-184.1479949951172 C-183.98399353027344,-183.61599731445312 -165.6790008544922,-179.78799438476562 -147.86099243164062,-173.49899291992188 C-145.43299865722656,-172.64199829101562 -143.05499267578125,-171.5850067138672 -140.76600646972656,-170.4040069580078 C-133.6929931640625,-166.7550048828125 -129.45799255371094,-161.21600341796875 -130.68899536132812,-152.9320068359375 C-132.96499633789062,-137.6219940185547 -135.22799682617188,-122.2979965209961 -138.07899475097656,-107.08799743652344 C-144.45599365234375,-73.06400299072266 -150.71200561523438,-39.005001068115234 -157.95399475097656,-5.160999774932861z M246.19700622558594,122.14399719238281 C244.27699279785156,129.1219940185547 237.09300231933594,132.06900024414062 230.99600219726562,128.3070068359375 C223.13600158691406,123.45800018310547 215.42799377441406,118.0719985961914 208.61900329589844,111.86000061035156 C185.2030029296875,90.49700164794922 162.16900634765625,68.71399688720703 139.0780029296875,46.99800109863281 C133.1439971923828,41.417999267578125 126.77799987792969,36.74700164794922 118.04299926757812,34.22600173950195 C118.04100036621094,42.650001525878906 119.46900177001953,49.983001708984375 124.38800048828125,55.763999938964844 C134.85800170898438,68.07099914550781 145.36099243164062,80.41600036621094 156.72500610351562,91.87899780273438 C169.32699584960938,104.59200286865234 182.8489990234375,116.39800262451172 196.10400390625,128.45199584960938 C198.61500549316406,130.73500061035156 199.7729949951172,132.9499969482422 199.5760040283203,136.4510040283203 C199.36399841308594,140.1929931640625 200.57000732421875,144.02000427246094 200.32000732421875,147.7530059814453 C200.19500732421875,149.62399291992188 198.61199951171875,152.3470001220703 196.9980010986328,153.01300048828125 C186.0019989013672,157.552001953125 175.04600524902344,157.66600036621094 165.11500549316406,150.28900146484375 C157.9499969482422,144.96600341796875 150.572998046875,139.67599487304688 144.43099975585938,133.2760009765625 C125.3479995727539,113.39199829101562 106.81600189208984,92.97899627685547 88.05000305175781,72.78900146484375 C84.88400268554688,69.38300323486328 81.7249984741211,65.95999908447266 78.37000274658203,62.74700164794922 C75.24800109863281,59.75699996948242 71.48699951171875,58.17900085449219 67.78600311279297,61.48400115966797 C64.28399658203125,64.61100006103516 65.30999755859375,68.4530029296875 67.75199890136719,71.74199676513672 C74.3219985961914,80.58999633789062 80.6259994506836,89.69200134277344 87.83100128173828,98.00299835205078 C103.85199737548828,116.48300170898438 120.36000061035156,134.54100036621094 136.66600036621094,152.7729949951172 C137.2310028076172,153.40499877929688 137.76600646972656,154.06399536132812 137.32400512695312,153.54299926757812 C135.6269989013672,158.90899658203125 133.75599670410156,163.2449951171875 132.98599243164062,167.7689971923828 C132.3769989013672,171.3470001220703 130.85699462890625,172.9980010986328 127.48600006103516,173.34300231933594 C113.34100341796875,174.79100036621094 100.9020004272461,171.63099670410156 91.06199645996094,160.5500030517578 C75.61799621582031,143.15899658203125 60.03799819946289,125.88800048828125 44.40700149536133,108.66500091552734 C39.54899978637695,103.31199645996094 34.4119987487793,98.2040023803711 29.24799919128418,93.14199829101562 C27.687000274658203,91.61199951171875 25.722000122070312,89.86299896240234 23.736000061035156,89.55799865722656 C21.281999588012695,89.18199920654297 17.847999572753906,89.37999725341797 16.250999450683594,90.85900115966797 C14.651000022888184,92.33999633789062 13.939000129699707,95.87000274658203 14.395000457763672,98.1969985961914 C14.920999526977539,100.88800048828125 16.85300064086914,103.48899841308594 18.68199920654297,105.71099853515625 C34.007999420166016,124.33300018310547 49.45199966430664,142.85800170898438 64.85600280761719,161.41600036621094 C66.04299926757812,162.8459930419922 67.19300079345703,164.3090057373047 67.9010009765625,165.18699645996094 C65.10600280761719,169.3769989013672 62.53900146484375,172.94900512695312 60.26300048828125,176.697998046875 C56.19599914550781,183.39999389648438 44.36399841308594,188.5030059814453 36.18600082397461,185.99899291992188 C30.333999633789062,184.20700073242188 24.200000762939453,181.97500610351562 19.40999984741211,178.33399963378906 C6.964000225067139,168.87399291992188 -5.119999885559082,158.87600708007812 -16.79400062561035,148.4709930419922 C-52.542999267578125,116.61100006103516 -87.9489974975586,84.36699676513672 -123.6989974975586,52.507999420166016 C-129.96800231933594,46.922000885009766 -137.20700073242188,42.40999984741211 -144.1009979248047,37.54899978637695 C-146.0679931640625,36.1619987487793 -147.5749969482422,35.1870002746582 -146.5989990234375,32.26300048828125 C-134.60699462890625,-3.680000066757202 -129.11300659179688,-41.055999755859375 -122.34600067138672,-78.15699768066406 C-118.51499938964844,-99.16200256347656 -114.375,-120.11299896240234 -110.12300109863281,-141.03599548339844 C-109.79499816894531,-142.6510009765625 -107.63999938964844,-144.8090057373047 -106.04499816894531,-145.09500122070312 C-98.60600280761719,-146.42999267578125 -91.08699798583984,-147.77099609375 -83.55699920654297,-148.0540008544922 C-63.96200180053711,-148.7899932861328 -44.257999420166016,-150.25999450683594 -25.038000106811523,-144.56700134277344 C-23.770000457763672,-144.1909942626953 -22.507999420166016,-143.79299926757812 -21.25,-143.38299560546875 C-21.16900062561035,-143.4770050048828 -21.083999633789062,-143.5679931640625 -21.003000259399414,-143.66200256347656 C-16.92099952697754,-141.3560028076172 20.2549991607666,-120.28199768066406 34.78300094604492,-109.7770004272461 C55.071998596191406,-95.10600280761719 72.56300354003906,-80.44000244140625 79.3270034790039,-74.65299987792969 C79.11699676513672,-74.40299987792969 78.90799713134766,-74.1520004272461 78.6969985961914,-73.90299987792969 C81.1050033569336,-72.99099731445312 83.76699829101562,-69.99299621582031 89.87699890136719,-65.2969970703125 C99.0989990234375,-58.21200180053711 109.22799682617188,-52.31100082397461 118.92900085449219,-45.84700012207031 C120.9229965209961,-44.51900100708008 123.0270004272461,-43.257999420166016 124.72899627685547,-41.604000091552734 C145.52499389648438,-21.39900016784668 164.61199951171875,0.25699999928474426 181.98500061035156,23.53700065612793 C197.4340057373047,44.237998962402344 214.21499633789062,63.941001892089844 229.94200134277344,84.44200134277344 C235.875,92.1760025024414 241.03399658203125,100.64099884033203 245.46299743652344,109.32499694824219 C247.2689971923828,112.86499786376953 247.2899932861328,118.1719970703125 246.19700622558594,122.14399719238281z"/></g></g><g transform="matrix(1,0,0,1,-172,-16)" opacity="1" style="display: block;"><g opacity="1" transform="matrix(1,0,0,1,698.2620239257812,230.80599975585938)"><path fill="rgb(0,0,0)" fill-opacity="1" d=" M219.04100036621094,35.21099853515625 C214.07200622558594,10.585000038146973 207.98300170898438,-13.836000442504883 201.67300415039062,-38.16299819946289 C196.5290069580078,-57.999000549316406 190.38400268554688,-77.57499694824219 184.64599609375,-97.25599670410156 C179.0399932861328,-116.48600006103516 166.0760040283203,-127.38400268554688 146.47500610351562,-130.39700317382812 C141.5709991455078,-131.14999389648438 136.45799255371094,-131.60299682617188 131.5540008544922,-131.0970001220703 C118.71800231933594,-129.77200317382812 105.86900329589844,-128.26600646972656 93.16799926757812,-126.02400207519531 C82.16600036621094,-124.08200073242188 71.13500213623047,-121.73100280761719 60.51900100708008,-118.30999755859375 C43.79899978637695,-112.9229965209961 37.111000061035156,-98.36900329589844 42.60900115966797,-81.73500061035156 C43.27399826049805,-79.72100067138672 43.5359992980957,-77.57499694824219 44.11000061035156,-74.90799713134766 C41.99700164794922,-75.16899871826172 40.5989990234375,-75.0989990234375 39.37799835205078,-75.53099822998047 C29.82200050354004,-78.91899871826172 19.7189998626709,-81.31900024414062 10.878999710083008,-86.06400299072266 C-13.845000267028809,-99.33300018310547 -38.25699996948242,-113.22599792480469 -62.35900115966797,-127.5979995727539 C-74.61299896240234,-134.90499877929688 -86.88099670410156,-137.1219940185547 -100.3740005493164,-132.77999877929688 C-103.81500244140625,-131.6719970703125 -107.24199676513672,-130.5070037841797 -110.63200378417969,-129.2519989013672 C-125.23500061035156,-123.84700012207031 -137.62899780273438,-114.7490005493164 -150.2169952392578,-105.9749984741211 C-152.12600708007812,-103.38700103759766 -154.4770050048828,-101.11199951171875 -157.15899658203125,-99.33899688720703 C-161.08299255371094,-96.74500274658203 -165.07699584960938,-94.25800323486328 -168.96800231933594,-91.61299896240234 C-169.8730010986328,-90.99800109863281 -170.76300048828125,-90.36199951171875 -171.6580047607422,-89.73200225830078 C-171.75900268554688,-89.4739990234375 -172.03500366210938,-89.1449966430664 -172.4029998779297,-88.78500366210938 C-172.1790008544922,-88.50299835205078 -171.95599365234375,-88.22100067138672 -171.73199462890625,-87.93900299072266 C-173.3719940185547,-87.03800201416016 -175.3459930419922,-86.46600341796875 -176.6020050048828,-85.18800354003906 C-198.67799377441406,-62.71099853515625 -214.73699951171875,-36.71099853515625 -220.85699462890625,-5.513999938964844 C-222.57699584960938,3.256999969482422 -222.73399353027344,12.743000030517578 -221.4739990234375,21.597000122070312 C-219.46499633789062,35.70800018310547 -208.3560028076172,42.79499816894531 -194.33999633789062,40.22100067138672 C-175.46800231933594,36.75400161743164 -158.96200561523438,27.930999755859375 -143.6840057373047,16.70199966430664 C-128.83099365234375,5.785999774932861 -114.32599639892578,-5.605999946594238 -99.40699768066406,-16.427000045776367 C-83.22899627685547,-28.160999298095703 -87.31800079345703,-26.302000045776367 -73.32599639892578,-15.550000190734863 C-64.1050033569336,-8.46399974822998 -53.974998474121094,-2.563999891281128 -44.27399826049805,3.9000000953674316 C-42.28099822998047,5.228000164031982 -40.17599868774414,6.488999843597412 -38.4739990234375,8.142999649047852 C-17.679000854492188,28.349000930786133 1.4079999923706055,50.00400161743164 18.781999588012695,73.28399658203125 C34.09000015258789,93.7959976196289 50.70199966430664,113.33100128173828 66.30400085449219,133.6300048828125 C69.93599700927734,133.85400390625 73.55799865722656,134.89300537109375 76.88800048828125,136.82000732421875 C77.052001953125,136.9149932861328 77.20899963378906,137.0240020751953 77.37100219726562,137.1219940185547 C78.02799987792969,136.80099487304688 78.68599700927734,136.48399353027344 79.34100341796875,136.15699768066406 C80.55699920654297,135.5500030517578 81.78800201416016,135.06100463867188 83.02400207519531,134.63600158691406 C85.70600128173828,133.18099975585938 88.5009994506836,132.2760009765625 91.302001953125,131.86700439453125 C91.19499969482422,131.69700622558594 91.09200286865234,131.53799438476562 90.98300170898438,131.36199951171875 C98.18499755859375,127.78099822998047 103.82099914550781,123.48799896240234 105.63400268554688,115.8010025024414 C124.4520034790039,130.15899658203125 144.7689971923828,133.95599365234375 165.97000122070312,127.0999984741211 C179.41000366210938,122.75399780273438 191.96400451660156,115.48500061035156 204.61599731445312,108.94499969482422 C213.63299560546875,104.28500366210938 218.10699462890625,96.05699920654297 219.80999755859375,86.13700103759766 C222.73399353027344,69.09700012207031 222.41799926757812,51.94499969482422 219.04100036621094,35.21099853515625z M82.29000091552734,114.0260009765625 C79.39600372314453,115.52999877929688 77.84300231933594,115.25599670410156 75.83799743652344,112.76000213623047 C61.599998474121094,95.03199768066406 47.37900161743164,77.28800201416016 32.867000579833984,59.78499984741211 C20.12299919128418,44.41400146484375 7.007999897003174,29.351999282836914 -5.942999839782715,14.152000427246094 C-6.677999973297119,13.288999557495117 -7.401000022888184,12.416000366210938 -8.581000328063965,11.010000228881836 C-3.6689999103546143,10.565999984741211 0.5820000171661377,10.446000099182129 4.73199987411499,9.734999656677246 C9.161999702453613,8.97700023651123 14.331999778747559,7.914000034332275 14.904999732971191,2.5829999446868896 C15.468000411987305,-2.6510000228881836 10.925999641418457,-5.498000144958496 6.642000198364258,-6.745999813079834 C-1.7589999437332153,-9.190999984741211 -10.33899974822998,-11.173999786376953 -18.961999893188477,-12.670999526977539 C-29.868000030517578,-14.5649995803833 -39.45500183105469,-18.045000076293945 -47.939998626708984,-25.945999145507812 C-55.61899948120117,-33.095001220703125 -65.01100158691406,-38.50899887084961 -74.01599884033203,-44.09400177001953 C-81.47000122070312,-48.715999603271484 -89.67900085449219,-48.40800094604492 -97.21199798583984,-44.19599914550781 C-104.10099792480469,-40.34400177001953 -110.69499969482422,-35.88199996948242 -117.0719985961914,-31.21299934387207 C-130.6909942626953,-21.242000579833984 -144.00799560546875,-10.857999801635742 -157.5959930419922,-0.8410000205039978 C-168.61700439453125,7.2829999923706055 -180.50900268554688,13.842000007629395 -193.78799438476562,17.569000244140625 C-199.81900024414062,19.261999130249023 -201.64300537109375,18.347999572753906 -200.73699951171875,12.315999984741211 C-199.13600158691406,1.6679999828338623 -197.71499633789062,-9.32800006866455 -193.8470001220703,-19.253999710083008 C-183.35699462890625,-46.176998138427734 -166.5760040283203,-68.55999755859375 -142.0449981689453,-84.60900115966797 C-135.2729949951172,-89.04000091552734 -128.94400024414062,-94.1729965209961 -122.02999877929688,-98.35299682617188 C-115.5770034790039,-102.25599670410156 -108.70500183105469,-105.51100158691406 -101.86100006103516,-108.71499633789062 C-90.83799743652344,-113.8740005493164 -81.2699966430664,-112.10800170898438 -70.42400360107422,-105.64700317382812 C-45.018001556396484,-90.51399993896484 -18.718000411987305,-76.8239974975586 7.640999794006348,-63.37699890136719 C19.16699981689453,-57.49700164794922 31.961000442504883,-54.8849983215332 45.16999816894531,-55.19599914550781 C46.47800064086914,-55.22600173950195 48.599998474121094,-53.275001525878906 49.064998626708984,-51.83100128173828 C64.81800079345703,-2.990999937057495 80.40599822998047,45.90299987792969 96.0530014038086,94.7770004272461 C97.35700225830078,98.8499984741211 98.90499877929688,102.84500122070312 100.05500030517578,106.0770034790039 C93.68699645996094,108.87999725341797 87.83000183105469,111.14700317382812 82.29000091552734,114.0260009765625z M200.02099609375,84.6969985961914 C199.46400451660156,87.56199645996094 197.24200439453125,90.8479995727539 194.7989959716797,92.47599792480469 C183.28700256347656,100.1500015258789 170.99600219726562,106.31099700927734 157.39599609375,109.5510025024414 C148.22999572753906,111.73400115966797 139.31300354003906,110.9010009765625 130.40899658203125,108.13800048828125 C123.28199768066406,105.9260025024414 118.59600067138672,101.59200286865234 116.36699676513672,94.3219985961914 C110.81400299072266,76.20700073242188 105.28099822998047,58.08000183105469 99.29000091552734,40.106998443603516 C89.16000366210938,9.71500015258789 78.62000274658203,-20.540000915527344 68.39099884033203,-50.89899826049805 C65.25900268554688,-60.19599914550781 62.638999938964844,-69.66300201416016 59.67599868774414,-79.01799774169922 C57.59600067138672,-85.58499908447266 62.34700012207031,-95.62000274658203 69,-97.29299926757812 C90.3949966430664,-102.6709976196289 111.91899871826172,-107.4209976196289 134.06100463867188,-108.51499938964844 C135.09300231933594,-108.56600189208984 136.1280059814453,-108.572998046875 137.16099548339844,-108.56099700927734 C153.11700439453125,-108.38700103759766 161.52699279785156,-102.58499908447266 166.10000610351562,-87.26399993896484 C174.2779998779297,-59.86800003051758 182.36599731445312,-32.43299865722656 189.73500061035156,-4.811999797821045 C194.1199951171875,11.626999855041504 197.26100158691406,28.41200065612793 200.5449981689453,45.12300109863281 C201.6999969482422,51 201.61300659179688,57.12099838256836 202.27099609375,65.36199951171875 C201.74000549316406,70.37999725341797 201.3939971923828,77.63800048828125 200.02099609375,84.6969985961914z"/></g><g opacity="1" transform="matrix(1,0,0,1,647.468017578125,231.63400268554688)"><path fill="rgb(255,254,255)" fill-opacity="1" d=" M150.8489990234375,105.2490005493164 C144.4810028076172,108.0530014038086 138.62399291992188,110.31900024414062 133.08399963378906,113.197998046875 C130.19000244140625,114.7020034790039 128.63699340820312,114.4280014038086 126.63200378417969,111.93199920654297 C112.39399719238281,94.2040023803711 98.1729965209961,76.45999908447266 83.66100311279297,58.957000732421875 C70.91699981689453,43.58599853515625 57.801998138427734,28.52400016784668 44.85100173950195,13.324000358581543 C44.11600112915039,12.461000442504883 43.393001556396484,11.588000297546387 42.2130012512207,10.182000160217285 C47.125,9.73799991607666 51.375999450683594,9.618000030517578 55.5260009765625,8.906999588012695 C59.95600128173828,8.14900016784668 65.1259994506836,7.085999965667725 65.6989974975586,1.7549999952316284 C66.26200103759766,-3.4790000915527344 61.720001220703125,-6.326000213623047 57.43600082397461,-7.573999881744385 C49.034000396728516,-10.019000053405762 40.45500183105469,-12.001999855041504 31.832000732421875,-13.49899959564209 C20.926000595092773,-15.392999649047852 11.33899974822998,-18.87299919128418 2.8540000915527344,-26.77400016784668 C-4.824999809265137,-33.92300033569336 -14.217000007629395,-39.33700180053711 -23.222000122070312,-44.92100143432617 C-30.676000595092773,-49.54399871826172 -38.8849983215332,-49.236000061035156 -46.417999267578125,-45.02399826049805 C-53.30699920654297,-41.172000885009766 -59.9010009765625,-36.709999084472656 -66.27799987792969,-32.04100036621094 C-79.89700317382812,-22.06999969482422 -93.21399688720703,-11.685999870300293 -106.802001953125,-1.6690000295639038 C-117.822998046875,6.454999923706055 -129.71499633789062,13.013999938964844 -142.99400329589844,16.740999221801758 C-149.02499389648438,18.43400001525879 -150.8489990234375,17.520000457763672 -149.9429931640625,11.48900032043457 C-148.34300231933594,0.8399999737739563 -146.92100524902344,-10.156000137329102 -143.05299377441406,-20.082000732421875 C-132.56300354003906,-47.00400161743164 -115.78199768066406,-69.38800048828125 -91.2509994506836,-85.43699645996094 C-84.47899627685547,-89.86799621582031 -78.1500015258789,-95.0009994506836 -71.23600006103516,-99.18199920654297 C-64.78299713134766,-103.08399963378906 -57.9109992980957,-106.33899688720703 -51.06700134277344,-109.54299926757812 C-40.04399871826172,-114.7020034790039 -30.47599983215332,-112.93599700927734 -19.6299991607666,-106.47599792480469 C5.776000022888184,-91.34200286865234 32.07600021362305,-77.6520004272461 58.435001373291016,-64.20500183105469 C69.96099853515625,-58.32500076293945 82.75499725341797,-55.7130012512207 95.96399688720703,-56.02299880981445 C97.27200317382812,-56.05400085449219 99.39399719238281,-54.10300064086914 99.85900115966797,-52.659000396728516 C115.61199951171875,-3.819000005722046 131.1999969482422,45.07500076293945 146.8470001220703,93.94999694824219 C148.1510009765625,98.02200317382812 149.69900512695312,102.01699829101562 150.8489990234375,105.2490005493164z"/></g><g opacity="1" transform="matrix(1,0,0,1,828.1959838867188,232.38699340820312)"><path fill="rgb(255,254,255)" fill-opacity="1" d=" M72.33699798583984,63.78200149536133 C71.80599975585938,68.80000305175781 71.45999908447266,76.05799865722656 70.08699798583984,83.11699676513672 C69.52999877929688,85.98200225830078 67.30799865722656,89.26799774169922 64.86499786376953,90.89600372314453 C53.35300064086914,98.56999969482422 41.0629997253418,104.73100280761719 27.46299934387207,107.97100067138672 C18.297000885009766,110.15399932861328 9.378999710083008,109.32099914550781 0.4749999940395355,106.55799865722656 C-6.6519999504089355,104.34600067138672 -11.338000297546387,100.01200103759766 -13.567000389099121,92.74199676513672 C-19.1200008392334,74.62699890136719 -24.65399932861328,56.5 -30.643999099731445,38.52799987792969 C-40.77399826049805,8.13599967956543 -51.31399917602539,-22.121000289916992 -61.542999267578125,-52.47999954223633 C-64.67500305175781,-61.7760009765625 -67.2959976196289,-71.24299621582031 -70.25800323486328,-80.5979995727539 C-72.33799743652344,-87.16500091552734 -67.58599853515625,-97.19999694824219 -60.93299865722656,-98.87300109863281 C-39.53799819946289,-104.2509994506836 -18.014999389648438,-109.00199890136719 4.126999855041504,-110.09600067138672 C5.158999919891357,-110.14700317382812 6.193999767303467,-110.15299987792969 7.2270002365112305,-110.14099884033203 C23.183000564575195,-109.96700286865234 31.5939998626709,-104.16500091552734 36.16699981689453,-88.84400177001953 C44.345001220703125,-61.448001861572266 52.43199920654297,-34.013999938964844 59.80099868774414,-6.39300012588501 C64.18599700927734,10.045999526977539 67.3270034790039,26.83099937438965 70.61100006103516,43.54199981689453 C71.76599884033203,49.41899871826172 71.67900085449219,55.54100036621094 72.33699798583984,63.78200149536133z"/></g></g></g><g clip-path="url(#__lottie_element_517)" transform="matrix(0.9819223880767822,-0.18928396701812744,0.18928396701812744,0.9819223880767822,666.31640625,1004.3121948242188)" opacity="1" style="display: block;"><g transform="matrix(0.7898799777030945,0,0,0.7898799777030945,72.635498046875,7.990821838378906)" opacity="1" style="display: block;"><g opacity="1" transform="matrix(1,0,0,1,378.5010070800781,140.42999267578125)"><path fill="rgb(255,254,255)" fill-opacity="1" d=" M-104.14900207519531,-97.00499725341797 C-109.64900207519531,-97.00499725341797 -114.14900207519531,-92.50499725341797 -114.14900207519531,-87.00499725341797 C-114.14900207519531,-87.00499725341797 -114.14900207519531,-40.066001892089844 -114.14900207519531,-40.066001892089844 C-114.14900207519531,-34.566001892089844 -118.64900207519531,-30.065000534057617 -124.14900207519531,-30.065000534057617 C-124.14900207519531,-30.065000534057617 -178.90899658203125,-30.065000534057617 -178.90899658203125,-30.065000534057617 C-184.40899658203125,-30.065000534057617 -188.90899658203125,-34.566001892089844 -188.90899658203125,-40.066001892089844 C-188.90899658203125,-40.066001892089844 -188.90899658203125,-84.53500366210938 -188.90899658203125,-84.53500366210938 C-188.90899658203125,-90.03500366210938 -192.80599975585938,-92.28500366210938 -197.56900024414062,-89.53500366210938 C-197.56900024414062,-89.53500366210938 -343.9880065917969,-4.999000072479248 -343.9880065917969,-4.999000072479248 C-348.7510070800781,-2.249000072479248 -348.7510070800781,2.250999927520752 -343.9880065917969,5.000999927520752 C-343.9880065917969,5.000999927520752 -197.56900024414062,89.53500366210938 -197.56900024414062,89.53500366210938 C-192.80599975585938,92.28500366210938 -188.90899658203125,90.03500366210938 -188.90899658203125,84.53500366210938 C-188.90899658203125,84.53500366210938 -188.90899658203125,40.066001892089844 -188.90899658203125,40.066001892089844 C-188.90899658203125,34.566001892089844 -184.40899658203125,30.06599998474121 -178.90899658203125,30.06599998474121 C-178.90899658203125,30.06599998474121 -124.14900207519531,30.06599998474121 -124.14900207519531,30.06599998474121 C-118.64900207519531,30.06599998474121 -114.14900207519531,34.566001892089844 -114.14900207519531,40.066001892089844 C-114.14900207519531,40.066001892089844 -114.14900207519531,87.00499725341797 -114.14900207519531,87.00499725341797 C-114.14900207519531,92.50499725341797 -109.64900207519531,97.00499725341797 -104.14900207519531,97.00499725341797 C-104.14900207519531,97.00499725341797 338.7510070800781,97.00499725341797 338.7510070800781,97.00499725341797 C344.2510070800781,97.00499725341797 348.7510070800781,92.50499725341797 348.7510070800781,87.00499725341797 C348.7510070800781,87.00499725341797 348.7510070800781,-87.00499725341797 348.7510070800781,-87.00499725341797 C348.7510070800781,-92.50499725341797 344.2510070800781,-97.00499725341797 338.7510070800781,-97.00499725341797 C338.7510070800781,-97.00499725341797 -104.14900207519531,-97.00499725341797 -104.14900207519531,-97.00499725341797z"/></g><g opacity="1" transform="matrix(1,0,0,1,379.0639953613281,140.427001953125)"><path fill="rgb(0,0,0)" fill-opacity="1" d=" M-104.71199798583984,-97.00199890136719 C-107.2229995727539,-97.62300109863281 -109.96199798583984,-97.18299865722656 -112.2490005493164,-95.86499786376953 C-114.54199981689453,-94.5510025024414 -116.37899780273438,-92.34400177001953 -117.30799865722656,-89.60199737548828 C-117.51100158691406,-88.91200256347656 -117.70099639892578,-88.19999694824219 -117.78600311279297,-87.46099853515625 C-117.8280029296875,-87.14199829101562 -117.86900329589844,-86.82099914550781 -117.91100311279297,-86.4990005493164 C-117.94400024414062,-86.21299743652344 -117.97599792480469,-85.92500305175781 -118.00900268554688,-85.63500213623047 C-118.13500213623047,-84.4749984741211 -118.24099731445312,-83.28399658203125 -118.3280029296875,-82.04399871826172 C-118.50199890136719,-79.56400299072266 -118.59700012207031,-76.89199829101562 -118.61199951171875,-73.89600372314453 C-118.61699676513672,-72.27300262451172 -118.62300109863281,-69.83699798583984 -118.63099670410156,-66.81700134277344 C-118.63300323486328,-65.30699920654297 -118.63400268554688,-63.6510009765625 -118.63600158691406,-61.87699890136719 C-118.63700103759766,-56.433998107910156 -118.63700103759766,-50.9010009765625 -118.63700103759766,-45.284000396728516 C-118.63700103759766,-43.67900085449219 -118.63800048828125,-42.06800079345703 -118.63800048828125,-40.45199966430664 C-118.62899780273438,-39.97600173950195 -118.66300201416016,-39.83100128173828 -118.66600036621094,-39.5629997253418 C-118.6760025024414,-39.31700134277344 -118.74099731445312,-39.08000183105469 -118.76399993896484,-38.83599853515625 C-118.89099884033203,-38.36399841308594 -119.01300048828125,-37.88600158691406 -119.24800109863281,-37.44900131225586 C-120.08399963378906,-35.6510009765625 -121.91500091552734,-34.30699920654297 -123.88099670410156,-34.05699920654297 C-124.1240005493164,-33.99800109863281 -124.37899780273438,-34.02399826049805 -124.62799835205078,-33.994998931884766 C-124.93399810791016,-33.981998443603516 -125.4260025024414,-33.992000579833984 -125.81600189208984,-33.98899841308594 C-125.81600189208984,-33.98899841308594 -128.30499267578125,-33.98899841308594 -128.30499267578125,-33.98899841308594 C-129.96800231933594,-33.98899841308594 -131.63600158691406,-33.98899841308594 -133.3090057373047,-33.98899841308594 C-136.65699768066406,-33.98899841308594 -140.02499389648438,-33.98899841308594 -143.4149932861328,-33.9900016784668 C-150.19500732421875,-33.9900016784668 -157.0590057373047,-33.9900016784668 -164.0019989013672,-33.9900016784668 C-167.47300720214844,-33.9900016784668 -170.96299743652344,-33.9900016784668 -174.4720001220703,-33.9900016784668 C-174.4720001220703,-33.9900016784668 -177.10800170898438,-33.99100112915039 -177.10800170898438,-33.99100112915039 C-177.10800170898438,-33.99100112915039 -178.42799377441406,-33.99100112915039 -178.42799377441406,-33.99100112915039 C-178.42799377441406,-33.99100112915039 -179.08900451660156,-33.99100112915039 -179.08900451660156,-33.99100112915039 C-179.08900451660156,-33.99100112915039 -179.4199981689453,-33.99100112915039 -179.4199981689453,-33.99100112915039 C-179.5279998779297,-33.99100112915039 -179.56500244140625,-34 -179.64100646972656,-34.00299835205078 C-180.71099853515625,-34.03300094604492 -181.75900268554688,-34.3390007019043 -182.6719970703125,-34.92499923706055 C-183.5959930419922,-35.48400115966797 -184.35000610351562,-36.33599853515625 -184.8560028076172,-37.28499984741211 C-185.11099243164062,-37.763999938964844 -185.2779998779297,-38.27799987792969 -185.40699768066406,-38.79999923706055 C-185.4409942626953,-39.06700134277344 -185.50999450683594,-39.32899856567383 -185.51600646972656,-39.60100173950195 C-185.51600646972656,-39.60100173950195 -185.53900146484375,-40.00699996948242 -185.53900146484375,-40.00699996948242 C-185.54800415039062,-40.159000396728516 -185.54100036621094,-40.435001373291016 -185.54299926757812,-40.643001556396484 C-185.54299926757812,-44.2239990234375 -185.54299926757812,-47.821998596191406 -185.54299926757812,-51.43600082397461 C-185.54299926757812,-58.665000915527344 -185.54299926757812,-65.95899963378906 -185.54299926757812,-73.31300354003906 C-185.54299926757812,-76.98999786376953 -185.54299926757812,-80.68099975585938 -185.54299926757812,-84.38700103759766 C-185.56700134277344,-85.54199981689453 -185.63299560546875,-86.89399719238281 -186.06500244140625,-88.26799774169922 C-186.48399353027344,-89.63999938964844 -187.2239990234375,-91.125 -188.50900268554688,-92.35399627685547 C-189.7729949951172,-93.59300231933594 -191.57699584960938,-94.39199829101562 -193.2469940185547,-94.56199645996094 C-194.9290008544922,-94.75299835205078 -196.43899536132812,-94.45800018310547 -197.7429962158203,-94.01899719238281 C-199.01400756835938,-93.58000183105469 -200.23300170898438,-92.85600280761719 -200.9199981689453,-92.45899963378906 C-200.9199981689453,-92.45899963378906 -203.35000610351562,-91.05599975585938 -203.35000610351562,-91.05599975585938 C-204.97300720214844,-90.11900329589844 -206.5970001220703,-89.18099975585938 -208.22500610351562,-88.24099731445312 C-211.47999572753906,-86.36199951171875 -214.74600219726562,-84.47599792480469 -218.02099609375,-82.58499908447266 C-224.572998046875,-78.8030014038086 -231.1649932861328,-74.99700164794922 -237.79200744628906,-71.1709976196289 C-251.04600524902344,-63.51900100708008 -264.44000244140625,-55.7859992980957 -277.92999267578125,-47.99700164794922 C-291.4209899902344,-40.20800018310547 -305.00799560546875,-32.362998962402344 -318.64801025390625,-24.48699951171875 C-325.4679870605469,-20.549999237060547 -332.302001953125,-16.604000091552734 -339.14300537109375,-12.654000282287598 C-339.14300537109375,-12.654000282287598 -344.2749938964844,-9.690999984741211 -344.2749938964844,-9.690999984741211 C-344.2749938964844,-9.690999984741211 -345.5589904785156,-8.949999809265137 -345.5589904785156,-8.949999809265137 C-345.5589904785156,-8.949999809265137 -346.20001220703125,-8.579000473022461 -346.20001220703125,-8.579000473022461 C-346.20001220703125,-8.579000473022461 -346.52398681640625,-8.392999649047852 -346.52398681640625,-8.392999649047852 C-346.52398681640625,-8.392999649047852 -346.9530029296875,-8.123000144958496 -346.9530029296875,-8.123000144958496 C-348.0880126953125,-7.427000045776367 -349.23199462890625,-6.507999897003174 -350.2139892578125,-5.216000080108643 C-351.18798828125,-3.947000026702881 -351.9849853515625,-2.184000015258789 -352.03900146484375,-0.2370000034570694 C-352.11700439453125,1.7089999914169312 -351.4070129394531,3.5759999752044678 -350.4590148925781,4.9029998779296875 C-349.5060119628906,6.255000114440918 -348.3680114746094,7.193999767303467 -347.23699951171875,7.947000026702881 C-346.9679870605469,8.119000434875488 -346.6319885253906,8.336999893188477 -346.41400146484375,8.463000297546387 C-346.41400146484375,8.463000297546387 -345.77099609375,8.833999633789062 -345.77099609375,8.833999633789062 C-345.77099609375,8.833999633789062 -344.48699951171875,9.576000213623047 -344.48699951171875,9.576000213623047 C-317.0799865722656,25.398000717163086 -289.6340026855469,41.24300003051758 -262.4960021972656,56.90999984741211 C-248.927001953125,64.74400329589844 -235.4340057373047,72.53299713134766 -222.06300354003906,80.25199890136719 C-215.3769989013672,84.11199951171875 -208.7209930419922,87.9540023803711 -202.1009979248047,91.7760009765625 C-202.1009979248047,91.7760009765625 -200.86000061035156,92.49199676513672 -200.86000061035156,92.49199676513672 C-200.86000061035156,92.49199676513672 -200.24000549316406,92.8499984741211 -200.24000549316406,92.8499984741211 C-200.1510009765625,92.90399932861328 -200.02099609375,92.9749984741211 -199.86599731445312,93.05599975585938 C-199.86599731445312,93.05599975585938 -199.4320068359375,93.28299713134766 -199.4320068359375,93.28299713134766 C-198.27200317382812,93.8740005493164 -196.95899963378906,94.38700103759766 -195.38699340820312,94.56099700927734 C-193.84500122070312,94.74600219726562 -191.99899291992188,94.5510025024414 -190.3459930419922,93.677001953125 C-188.6840057373047,92.822998046875 -187.4320068359375,91.36599731445312 -186.73599243164062,89.94200134277344 C-186.02000427246094,88.50399780273438 -185.73300170898438,87.09100341796875 -185.60499572753906,85.76899719238281 C-185.51600646972656,84.31400299072266 -185.56199645996094,83.59600067138672 -185.5500030517578,82.59500122070312 C-185.5500030517578,80.69999694824219 -185.5500030517578,78.80799865722656 -185.5500030517578,76.91899871826172 C-185.55099487304688,69.36299896240234 -185.55099487304688,61.854000091552734 -185.55099487304688,54.39899826049805 C-185.552001953125,50.67100143432617 -185.552001953125,46.957000732421875 -185.552001953125,43.25699996948242 C-185.552001953125,43.25699996948242 -185.552001953125,40.48400115966797 -185.552001953125,40.48400115966797 C-185.56199645996094,39.9379997253418 -185.52099609375,39.79800033569336 -185.52099609375,39.48099899291992 C-185.46499633789062,39.20800018310547 -185.46400451660156,38.92399978637695 -185.37399291992188,38.65999984741211 C-185.12600708007812,37.57500076293945 -184.53799438476562,36.57600021362305 -183.7519989013672,35.76900100708008 C-182.94200134277344,34.986000061035156 -181.94500732421875,34.40800094604492 -180.86900329589844,34.16299819946289 C-180.60499572753906,34.077999114990234 -180.3249969482422,34.073001861572266 -180.0540008544922,34.01900100708008 C-179.74000549316406,34.01900100708008 -179.6020050048828,33.979000091552734 -179.06199645996094,33.98899841308594 C-179.06199645996094,33.98899841308594 -176.32899475097656,33.987998962402344 -176.32899475097656,33.987998962402344 C-172.68899536132812,33.987998962402344 -169.06399536132812,33.987998962402344 -165.45599365234375,33.987998962402344 C-158.24000549316406,33.987998962402344 -151.08999633789062,33.98699951171875 -144.01300048828125,33.98699951171875 C-140.4739990234375,33.98699951171875 -136.9530029296875,33.98699951171875 -133.4510040283203,33.986000061035156 C-131.6999969482422,33.986000061035156 -129.95399475097656,33.986000061035156 -128.21299743652344,33.986000061035156 C-126.55799865722656,34.00699996948242 -124.41400146484375,33.92599868774414 -123.68099975585938,34.084999084472656 C-122.64299774169922,34.23500061035156 -121.68299865722656,34.73699951171875 -120.85299682617188,35.38100051879883 C-120.06300354003906,36.073001861572266 -119.38800048828125,36.93000030517578 -119.04000091552734,37.909000396728516 C-118.8280029296875,38.3849983215332 -118.7509994506836,38.900001525878906 -118.66699981689453,39.40700149536133 C-118.6510009765625,39.5359992980957 -118.65699768066406,39.66699981689453 -118.64700317382812,39.79600143432617 C-118.64199829101562,39.94300079345703 -118.62300109863281,40.005001068115234 -118.62799835205078,40.25699996948242 C-118.62799835205078,40.25699996948242 -118.62799835205078,41.53499984741211 -118.62799835205078,41.53499984741211 C-118.62799835205078,43.236000061035156 -118.62699890136719,44.93199920654297 -118.62699890136719,46.62300109863281 C-118.62699890136719,60.150001525878906 -118.6259994506836,73.33699798583984 -118.625,86.13500213623047 C-118.625,86.13500213623047 -118.625,86.73400115966797 -118.625,86.73400115966797 C-118.625,86.73400115966797 -118.6240005493164,87.04399871826172 -118.6240005493164,87.04399871826172 C-118.6240005493164,87.04399871826172 -118.60700225830078,87.45999908447266 -118.60700225830078,87.45999908447266 C-118.58599853515625,88.01599884033203 -118.552001953125,88.56900024414062 -118.4520034790039,89.11799621582031 C-118.3030014038086,90.22100067138672 -117.96800231933594,91.28900146484375 -117.56400299072266,92.31700134277344 C-116.71499633789062,94.36199951171875 -115.37000274658203,96.16600036621094 -113.71800231933594,97.58999633789062 C-112.06400299072266,99.01599884033203 -110.05400085449219,100.01499938964844 -107.93599700927734,100.52999877929688 C-106.87799835205078,100.7959976196289 -105.78800201416016,100.89800262451172 -104.70999908447266,100.9209976196289 C-104.70999908447266,100.9209976196289 -102.38099670410156,100.9209976196289 -102.38099670410156,100.9209976196289 C-96.18299865722656,100.91999816894531 -90.08799743652344,100.91999816894531 -84.10399627685547,100.91999816894531 C-72.13500213623047,100.91899871826172 -60.60499954223633,100.91799926757812 -49.564998626708984,100.91799926757812 C38.75299835205078,100.91200256347656 95.73600006103516,100.90899658203125 95.73600006103516,100.90899658203125 C95.73600006103516,100.90899658203125 152.71800231933594,100.91200256347656 241.03599548339844,100.91799926757812 C263.114990234375,100.91899871826172 287.15301513671875,100.91999816894531 312.74798583984375,100.9219970703125 C319.1470031738281,100.9219970703125 325.6440124511719,100.9219970703125 332.2309875488281,100.9229965209961 C333.87799072265625,100.9229965209961 335.5299987792969,100.9229965209961 337.18798828125,100.9229965209961 C337.18798828125,100.9229965209961 337.8110046386719,100.9229965209961 337.8110046386719,100.9229965209961 C338.0140075683594,100.9229965209961 338.2070007324219,100.9260025024414 338.52899169921875,100.90899658203125 C339.1059875488281,100.88500213623047 339.6839904785156,100.86100006103516 340.2569885253906,100.75599670410156 C341.4100036621094,100.60600280761719 342.5270080566406,100.24600219726562 343.60699462890625,99.81999969482422 C347.8890075683594,98.00199890136719 351.177001953125,93.95899963378906 351.9079895019531,89.25599670410156 C352.0150146484375,88.67400360107422 352.0669860839844,88.08799743652344 352.0830078125,87.49800109863281 C352.0830078125,87.49800109863281 352.10198974609375,87.05699920654297 352.10198974609375,87.05699920654297 C352.10198974609375,87.05699920654297 352.1029968261719,86.7249984741211 352.1029968261719,86.7249984741211 C352.1029968261719,86.7249984741211 352.1029968261719,86.08899688720703 352.1029968261719,86.08899688720703 C352.1029968261719,86.08899688720703 352.1029968261719,83.54199981689453 352.1029968261719,83.54199981689453 C352.1029968261719,81.83999633789062 352.10400390625,80.13400268554688 352.10400390625,78.4219970703125 C352.10400390625,74.9990005493164 352.10400390625,71.55500030517578 352.10400390625,68.09200286865234 C352.1050109863281,61.165000915527344 352.1050109863281,54.15999984741211 352.1050109863281,47.082000732421875 C352.1059875488281,18.77199935913086 352.1080017089844,-10.694999694824219 352.1090087890625,-40.91899871826172 C352.1099853515625,-56.03099822998047 352.1099853515625,-71.33200073242188 352.1109924316406,-86.77200317382812 C352.11700439453125,-86.97000122070312 352.09600830078125,-87.36799621582031 352.08099365234375,-87.68900299072266 C352.0570068359375,-88.02400207519531 352.05999755859375,-88.36100006103516 352,-88.69400024414062 C351.9119873046875,-89.36299896240234 351.79400634765625,-90.0260009765625 351.6050109863281,-90.67500305175781 C351.2430114746094,-91.97200012207031 350.7130126953125,-93.23100280761719 349.9840087890625,-94.36100006103516 C348.5639953613281,-96.64299774169922 346.4739990234375,-98.49299621582031 344.02099609375,-99.6259994506836 C342.7969970703125,-100.18800354003906 341.4880065917969,-100.60399627685547 340.1440124511719,-100.7750015258789 C339.4840087890625,-100.89900207519531 338.7799987792969,-100.89199829101562 338.1419982910156,-100.92500305175781 C338.1419982910156,-100.92500305175781 336.68499755859375,-100.92500305175781 336.68499755859375,-100.92500305175781 C334.7430114746094,-100.92500305175781 332.79901123046875,-100.92500305175781 330.8529968261719,-100.92500305175781 C323.07000732421875,-100.92500305175781 315.2590026855469,-100.9260025024414 307.42498779296875,-100.9260025024414 C151.20700073242188,-100.91600036621094 -19.191999435424805,-100.90599822998047 -75.91200256347656,-100.9020004272461 C-87.89900207519531,-100.84200286865234 -94.697998046875,-99.49400329589844 -104.71199798583984,-97.00199890136719 C-94.697998046875,-94.51000213623047 -87.89900207519531,-93.16200256347656 -75.91200256347656,-93.10099792480469 C-19.191999435424805,-93.09700012207031 151.20700073242188,-93.08599853515625 307.42498779296875,-93.07599639892578 C315.2590026855469,-93.07599639892578 323.07000732421875,-93.0770034790039 330.8529968261719,-93.0770034790039 C332.79901123046875,-93.0770034790039 334.7430114746094,-93.0770034790039 336.68499755859375,-93.0770034790039 C336.68499755859375,-93.0770034790039 338.1419982910156,-93.0770034790039 338.1419982910156,-93.0770034790039 C338.4700012207031,-93.04199981689453 338.7439880371094,-93.07499694824219 339.03900146484375,-93.00499725341797 C339.62200927734375,-92.94200134277344 340.1809997558594,-92.7490005493164 340.7149963378906,-92.50900268554688 C341.781005859375,-92.02100372314453 342.7170104980469,-91.1969985961914 343.3340148925781,-90.19499969482422 C343.6629943847656,-89.7030029296875 343.8810119628906,-89.15299987792969 344.03900146484375,-88.59400177001953 C344.12701416015625,-88.31500244140625 344.1700134277344,-88.0270004272461 344.2120056152344,-87.73799896240234 C344.24798583984375,-87.59600067138672 344.2300109863281,-87.4469985961914 344.2439880371094,-87.3010025024414 C344.2489929199219,-87.13999938964844 344.2699890136719,-87.05599975585938 344.2640075683594,-86.77200317382812 C344.2650146484375,-71.33200073242188 344.2659912109375,-56.03099822998047 344.2659912109375,-40.91899871826172 C344.2669982910156,-10.694999694824219 344.2690124511719,18.77199935913086 344.2699890136719,47.082000732421875 C344.2699890136719,54.15999984741211 344.27099609375,61.165000915527344 344.27099609375,68.09200286865234 C344.27099609375,71.55500030517578 344.27099609375,74.9990005493164 344.2720031738281,78.4219970703125 C344.2720031738281,80.13400268554688 344.2720031738281,81.83999633789062 344.2720031738281,83.54199981689453 C344.2720031738281,83.54199981689453 344.2720031738281,86.08899688720703 344.2720031738281,86.08899688720703 C344.2720031738281,86.08899688720703 344.2720031738281,86.7249984741211 344.2720031738281,86.7249984741211 C344.2720031738281,86.7249984741211 344.2699890136719,87.02899932861328 344.2699890136719,87.02899932861328 C344.2699890136719,87.02899932861328 344.2569885253906,87.22200012207031 344.2569885253906,87.22200012207031 C344.25201416015625,87.48100280761719 344.2330017089844,87.73600006103516 344.1809997558594,87.98699951171875 C343.8869934082031,90.01100158691406 342.4049987792969,91.81500244140625 340.5419921875,92.61399841308594 C340.0669860839844,92.78299713134766 339.5920104980469,92.96199798583984 339.0889892578125,93.01300048828125 C338.8429870605469,93.06900024414062 338.5889892578125,93.06500244140625 338.3370056152344,93.08200073242188 C338.2439880371094,93.09500122070312 338.0220031738281,93.09400177001953 337.8110046386719,93.09300231933594 C337.8110046386719,93.09300231933594 337.18798828125,93.09300231933594 337.18798828125,93.09300231933594 C335.5299987792969,93.09300231933594 333.87799072265625,93.09300231933594 332.2309875488281,93.09400177001953 C325.6440124511719,93.09400177001953 319.1470031738281,93.09400177001953 312.74798583984375,93.09500122070312 C287.15301513671875,93.09600067138672 263.114990234375,93.09700012207031 241.03599548339844,93.0989990234375 C152.71800231933594,93.10399627685547 95.73600006103516,93.10800170898438 95.73600006103516,93.10800170898438 C95.73600006103516,93.10800170898438 38.75299835205078,93.10399627685547 -49.564998626708984,93.0989990234375 C-60.60499954223633,93.0979995727539 -72.13500213623047,93.09700012207031 -84.10399627685547,93.09700012207031 C-90.08799743652344,93.09600067138672 -96.18299865722656,93.09600067138672 -102.38099670410156,93.09600067138672 C-102.38099670410156,93.09600067138672 -104.70999908447266,93.09600067138672 -104.70999908447266,93.09600067138672 C-105.18499755859375,93.0719985961914 -105.65699768066406,93.04199981689453 -106.11399841308594,92.91999816894531 C-107.0250015258789,92.69200134277344 -107.91100311279297,92.27200317382812 -108.64099884033203,91.63400268554688 C-109.36699676513672,90.9990005493164 -109.96700286865234,90.2040023803711 -110.33599853515625,89.31500244140625 C-110.5,88.86399841308594 -110.66300201416016,88.40799713134766 -110.71600341796875,87.9280014038086 C-110.76799774169922,87.69200134277344 -110.77400207519531,87.4489974975586 -110.78399658203125,87.20600128173828 C-110.78399658203125,87.20600128173828 -110.7969970703125,87.02400207519531 -110.7969970703125,87.02400207519531 C-110.7969970703125,87.02400207519531 -110.7979965209961,86.73400115966797 -110.7979965209961,86.73400115966797 C-110.7979965209961,86.73400115966797 -110.7979965209961,86.13500213623047 -110.7979965209961,86.13500213623047 C-110.7979965209961,73.33699798583984 -110.7969970703125,60.150001525878906 -110.7959976196289,46.62300109863281 C-110.7959976196289,44.93199920654297 -110.7959976196289,43.236000061035156 -110.7959976196289,41.53499984741211 C-110.7959976196289,41.53499984741211 -110.7959976196289,40.25699996948242 -110.7959976196289,40.25699996948242 C-110.79100036621094,40.08399963378906 -110.80999755859375,39.72100067138672 -110.822998046875,39.44200134277344 C-110.84100341796875,39.145999908447266 -110.8479995727539,38.8489990234375 -110.88200378417969,38.55400085449219 C-111.03900146484375,37.37699890136719 -111.27799987792969,36.19599914550781 -111.73200225830078,35.0890007019043 C-112.56800079345703,32.84700012207031 -114.0459976196289,30.885000228881836 -115.86299896240234,29.3439998626709 C-117.71600341796875,27.850000381469727 -119.9489974975586,26.75 -122.34300231933594,26.367000579833984 C-123.50499725341797,26.131999969482422 -124.88600158691406,26.158000946044922 -125.60399627685547,26.152999877929688 C-125.60399627685547,26.152999877929688 -128.21299743652344,26.152000427246094 -128.21299743652344,26.152000427246094 C-129.95399475097656,26.152000427246094 -131.6999969482422,26.152000427246094 -133.4510040283203,26.152000427246094 C-136.9530029296875,26.152000427246094 -140.4739990234375,26.152000427246094 -144.01300048828125,26.152000427246094 C-151.08999633789062,26.150999069213867 -158.24000549316406,26.150999069213867 -165.45599365234375,26.150999069213867 C-169.06399536132812,26.150999069213867 -172.68899536132812,26.150999069213867 -176.32899475097656,26.149999618530273 C-176.32899475097656,26.149999618530273 -179.06199645996094,26.149999618530273 -179.06199645996094,26.149999618530273 C-179.43499755859375,26.13800048828125 -180.20700073242188,26.18000030517578 -180.80499267578125,26.216999053955078 C-181.4340057373047,26.30500030517578 -182.072998046875,26.368999481201172 -182.68800354003906,26.538000106811523 C-185.18099975585938,27.1200008392334 -187.47000122070312,28.43000030517578 -189.2830047607422,30.214000701904297 C-191.07400512695312,32.01900100708008 -192.4040069580078,34.310001373291016 -192.99600219726562,36.821998596191406 C-193.17100524902344,37.44200134277344 -193.23199462890625,38.08700180053711 -193.32400512695312,38.72200012207031 C-193.36199951171875,39.32699966430664 -193.4040069580078,40.106998443603516 -193.39199829101562,40.48400115966797 C-193.39199829101562,40.48400115966797 -193.39199829101562,43.25699996948242 -193.39199829101562,43.25699996948242 C-193.39199829101562,46.957000732421875 -193.39199829101562,50.67100143432617 -193.39199829101562,54.39899826049805 C-193.39300537109375,61.854000091552734 -193.39300537109375,69.36299896240234 -193.39300537109375,76.91899871826172 C-193.39300537109375,78.80799865722656 -193.39300537109375,80.69999694824219 -193.3939971923828,82.59500122070312 C-193.39500427246094,83.48699951171875 -193.38499450683594,84.66699981689453 -193.4199981689453,85.10700225830078 C-193.4770050048828,85.66899871826172 -193.60299682617188,86.13999938964844 -193.73699951171875,86.40499877929688 C-193.8780059814453,86.68099975585938 -193.95599365234375,86.71099853515625 -193.99099731445312,86.73100280761719 C-194.02699279785156,86.74700164794922 -194.1510009765625,86.802001953125 -194.49600219726562,86.76799774169922 C-194.8249969482422,86.74600219726562 -195.33200073242188,86.57599639892578 -195.86199951171875,86.2969970703125 C-195.86199951171875,86.2969970703125 -196.06399536132812,86.19400024414062 -196.06399536132812,86.19400024414062 C-196.1219940185547,86.16799926757812 -196.20199584960938,86.1259994506836 -196.3179931640625,86.05699920654297 C-196.3179931640625,86.05699920654297 -196.93800354003906,85.6989974975586 -196.93800354003906,85.6989974975586 C-196.93800354003906,85.6989974975586 -198.1790008544922,84.98200225830078 -198.1790008544922,84.98200225830078 C-204.79800415039062,81.16000366210938 -211.45399475097656,77.31700134277344 -218.13999938964844,73.45700073242188 C-231.51100158691406,65.73600006103516 -245.0019989013672,57.94599914550781 -258.5710144042969,50.11199951171875 C-285.7080078125,34.44300079345703 -313.15301513671875,18.597000122070312 -340.5589904785156,2.7730000019073486 C-340.5589904785156,2.7730000019073486 -341.843994140625,2.0309998989105225 -341.843994140625,2.0309998989105225 C-341.843994140625,2.0309998989105225 -342.4859924316406,1.6610000133514404 -342.4859924316406,1.6610000133514404 C-342.69500732421875,1.5379999876022339 -342.76800537109375,1.4769999980926514 -342.9179992675781,1.3860000371932983 C-343.4289855957031,1.0509999990463257 -343.8240051269531,0.6859999895095825 -344.0119934082031,0.414000004529953 C-344.2049865722656,0.13099999725818634 -344.19000244140625,0.03400000184774399 -344.18701171875,-0.004000000189989805 C-344.1809997558594,-0.04100000113248825 -344.16900634765625,-0.1809999942779541 -343.9490051269531,-0.47699999809265137 C-343.739990234375,-0.7630000114440918 -343.3389892578125,-1.1380000114440918 -342.7860107421875,-1.4630000591278076 C-342.7860107421875,-1.4630000591278076 -342.59100341796875,-1.5920000076293945 -342.59100341796875,-1.5920000076293945 C-342.59100341796875,-1.5920000076293945 -342.27301025390625,-1.7760000228881836 -342.27301025390625,-1.7760000228881836 C-342.27301025390625,-1.7760000228881836 -341.6310119628906,-2.1470000743865967 -341.6310119628906,-2.1470000743865967 C-341.6310119628906,-2.1470000743865967 -340.34698486328125,-2.888000011444092 -340.34698486328125,-2.888000011444092 C-340.34698486328125,-2.888000011444092 -335.2149963378906,-5.85099983215332 -335.2149963378906,-5.85099983215332 C-328.3739929199219,-9.800999641418457 -321.5400085449219,-13.746000289916992 -314.7200012207031,-17.683000564575195 C-301.0799865722656,-25.558000564575195 -287.49200439453125,-33.402000427246094 -274.0010070800781,-41.191001892089844 C-260.510986328125,-48.97999954223633 -247.11700439453125,-56.7130012512207 -233.86300659179688,-64.36499786376953 C-227.23599243164062,-68.19100189208984 -220.6439971923828,-71.99700164794922 -214.0919952392578,-75.77899932861328 C-210.8159942626953,-77.66999816894531 -207.5500030517578,-79.55699920654297 -204.2949981689453,-81.43599700927734 C-202.66799926757812,-82.375 -201.04299926757812,-83.31400299072266 -199.42100524902344,-84.25 C-199.42100524902344,-84.25 -196.99000549316406,-85.65299987792969 -196.99000549316406,-85.65299987792969 C-196.06199645996094,-86.19300079345703 -195.656005859375,-86.41200256347656 -195.16299438476562,-86.59600067138672 C-194.70199584960938,-86.74800109863281 -194.33299255371094,-86.77999877929688 -194.16099548339844,-86.75700378417969 C-193.98199462890625,-86.72699737548828 -194.00399780273438,-86.7229995727539 -193.9320068359375,-86.66699981689453 C-193.86700439453125,-86.60900115966797 -193.71499633789062,-86.4000015258789 -193.59100341796875,-86.00399780273438 C-193.5679931640625,-85.8949966430664 -193.5399932861328,-85.78900146484375 -193.50599670410156,-85.68299865722656 C-193.50599670410156,-85.68299865722656 -193.4530029296875,-85.2979965209961 -193.4530029296875,-85.2979965209961 C-193.42300415039062,-85.177001953125 -193.427001953125,-85.0250015258789 -193.42100524902344,-84.87899780273438 C-193.41799926757812,-84.70899963378906 -193.3990020751953,-84.63999938964844 -193.4010009765625,-84.38700103759766 C-193.4010009765625,-80.68099975585938 -193.4010009765625,-76.98999786376953 -193.4010009765625,-73.31300354003906 C-193.4010009765625,-65.95899963378906 -193.4010009765625,-58.665000915527344 -193.4010009765625,-51.43600082397461 C-193.4010009765625,-47.821998596191406 -193.4010009765625,-44.2239990234375 -193.4010009765625,-40.643001556396484 C-193.4010009765625,-40.643001556396484 -193.39599609375,-39.93600082397461 -193.39599609375,-39.93600082397461 C-193.39599609375,-39.93600082397461 -193.35000610351562,-39.00299835205078 -193.35000610351562,-39.00299835205078 C-193.3179931640625,-38.38199996948242 -193.197998046875,-37.763999938964844 -193.08900451660156,-37.152000427246094 C-192.81100463867188,-35.935001373291016 -192.4010009765625,-34.749000549316406 -191.8209991455078,-33.650001525878906 C-190.66600036621094,-31.45800018310547 -188.95199584960938,-29.570999145507812 -186.85400390625,-28.27400016784668 C-184.7740020751953,-26.947999954223633 -182.3159942626953,-26.21299934387207 -179.85899353027344,-26.149999618530273 C-179.85899353027344,-26.149999618530273 -179.4199981689453,-26.134000778198242 -179.4199981689453,-26.134000778198242 C-179.4199981689453,-26.134000778198242 -179.08900451660156,-26.134000778198242 -179.08900451660156,-26.134000778198242 C-179.08900451660156,-26.134000778198242 -178.42799377441406,-26.134000778198242 -178.42799377441406,-26.134000778198242 C-178.42799377441406,-26.134000778198242 -177.10800170898438,-26.134000778198242 -177.10800170898438,-26.134000778198242 C-177.10800170898438,-26.134000778198242 -174.4720001220703,-26.134000778198242 -174.4720001220703,-26.134000778198242 C-170.96299743652344,-26.134000778198242 -167.47300720214844,-26.134000778198242 -164.0019989013672,-26.134000778198242 C-157.0590057373047,-26.135000228881836 -150.19500732421875,-26.135000228881836 -143.4149932861328,-26.135000228881836 C-140.02499389648438,-26.135000228881836 -136.65699768066406,-26.135000228881836 -133.3090057373047,-26.135000228881836 C-131.63600158691406,-26.135000228881836 -129.96800231933594,-26.135000228881836 -128.30499267578125,-26.13599967956543 C-128.30499267578125,-26.13599967956543 -125.81600189208984,-26.13599967956543 -125.81600189208984,-26.13599967956543 C-125.37699890136719,-26.138999938964844 -125.04100036621094,-26.128000259399414 -124.5199966430664,-26.14299964904785 C-123.94499969482422,-26.176000595092773 -123.36799621582031,-26.173999786376953 -122.79900360107422,-26.27899932861328 C-118.19999694824219,-26.891000747680664 -114.12000274658203,-29.924999237060547 -112.18000030517578,-34.02799987792969 C-111.66699981689453,-35.04100036621094 -111.33399963378906,-36.1349983215332 -111.0770034790039,-37.237998962402344 C-110.98799896240234,-37.79600143432617 -110.87699890136719,-38.35499954223633 -110.84100341796875,-38.91699981689453 C-110.80899810791016,-39.457000732421875 -110.7760009765625,-40.11899948120117 -110.78600311279297,-40.45199966430664 C-110.78600311279297,-42.06800079345703 -110.78600311279297,-43.67900085449219 -110.78600311279297,-45.284000396728516 C-110.78700256347656,-50.9010009765625 -110.78700256347656,-56.433998107910156 -110.78700256347656,-61.87699890136719 C-110.78900146484375,-63.6510009765625 -110.79100036621094,-65.30699920654297 -110.79299926757812,-66.81700134277344 C-110.8010025024414,-69.83699798583984 -110.80699920654297,-72.27300262451172 -110.81199645996094,-73.89600372314453 C-110.8270034790039,-76.89199829101562 -110.9229965209961,-79.56400299072266 -111.09600067138672,-82.04399871826172 C-111.18299865722656,-83.28399658203125 -111.29000091552734,-84.4749984741211 -111.41600036621094,-85.63500213623047 C-111.47899627685547,-86.1780014038086 -111.54100036621094,-86.71299743652344 -111.60299682617188,-87.24299621582031 C-111.67500305175781,-87.63800048828125 -111.68000030517578,-88.03299713134766 -111.7030029296875,-88.44100189208984 C-111.67900085449219,-90.04100036621094 -111.2249984741211,-91.77200317382812 -110.10600280761719,-93.3499984741211 C-108.99400329589844,-94.90599822998047 -107.2300033569336,-96.35700225830078 -104.71199798583984,-97.00199890136719z"/></g></g><g transform="matrix(1.0000039339065552,0,0,1.0000039339065552,357.50885009765625,148.6645050048828)" opacity="1" fill="rgb(0,0,0)" font-size="86" font-family="Classic Comic" font-style="normal" font-weight="400" aria-label="ioan" style="display: block;"><g stroke-linecap="butt" stroke-linejoin="round" stroke-miterlimit="4" transform="matrix(1,0,0,1,0,0)" opacity="1" style="display: inherit;"><g><g transform="matrix(1,0,0,1,0,0)" opacity="1" style="display: block;"><path d=" M11.69,0.09 C16.11,0.09 16.37,-4.33 16.63,-8.92 C17.15,-19.4 17.41,-23.9 17.41,-29.97 C17.41,-36.9 18.1,-49.37 18.1,-53 C18.1,-57.94 17.84,-62.1 12.9,-62.1 C6.32,-62.1 5.37,-55.78 5.37,-51.62 C5.37,-47.98 5.11,-38.97 5.11,-19.75 C5.11,-13.86 4.94,-8.23 4.94,-6.41 C4.94,-1.56 5.98,0.09 11.69,0.09z"/><g opacity="1" transform="matrix(0.8600000143051147,0,0,0.8600000143051147,0,0)"/></g></g></g><g stroke-linecap="butt" stroke-linejoin="round" stroke-miterlimit="4" transform="matrix(1,0,0,1,22.961997985839844,0)" opacity="1" style="display: inherit;"><g><g transform="matrix(1,0,0,1,0,0)" opacity="1" style="display: block;"><path d=" M74.05,-38.11 C74.05,-53.52 61.06,-62.44 47.63,-62.44 C27.19,-62.44 3.46,-44.69 3.46,-23.04 C3.46,-7.79 13.94,0 29.97,0 C49.11,0 74.05,-13.08 74.05,-38.11z M62.44,-36.2 C62.44,-21.39 46.08,-10.22 29.45,-10.22 C22.69,-10.22 15.94,-13.6 15.94,-22.26 C15.94,-37.42 32.05,-52.23 46.34,-52.23 C55.52,-52.23 62.44,-46.94 62.44,-36.2z"/><g opacity="1" transform="matrix(0.8600000143051147,0,0,0.8600000143051147,0,0)"/></g></g></g><g stroke-linecap="butt" stroke-linejoin="round" stroke-miterlimit="4" transform="matrix(1,0,0,1,99.84599304199219,0)" opacity="1" style="display: inherit;"><g><g transform="matrix(1,0,0,1,0,0)" opacity="1" style="display: block;"><path d=" M41.92,-25.72 C36.38,-25.29 29.36,-25.03 23.73,-24.77 C27.72,-33.34 32.05,-41.83 33,-41.83 C34.12,-41.83 38.02,-34.3 41.92,-25.72z M46.16,-16.28 C48.24,-11.69 49.97,-7.54 51.1,-4.85 C52.57,-1.21 55.17,-0.17 58.11,-0.17 C62.27,-0.17 64,-2.08 64,-5.8 C64,-9.01 54.48,-27.37 45.3,-44.34 C42.52,-49.37 39.75,-56.47 37.67,-60.11 C36.55,-62.01 34.38,-62.62 32.31,-62.62 C28.75,-62.62 26.68,-59.5 25.38,-55.6 C21.39,-43.3 10.74,-23.9 3.03,-8.57 C2.25,-7.02 1.65,-5.46 1.65,-3.9 C1.65,-1.47 3.55,0.09 6.06,0.09 C12.65,0.09 14.55,-3.12 16.8,-8.92 C17.32,-10.31 18.19,-12.38 19.23,-14.81 C26.33,-15.5 38.11,-15.5 46.16,-16.28z"/><g opacity="1" transform="matrix(0.8600000143051147,0,0,0.8600000143051147,0,0)"/></g></g></g><g stroke-linecap="butt" stroke-linejoin="round" stroke-miterlimit="4" transform="matrix(1,0,0,1,164.69000244140625,0)" opacity="1" style="display: inherit;"><g><g transform="matrix(1,0,0,1,0,0)" opacity="1" style="display: block;"><path d=" M16.8,-32.82 C24.51,-22.34 40.19,-1.13 50.75,-1.13 C53.96,-1.13 56.38,-3.03 56.38,-5.72 C56.38,-8.75 54.74,-21.13 54.74,-33.86 C54.74,-40.88 56.12,-56.3 56.12,-58.98 C56.12,-61.49 53.61,-63.4 50.49,-63.4 C47.2,-63.4 43.74,-62.01 43.74,-55.86 C43.74,-54.56 43.82,-52.31 43.82,-50.67 C43.82,-34.12 43.56,-31.18 43.39,-18.01 C24.51,-36.03 18.28,-60.28 8.4,-60.28 C6.06,-60.28 4.68,-58.29 4.68,-56.38 C4.68,-51.79 5.2,-41.23 5.2,-31.53 C5.2,-27.37 4.85,-18.02 4.5,-14.38 C4.33,-12.04 4.16,-8.66 4.16,-6.15 C4.16,-2.16 7.54,0.09 10.74,0.09 C13.94,0.09 16.37,-2.25 16.37,-5.46 C16.37,-7.19 16.46,-9.18 16.46,-11.87 C16.46,-15.42 16.71,-20.61 16.8,-32.82z"/><g opacity="1" transform="matrix(0.8600000143051147,0,0,0.8600000143051147,0,0)"/></g></g></g></g></g></g></svg>