<svg xmlns="http://www.w3.org/2000/svg" xmlns:xlink="http://www.w3.org/1999/xlink" viewBox="0 0 1900 1900" width="1900" height="1900" preserveAspectRatio="xMidYMid meet" style="width: 100%; height: 100%; transform: translate3d(0px, 0px, 0px); content-visibility: visible;"><defs><clipPath id="__lottie_element_574"><rect width="1900" height="1900" x="0" y="0"/></clipPath></defs><g clip-path="url(#__lottie_element_574)"><g transform="matrix(1,0,0,1,234,192)" opacity="1" fill="rgb(0,0,0)" font-size="86" font-family="Classic Comic" font-style="normal" font-weight="400" aria-label="This is the" style="display: block;"><g stroke-linecap="butt" stroke-linejoin="round" stroke-miterlimit="4" transform="matrix(1,0,0,1,0,0)" opacity="1" style="display: inherit;"><g><g transform="matrix(1,0,0,1,0,0)" opacity="1" style="display: block;"><path d=" M35.25,-49.71 C37.93,-50.41 44.86,-51.36 50.06,-51.36 C54.22,-51.36 58.03,-53.44 58.03,-56.99 C58.03,-61.15 53.44,-61.84 50.67,-61.84 C46.25,-61.84 39.58,-60.8 26.07,-59.76 C12.38,-58.72 7.19,-58.98 3.29,-55.95 C2.68,-55.52 0.17,-52.66 0.17,-49.71 C0.17,-47.55 1.47,-45.73 4.16,-45.73 C6.15,-45.73 18.53,-48.15 23.38,-48.24 C23.38,-43.82 23.73,-37.24 23.73,-32.13 C23.73,-23.73 23.64,-17.84 22.78,-8.66 C22.52,-6.06 22.52,-5.54 22.52,-3.98 C22.52,-1.39 23.47,-0.17 26.16,-0.17 C28.32,-0.17 27.46,-0.09 28.23,-0.09 C34.82,-0.17 35.08,-7.8 35.08,-12.56 C35.08,-20.44 35.42,-29.62 35.42,-39.67 C35.42,-42.44 35.25,-46.77 35.25,-49.71z"/><g opacity="1" transform="matrix(0.8600000143051147,0,0,0.8600000143051147,0,0)"/></g></g></g><g stroke-linecap="butt" stroke-linejoin="round" stroke-miterlimit="4" transform="matrix(1,0,0,1,57.705997467041016,0)" opacity="1" style="display: inherit;"><g><g transform="matrix(1,0,0,1,0,0)" opacity="1" style="display: block;"><path d=" M45.73,-25.72 C45.82,-23.99 45.9,-21.31 45.9,-19.57 C45.9,-13.68 45.64,-8.05 45.64,-6.24 C45.64,-1.39 46.68,0.26 52.4,0.26 C56.82,0.26 57.34,-2.77 57.34,-7.36 C57.25,-17.84 57.16,-24.77 57.16,-30.83 C57.16,-37.76 57.85,-49.71 57.85,-53.35 C57.85,-58.29 55.69,-60.19 49.89,-60.19 C47.64,-60.19 46.16,-58.89 45.99,-57.08 C45.82,-54.74 45.82,-50.67 45.82,-49.71 C45.82,-46.08 45.82,-39.67 45.73,-36.03 C34.47,-35.34 28.15,-34.82 17.32,-34.73 C17.76,-45.64 18.79,-52.57 18.79,-54.82 C18.79,-57.25 17.93,-60.11 11.43,-60.11 C8.49,-60.11 6.24,-57.85 6.24,-50.49 C6.24,-42.44 5.37,-34.21 5.37,-22.35 C5.37,-17.24 5.46,-9.96 5.72,-4.42 C5.89,-0.61 8.66,0.69 10.57,0.69 C13.34,0.69 16.98,-0.69 16.98,-5.54 C16.98,-10.05 16.8,-14.2 16.8,-18.01 C16.8,-20.35 16.89,-22.6 17.06,-24.77 C29.01,-25.46 35.42,-25.72 45.73,-25.72z"/><g opacity="1" transform="matrix(0.8600000143051147,0,0,0.8600000143051147,0,0)"/></g></g></g><g stroke-linecap="butt" stroke-linejoin="round" stroke-miterlimit="4" transform="matrix(1,0,0,1,119.71200561523438,0)" opacity="1" style="display: inherit;"><g><g transform="matrix(1,0,0,1,0,0)" opacity="1" style="display: block;"><path d=" M11.69,0.09 C16.11,0.09 16.37,-4.33 16.63,-8.92 C17.15,-19.4 17.41,-23.9 17.41,-29.97 C17.41,-36.9 18.1,-49.37 18.1,-53 C18.1,-57.94 17.84,-62.1 12.9,-62.1 C6.32,-62.1 5.37,-55.78 5.37,-51.62 C5.37,-47.98 5.11,-38.97 5.11,-19.75 C5.11,-13.86 4.94,-8.23 4.94,-6.41 C4.94,-1.56 5.98,0.09 11.69,0.09z"/><g opacity="1" transform="matrix(0.8600000143051147,0,0,0.8600000143051147,0,0)"/></g></g></g><g stroke-linecap="butt" stroke-linejoin="round" stroke-miterlimit="4" transform="matrix(1,0,0,1,142.67401123046875,0)" opacity="1" style="display: inherit;"><g><g transform="matrix(1,0,0,1,0,0)" opacity="1" style="display: block;"><path d=" M61.41,-24.42 C61.41,-35.6 49.63,-35.68 41.05,-35.68 C35.6,-35.68 29.19,-34.21 21.31,-34.21 C18.45,-34.38 16.37,-35.08 16.37,-36.64 C16.37,-42.44 27.11,-50.49 36.81,-50.49 C44.34,-50.49 45.47,-46.68 48.59,-46.68 C51.62,-46.68 53.7,-48.5 53.7,-51.27 C53.7,-57.42 47.72,-61.49 39.75,-61.49 C19.49,-61.49 2.25,-48.5 2.25,-36.03 C2.25,-27.28 11.26,-24.34 22.52,-24.34 C29.1,-24.34 36.46,-25.46 39.67,-25.46 C43.22,-25.46 47.2,-24.86 47.2,-22.09 C47.2,-14.64 36.72,-10.74 26.68,-10.74 C17.41,-10.74 13.25,-16.28 8.14,-16.28 C5.72,-16.28 4.5,-15.24 4.5,-13.42 C4.5,-12.13 5.2,-10.48 6.5,-8.57 C10.83,-2.43 18.79,0 29.97,0 C49.28,0 61.41,-12.65 61.41,-24.42z"/><g opacity="1" transform="matrix(0.8600000143051147,0,0,0.8600000143051147,0,0)"/></g></g></g><g stroke-linecap="butt" stroke-linejoin="round" stroke-miterlimit="4" transform="matrix(1,0,0,1,205.45399475097656,0)" opacity="1" style="display: inherit;"><g><g style="display: none;"/></g></g><g stroke-linecap="butt" stroke-linejoin="round" stroke-miterlimit="4" transform="matrix(1,0,0,1,238.13400268554688,0)" opacity="1" style="display: inherit;"><g><g transform="matrix(1,0,0,1,0,0)" opacity="1" style="display: block;"><path d=" M11.69,0.09 C16.11,0.09 16.37,-4.33 16.63,-8.92 C17.15,-19.4 17.41,-23.9 17.41,-29.97 C17.41,-36.9 18.1,-49.37 18.1,-53 C18.1,-57.94 17.84,-62.1 12.9,-62.1 C6.32,-62.1 5.37,-55.78 5.37,-51.62 C5.37,-47.98 5.11,-38.97 5.11,-19.75 C5.11,-13.86 4.94,-8.23 4.94,-6.41 C4.94,-1.56 5.98,0.09 11.69,0.09z"/><g opacity="1" transform="matrix(0.8600000143051147,0,0,0.8600000143051147,0,0)"/></g></g></g><g stroke-linecap="butt" stroke-linejoin="round" stroke-miterlimit="4" transform="matrix(1,0,0,1,261.09600830078125,0)" opacity="0" style="display: inherit;"><g><g transform="matrix(1,0,0,1,0,0)" opacity="1" style="display: block;"><path d=" M61.41,-24.42 C61.41,-35.6 49.63,-35.68 41.05,-35.68 C35.6,-35.68 29.19,-34.21 21.31,-34.21 C18.45,-34.38 16.37,-35.08 16.37,-36.64 C16.37,-42.44 27.11,-50.49 36.81,-50.49 C44.34,-50.49 45.47,-46.68 48.59,-46.68 C51.62,-46.68 53.7,-48.5 53.7,-51.27 C53.7,-57.42 47.72,-61.49 39.75,-61.49 C19.49,-61.49 2.25,-48.5 2.25,-36.03 C2.25,-27.28 11.26,-24.34 22.52,-24.34 C29.1,-24.34 36.46,-25.46 39.67,-25.46 C43.22,-25.46 47.2,-24.86 47.2,-22.09 C47.2,-14.64 36.72,-10.74 26.68,-10.74 C17.41,-10.74 13.25,-16.28 8.14,-16.28 C5.72,-16.28 4.5,-15.24 4.5,-13.42 C4.5,-12.13 5.2,-10.48 6.5,-8.57 C10.83,-2.43 18.79,0 29.97,0 C49.28,0 61.41,-12.65 61.41,-24.42z"/><g opacity="1" transform="matrix(0.8600000143051147,0,0,0.8600000143051147,0,0)"/></g></g></g><g stroke-linecap="butt" stroke-linejoin="round" stroke-miterlimit="4" transform="matrix(1,0,0,1,323.8760070800781,0)" opacity="0" style="display: inherit;"><g><g style="display: none;"/></g></g><g stroke-linecap="butt" stroke-linejoin="round" stroke-miterlimit="4" transform="matrix(1,0,0,1,356.5559997558594,0)" opacity="0" style="display: inherit;"><g><g transform="matrix(1,0,0,1,0,0)" opacity="1" style="display: block;"><path d=" M33.86,-49.71 C36.55,-50.41 42.61,-51.1 47.81,-51.1 C51.97,-51.1 54.04,-53.44 54.04,-56.99 C54.04,-61.15 51.19,-61.84 48.41,-61.84 C44,-61.84 39.93,-60.8 26.42,-59.76 C12.73,-58.72 8.49,-58.2 4.5,-56.3 C2.68,-55.43 1.39,-52.66 1.39,-49.71 C1.39,-47.55 2.68,-45.73 5.37,-45.73 C7.36,-45.73 17.15,-48.15 22,-48.24 C22,-43.82 22.35,-37.24 22.35,-32.13 C22.35,-22.95 21.31,-15.33 21.31,-6.76 C21.31,-1.9 22.43,-0.09 26.85,-0.09 C33.43,-0.09 33.69,-9.53 33.69,-14.29 C33.69,-22.17 34.04,-29.62 34.04,-39.67 C34.04,-42.44 33.86,-46.77 33.86,-49.71z"/><g opacity="1" transform="matrix(0.8600000143051147,0,0,0.8600000143051147,0,0)"/></g></g></g><g stroke-linecap="butt" stroke-linejoin="round" stroke-miterlimit="4" transform="matrix(1,0,0,1,411.6819763183594,0)" opacity="0" style="display: inherit;"><g><g transform="matrix(1,0,0,1,0,0)" opacity="1" style="display: block;"><path d=" M45.73,-25.72 C45.82,-23.99 45.9,-21.31 45.9,-19.57 C45.9,-13.68 45.64,-8.05 45.64,-6.24 C45.64,-1.39 46.68,0.26 52.4,0.26 C56.82,0.26 57.34,-2.77 57.34,-7.36 C57.25,-17.84 57.16,-24.77 57.16,-30.83 C57.16,-37.76 57.85,-49.71 57.85,-53.35 C57.85,-58.29 55.69,-60.19 49.89,-60.19 C47.64,-60.19 46.16,-58.89 45.99,-57.08 C45.82,-54.74 45.82,-50.67 45.82,-49.71 C45.82,-46.08 45.82,-39.67 45.73,-36.03 C34.47,-35.34 28.15,-34.82 17.32,-34.73 C17.76,-45.64 18.79,-52.57 18.79,-54.82 C18.79,-57.25 17.93,-60.11 11.43,-60.11 C8.49,-60.11 6.24,-57.85 6.24,-50.49 C6.24,-42.44 5.37,-34.21 5.37,-22.35 C5.37,-17.24 5.46,-9.96 5.72,-4.42 C5.89,-0.61 8.66,0.69 10.57,0.69 C13.34,0.69 16.98,-0.69 16.98,-5.54 C16.98,-10.05 16.8,-14.2 16.8,-18.01 C16.8,-20.35 16.89,-22.6 17.06,-24.77 C29.01,-25.46 35.42,-25.72 45.73,-25.72z"/><g opacity="1" transform="matrix(0.8600000143051147,0,0,0.8600000143051147,0,0)"/></g></g></g><g stroke-linecap="butt" stroke-linejoin="round" stroke-miterlimit="4" transform="matrix(1,0,0,1,473.6880187988281,0)" opacity="0" style="display: inherit;"><g><g transform="matrix(1,0,0,1,0,0)" opacity="1" style="display: block;"><path d=" M11.26,-57.34 C6.93,-57.34 6.06,-52.48 5.89,-49.28 C5.54,-44.34 5.54,-43.3 5.54,-42.18 C5.46,-39.23 5.54,-35.86 5.54,-29.1 C5.54,-22.95 4.5,-13.25 4.5,-8.4 C4.5,-6.41 4.24,-5.28 4.24,-4.07 C4.5,-1.39 6.32,0.26 8.92,0.26 C9.87,0.35 10.39,0.35 11.09,0.35 C21.74,0.35 35.08,-2.34 42.18,-2.94 C47.64,-3.38 51.01,-6.15 51.01,-9.09 C51.01,-11.87 48.15,-13.51 44.52,-13.51 C34.73,-13.51 28.15,-11.17 21.65,-11.17 C19.83,-11.17 17.75,-11.17 16.54,-11.35 C16.37,-12.82 16.37,-15.5 16.37,-17.41 C16.37,-22.26 16.46,-22.52 16.46,-23.99 C26.16,-25.64 32.65,-25.38 41.57,-26.85 C44.6,-27.37 48.59,-29.45 48.59,-32.56 C48.59,-35.08 46.94,-36.98 44,-36.98 C38.11,-36.98 27.45,-34.73 16.8,-34.73 C16.8,-36.46 16.89,-35.86 16.89,-37.59 C16.89,-40.53 16.98,-44.78 17.24,-47.29 C20.27,-47.29 32.22,-47.98 45.56,-48.93 C48.59,-49.11 51.53,-51.97 51.53,-55 C51.53,-57.85 49.45,-59.93 47.29,-59.93 C43.57,-59.93 30.05,-57.34 16.02,-57.34 C16.02,-57.34 11.26,-57.34 11.26,-57.34z"/><g opacity="1" transform="matrix(0.8600000143051147,0,0,0.8600000143051147,0,0)"/></g></g></g></g><g transform="matrix(1,0,0,1,1250,922)" opacity="1" fill="rgb(0,0,0)" font-size="86" font-family="Classic Comic" font-style="normal" font-weight="400" aria-label="project" style="display: block;"><g stroke-linecap="butt" stroke-linejoin="round" stroke-miterlimit="4" transform="matrix(1,0,0,1,0,0)" opacity="0" style="display: inherit;"><g><g transform="matrix(1,0,0,1,0,0)" opacity="1" style="display: block;"><path d=" M18.1,-47.63 C24.51,-49.89 30.49,-50.75 34.82,-50.75 C41.31,-50.75 44,-48.5 44,-45.56 C44,-39.49 32.74,-30.31 18.1,-30.31 C18.1,-30.31 18.1,-47.63 18.1,-47.63z M18.27,-20.27 C40.88,-21.48 57.16,-34.3 57.16,-48.59 C57.16,-58.2 48.33,-61.75 36.29,-61.75 C27.46,-61.75 6.76,-59.85 5.63,-54.91 C5.28,-53.35 5.11,-52.31 5.11,-49.54 C5.11,-45.12 5.54,-39.41 5.54,-35.25 C5.54,-31.09 5.72,-27.11 5.72,-22.61 C5.72,-16.28 4.94,-11 4.94,-4.5 C4.94,-1.13 7.54,0.52 10.48,0.52 C14.12,0.52 18.27,-2.08 18.27,-6.84 C18.27,-9.7 18.19,-13.16 18.19,-15.68 C18.19,-16.98 18.19,-19.05 18.27,-20.27z"/><g opacity="1" transform="matrix(0.8600000143051147,0,0,0.8600000143051147,0,0)"/></g></g></g><g stroke-linecap="butt" stroke-linejoin="round" stroke-miterlimit="4" transform="matrix(1,0,0,1,58.04999923706055,0)" opacity="0" style="display: inherit;"><g><g transform="matrix(1,0,0,1,0,0)" opacity="1" style="display: block;"><path d=" M17.93,-47.81 C24.34,-49.8 29.45,-49.97 33.78,-49.97 C38.54,-49.97 42.53,-49.71 42.53,-46.16 C42.53,-38.71 27.89,-33.17 17.93,-32.91 C17.93,-32.91 17.93,-47.81 17.93,-47.81z M18.1,-22.86 C22.78,-18.97 28.06,-14.38 29.97,-12.47 C37.07,-5.02 42.44,-0.35 47.81,-0.35 C50.67,-0.35 53.7,-1.99 53.7,-5.2 C53.7,-8.31 49.28,-11.52 40.53,-18.97 C38.02,-21.05 35.6,-23.3 33.26,-25.38 C47.29,-29.62 56.12,-38.28 56.12,-47.81 C56.12,-57.42 47.29,-60.97 35.25,-60.97 C22.08,-60.97 7.27,-59.59 5.63,-55.78 C4.94,-54.22 4.94,-52.31 4.94,-49.54 C4.94,-45.12 5.37,-39.41 5.37,-35.25 C5.37,-31.09 5.54,-27.11 5.54,-22.61 C5.54,-16.28 4.76,-11 4.76,-4.5 C4.76,-1.73 6.32,0.43 8.66,0.43 C17.15,0.43 18.1,-5.11 18.1,-7.62 C18.1,-10.83 17.93,-13.25 17.93,-15.68 C17.93,-18.1 17.93,-20.53 18.1,-22.86z"/><g opacity="1" transform="matrix(0.8600000143051147,0,0,0.8600000143051147,0,0)"/></g></g></g><g stroke-linecap="butt" stroke-linejoin="round" stroke-miterlimit="4" transform="matrix(1,0,0,1,115.9280014038086,0)" opacity="0" style="display: inherit;"><g><g transform="matrix(1,0,0,1,0,0)" opacity="1" style="display: block;"><path d=" M74.05,-38.11 C74.05,-53.52 61.06,-62.44 47.63,-62.44 C27.19,-62.44 3.46,-44.69 3.46,-23.04 C3.46,-7.79 13.94,0 29.97,0 C49.11,0 74.05,-13.08 74.05,-38.11z M62.44,-36.2 C62.44,-21.39 46.08,-10.22 29.45,-10.22 C22.69,-10.22 15.94,-13.6 15.94,-22.26 C15.94,-37.42 32.05,-52.23 46.34,-52.23 C55.52,-52.23 62.44,-46.94 62.44,-36.2z"/><g opacity="1" transform="matrix(0.8600000143051147,0,0,0.8600000143051147,0,0)"/></g></g></g><g stroke-linecap="butt" stroke-linejoin="round" stroke-miterlimit="4" transform="matrix(1,0,0,1,192.81201171875,0)" opacity="0" style="display: inherit;"><g><g transform="matrix(1,0,0,1,0,0)" opacity="1" style="display: block;"><path d=" M38.89,-49.71 C38.8,-43.48 38.63,-33.69 38.63,-29.01 C38.63,-22.43 38.28,-19.14 36.55,-16.46 C32.91,-10.83 28.41,-9.27 24.6,-9.27 C19.31,-9.27 14.98,-10.57 14.98,-15.16 C14.98,-17.06 17.06,-19.23 17.06,-20.87 C17.06,-23.82 13.6,-24.51 11.95,-24.51 C5.2,-24.51 2.77,-17.24 2.77,-12.13 C2.77,-3.9 14.38,1.91 23.21,1.91 C31.18,1.91 39.93,-1.21 44.95,-6.58 C49.45,-11.43 50.23,-15.76 50.23,-21.65 C50.23,-24.51 50.06,-27.02 50.06,-29.88 C50.06,-37.93 50.75,-47.37 50.93,-50.41 C51.45,-50.32 51.7,-50.32 52.4,-50.32 C55.08,-50.32 58.37,-52.31 58.37,-55.86 C58.37,-60.45 55.26,-60.54 53.26,-60.54 C51.36,-60.54 47.98,-60.54 39.06,-60.45 C32.74,-60.37 26.42,-59.67 26.42,-54.04 C26.42,-52.23 27.89,-49.11 32.05,-49.11 C33.95,-49.11 36.12,-49.37 38.89,-49.71z"/><g opacity="1" transform="matrix(0.8600000143051147,0,0,0.8600000143051147,0,0)"/></g></g></g><g stroke-linecap="butt" stroke-linejoin="round" stroke-miterlimit="4" transform="matrix(1,0,0,1,245.87399291992188,0)" opacity="0" style="display: inherit;"><g><g transform="matrix(1,0,0,1,0,0)" opacity="1" style="display: block;"><path d=" M11.26,-57.34 C6.93,-57.34 6.06,-52.48 5.89,-49.28 C5.54,-44.34 5.54,-43.3 5.54,-42.18 C5.46,-39.23 5.54,-35.86 5.54,-29.1 C5.54,-22.95 4.5,-13.25 4.5,-8.4 C4.5,-6.41 4.24,-5.28 4.24,-4.07 C4.5,-1.39 6.32,0.26 8.92,0.26 C9.87,0.35 10.39,0.35 11.09,0.35 C21.74,0.35 35.08,-2.34 42.18,-2.94 C47.64,-3.38 51.01,-6.15 51.01,-9.09 C51.01,-11.87 48.15,-13.51 44.52,-13.51 C34.73,-13.51 28.15,-11.17 21.65,-11.17 C19.83,-11.17 17.75,-11.17 16.54,-11.35 C16.37,-12.82 16.37,-15.5 16.37,-17.41 C16.37,-22.26 16.46,-22.52 16.46,-23.99 C26.16,-25.64 32.65,-25.38 41.57,-26.85 C44.6,-27.37 48.59,-29.45 48.59,-32.56 C48.59,-35.08 46.94,-36.98 44,-36.98 C38.11,-36.98 27.45,-34.73 16.8,-34.73 C16.8,-36.46 16.89,-35.86 16.89,-37.59 C16.89,-40.53 16.98,-44.78 17.24,-47.29 C20.27,-47.29 32.22,-47.98 45.56,-48.93 C48.59,-49.11 51.53,-51.97 51.53,-55 C51.53,-57.85 49.45,-59.93 47.29,-59.93 C43.57,-59.93 30.05,-57.34 16.02,-57.34 C16.02,-57.34 11.26,-57.34 11.26,-57.34z"/><g opacity="1" transform="matrix(0.8600000143051147,0,0,0.8600000143051147,0,0)"/></g></g></g><g stroke-linecap="butt" stroke-linejoin="round" stroke-miterlimit="4" transform="matrix(1,0,0,1,298.4200134277344,0)" opacity="0" style="display: inherit;"><g><g transform="matrix(1,0,0,1,0,0)" opacity="1" style="display: block;"><path d=" M55.34,-16.63 C55.34,-18.97 54.04,-20.79 51.19,-20.79 C45.56,-20.79 44.17,-10.22 26.85,-10.22 C21.13,-10.22 15.07,-12.65 15.07,-20.01 C15.07,-33.43 25.12,-49.28 37.24,-49.28 C44.6,-49.28 46.42,-44.52 50.15,-44.52 C52.74,-44.52 54.91,-45.64 54.91,-49.54 C54.91,-57.68 47.29,-61.41 40.27,-61.41 C22.95,-61.41 2.6,-41.57 2.6,-19.31 C2.6,-5.98 15.16,0.87 28.67,0.87 C39.67,0.87 55.34,-8.14 55.34,-16.63z"/><g opacity="1" transform="matrix(0.8600000143051147,0,0,0.8600000143051147,0,0)"/></g></g></g><g stroke-linecap="butt" stroke-linejoin="round" stroke-miterlimit="4" transform="matrix(1,0,0,1,355.6099853515625,0)" opacity="0" style="display: inherit;"><g><g transform="matrix(1,0,0,1,0,0)" opacity="1" style="display: block;"><path d=" M33.86,-49.71 C36.55,-50.41 42.61,-51.1 47.81,-51.1 C51.97,-51.1 54.04,-53.44 54.04,-56.99 C54.04,-61.15 51.19,-61.84 48.41,-61.84 C44,-61.84 39.93,-60.8 26.42,-59.76 C12.73,-58.72 8.49,-58.2 4.5,-56.3 C2.68,-55.43 1.39,-52.66 1.39,-49.71 C1.39,-47.55 2.68,-45.73 5.37,-45.73 C7.36,-45.73 17.15,-48.15 22,-48.24 C22,-43.82 22.35,-37.24 22.35,-32.13 C22.35,-22.95 21.31,-15.33 21.31,-6.76 C21.31,-1.9 22.43,-0.09 26.85,-0.09 C33.43,-0.09 33.69,-9.53 33.69,-14.29 C33.69,-22.17 34.04,-29.62 34.04,-39.67 C34.04,-42.44 33.86,-46.77 33.86,-49.71z"/><g opacity="1" transform="matrix(0.8600000143051147,0,0,0.8600000143051147,0,0)"/></g></g></g></g><g transform="matrix(0,0,0,0,312.67401123046875,552.5369873046875)" opacity="1" style="display: block;"><g opacity="1" transform="matrix(1,0,0,1,99.78500366210938,200.0070037841797)"><path fill="rgb(255,255,255)" fill-opacity="1" d=" M-69.66699981689453,-0.3409999907016754 C-68.59700012207031,-4.169000148773193 -67.53299713134766,-7.998000144958496 -66.45700073242188,-11.824999809265137 C-64.78199768066406,-17.780000686645508 -61.42399978637695,-22.73699951171875 -57.69900131225586,-27.621999740600586 C-53.49700164794922,-33.132999420166016 -48.46200180053711,-37.702999114990234 -43.02299880981445,-41.79899978637695 C-36.28099822998047,-46.87799835205078 -29.06399917602539,-51.375999450683594 -21.033000946044922,-54.112998962402344 C-16.29800033569336,-55.72800064086914 -11.305999755859375,-56.87799835205078 -6.214000225067139,-56.93899917602539 C-2.0429999828338623,-56.98899841308594 2.121999979019165,-57.25899887084961 6.215000152587891,-57.915000915527344 C9.868000030517578,-58.500999450683594 13.32699966430664,-57.604000091552734 16.829999923706055,-57.19900131225586 C20.788999557495117,-56.7400016784668 24.746000289916992,-56.00899887084961 28.55699920654297,-54.69900131225586 C29.825000762939453,-54.262001037597656 31.099000930786133,-54.0099983215332 31.952999114990234,-52.77000045776367 C32.28200149536133,-52.29399871826172 33.10599899291992,-51.89099884033203 33.69300079345703,-51.90599822998047 C36.25,-51.96799850463867 38.17499923706055,-50.80500030517578 39.941001892089844,-49.138999938964844 C40.439998626708984,-48.66899871826172 41.650001525878906,-48.48699951171875 41.08100128173828,-47.6150016784668 C40.44599914550781,-46.638999938964844 40.858001708984375,-44.875999450683594 39.10300064086914,-44.70800018310547 C38.29600143432617,-44.630001068115234 37.45600128173828,-44.54399871826172 36.66699981689453,-44.67599868774414 C28.586999893188477,-46.025001525878906 20.618000030517578,-44.93600082397461 12.76099967956543,-43.2599983215332 C1.7339999675750732,-40.90700149536133 -8.206999778747559,-36.145999908447266 -17.518999099731445,-29.68600082397461 C-27.673999786376953,-22.641000747680664 -34.86399841308594,-13.371000289916992 -40.28799819946289,-2.5420000553131104 C-42.01100158691406,0.8970000147819519 -43.4119987487793,4.52400016784668 -43.95199966430664,8.388999938964844 C-44.12300109863281,9.61299991607666 -44.59400177001953,10.99899959564209 -43.512001037597656,11.984000205993652 C-42.409000396728516,12.98799991607666 -41.22200012207031,12.090999603271484 -40.18299865722656,11.663999557495117 C-33.917999267578125,9.092000007629395 -28.191999435424805,5.505000114440918 -22.349000930786133,2.134999990463257 C-17.79800033569336,-0.49000000953674316 -13.38700008392334,-3.3940000534057617 -8.522000312805176,-5.423999786376953 C-2.73799991607666,-7.8379998207092285 3.371000051498413,-9.116999626159668 9.534000396728516,-10.119999885559082 C14.963000297546387,-11.003999710083008 20.398000717163086,-11.65999984741211 25.93600082397461,-11.642999649047852 C31.858999252319336,-11.62399959564209 37.34400177001953,-9.708000183105469 42.95800018310547,-8.347999572753906 C46.685001373291016,-7.445000171661377 50.380001068115234,-6.199999809265137 53.90299987792969,-4.809000015258789 C58.40700149536133,-3.0320000648498535 63.14699935913086,-1.0410000085830688 65.99700164794922,3.2920000553131104 C67.90599822998047,6.193999767303467 68.31600189208984,9.661999702453613 68.81900024414062,13.043000221252441 C69.66699981689453,18.746999740600586 68.19400024414062,23.944000244140625 65.2229995727539,28.750999450683594 C62.792999267578125,32.68199920654297 61.448001861572266,37.112998962402344 59.15999984741211,41.130001068115234 C54.93299865722656,48.553001403808594 48.862998962402344,53.00699996948242 40.36399841308594,54.027000427246094 C36.81100082397461,54.452999114990234 33.361000061035156,55.14899826049805 29.92300033569336,56.207000732421875 C25.290000915527344,57.63199996948242 20.400999069213867,57.733001708984375 15.586999893188477,58.143001556396484 C14.557999610900879,58.23099899291992 13.494999885559082,58.02299880981445 12.51099967956543,58.5 C10.725000381469727,58.5 8.937999725341797,58.5 7.1519999504089355,58.5 C3.9100000858306885,58.194000244140625 0.593999981880188,58.220001220703125 -2.556999921798706,57.507999420166016 C-8.086999893188477,56.2599983215332 -13.73900032043457,56.084999084472656 -19.302000045776367,55.138999938964844 C-29.05500030517578,53.48099899291992 -38.573001861572266,50.959999084472656 -48.04199981689453,48.19499969482422 C-48.875999450683594,47.95199966430664 -49.69900131225586,47.45100021362305 -49.79499816894531,46.3849983215332 C-50.12799835205078,42.691001892089844 -47.801998138427734,40.71799850463867 -44.112998962402344,41.35900115966797 C-40.040000915527344,42.06700134277344 -35.965999603271484,43.21699905395508 -31.913999557495117,43.48699951171875 C-20.950000762939453,44.21799850463867 -10,45.17300033569336 0.9710000157356262,45.79999923706055 C7.53000020980835,46.17399978637695 14.01200008392334,45.446998596191406 19.849000930786133,42.4739990234375 C26.11199951171875,39.284000396728516 31.874000549316406,35.20600128173828 36.47100067138672,29.729000091552734 C38.87200164794922,26.868999481201172 40.58000183105469,23.836999893188477 40.15999984741211,19.858999252319336 C39.83000183105469,16.731000900268555 39.345001220703125,13.70199966430664 38,10.831000328063965 C37.215999603271484,9.156999588012695 36.875,7.197000026702881 35.499000549316406,5.9039998054504395 C33.68199920654297,4.196000099182129 31.881000518798828,6.078999996185303 30.101999282836914,6.335999965667725 C23.868999481201172,7.234000205993652 18.125999450683594,9.718000411987305 12.439000129699707,12.276000022888184 C2.9619998931884766,16.53700065612793 -6.314000129699707,21.35300064086914 -16.58799934387207,23.483999252319336 C-23.655000686645508,24.950000762939453 -30.80500030517578,25.94099998474121 -38.018001556396484,24.263999938964844 C-39.89400100708008,23.827999114990234 -41.66999816894531,23.0939998626709 -43.611000061035156,22.80699920654297 C-49.862998962402344,21.884000778198242 -55.98699951171875,20.367000579833984 -61.99399948120117,18.39299964904785 C-64.85800170898438,17.45199966430664 -66.697998046875,15.595999717712402 -67.87699890136719,12.763999938964844 C-68.92900085449219,10.23799991607666 -69.13500213623047,7.605000019073486 -69.66699981689453,5.007999897003174 C-69.66699981689453,3.2249999046325684 -69.66699981689453,1.4420000314712524 -69.66699981689453,-0.3409999907016754z"/></g></g><g transform="matrix(0,0,0,0,631.0980224609375,523.4219970703125)" opacity="1" style="display: block;"><g opacity="1" transform="matrix(1,0,0,1,241.83299255371094,186.9929962158203)"><path fill="rgb(255,255,255)" fill-opacity="1" d=" M1.527999997138977,-53.68299865722656 C1.1970000267028809,-51.375 2.1440000534057617,-49.92499923706055 2.5929999351501465,-48.40299987792969 C2.9549999237060547,-47.17499923706055 4.361000061035156,-46.66699981689453 5.734000205993652,-46.750999450683594 C7.2829999923706055,-46.84700012207031 8.201000213623047,-46.23500061035156 9.305999755859375,-45.00299835205078 C12.888999938964844,-41.00600051879883 16.281999588012695,-36.856998443603516 19.336000442504883,-32.474998474121094 C24.81800079345703,-24.60700035095215 30.243999481201172,-16.707000732421875 35.27899932861328,-8.519000053405762 C40.395999908447266,-0.19599999487400055 45.07699966430664,8.357000350952148 49.89799880981445,16.836000442504883 C52.0989990234375,20.70800018310547 54.47700119018555,24.420000076293945 57.01499938964844,28.073999404907227 C59.01599884033203,30.95599937438965 60.650001525878906,34.14099884033203 62.082000732421875,37.35300064086914 C63.58399963378906,40.72100067138672 62.49399948120117,41.845001220703125 58.755001068115234,41.71099853515625 C54.25,41.54999923706055 49.74599838256836,41.92100143432617 45.22600173950195,41.51900100708008 C41.79899978637695,41.2140007019043 38.7760009765625,40.51900100708008 36.81999969482422,37.40399932861328 C36.2760009765625,36.53799819946289 35.48099899291992,35.99800109863281 34.43600082397461,35.95899963378906 C32.17599868774414,35.874000549316406 30.726999282836914,34.553001403808594 29.634000778198242,32.7760009765625 C27.30299949645996,28.98699951171875 24.986000061035156,25.18899917602539 22.743000030517578,21.347999572753906 C21.108999252319336,18.549999237060547 20.599000930786133,18.215999603271484 17.392000198364258,18.719999313354492 C7.627999782562256,20.256999969482422 -2.109999895095825,21.9950008392334 -11.906999588012695,23.280000686645508 C-16.523000717163086,23.88599967956543 -21.180999755859375,24.54800033569336 -25.871999740600586,24.465999603271484 C-27.20199966430664,24.441999435424805 -27.464000701904297,25.334999084472656 -27.76799964904785,26.253999710083008 C-30.701000213623047,35.1349983215332 -34.59400177001953,43.6349983215332 -38.137001037597656,52.27399826049805 C-38.64099884033203,53.50199890136719 -39.25199890136719,54.722999572753906 -40.025001525878906,55.79499816894531 C-41.25199890136719,57.49800109863281 -42.93199920654297,58.24399948120117 -45.090999603271484,57.650001525878906 C-47.066001892089844,57.106998443603516 -49.01599884033203,57.32099914550781 -51.02299880981445,57.7400016784668 C-54.090999603271484,58.38100051879883 -57.1879997253418,58.55500030517578 -60.1879997253418,57.20100021362305 C-63.04600143432617,55.9119987487793 -63.58399963378906,55.01100158691406 -62.81999969482422,52.00699996948242 C-61.57699966430664,47.125 -60.05500030517578,42.29600143432617 -57.948001861572266,37.74700164794922 C-55.75600051879883,33.01499938964844 -54.32600021362305,28.038999557495117 -52.54100036621094,23.184999465942383 C-48.06999969482422,11.022000312805176 -43.7869987487793,-1.2109999656677246 -39.55500030517578,-13.458999633789062 C-35.439998626708984,-25.368999481201172 -31.426000595092773,-37.31399917602539 -27.910999298095703,-49.41699981689453 C-27.375999450683594,-51.25600051879883 -26.53499984741211,-52.84600067138672 -25.104999542236328,-54.119998931884766 C-24.41200065612793,-54.73699951171875 -23.684999465942383,-55.1619987487793 -22.68400001525879,-54.861000061035156 C-21.1200008392334,-54.39099884033203 -19.993999481201172,-55.025001525878906 -19.01099967956543,-56.26100158691406 C-18.20400047302246,-57.275001525878906 -17.351999282836914,-58.55500030517578 -15.746000289916992,-57.23500061035156 C-15.331999778747559,-56.89400100708008 -14.840999603271484,-57.57899856567383 -14.57699966430664,-57.516998291015625 C-12.807000160217285,-57.0989990234375 -11.098999977111816,-56.52799987792969 -9.206000328063965,-56.624000549316406 C-8.88700008392334,-56.64099884033203 -8.6850004196167,-54.715999603271484 -7.27400016784668,-55.7760009765625 C-6.98199987411499,-55.99599838256836 -7.056000232696533,-55.39400100708008 -6.953999996185303,-55.17100143432617 C-6.214000225067139,-53.55400085449219 -4.425000190734863,-52.9010009765625 -2.9570000171661377,-53.847999572753906 C-2.1530001163482666,-54.36600112915039 -2.0320000648498535,-53.89899826049805 -1.6100000143051147,-53.41999816894531 C-0.7710000276565552,-52.46900177001953 0.21299999952316284,-51.81100082397461 1.527999997138977,-53.68299865722656z M-19.413999557495117,5.809999942779541 C-17.910999298095703,5.480000019073486 -16.77400016784668,5.224999904632568 -15.635000228881836,4.980000019073486 C-8.248000144958496,3.3910000324249268 -0.8659999966621399,1.7740000486373901 6.53000020980835,0.23100000619888306 C8.994999885559082,-0.28299999237060547 9.060999870300293,-0.3499999940395355 7.776000022888184,-2.434999942779541 C4.979000091552734,-6.9730000495910645 2.2699999809265137,-11.567000389099121 -0.5730000138282776,-16.076000213623047 C-2.255000114440918,-18.743999481201172 -4.124000072479248,-21.29400062561035 -6.2179999351501465,-24.347999572753906 C-10.312999725341797,-13.9399995803833 -15.194000244140625,-4.421000003814697 -19.413999557495117,5.809999942779541z"/></g></g><g transform="matrix(0,0,0,0,980.8350219726562,487.87298583984375)" opacity="1" style="display: block;"><g opacity="1" transform="matrix(1,0,0,1,397.9259948730469,171.0229949951172)"><path fill="rgb(255,255,255)" fill-opacity="1" d=" M37.49100112915039,-0.8489999771118164 C32.07400131225586,8.95199966430664 27.562999725341797,18.70400047302246 23.25,28.55500030517578 C22.179000854492188,31 20.97800064086914,33.39400100708008 19.738000869750977,35.7599983215332 C18.301000595092773,38.50199890136719 17.33799934387207,38.95199966430664 14.333000183105469,38.1510009765625 C12.635000228881836,37.698001861572266 11.329999923706055,37.856998443603516 10.201000213623047,39.32600021362305 C7.388999938964844,42.98699951171875 3.4660000801086426,43.07600021362305 -0.5239999890327454,42.23500061035156 C-2.4240000247955322,41.83399963378906 -4.223999977111816,41.49100112915039 -6.201000213623047,41.58100128173828 C-11.125,41.80500030517578 -15.972000122070312,40.8120002746582 -20.80500030517578,40.05400085449219 C-23.68899917602539,39.60200119018555 -25.048999786376953,36.948001861572266 -26.447999954223633,34.70399856567383 C-30.302000045776367,28.525999069213867 -33.034000396728516,21.753999710083008 -36.54100036621094,15.381999969482422 C-39.321998596191406,10.329999923706055 -43.06999969482422,6.065999984741211 -46.487998962402344,1.5479999780654907 C-46.487998962402344,5.742000102996826 -46.5989990234375,9.838000297546387 -46.46099853515625,13.925999641418457 C-46.28099822998047,19.25 -46.35100173950195,24.565000534057617 -46.73400115966797,29.87299919128418 C-47.07400131225586,34.59700012207031 -47.64799880981445,39.30699920654297 -47.89099884033203,44.034000396728516 C-48.224998474121094,50.507999420166016 -49.55099868774414,56.819000244140625 -50.78200149536133,63.14500045776367 C-51.04600143432617,64.50399780273438 -52.255001068115234,65.85600280761719 -53.696998596191406,65.69300079345703 C-57.36199951171875,65.28099822998047 -60.94300079345703,66.09500122070312 -64.5739974975586,66.05999755859375 C-66.37899780273438,66.04299926757812 -68.12799835205078,65.75900268554688 -69.89299774169922,65.55899810791016 C-72.12100219726562,65.30699920654297 -73.49400329589844,63.62200164794922 -73.89800262451172,60.625999450683594 C-74.08799743652344,59.21799850463867 -74.50800323486328,58.393001556396484 -75.83799743652344,57.53300094604492 C-78.01200103759766,56.12900161743164 -78.63700103759766,53.40399932861328 -78.70800018310547,51.05500030517578 C-78.95600128173828,42.909000396728516 -78.15899658203125,34.79899978637695 -77.29199981689453,26.69499969482422 C-76.8030014038086,22.131999969482422 -76.89199829101562,17.510000228881836 -76.50499725341797,12.932000160217285 C-75.5459976196289,1.6059999465942383 -75.50900268554688,-9.744999885559082 -75.96800231933594,-21.073999404907227 C-76.2490005493164,-28.018999099731445 -76.16699981689453,-35.03499984741211 -77.59700012207031,-41.90299987792969 C-77.9990005493164,-43.83000183105469 -77.5739974975586,-45.57099914550781 -76.79499816894531,-47.29399871826172 C-76.30000305175781,-48.38800048828125 -75.85099792480469,-49.20600128173828 -74.3010025024414,-48.534000396728516 C-72.8499984741211,-47.90599822998047 -72.4489974975586,-49.64099884033203 -71.57099914550781,-50.28799819946289 C-70.39700317382812,-51.152000427246094 -70.08799743652344,-54.007999420166016 -67.70500183105469,-51.82400131225586 C-66.26799774169922,-52.803001403808594 -65.375,-52.33700180053711 -64.5989990234375,-50.87699890136719 C-64.31700134277344,-50.34600067138672 -63.69200134277344,-50.974998474121094 -63.257999420166016,-51.2239990234375 C-62.15299987792969,-51.861000061035156 -61.15299987792969,-52.60200119018555 -60.90800094604492,-50.37200164794922 C-60.78799819946289,-49.270999908447266 -56.775001525878906,-47.91299819946289 -55.297000885009766,-47.821998596191406 C-53.48899841308594,-47.71099853515625 -51.49599838256836,-47.191001892089844 -50.56800079345703,-45.57899856567383 C-49.25600051879883,-43.29899978637695 -47.75899887084961,-41.93600082397461 -45.00600051879883,-42.5359992980957 C-44.472999572753906,-42.652000427246094 -44.45100021362305,-42.172000885009766 -44.305999755859375,-41.85499954223633 C-42.858001708984375,-38.69499969482422 -40.446998596191406,-36.14500045776367 -38.770999908447266,-33.125999450683594 C-35.37099838256836,-27.003000259399414 -31.93400001525879,-20.902000427246094 -28.52199935913086,-14.78600025177002 C-25.527999877929688,-9.418000221252441 -22.565000534057617,-4.031000137329102 -19.551000595092773,1.3259999752044678 C-18.645000457763672,2.934999942779541 -17.867000579833984,4.5980000495910645 -16.827999114990234,6.1579999923706055 C-13.529999732971191,11.109000205993652 -8.567999839782715,14.640999794006348 -5.446000099182129,19.718000411987305 C-4.7230000495910645,20.89299964904785 -4.01800012588501,20.513999938964844 -3.4000000953674316,19.610000610351562 C1.3450000286102295,12.675999641418457 5.234000205993652,5.2820000648498535 8.645000457763672,-2.38700008392334 C13.416999816894531,-13.114999771118164 16.645999908447266,-24.378000259399414 20.395999908447266,-35.4630012512207 C21.746999740600586,-39.45600128173828 23.280000686645508,-43.395999908447266 24.893999099731445,-47.29199981689453 C26.56100082397461,-51.316001892089844 27.319000244140625,-55.680999755859375 29.59600067138672,-59.474998474121094 C30.31399917602539,-60.672000885009766 30.750999450683594,-62.00199890136719 31.66900062561035,-63.13100051879883 C33.827999114990234,-65.78600311279297 36.22200012207031,-66.09500122070312 39.11800003051758,-64.32599639892578 C40.85900115966797,-63.26300048828125 42.88100051879883,-62.57600021362305 44.86199951171875,-62.01599884033203 C46.00199890136719,-61.694000244140625 46.303001403808594,-60.81100082397461 46.83399963378906,-60.099998474121094 C47.55500030517578,-59.13600158691406 48.09700012207031,-58.229000091552734 49.48400115966797,-59.137001037597656 C50.05500030517578,-59.51100158691406 50.68000030517578,-59.249000549316406 51.03200149536133,-58.683998107910156 C51.694000244140625,-57.61800003051758 52.310001373291016,-56.89099884033203 53.540000915527344,-58.1349983215332 C53.76900100708008,-58.367000579833984 54.37200164794922,-58.042999267578125 54.77000045776367,-57.356998443603516 C57.52199935913086,-52.61800003051758 57.882999420166016,-47.21500015258789 59.12300109863281,-42.08599853515625 C61.27799987792969,-33.167999267578125 62.959999084472656,-24.13599967956543 64.98300170898438,-15.184000015258789 C66.23999786376953,-9.619999885559082 67.94200134277344,-4.1539998054504395 69.125,1.4240000247955322 C71.62999725341797,13.244000434875488 75.57499694824219,24.690000534057617 78.12899780273438,36.49300003051758 C78.19200134277344,36.78300094604492 78.30999755859375,37.06800079345703 78.32599639892578,37.36000061035156 C78.56600189208984,41.694000244140625 78.95600128173828,43.84199905395508 72.95700073242188,43.02899932861328 C72.01000213623047,42.9010009765625 70.9749984741211,42.81100082397461 70.0739974975586,43.05099868774414 C66.16799926757812,44.090999603271484 62.24399948120117,43.244998931884766 58.33300018310547,43.316001892089844 C57.11899948120117,43.3380012512207 56.518001556396484,42.45600128173828 55.849998474121094,41.64899826049805 C53.13600158691406,38.36600112915039 52.053001403808594,34.29199981689453 50.45199966430664,30.479999542236328 C46.31700134277344,20.632999420166016 42.26599884033203,10.75 38.18199920654297,0.8820000290870667 C37.98699951171875,0.4090000092983246 37.803001403808594,-0.06700000166893005 37.49100112915039,-0.8489999771118164z"/></g></g><g transform="matrix(0,0,0,0,1323.8509521484375,461.7510070800781)" opacity="1" style="display: block;"><g opacity="1" transform="matrix(1,0,0,1,551.3099975585938,159.28799438476562)"><path fill="rgb(255,255,255)" fill-opacity="1" d=" M28.812000274658203,-37.01300048828125 C28.500999450683594,-32.24599838256836 27.950000762939453,-28.302000045776367 25.590999603271484,-24.863000869750977 C24.775999069213867,-23.674999237060547 25.18899917602539,-23.166000366210938 26.47100067138672,-22.913999557495117 C31.118999481201172,-22.003000259399414 35.48899841308594,-20.062999725341797 39.49700164794922,-17.809999465942383 C41.96799850463867,-16.42099952697754 44.54600143432617,-15.013999938964844 47.0890007019043,-13.989999771118164 C50.30500030517578,-12.694999694824219 52.48899841308594,-9.63599967956543 56.1510009765625,-9.25 C57.590999603271484,-9.097999572753906 57.391998291015625,-7.248000144958496 58.30799865722656,-6.335000038146973 C61.15800094604492,-3.496000051498413 63.17399978637695,-0.13099999725818634 63.744998931884766,3.9670000076293945 C64.76599884033203,11.281999588012695 63.54899978637695,18.0310001373291 58.58300018310547,23.74799919128418 C50.38999938964844,33.18199920654297 39.96900177001953,39.569000244140625 28.83099937438965,44.84299850463867 C22.125999450683594,48.016998291015625 15.28499984741211,50.880001068115234 8.293999671936035,53.45600128173828 C2.8369998931884766,55.46699905395508 -2.115000009536743,58.86000061035156 -7.695000171661377,60.770999908447266 C-10.435999870300293,61.709999084472656 -13.21399974822998,62.54399871826172 -15.984999656677246,63.39400100708008 C-16.780000686645508,63.63800048828125 -17.736000061035156,63.7760009765625 -18.378000259399414,63.292999267578125 C-21.527999877929688,60.91999816894531 -25.523000717163086,61.50400161743164 -28.954999923706055,60.1609992980957 C-29.5049991607666,59.94599914550781 -30.253000259399414,60.00899887084961 -30.64299964904785,59.65299987792969 C-33.26100158691406,57.25899887084961 -36.52299880981445,57.15399932861328 -39.78099822998047,56.79800033569336 C-43.32099914550781,56.4119987487793 -46.40999984741211,53.35900115966797 -47.0359992980957,49.30400085449219 C-48.459999084472656,40.07500076293945 -50.41400146484375,30.94700050354004 -52.03499984741211,21.756000518798828 C-53.71699905395508,12.217000007629395 -55.36899948120117,2.6670000553131104 -56.930999755859375,-6.88700008392334 C-58.125999450683594,-14.194000244140625 -60.018001556396484,-21.367000579833984 -60.87099838256836,-28.732999801635742 C-61.11199951171875,-30.81100082397461 -61.45600128173828,-32.94499969482422 -63.38100051879883,-34.4640007019043 C-64.76699829101562,-35.55699920654297 -64.62699890136719,-37.35599899291992 -64.14199829101562,-38.83000183105469 C-62.79600143432617,-42.922000885009766 -63.33100128173828,-47.13100051879883 -63.11199951171875,-51.29199981689453 C-63.077999114990234,-51.95000076293945 -63.11000061035156,-52.63100051879883 -63.2400016784668,-53.275001525878906 C-63.86000061035156,-56.354000091552734 -62.49399948120117,-58.724998474121094 -60.53300094604492,-60.85900115966797 C-59.81700134277344,-61.63800048828125 -59.505001068115234,-60.95800018310547 -59.37200164794922,-60.32899856567383 C-59.097999572753906,-59.02299880981445 -58.53499984741211,-59.111000061035156 -57.7400016784668,-59.91600036621094 C-56.86600112915039,-60.801998138427734 -56.36000061035156,-60.61000061035156 -56.18299865722656,-59.38100051879883 C-56.00600051879883,-58.1510009765625 -55.28499984741211,-58.15399932861328 -54.430999755859375,-58.71099853515625 C-53.18000030517578,-59.525001525878906 -52.48099899291992,-59.13999938964844 -52.244998931884766,-57.750999450683594 C-52.124000549316406,-57.03900146484375 -51.91999816894531,-56.71799850463867 -51.073001861572266,-56.946998596191406 C-49.667999267578125,-57.32699966430664 -49.840999603271484,-55.38399887084961 -48.56700134277344,-55.14099884033203 C-47.80400085449219,-54.994998931884766 -47.3489990234375,-54.73899841308594 -46.4630012512207,-55.077999114990234 C-41.62900161743164,-56.928001403808594 -36.85900115966797,-58.91600036621094 -31.82699966430664,-60.29399871826172 C-27.466999053955078,-61.487998962402344 -23.038000106811523,-62.01100158691406 -18.625999450683594,-62.58399963378906 C-9.446999549865723,-63.7760009765625 -1.0540000200271606,-61.1150016784668 7.0970001220703125,-57.00199890136719 C11.390000343322754,-54.83599853515625 15.043999671936035,-51.65800094604492 19.520999908447266,-49.79899978637695 C20.642000198364258,-49.33399963378906 22.211000442504883,-48.73400115966797 22.673999786376953,-47.058998107910156 C22.895000457763672,-46.25699996948242 23.908000946044922,-47.53099822998047 24.56999969482422,-46.637001037597656 C26.87299919128418,-43.5260009765625 29.197999954223633,-40.474998474121094 28.812000274658203,-37.01300048828125z M14.128000259399414,-4.6529998779296875 C11.78499984741211,-4.40500020980835 9.133999824523926,-3.999000072479248 6.46999979019165,-3.88100004196167 C4.416999816894531,-3.7890000343322754 2.7820000648498535,-2.992000102996826 1.2009999752044678,-1.8070000410079956 C-0.4000000059604645,-0.6069999933242798 -2.1019999980926514,0.46000000834465027 -3.739000082015991,1.6130000352859497 C-10.312000274658203,6.243000030517578 -17.027000427246094,10.630999565124512 -24.507999420166016,13.699999809265137 C-28.222000122070312,15.223999977111816 -28.232999801635742,15.187999725341797 -27.315000534057617,19.208999633789062 C-27.183000564575195,19.788000106811523 -27.104999542236328,20.378999710083008 -26.993999481201172,20.961999893188477 C-25.716999053955078,27.655000686645508 -24.391000747680664,34.34000015258789 -23.19300079345703,41.047000885009766 C-22.881000518798828,42.79199981689453 -21.993999481201172,43.26599884033203 -20.57699966430664,42.59700012207031 C-17.795000076293945,41.28300094604492 -14.767000198364258,40.77399826049805 -11.909000396728516,39.74300003051758 C-7.836999893188477,38.275001525878906 -4.445000171661377,35.597999572753906 -0.8230000138282776,33.323001861572266 C7.809999942779541,27.902999877929688 15.876999855041504,21.770000457763672 23.089000701904297,14.5649995803833 C25.756999969482422,11.89900016784668 28.565000534057617,9.28600025177002 30.474000930786133,6.000999927520752 C32.766998291015625,2.056999921798706 30.229999542236328,-3.0139999389648438 25.76799964904785,-3.563999891281128 C22.010000228881836,-4.026000022888184 18.22599983215332,-4.2779998779296875 14.128000259399414,-4.6529998779296875z M2.068000078201294,-37.50600051879883 C1.9210000038146973,-38.720001220703125 1.871999979019165,-39.69300079345703 1.6740000247955322,-40.632999420166016 C0.9259999990463257,-44.18600082397461 -0.3540000021457672,-45.303001403808594 -3.9170000553131104,-45.15599822998047 C-14.909000396728516,-44.70399856567383 -25.43400001525879,-42.619998931884766 -34.80500030517578,-36.374000549316406 C-38.39500045776367,-33.981998443603516 -38.481998443603516,-34.119998931884766 -37.54600143432617,-29.795000076293945 C-37.45399856567383,-29.365999221801758 -37.483001708984375,-28.913000106811523 -37.426998138427734,-28.474000930786133 C-36.797000885009766,-23.617000579833984 -35.68000030517578,-18.858999252319336 -34.4900016784668,-14.11400032043457 C-34.25299835205078,-13.170000076293945 -33.667999267578125,-12.875 -32.84000015258789,-13.180000305175781 C-29.01799964904785,-14.59000015258789 -24.858999252319336,-15.282999992370605 -21.385000228881836,-17.393999099731445 C-14.5600004196167,-21.540000915527344 -7.531000137329102,-25.434999465942383 -1.6039999723434448,-30.910999298095703 C0.4180000126361847,-32.779998779296875 1.8170000314712524,-34.959999084472656 2.068000078201294,-37.50600051879883z"/></g></g><g transform="matrix(0,0,0,0,1613,430.6679992675781)" opacity="1" style="display: block;"><g opacity="1" transform="matrix(1,0,0,1,682.2369995117188,145.41200256347656)"><path fill="rgb(255,255,255)" fill-opacity="1" d=" M56.277000427246094,40.89099884033203 C56.145999908447266,42.96699905395508 57.96099853515625,43.82699966430664 59.00299835205078,45.11399841308594 C61.388999938964844,48.06100082397461 62.4010009765625,51.65999984741211 63.82899856567383,55.0369987487793 C64.75800323486328,57.23400115966797 63.2599983215332,58.86000061035156 61.154998779296875,58.10300064086914 C55.797000885009766,56.17599868774414 50.04800033569336,56.457000732421875 44.59600067138672,54.91699981689453 C41.49700164794922,54.042999267578125 39.1870002746582,52.6349983215332 37.40599822998047,50.138999938964844 C31.326000213623047,41.61899948120117 25.236000061035156,33.10499954223633 19.22800064086914,24.534000396728516 C18.12700080871582,22.96299934387207 17.011999130249023,22.527000427246094 15.104999542236328,22.945999145507812 C1.8869999647140503,25.85099983215332 -11.28600025177002,28.929000854492188 -24.405000686645508,32.263999938964844 C-27.091999053955078,32.946998596191406 -27.770000457763672,34.340999603271484 -28.3700008392334,36.32899856567383 C-30.847999572753906,44.553001403808594 -33.3129997253418,52.78200149536133 -35.67599868774414,61.03900146484375 C-36.150001525878906,62.69599914550781 -37.0880012512207,63.387001037597656 -38.571998596191406,62.94200134277344 C-43.08300018310547,61.59000015258789 -47.84400177001953,62.3120002746582 -52.393001556396484,61.03900146484375 C-55.292999267578125,60.22700119018555 -58.05400085449219,59.00899887084961 -61.047000885009766,58.42100143432617 C-63.49599838256836,57.939998626708984 -64.75800323486328,55.29199981689453 -64.20500183105469,52.82400131225586 C-63.0620002746582,47.72600173950195 -60.590999603271484,43.119998931884766 -58.70399856567383,38.297000885009766 C-56.516998291015625,32.709999084472656 -54.4119987487793,27.091999053955078 -52.27799987792969,21.485000610351562 C-52.027000427246094,20.82699966430664 -51.42599868774414,20.11199951171875 -52.3489990234375,19.524999618530273 C-53.33000183105469,18.899999618530273 -54.78300094604492,18.547000885009766 -54.499000549316406,17.042999267578125 C-54.196998596191406,15.447999954223633 -53.60100173950195,13.428000450134277 -52.145999908447266,12.949000358581543 C-47.071998596191406,11.281000137329102 -46.805999755859375,6.5370001792907715 -45.36600112915039,2.739000082015991 C-43.32400131225586,-2.6470000743865967 -41.678001403808594,-8.208000183105469 -39.71099853515625,-13.619999885559082 C-37.32699966430664,-20.179000854492188 -35.03499984741211,-26.739999771118164 -33.07500076293945,-33.439998626708984 C-31.415000915527344,-39.1150016784668 -29.284000396728516,-44.6510009765625 -27.386999130249023,-50.25699996948242 C-26.913000106811523,-51.65700149536133 -26.253999710083008,-53.07500076293945 -26.176000595092773,-54.51100158691406 C-26.01799964904785,-57.387001037597656 -24.165000915527344,-59.222999572753906 -22.54400062561035,-61.21699905395508 C-21.888999938964844,-62.02299880981445 -21.172000885009766,-62.755001068115234 -20.025999069213867,-61.479000091552734 C-18.902999877929688,-60.229000091552734 -17.746000289916992,-61.72800064086914 -16.617000579833984,-61.946998596191406 C-15.730999946594238,-62.11899948120117 -15.031000137329102,-63.387001037597656 -14.017999649047852,-62.0620002746582 C-13.722999572753906,-61.67599868774414 -13.187999725341797,-62.09299850463867 -12.793000221252441,-62.27399826049805 C-12.388999938964844,-62.45899963378906 -11.604999542236328,-62.74599838256836 -11.58899974822998,-62.54600143432617 C-11.347999572753906,-59.57099914550781 -6.861000061035156,-62.1879997253418 -6.8979997634887695,-58.959999084472656 C-4.76200008392334,-59.4370002746582 -4.885000228881836,-56.672000885009766 -3.4739999771118164,-56.47600173950195 C-1.5789999961853027,-56.2130012512207 -0.05299999937415123,-55.09000015258789 1.6089999675750732,-54.69300079345703 C2.5989999771118164,-54.457000732421875 3.0280001163482666,-54.30799865722656 3.5409998893737793,-53.53099822998047 C5.113999843597412,-51.1510009765625 5.603000164031982,-48.31100082397461 6.9070000648498535,-45.83300018310547 C8.670000076293945,-42.48400115966797 10.461000442504883,-39.1349983215332 12.211999893188477,-35.79399871826172 C13.678000450134277,-32.99700164794922 15.524999618530273,-30.41900062561035 17.38599967956543,-28.091999053955078 C20.211000442504883,-24.55699920654297 22.049999237060547,-20.44499969482422 24.92099952697754,-16.975000381469727 C27.072999954223633,-14.375 28.555999755859375,-11.225000381469727 30.69700050354004,-8.614999771118164 C34.715999603271484,-3.7160000801086426 38.119998931884766,1.6369999647140503 42.22999954223633,6.4670000076293945 C45.935001373291016,10.821000099182129 49.04100036621094,15.635000228881836 52.34400177001953,20.29800033569336 C54.742000579833984,23.683000564575195 56.7869987487793,27.253999710083008 58.80799865722656,30.863000869750977 C60.104000091552734,33.176998138427734 60.00400161743164,35.73099899291992 60.44499969482422,38.15700149536133 C60.82500076293945,40.24399948120117 59.40700149536133,40.97999954223633 56.277000427246094,40.89099884033203z M-8.425999641418457,-21.91200065612793 C-10.095000267028809,-18.43000030517578 -10.538999557495117,-15.019000053405762 -11.722999572753906,-11.847000122070312 C-13.687999725341797,-6.584000110626221 -15.482999801635742,-1.2569999694824219 -17.361000061035156,4.038000106811523 C-17.79199981689453,5.252999782562256 -17.82699966430664,6.124000072479248 -16.11199951171875,5.711999893188477 C-13.600000381469727,5.107999801635742 -11.029000282287598,4.752999782562256 -8.5,4.296999931335449 C-4.572999954223633,3.5880000591278076 -0.8629999756813049,1.9010000228881836 3.1630001068115234,1.781000018119812 C4.611000061035156,1.7380000352859497 4.638999938964844,1.1100000143051147 4.0960001945495605,0.10499999672174454 C3.496999979019165,-1.003999948501587 2.8519999980926514,-2.0880000591278076 2.2290000915527344,-3.184000015258789 C-1.246999979019165,-9.291999816894531 -4.7220001220703125,-15.401000022888184 -8.425999641418457,-21.91200065612793z"/></g></g></g></svg>